G75*
%MOIN*%
%OFA0B0*%
%FSLAX25Y25*%
%IPPOS*%
%LPD*%
%AMOC8*
5,1,8,0,0,1.08239X$1,22.5*
%
%ADD10R,0.04331X0.03937*%
%ADD11R,0.03937X0.04331*%
%ADD12R,0.03543X0.02756*%
%ADD13R,0.02756X0.03543*%
%ADD14R,0.00984X0.01575*%
%ADD15R,0.01575X0.00984*%
%ADD16R,0.10236X0.10236*%
%ADD17R,0.01260X0.02165*%
%ADD18R,0.02165X0.01260*%
%ADD19R,0.06693X0.03937*%
%ADD20R,0.02362X0.01181*%
%ADD21R,0.01181X0.02362*%
%ADD22R,0.03937X0.06693*%
%ADD23R,0.14567X0.14567*%
%ADD24R,0.01575X0.02362*%
%ADD25R,0.07480X0.04331*%
%ADD26R,0.02756X0.05906*%
%ADD27R,0.03937X0.02362*%
%ADD28R,0.03937X0.03150*%
D10*
X0128154Y0119500D03*
X0134846Y0119500D03*
X0142154Y0119500D03*
X0148846Y0119500D03*
X0165154Y0115500D03*
X0171846Y0115500D03*
X0173846Y0149500D03*
X0167154Y0149500D03*
X0134846Y0149500D03*
X0128154Y0149500D03*
X0128154Y0159500D03*
X0134846Y0159500D03*
X0134846Y0169500D03*
X0128154Y0169500D03*
X0118846Y0169500D03*
X0112154Y0169500D03*
X0112154Y0159500D03*
X0118846Y0159500D03*
X0118846Y0149500D03*
X0112154Y0149500D03*
X0112154Y0139500D03*
X0118846Y0139500D03*
X0128154Y0139500D03*
X0134846Y0139500D03*
X0134846Y0129500D03*
X0128154Y0129500D03*
X0128154Y0179500D03*
X0134846Y0179500D03*
X0115846Y0192500D03*
X0109154Y0192500D03*
X0109154Y0203500D03*
X0115846Y0203500D03*
X0137154Y0197500D03*
X0143846Y0197500D03*
X0152154Y0199500D03*
X0158846Y0199500D03*
X0146846Y0207500D03*
X0140154Y0207500D03*
X0114846Y0224500D03*
X0108154Y0224500D03*
X0183154Y0192500D03*
X0189846Y0192500D03*
X0201154Y0237500D03*
X0207846Y0237500D03*
X0219154Y0118500D03*
X0225846Y0118500D03*
D11*
X0209500Y0152154D03*
X0209500Y0158846D03*
X0168500Y0132846D03*
X0168500Y0126154D03*
X0127500Y0206154D03*
X0127500Y0212846D03*
D12*
X0144500Y0133059D03*
X0144500Y0127941D03*
D13*
X0143941Y0139500D03*
X0149059Y0139500D03*
X0149059Y0146500D03*
X0143941Y0146500D03*
D14*
X0186563Y0132587D03*
X0188531Y0132587D03*
X0190500Y0132587D03*
X0192469Y0132587D03*
X0194437Y0132587D03*
X0194437Y0118413D03*
X0192469Y0118413D03*
X0190500Y0118413D03*
X0188531Y0118413D03*
X0186563Y0118413D03*
X0182390Y0202445D03*
X0180421Y0202445D03*
X0178453Y0202445D03*
X0176484Y0202445D03*
X0174516Y0202445D03*
X0172547Y0202445D03*
X0170579Y0202445D03*
X0168610Y0202445D03*
X0168610Y0220555D03*
X0170579Y0220555D03*
X0172547Y0220555D03*
X0174516Y0220555D03*
X0176484Y0220555D03*
X0178453Y0220555D03*
X0180421Y0220555D03*
X0182390Y0220555D03*
D15*
X0184555Y0218390D03*
X0184555Y0216421D03*
X0184555Y0214453D03*
X0184555Y0212484D03*
X0184555Y0210516D03*
X0184555Y0208547D03*
X0184555Y0206579D03*
X0184555Y0204610D03*
X0166445Y0204610D03*
X0166445Y0206579D03*
X0166445Y0208547D03*
X0166445Y0210516D03*
X0166445Y0212484D03*
X0166445Y0214453D03*
X0166445Y0216421D03*
X0166445Y0218390D03*
X0183413Y0129437D03*
X0183413Y0127469D03*
X0183413Y0125500D03*
X0183413Y0123531D03*
X0183413Y0121563D03*
X0197587Y0121563D03*
X0197587Y0123531D03*
X0197587Y0125500D03*
X0197587Y0127469D03*
X0197587Y0129437D03*
D16*
X0190500Y0125500D03*
D17*
X0175681Y0169957D03*
X0173319Y0169957D03*
X0173319Y0177043D03*
X0175681Y0177043D03*
D18*
X0178043Y0175862D03*
X0178043Y0173500D03*
X0178043Y0171138D03*
X0170957Y0171138D03*
X0170957Y0173500D03*
X0170957Y0175862D03*
D19*
X0112500Y0123421D03*
X0112500Y0113579D03*
D20*
X0152382Y0169563D03*
X0152382Y0171531D03*
X0152382Y0173500D03*
X0152382Y0175469D03*
X0152382Y0177437D03*
X0162618Y0177437D03*
X0162618Y0175469D03*
X0162618Y0173500D03*
X0162618Y0171531D03*
X0162618Y0169563D03*
X0194382Y0170531D03*
X0194382Y0168563D03*
X0194382Y0172500D03*
X0194382Y0174469D03*
X0194382Y0176437D03*
X0204618Y0176437D03*
X0204618Y0174469D03*
X0204618Y0172500D03*
X0204618Y0170531D03*
X0204618Y0168563D03*
D21*
X0201469Y0167382D03*
X0199500Y0167382D03*
X0197531Y0167382D03*
X0197531Y0177618D03*
X0199500Y0177618D03*
X0201469Y0177618D03*
X0159469Y0178618D03*
X0157500Y0178618D03*
X0155531Y0178618D03*
X0155531Y0168382D03*
X0157500Y0168382D03*
X0159469Y0168382D03*
D22*
X0139421Y0229500D03*
X0129579Y0229500D03*
D23*
X0175500Y0211500D03*
D24*
X0200413Y0217161D03*
X0205138Y0217161D03*
X0209862Y0217161D03*
X0214587Y0217161D03*
X0214587Y0199839D03*
X0209862Y0199839D03*
X0205138Y0199839D03*
X0200413Y0199839D03*
D25*
X0180783Y0228972D03*
X0180783Y0238028D03*
X0166217Y0238028D03*
X0166217Y0228972D03*
X0182217Y0153028D03*
X0182217Y0143972D03*
X0196783Y0143972D03*
X0196783Y0153028D03*
D26*
X0142358Y0110390D03*
X0136453Y0110390D03*
X0124642Y0110390D03*
D27*
X0119130Y0099563D03*
X0147870Y0099563D03*
D28*
X0147870Y0107831D03*
X0119130Y0107831D03*
M02*
