G75*
%MOIN*%
%OFA0B0*%
%FSLAX25Y25*%
%IPPOS*%
%LPD*%
%AMOC8*
5,1,8,0,0,1.08239X$1,22.5*
%
%ADD10R,0.04737X0.05131*%
%ADD11R,0.05131X0.04737*%
%ADD12R,0.05600X0.09600*%
%ADD13R,0.14973X0.09461*%
%ADD14C,0.08200*%
%ADD15C,0.04343*%
%ADD16C,0.04400*%
D10*
X0110500Y0113154D03*
X0110500Y0119846D03*
X0127500Y0209154D03*
X0127500Y0215846D03*
D11*
X0141154Y0222500D03*
X0147846Y0222500D03*
X0145846Y0233500D03*
X0139154Y0233500D03*
X0130846Y0233500D03*
X0124154Y0233500D03*
D12*
X0121500Y0170700D03*
X0112400Y0170700D03*
X0130600Y0170700D03*
D13*
X0121500Y0146299D03*
D14*
X0096800Y0100500D03*
X0108200Y0100500D03*
X0097500Y0114500D03*
X0097500Y0124500D03*
X0097500Y0134500D03*
X0097500Y0144500D03*
X0097500Y0154500D03*
X0097500Y0164500D03*
X0097500Y0174500D03*
X0097500Y0184500D03*
X0097500Y0194500D03*
X0097500Y0204500D03*
X0097500Y0214500D03*
X0097500Y0224500D03*
X0096800Y0238500D03*
X0108200Y0238500D03*
X0224800Y0238500D03*
X0236200Y0238500D03*
X0235500Y0209500D03*
X0235500Y0199500D03*
X0235500Y0189500D03*
X0235500Y0179500D03*
X0235500Y0169500D03*
X0235500Y0159500D03*
X0235500Y0149500D03*
X0235500Y0139500D03*
X0235500Y0129500D03*
X0236200Y0100500D03*
X0224800Y0100500D03*
X0172200Y0100500D03*
X0160800Y0100500D03*
D15*
X0139406Y0103500D03*
X0127594Y0103500D03*
D16*
X0127500Y0097500D03*
X0119500Y0114500D03*
X0122500Y0127500D03*
X0132500Y0134500D03*
X0149500Y0129500D03*
X0154500Y0131500D03*
X0171500Y0138500D03*
X0179500Y0137500D03*
X0177500Y0125500D03*
X0183500Y0114500D03*
X0190500Y0114500D03*
X0191500Y0105500D03*
X0175500Y0109500D03*
X0152500Y0111500D03*
X0148500Y0152500D03*
X0141500Y0153500D03*
X0153500Y0160500D03*
X0149500Y0165500D03*
X0161500Y0164500D03*
X0166500Y0164500D03*
X0172500Y0160500D03*
X0182500Y0164500D03*
X0182500Y0171500D03*
X0187500Y0171500D03*
X0189500Y0176500D03*
X0184500Y0180500D03*
X0192500Y0184500D03*
X0201500Y0182500D03*
X0200500Y0190500D03*
X0205500Y0193500D03*
X0211500Y0190500D03*
X0211500Y0182500D03*
X0217500Y0177500D03*
X0222500Y0181500D03*
X0210500Y0166500D03*
X0199500Y0172500D03*
X0191500Y0164500D03*
X0196500Y0159500D03*
X0221500Y0158500D03*
X0225500Y0162500D03*
X0210500Y0136500D03*
X0207500Y0130500D03*
X0201500Y0134500D03*
X0209500Y0114500D03*
X0225500Y0131500D03*
X0171500Y0183500D03*
X0166500Y0179500D03*
X0156500Y0183500D03*
X0150500Y0182500D03*
X0145500Y0181500D03*
X0143500Y0176500D03*
X0135500Y0186500D03*
X0128500Y0186500D03*
X0128500Y0192500D03*
X0121500Y0191500D03*
X0130500Y0199500D03*
X0144500Y0189500D03*
X0166500Y0190500D03*
X0170500Y0197500D03*
X0177500Y0190500D03*
X0177500Y0208500D03*
X0160500Y0210500D03*
X0148500Y0214500D03*
X0162500Y0223500D03*
X0158500Y0232500D03*
X0195500Y0225500D03*
X0198500Y0229500D03*
X0207500Y0222500D03*
X0211500Y0211500D03*
X0201500Y0211500D03*
X0220500Y0228500D03*
X0160500Y0155500D03*
X0114500Y0177500D03*
X0110500Y0216500D03*
X0110500Y0131500D03*
M02*
