G75*
%MOIN*%
%OFA0B0*%
%FSLAX25Y25*%
%IPPOS*%
%LPD*%
%AMOC8*
5,1,8,0,0,1.08239X$1,22.5*
%
%ADD10C,0.02200*%
%ADD11C,0.00800*%
%ADD12C,0.00197*%
%ADD13R,0.01800X0.03000*%
%ADD14C,0.00157*%
%ADD15C,0.00500*%
%ADD16R,0.01378X0.00984*%
%ADD17R,0.00984X0.01378*%
D10*
X0131500Y0119380D02*
X0131500Y0119620D01*
X0131500Y0129380D02*
X0131500Y0129620D01*
X0131500Y0139380D02*
X0131500Y0139620D01*
X0131500Y0149380D02*
X0131500Y0149620D01*
X0115500Y0149620D02*
X0115500Y0149380D01*
X0115500Y0159380D02*
X0115500Y0159620D01*
X0115500Y0169380D02*
X0115500Y0169620D01*
X0112500Y0192380D02*
X0112500Y0192620D01*
X0112500Y0203380D02*
X0112500Y0203620D01*
X0127380Y0209500D02*
X0127620Y0209500D01*
X0140500Y0197620D02*
X0140500Y0197380D01*
X0111500Y0224380D02*
X0111500Y0224620D01*
X0204500Y0237380D02*
X0204500Y0237620D01*
X0209380Y0155500D02*
X0209620Y0155500D01*
X0168620Y0129500D02*
X0168380Y0129500D01*
X0168500Y0115620D02*
X0168500Y0115380D01*
X0145500Y0119380D02*
X0145500Y0119620D01*
X0115500Y0139380D02*
X0115500Y0139620D01*
D11*
X0100000Y0095500D02*
X0095000Y0095500D01*
X0092500Y0098000D01*
X0092500Y0103000D01*
X0095000Y0105500D01*
X0100000Y0105500D01*
X0102500Y0103000D01*
X0105000Y0105500D01*
X0110000Y0105500D01*
X0112500Y0103000D01*
X0112500Y0098000D01*
X0110000Y0095500D01*
X0105000Y0095500D01*
X0102500Y0098000D01*
X0100000Y0095500D01*
X0100000Y0109500D02*
X0095000Y0109500D01*
X0092500Y0112000D01*
X0092500Y0117000D01*
X0095000Y0119500D01*
X0092500Y0122000D01*
X0092500Y0127000D01*
X0095000Y0129500D01*
X0092500Y0132000D01*
X0092500Y0137000D01*
X0095000Y0139500D01*
X0092500Y0142000D01*
X0092500Y0147000D01*
X0095000Y0149500D01*
X0092500Y0152000D01*
X0092500Y0157000D01*
X0095000Y0159500D01*
X0092500Y0162000D01*
X0092500Y0167000D01*
X0095000Y0169500D01*
X0092500Y0172000D01*
X0092500Y0177000D01*
X0095000Y0179500D01*
X0092500Y0182000D01*
X0092500Y0187000D01*
X0095000Y0189500D01*
X0092500Y0192000D01*
X0092500Y0197000D01*
X0095000Y0199500D01*
X0092500Y0202000D01*
X0092500Y0207000D01*
X0095000Y0209500D01*
X0092500Y0212000D01*
X0092500Y0217000D01*
X0095000Y0219500D01*
X0092500Y0222000D01*
X0092500Y0227000D01*
X0095000Y0229500D01*
X0100000Y0229500D01*
X0102500Y0227000D01*
X0102500Y0222000D01*
X0100000Y0219500D01*
X0102500Y0217000D01*
X0102500Y0212000D01*
X0100000Y0209500D01*
X0102500Y0207000D01*
X0102500Y0202000D01*
X0100000Y0199500D01*
X0102500Y0197000D01*
X0102500Y0192000D01*
X0100000Y0189500D01*
X0102500Y0187000D01*
X0102500Y0182000D01*
X0100000Y0179500D01*
X0102500Y0177000D01*
X0102500Y0172000D01*
X0100000Y0169500D01*
X0102500Y0167000D01*
X0102500Y0162000D01*
X0100000Y0159500D01*
X0102500Y0157000D01*
X0102500Y0152000D01*
X0100000Y0149500D01*
X0102500Y0147000D01*
X0102500Y0142000D01*
X0100000Y0139500D01*
X0102500Y0137000D01*
X0102500Y0132000D01*
X0100000Y0129500D01*
X0102500Y0127000D01*
X0102500Y0122000D01*
X0100000Y0119500D01*
X0102500Y0117000D01*
X0102500Y0112000D01*
X0100000Y0109500D01*
X0109000Y0116500D02*
X0109000Y0120500D01*
X0116000Y0120500D02*
X0116000Y0116500D01*
X0120311Y0104681D02*
X0120311Y0102319D01*
X0122870Y0098382D02*
X0144130Y0098382D01*
X0146689Y0102319D02*
X0146689Y0104681D01*
X0156500Y0103000D02*
X0156500Y0098000D01*
X0159000Y0095500D01*
X0164000Y0095500D01*
X0166500Y0098000D01*
X0169000Y0095500D01*
X0174000Y0095500D01*
X0176500Y0098000D01*
X0176500Y0103000D01*
X0174000Y0105500D01*
X0169000Y0105500D01*
X0166500Y0103000D01*
X0164000Y0105500D01*
X0159000Y0105500D01*
X0156500Y0103000D01*
X0133500Y0108618D02*
X0127594Y0108618D01*
X0179657Y0147319D02*
X0179657Y0149681D01*
X0187138Y0154799D02*
X0191862Y0154799D01*
X0199343Y0149681D02*
X0199343Y0147319D01*
X0191862Y0142201D02*
X0187138Y0142201D01*
X0230500Y0142000D02*
X0230500Y0137000D01*
X0233000Y0134500D01*
X0230500Y0132000D01*
X0230500Y0127000D01*
X0233000Y0124500D01*
X0238000Y0124500D01*
X0240500Y0127000D01*
X0240500Y0132000D01*
X0238000Y0134500D01*
X0240500Y0137000D01*
X0240500Y0142000D01*
X0238000Y0144500D01*
X0240500Y0147000D01*
X0240500Y0152000D01*
X0238000Y0154500D01*
X0240500Y0157000D01*
X0240500Y0162000D01*
X0238000Y0164500D01*
X0240500Y0167000D01*
X0240500Y0172000D01*
X0238000Y0174500D01*
X0240500Y0177000D01*
X0240500Y0182000D01*
X0238000Y0184500D01*
X0240500Y0187000D01*
X0240500Y0192000D01*
X0238000Y0194500D01*
X0240500Y0197000D01*
X0240500Y0202000D01*
X0238000Y0204500D01*
X0240500Y0207000D01*
X0240500Y0212000D01*
X0238000Y0214500D01*
X0233000Y0214500D01*
X0230500Y0212000D01*
X0230500Y0207000D01*
X0233000Y0204500D01*
X0230500Y0202000D01*
X0230500Y0197000D01*
X0233000Y0194500D01*
X0230500Y0192000D01*
X0230500Y0187000D01*
X0233000Y0184500D01*
X0230500Y0182000D01*
X0230500Y0177000D01*
X0233000Y0174500D01*
X0230500Y0172000D01*
X0230500Y0167000D01*
X0233000Y0164500D01*
X0230500Y0162000D01*
X0230500Y0157000D01*
X0233000Y0154500D01*
X0230500Y0152000D01*
X0230500Y0147000D01*
X0233000Y0144500D01*
X0230500Y0142000D01*
X0228000Y0105500D02*
X0223000Y0105500D01*
X0220500Y0103000D01*
X0220500Y0098000D01*
X0223000Y0095500D01*
X0228000Y0095500D01*
X0230500Y0098000D01*
X0233000Y0095500D01*
X0238000Y0095500D01*
X0240500Y0098000D01*
X0240500Y0103000D01*
X0238000Y0105500D01*
X0233000Y0105500D01*
X0230500Y0103000D01*
X0228000Y0105500D01*
X0136500Y0226000D02*
X0132500Y0226000D01*
X0132500Y0233000D02*
X0136500Y0233000D01*
X0112500Y0236000D02*
X0112500Y0241000D01*
X0110000Y0243500D01*
X0105000Y0243500D01*
X0102500Y0241000D01*
X0100000Y0243500D01*
X0095000Y0243500D01*
X0092500Y0241000D01*
X0092500Y0236000D01*
X0095000Y0233500D01*
X0100000Y0233500D01*
X0102500Y0236000D01*
X0105000Y0233500D01*
X0110000Y0233500D01*
X0112500Y0236000D01*
X0163657Y0234681D02*
X0163657Y0232319D01*
X0171138Y0227201D02*
X0175862Y0227201D01*
X0183343Y0232319D02*
X0183343Y0234681D01*
X0175862Y0239799D02*
X0171138Y0239799D01*
X0220500Y0241000D02*
X0220500Y0236000D01*
X0223000Y0233500D01*
X0228000Y0233500D01*
X0230500Y0236000D01*
X0233000Y0233500D01*
X0238000Y0233500D01*
X0240500Y0236000D01*
X0240500Y0241000D01*
X0238000Y0243500D01*
X0233000Y0243500D01*
X0230500Y0241000D01*
X0228000Y0243500D01*
X0223000Y0243500D01*
X0220500Y0241000D01*
D12*
X0196359Y0119398D02*
X0196361Y0119440D01*
X0196367Y0119481D01*
X0196377Y0119522D01*
X0196391Y0119562D01*
X0196408Y0119600D01*
X0196429Y0119636D01*
X0196453Y0119670D01*
X0196481Y0119702D01*
X0196511Y0119731D01*
X0196544Y0119756D01*
X0196579Y0119779D01*
X0196616Y0119798D01*
X0196655Y0119814D01*
X0196695Y0119826D01*
X0196736Y0119834D01*
X0196778Y0119838D01*
X0196820Y0119838D01*
X0196862Y0119834D01*
X0196903Y0119826D01*
X0196943Y0119814D01*
X0196982Y0119798D01*
X0197019Y0119779D01*
X0197054Y0119756D01*
X0197087Y0119731D01*
X0197117Y0119702D01*
X0197145Y0119670D01*
X0197169Y0119636D01*
X0197190Y0119600D01*
X0197207Y0119562D01*
X0197221Y0119522D01*
X0197231Y0119481D01*
X0197237Y0119440D01*
X0197239Y0119398D01*
X0197237Y0119356D01*
X0197231Y0119315D01*
X0197221Y0119274D01*
X0197207Y0119234D01*
X0197190Y0119196D01*
X0197169Y0119160D01*
X0197145Y0119126D01*
X0197117Y0119094D01*
X0197087Y0119065D01*
X0197054Y0119040D01*
X0197019Y0119017D01*
X0196982Y0118998D01*
X0196943Y0118982D01*
X0196903Y0118970D01*
X0196862Y0118962D01*
X0196820Y0118958D01*
X0196778Y0118958D01*
X0196736Y0118962D01*
X0196695Y0118970D01*
X0196655Y0118982D01*
X0196616Y0118998D01*
X0196579Y0119017D01*
X0196544Y0119040D01*
X0196511Y0119065D01*
X0196481Y0119094D01*
X0196453Y0119126D01*
X0196429Y0119160D01*
X0196408Y0119196D01*
X0196391Y0119234D01*
X0196377Y0119274D01*
X0196367Y0119315D01*
X0196361Y0119356D01*
X0196359Y0119398D01*
D13*
X0222500Y0118500D03*
X0170500Y0149500D03*
X0131500Y0159500D03*
X0131500Y0169500D03*
X0131500Y0179500D03*
X0155500Y0199500D03*
X0143500Y0207500D03*
X0186500Y0192500D03*
D14*
X0179421Y0178421D02*
X0169579Y0178421D01*
X0169579Y0168579D01*
X0179421Y0168579D01*
X0179421Y0178421D01*
D15*
X0176889Y0178963D02*
X0176891Y0178994D01*
X0176897Y0179025D01*
X0176906Y0179055D01*
X0176920Y0179083D01*
X0176937Y0179109D01*
X0176956Y0179133D01*
X0176979Y0179155D01*
X0177005Y0179173D01*
X0177032Y0179188D01*
X0177061Y0179200D01*
X0177091Y0179208D01*
X0177122Y0179212D01*
X0177154Y0179212D01*
X0177185Y0179208D01*
X0177215Y0179200D01*
X0177244Y0179188D01*
X0177271Y0179173D01*
X0177297Y0179155D01*
X0177320Y0179133D01*
X0177339Y0179109D01*
X0177356Y0179083D01*
X0177370Y0179055D01*
X0177379Y0179025D01*
X0177385Y0178994D01*
X0177387Y0178963D01*
X0177385Y0178932D01*
X0177379Y0178901D01*
X0177370Y0178871D01*
X0177356Y0178843D01*
X0177339Y0178817D01*
X0177320Y0178793D01*
X0177297Y0178771D01*
X0177271Y0178753D01*
X0177244Y0178738D01*
X0177215Y0178726D01*
X0177185Y0178718D01*
X0177154Y0178714D01*
X0177122Y0178714D01*
X0177091Y0178718D01*
X0177061Y0178726D01*
X0177032Y0178738D01*
X0177005Y0178753D01*
X0176979Y0178771D01*
X0176956Y0178793D01*
X0176937Y0178817D01*
X0176920Y0178843D01*
X0176906Y0178871D01*
X0176897Y0178901D01*
X0176891Y0178932D01*
X0176889Y0178963D01*
X0163406Y0179406D02*
X0163406Y0167594D01*
X0151594Y0167594D01*
X0151594Y0177437D01*
X0153563Y0179406D01*
X0163406Y0179406D01*
X0193594Y0176437D02*
X0193594Y0166594D01*
X0205406Y0166594D01*
X0205406Y0178406D01*
X0195563Y0178406D01*
X0193594Y0176437D01*
D16*
X0194677Y0176437D03*
X0194677Y0174469D03*
X0194677Y0172500D03*
X0194677Y0170531D03*
X0194677Y0168563D03*
X0204323Y0168563D03*
X0204323Y0170531D03*
X0204323Y0172500D03*
X0204323Y0174469D03*
X0204323Y0176437D03*
X0162323Y0175469D03*
X0162323Y0177437D03*
X0162323Y0173500D03*
X0162323Y0171531D03*
X0162323Y0169563D03*
X0152677Y0169563D03*
X0152677Y0171531D03*
X0152677Y0173500D03*
X0152677Y0175469D03*
X0152677Y0177437D03*
D17*
X0155531Y0178323D03*
X0157500Y0178323D03*
X0159469Y0178323D03*
X0159469Y0168677D03*
X0157500Y0168677D03*
X0155531Y0168677D03*
X0197531Y0167677D03*
X0199500Y0167677D03*
X0201469Y0167677D03*
X0201469Y0177323D03*
X0199500Y0177323D03*
X0197531Y0177323D03*
M02*
