G75*
%MOIN*%
%OFA0B0*%
%FSLAX25Y25*%
%IPPOS*%
%LPD*%
%AMOC8*
5,1,8,0,0,1.08239X$1,22.5*
%
%ADD10C,0.00000*%
%ADD11R,0.04331X0.03937*%
%ADD12R,0.03937X0.04331*%
%ADD13C,0.07400*%
%ADD14R,0.03543X0.02756*%
%ADD15R,0.02756X0.03543*%
%ADD16C,0.00197*%
%ADD17R,0.00984X0.01575*%
%ADD18R,0.01575X0.00984*%
%ADD19R,0.10236X0.10236*%
%ADD20R,0.01260X0.02165*%
%ADD21R,0.02165X0.01260*%
%ADD22R,0.06693X0.03937*%
%ADD23R,0.02362X0.01181*%
%ADD24R,0.01181X0.02362*%
%ADD25R,0.03937X0.06693*%
%ADD26R,0.14567X0.14567*%
%ADD27R,0.01575X0.02362*%
%ADD28C,0.00039*%
%ADD29C,0.00200*%
%ADD30R,0.07480X0.04331*%
%ADD31R,0.02756X0.05906*%
%ADD32R,0.03937X0.02362*%
%ADD33R,0.03937X0.03150*%
%ADD34C,0.01000*%
%ADD35C,0.03600*%
%ADD36C,0.00800*%
D10*
X0091500Y0094500D02*
X0091500Y0244500D01*
X0241500Y0244500D01*
X0241500Y0094500D01*
X0091500Y0094500D01*
X0125822Y0103500D02*
X0125824Y0103584D01*
X0125830Y0103667D01*
X0125840Y0103750D01*
X0125854Y0103833D01*
X0125871Y0103915D01*
X0125893Y0103996D01*
X0125918Y0104075D01*
X0125947Y0104154D01*
X0125980Y0104231D01*
X0126016Y0104306D01*
X0126056Y0104380D01*
X0126099Y0104452D01*
X0126146Y0104521D01*
X0126196Y0104588D01*
X0126249Y0104653D01*
X0126305Y0104715D01*
X0126363Y0104775D01*
X0126425Y0104832D01*
X0126489Y0104885D01*
X0126556Y0104936D01*
X0126625Y0104983D01*
X0126696Y0105028D01*
X0126769Y0105068D01*
X0126844Y0105105D01*
X0126921Y0105139D01*
X0126999Y0105169D01*
X0127078Y0105195D01*
X0127159Y0105218D01*
X0127241Y0105236D01*
X0127323Y0105251D01*
X0127406Y0105262D01*
X0127489Y0105269D01*
X0127573Y0105272D01*
X0127657Y0105271D01*
X0127740Y0105266D01*
X0127824Y0105257D01*
X0127906Y0105244D01*
X0127988Y0105228D01*
X0128069Y0105207D01*
X0128150Y0105183D01*
X0128228Y0105155D01*
X0128306Y0105123D01*
X0128382Y0105087D01*
X0128456Y0105048D01*
X0128528Y0105006D01*
X0128598Y0104960D01*
X0128666Y0104911D01*
X0128731Y0104859D01*
X0128794Y0104804D01*
X0128854Y0104746D01*
X0128912Y0104685D01*
X0128966Y0104621D01*
X0129018Y0104555D01*
X0129066Y0104487D01*
X0129111Y0104416D01*
X0129152Y0104343D01*
X0129191Y0104269D01*
X0129225Y0104193D01*
X0129256Y0104115D01*
X0129283Y0104036D01*
X0129307Y0103955D01*
X0129326Y0103874D01*
X0129342Y0103792D01*
X0129354Y0103709D01*
X0129362Y0103625D01*
X0129366Y0103542D01*
X0129366Y0103458D01*
X0129362Y0103375D01*
X0129354Y0103291D01*
X0129342Y0103208D01*
X0129326Y0103126D01*
X0129307Y0103045D01*
X0129283Y0102964D01*
X0129256Y0102885D01*
X0129225Y0102807D01*
X0129191Y0102731D01*
X0129152Y0102657D01*
X0129111Y0102584D01*
X0129066Y0102513D01*
X0129018Y0102445D01*
X0128966Y0102379D01*
X0128912Y0102315D01*
X0128854Y0102254D01*
X0128794Y0102196D01*
X0128731Y0102141D01*
X0128666Y0102089D01*
X0128598Y0102040D01*
X0128528Y0101994D01*
X0128456Y0101952D01*
X0128382Y0101913D01*
X0128306Y0101877D01*
X0128228Y0101845D01*
X0128150Y0101817D01*
X0128069Y0101793D01*
X0127988Y0101772D01*
X0127906Y0101756D01*
X0127824Y0101743D01*
X0127740Y0101734D01*
X0127657Y0101729D01*
X0127573Y0101728D01*
X0127489Y0101731D01*
X0127406Y0101738D01*
X0127323Y0101749D01*
X0127241Y0101764D01*
X0127159Y0101782D01*
X0127078Y0101805D01*
X0126999Y0101831D01*
X0126921Y0101861D01*
X0126844Y0101895D01*
X0126769Y0101932D01*
X0126696Y0101972D01*
X0126625Y0102017D01*
X0126556Y0102064D01*
X0126489Y0102115D01*
X0126425Y0102168D01*
X0126363Y0102225D01*
X0126305Y0102285D01*
X0126249Y0102347D01*
X0126196Y0102412D01*
X0126146Y0102479D01*
X0126099Y0102548D01*
X0126056Y0102620D01*
X0126016Y0102694D01*
X0125980Y0102769D01*
X0125947Y0102846D01*
X0125918Y0102925D01*
X0125893Y0103004D01*
X0125871Y0103085D01*
X0125854Y0103167D01*
X0125840Y0103250D01*
X0125830Y0103333D01*
X0125824Y0103416D01*
X0125822Y0103500D01*
X0137634Y0103500D02*
X0137636Y0103584D01*
X0137642Y0103667D01*
X0137652Y0103750D01*
X0137666Y0103833D01*
X0137683Y0103915D01*
X0137705Y0103996D01*
X0137730Y0104075D01*
X0137759Y0104154D01*
X0137792Y0104231D01*
X0137828Y0104306D01*
X0137868Y0104380D01*
X0137911Y0104452D01*
X0137958Y0104521D01*
X0138008Y0104588D01*
X0138061Y0104653D01*
X0138117Y0104715D01*
X0138175Y0104775D01*
X0138237Y0104832D01*
X0138301Y0104885D01*
X0138368Y0104936D01*
X0138437Y0104983D01*
X0138508Y0105028D01*
X0138581Y0105068D01*
X0138656Y0105105D01*
X0138733Y0105139D01*
X0138811Y0105169D01*
X0138890Y0105195D01*
X0138971Y0105218D01*
X0139053Y0105236D01*
X0139135Y0105251D01*
X0139218Y0105262D01*
X0139301Y0105269D01*
X0139385Y0105272D01*
X0139469Y0105271D01*
X0139552Y0105266D01*
X0139636Y0105257D01*
X0139718Y0105244D01*
X0139800Y0105228D01*
X0139881Y0105207D01*
X0139962Y0105183D01*
X0140040Y0105155D01*
X0140118Y0105123D01*
X0140194Y0105087D01*
X0140268Y0105048D01*
X0140340Y0105006D01*
X0140410Y0104960D01*
X0140478Y0104911D01*
X0140543Y0104859D01*
X0140606Y0104804D01*
X0140666Y0104746D01*
X0140724Y0104685D01*
X0140778Y0104621D01*
X0140830Y0104555D01*
X0140878Y0104487D01*
X0140923Y0104416D01*
X0140964Y0104343D01*
X0141003Y0104269D01*
X0141037Y0104193D01*
X0141068Y0104115D01*
X0141095Y0104036D01*
X0141119Y0103955D01*
X0141138Y0103874D01*
X0141154Y0103792D01*
X0141166Y0103709D01*
X0141174Y0103625D01*
X0141178Y0103542D01*
X0141178Y0103458D01*
X0141174Y0103375D01*
X0141166Y0103291D01*
X0141154Y0103208D01*
X0141138Y0103126D01*
X0141119Y0103045D01*
X0141095Y0102964D01*
X0141068Y0102885D01*
X0141037Y0102807D01*
X0141003Y0102731D01*
X0140964Y0102657D01*
X0140923Y0102584D01*
X0140878Y0102513D01*
X0140830Y0102445D01*
X0140778Y0102379D01*
X0140724Y0102315D01*
X0140666Y0102254D01*
X0140606Y0102196D01*
X0140543Y0102141D01*
X0140478Y0102089D01*
X0140410Y0102040D01*
X0140340Y0101994D01*
X0140268Y0101952D01*
X0140194Y0101913D01*
X0140118Y0101877D01*
X0140040Y0101845D01*
X0139962Y0101817D01*
X0139881Y0101793D01*
X0139800Y0101772D01*
X0139718Y0101756D01*
X0139636Y0101743D01*
X0139552Y0101734D01*
X0139469Y0101729D01*
X0139385Y0101728D01*
X0139301Y0101731D01*
X0139218Y0101738D01*
X0139135Y0101749D01*
X0139053Y0101764D01*
X0138971Y0101782D01*
X0138890Y0101805D01*
X0138811Y0101831D01*
X0138733Y0101861D01*
X0138656Y0101895D01*
X0138581Y0101932D01*
X0138508Y0101972D01*
X0138437Y0102017D01*
X0138368Y0102064D01*
X0138301Y0102115D01*
X0138237Y0102168D01*
X0138175Y0102225D01*
X0138117Y0102285D01*
X0138061Y0102347D01*
X0138008Y0102412D01*
X0137958Y0102479D01*
X0137911Y0102548D01*
X0137868Y0102620D01*
X0137828Y0102694D01*
X0137792Y0102769D01*
X0137759Y0102846D01*
X0137730Y0102925D01*
X0137705Y0103004D01*
X0137683Y0103085D01*
X0137666Y0103167D01*
X0137652Y0103250D01*
X0137642Y0103333D01*
X0137636Y0103416D01*
X0137634Y0103500D01*
D11*
X0134846Y0119500D03*
X0128154Y0119500D03*
X0128154Y0129500D03*
X0134846Y0129500D03*
X0134846Y0139500D03*
X0128154Y0139500D03*
X0118846Y0139500D03*
X0112154Y0139500D03*
X0112154Y0149500D03*
X0118846Y0149500D03*
X0118846Y0159500D03*
X0112154Y0159500D03*
X0112154Y0169500D03*
X0118846Y0169500D03*
X0128154Y0169500D03*
X0134846Y0169500D03*
X0134846Y0159500D03*
X0128154Y0159500D03*
X0128154Y0149500D03*
X0134846Y0149500D03*
X0134846Y0179500D03*
X0128154Y0179500D03*
X0115846Y0192500D03*
X0109154Y0192500D03*
X0109154Y0203500D03*
X0115846Y0203500D03*
X0137154Y0197500D03*
X0143846Y0197500D03*
X0152154Y0199500D03*
X0158846Y0199500D03*
X0146846Y0207500D03*
X0140154Y0207500D03*
X0114846Y0224500D03*
X0108154Y0224500D03*
X0183154Y0192500D03*
X0189846Y0192500D03*
X0173846Y0149500D03*
X0167154Y0149500D03*
X0148846Y0119500D03*
X0142154Y0119500D03*
X0165154Y0115500D03*
X0171846Y0115500D03*
X0219154Y0118500D03*
X0225846Y0118500D03*
X0207846Y0237500D03*
X0201154Y0237500D03*
D12*
X0127500Y0212846D03*
X0127500Y0206154D03*
X0209500Y0158846D03*
X0209500Y0152154D03*
X0168500Y0132846D03*
X0168500Y0126154D03*
D13*
X0172200Y0100500D03*
X0160800Y0100500D03*
X0108200Y0100500D03*
X0096800Y0100500D03*
X0097500Y0114500D03*
X0097500Y0124500D03*
X0097500Y0134500D03*
X0097500Y0144500D03*
X0097500Y0154500D03*
X0097500Y0164500D03*
X0097500Y0174500D03*
X0097500Y0184500D03*
X0097500Y0194500D03*
X0097500Y0204500D03*
X0097500Y0214500D03*
X0097500Y0224500D03*
X0096800Y0238500D03*
X0108200Y0238500D03*
X0224800Y0238500D03*
X0236200Y0238500D03*
X0235500Y0209500D03*
X0235500Y0199500D03*
X0235500Y0189500D03*
X0235500Y0179500D03*
X0235500Y0169500D03*
X0235500Y0159500D03*
X0235500Y0149500D03*
X0235500Y0139500D03*
X0235500Y0129500D03*
X0236200Y0100500D03*
X0224800Y0100500D03*
D14*
X0144500Y0127941D03*
X0144500Y0133059D03*
D15*
X0143941Y0139500D03*
X0149059Y0139500D03*
X0149059Y0146500D03*
X0143941Y0146500D03*
D16*
X0182626Y0133374D02*
X0182626Y0117626D01*
X0198374Y0117626D01*
X0198374Y0133374D01*
X0182626Y0133374D01*
X0185343Y0201657D02*
X0165657Y0201657D01*
X0165657Y0221343D01*
X0185343Y0221343D01*
X0185343Y0201657D01*
D17*
X0182390Y0202445D03*
X0180421Y0202445D03*
X0178453Y0202445D03*
X0176484Y0202445D03*
X0174516Y0202445D03*
X0172547Y0202445D03*
X0170579Y0202445D03*
X0168610Y0202445D03*
X0168610Y0220555D03*
X0170579Y0220555D03*
X0172547Y0220555D03*
X0174516Y0220555D03*
X0176484Y0220555D03*
X0178453Y0220555D03*
X0180421Y0220555D03*
X0182390Y0220555D03*
X0186563Y0132587D03*
X0188531Y0132587D03*
X0190500Y0132587D03*
X0192469Y0132587D03*
X0194437Y0132587D03*
X0194437Y0118413D03*
X0192469Y0118413D03*
X0190500Y0118413D03*
X0188531Y0118413D03*
X0186563Y0118413D03*
D18*
X0183413Y0121563D03*
X0183413Y0123531D03*
X0183413Y0125500D03*
X0183413Y0127469D03*
X0183413Y0129437D03*
X0197587Y0129437D03*
X0197587Y0127469D03*
X0197587Y0125500D03*
X0197587Y0123531D03*
X0197587Y0121563D03*
X0184555Y0204610D03*
X0184555Y0206579D03*
X0184555Y0208547D03*
X0184555Y0210516D03*
X0184555Y0212484D03*
X0184555Y0214453D03*
X0184555Y0216421D03*
X0184555Y0218390D03*
X0166445Y0218390D03*
X0166445Y0216421D03*
X0166445Y0214453D03*
X0166445Y0212484D03*
X0166445Y0210516D03*
X0166445Y0208547D03*
X0166445Y0206579D03*
X0166445Y0204610D03*
D19*
X0190500Y0125500D03*
D20*
X0175681Y0169957D03*
X0173319Y0169957D03*
X0173319Y0177043D03*
X0175681Y0177043D03*
D21*
X0178043Y0175862D03*
X0178043Y0173500D03*
X0178043Y0171138D03*
X0170957Y0171138D03*
X0170957Y0173500D03*
X0170957Y0175862D03*
D22*
X0112500Y0123421D03*
X0112500Y0113579D03*
D23*
X0152382Y0169563D03*
X0152382Y0171531D03*
X0152382Y0173500D03*
X0152382Y0175469D03*
X0152382Y0177437D03*
X0162618Y0177437D03*
X0162618Y0175469D03*
X0162618Y0173500D03*
X0162618Y0171531D03*
X0162618Y0169563D03*
X0194382Y0170531D03*
X0194382Y0168563D03*
X0194382Y0172500D03*
X0194382Y0174469D03*
X0194382Y0176437D03*
X0204618Y0176437D03*
X0204618Y0174469D03*
X0204618Y0172500D03*
X0204618Y0170531D03*
X0204618Y0168563D03*
D24*
X0201469Y0167382D03*
X0199500Y0167382D03*
X0197531Y0167382D03*
X0197531Y0177618D03*
X0199500Y0177618D03*
X0201469Y0177618D03*
X0159469Y0178618D03*
X0157500Y0178618D03*
X0155531Y0178618D03*
X0155531Y0168382D03*
X0157500Y0168382D03*
X0159469Y0168382D03*
D25*
X0139421Y0229500D03*
X0129579Y0229500D03*
D26*
X0175500Y0211500D03*
D27*
X0200413Y0217161D03*
X0205138Y0217161D03*
X0209862Y0217161D03*
X0214587Y0217161D03*
X0214587Y0199839D03*
X0209862Y0199839D03*
X0205138Y0199839D03*
X0200413Y0199839D03*
D28*
X0197657Y0198657D02*
X0217343Y0198657D01*
X0217343Y0218343D01*
X0197657Y0218343D01*
X0197657Y0198657D01*
D29*
X0203990Y0204663D02*
X0204357Y0204663D01*
X0204724Y0205030D01*
X0204724Y0205764D01*
X0205091Y0206131D01*
X0205458Y0206131D01*
X0205825Y0205764D01*
X0205825Y0205030D01*
X0205458Y0204663D01*
X0203990Y0204663D02*
X0203623Y0205030D01*
X0203623Y0205764D01*
X0203990Y0206131D01*
X0203990Y0206873D02*
X0205458Y0206873D01*
X0205825Y0207240D01*
X0205825Y0207974D01*
X0205458Y0208341D01*
X0203990Y0208341D01*
X0203623Y0207974D01*
X0203623Y0207240D01*
X0203990Y0206873D01*
X0203623Y0209083D02*
X0203623Y0210184D01*
X0203990Y0210551D01*
X0204724Y0210551D01*
X0205091Y0210184D01*
X0205091Y0209083D01*
X0205825Y0209083D02*
X0203623Y0209083D01*
X0203990Y0211293D02*
X0204357Y0211293D01*
X0204724Y0211660D01*
X0204724Y0212394D01*
X0205091Y0212761D01*
X0205458Y0212761D01*
X0205825Y0212394D01*
X0205825Y0211660D01*
X0205458Y0211293D01*
X0205091Y0211293D01*
X0204724Y0211660D01*
X0204724Y0212394D02*
X0204357Y0212761D01*
X0203990Y0212761D01*
X0203623Y0212394D01*
X0203623Y0211660D01*
X0203990Y0211293D01*
D30*
X0180783Y0228972D03*
X0180783Y0238028D03*
X0166217Y0238028D03*
X0166217Y0228972D03*
X0182217Y0153028D03*
X0182217Y0143972D03*
X0196783Y0143972D03*
X0196783Y0153028D03*
D31*
X0142358Y0110390D03*
X0136453Y0110390D03*
X0124642Y0110390D03*
D32*
X0119130Y0099563D03*
X0147870Y0099563D03*
D33*
X0147870Y0107831D03*
X0119130Y0107831D03*
D34*
X0122098Y0107481D02*
X0122264Y0107481D01*
X0122264Y0107023D02*
X0122850Y0106437D01*
X0126434Y0106437D01*
X0127020Y0107023D01*
X0127020Y0113757D01*
X0126434Y0114343D01*
X0122850Y0114343D01*
X0122264Y0113757D01*
X0122264Y0107023D01*
X0122098Y0106482D02*
X0122804Y0106482D01*
X0122098Y0105842D02*
X0122098Y0109820D01*
X0121513Y0110405D01*
X0116747Y0110405D01*
X0116161Y0109820D01*
X0116161Y0105842D01*
X0116747Y0105256D01*
X0121513Y0105256D01*
X0122098Y0105842D01*
X0121740Y0105484D02*
X0125658Y0105484D01*
X0126024Y0105850D02*
X0125245Y0105070D01*
X0124823Y0104051D01*
X0124823Y0102949D01*
X0125245Y0101930D01*
X0126024Y0101150D01*
X0127043Y0100728D01*
X0128146Y0100728D01*
X0129164Y0101150D01*
X0129944Y0101930D01*
X0130366Y0102949D01*
X0130366Y0104051D01*
X0129944Y0105070D01*
X0129164Y0105850D01*
X0128146Y0106272D01*
X0127043Y0106272D01*
X0126024Y0105850D01*
X0126479Y0106482D02*
X0134000Y0106482D01*
X0134000Y0105484D02*
X0129531Y0105484D01*
X0130186Y0104485D02*
X0134000Y0104485D01*
X0134000Y0104121D02*
X0129419Y0099541D01*
X0129086Y0099874D01*
X0128057Y0100300D01*
X0126943Y0100300D01*
X0125914Y0099874D01*
X0125126Y0099086D01*
X0124700Y0098057D01*
X0124700Y0096943D01*
X0125126Y0095914D01*
X0125540Y0095500D01*
X0092500Y0095500D01*
X0092500Y0098599D01*
X0092816Y0097838D01*
X0094138Y0096516D01*
X0095865Y0095800D01*
X0097735Y0095800D01*
X0099462Y0096516D01*
X0100784Y0097838D01*
X0101500Y0099565D01*
X0101500Y0101435D01*
X0100784Y0103162D01*
X0099462Y0104484D01*
X0097735Y0105200D01*
X0095865Y0105200D01*
X0094138Y0104484D01*
X0092816Y0103162D01*
X0092500Y0102401D01*
X0092500Y0113061D01*
X0092681Y0112504D01*
X0093053Y0111775D01*
X0093534Y0111112D01*
X0094112Y0110534D01*
X0094775Y0110053D01*
X0095504Y0109681D01*
X0096282Y0109428D01*
X0097000Y0109314D01*
X0097000Y0114000D01*
X0098000Y0114000D01*
X0098000Y0115000D01*
X0102686Y0115000D01*
X0102572Y0115718D01*
X0102319Y0116496D01*
X0101947Y0117225D01*
X0101466Y0117888D01*
X0100888Y0118466D01*
X0100225Y0118947D01*
X0099496Y0119319D01*
X0098939Y0119500D01*
X0099496Y0119681D01*
X0100225Y0120053D01*
X0100888Y0120534D01*
X0101466Y0121112D01*
X0101947Y0121775D01*
X0102319Y0122504D01*
X0102572Y0123282D01*
X0102686Y0124000D01*
X0098000Y0124000D01*
X0098000Y0125000D01*
X0102686Y0125000D01*
X0102572Y0125718D01*
X0102319Y0126496D01*
X0101947Y0127225D01*
X0101466Y0127888D01*
X0100888Y0128466D01*
X0100225Y0128947D01*
X0099496Y0129319D01*
X0098939Y0129500D01*
X0099496Y0129681D01*
X0100225Y0130053D01*
X0100888Y0130534D01*
X0101466Y0131112D01*
X0101947Y0131775D01*
X0102319Y0132504D01*
X0102572Y0133282D01*
X0102686Y0134000D01*
X0098000Y0134000D01*
X0098000Y0135000D01*
X0102686Y0135000D01*
X0102572Y0135718D01*
X0102319Y0136496D01*
X0101947Y0137225D01*
X0101466Y0137888D01*
X0100888Y0138466D01*
X0100225Y0138947D01*
X0099496Y0139319D01*
X0098939Y0139500D01*
X0099496Y0139681D01*
X0100225Y0140053D01*
X0100888Y0140534D01*
X0101466Y0141112D01*
X0101947Y0141775D01*
X0102319Y0142504D01*
X0102572Y0143282D01*
X0102686Y0144000D01*
X0098000Y0144000D01*
X0098000Y0145000D01*
X0102686Y0145000D01*
X0102572Y0145718D01*
X0102319Y0146496D01*
X0101947Y0147225D01*
X0101466Y0147888D01*
X0100888Y0148466D01*
X0100225Y0148947D01*
X0099496Y0149319D01*
X0098939Y0149500D01*
X0099496Y0149681D01*
X0100225Y0150053D01*
X0100888Y0150534D01*
X0101466Y0151112D01*
X0101947Y0151775D01*
X0102319Y0152504D01*
X0102572Y0153282D01*
X0102686Y0154000D01*
X0098000Y0154000D01*
X0098000Y0155000D01*
X0102686Y0155000D01*
X0102572Y0155718D01*
X0102319Y0156496D01*
X0101947Y0157225D01*
X0101466Y0157888D01*
X0100888Y0158466D01*
X0100225Y0158947D01*
X0099496Y0159319D01*
X0098939Y0159500D01*
X0099496Y0159681D01*
X0100225Y0160053D01*
X0100888Y0160534D01*
X0101466Y0161112D01*
X0101947Y0161775D01*
X0102319Y0162504D01*
X0102572Y0163282D01*
X0102686Y0164000D01*
X0098000Y0164000D01*
X0098000Y0165000D01*
X0097000Y0165000D01*
X0097000Y0169686D01*
X0096282Y0169572D01*
X0095504Y0169319D01*
X0094775Y0168947D01*
X0094112Y0168466D01*
X0093534Y0167888D01*
X0093053Y0167225D01*
X0092681Y0166496D01*
X0092500Y0165939D01*
X0092500Y0236599D01*
X0092816Y0235838D01*
X0094138Y0234516D01*
X0095865Y0233800D01*
X0096300Y0233800D01*
X0096300Y0229090D01*
X0094838Y0228484D01*
X0093516Y0227162D01*
X0092800Y0225435D01*
X0092800Y0223565D01*
X0093516Y0221838D01*
X0094838Y0220516D01*
X0096000Y0220034D01*
X0096000Y0218966D01*
X0094838Y0218484D01*
X0093516Y0217162D01*
X0092800Y0215435D01*
X0092800Y0213565D01*
X0093516Y0211838D01*
X0094838Y0210516D01*
X0096000Y0210034D01*
X0096000Y0208966D01*
X0094838Y0208484D01*
X0093516Y0207162D01*
X0092800Y0205435D01*
X0092800Y0203565D01*
X0093516Y0201838D01*
X0094838Y0200516D01*
X0096000Y0200034D01*
X0096000Y0198966D01*
X0094838Y0198484D01*
X0093516Y0197162D01*
X0092800Y0195435D01*
X0092800Y0193565D01*
X0093516Y0191838D01*
X0094838Y0190516D01*
X0096000Y0190034D01*
X0096000Y0188966D01*
X0094838Y0188484D01*
X0093516Y0187162D01*
X0092800Y0185435D01*
X0092800Y0183565D01*
X0093516Y0181838D01*
X0094838Y0180516D01*
X0096000Y0180034D01*
X0096000Y0178966D01*
X0094838Y0178484D01*
X0093516Y0177162D01*
X0092800Y0175435D01*
X0092800Y0173565D01*
X0093516Y0171838D01*
X0094838Y0170516D01*
X0096565Y0169800D01*
X0098435Y0169800D01*
X0100162Y0170516D01*
X0101484Y0171838D01*
X0102200Y0173565D01*
X0102200Y0175435D01*
X0101484Y0177162D01*
X0100162Y0178484D01*
X0099000Y0178966D01*
X0099000Y0180034D01*
X0100162Y0180516D01*
X0101484Y0181838D01*
X0102200Y0183565D01*
X0102200Y0185435D01*
X0101484Y0187162D01*
X0100162Y0188484D01*
X0099000Y0188966D01*
X0099000Y0190034D01*
X0100162Y0190516D01*
X0101484Y0191838D01*
X0101966Y0193000D01*
X0105988Y0193000D01*
X0105988Y0190117D01*
X0106574Y0189531D01*
X0107654Y0189531D01*
X0107654Y0186225D01*
X0111000Y0182879D01*
X0111879Y0182000D01*
X0114879Y0182000D01*
X0117000Y0179879D01*
X0117000Y0172468D01*
X0116267Y0172468D01*
X0115744Y0171946D01*
X0115717Y0172047D01*
X0115519Y0172390D01*
X0115240Y0172669D01*
X0114898Y0172866D01*
X0114516Y0172968D01*
X0112638Y0172968D01*
X0112638Y0169984D01*
X0111669Y0169984D01*
X0111669Y0169016D01*
X0108488Y0169016D01*
X0108488Y0167334D01*
X0108590Y0166953D01*
X0108788Y0166610D01*
X0109067Y0166331D01*
X0109409Y0166134D01*
X0109791Y0166031D01*
X0111669Y0166031D01*
X0111669Y0169016D01*
X0112638Y0169016D01*
X0112638Y0166031D01*
X0114516Y0166031D01*
X0114898Y0166134D01*
X0115240Y0166331D01*
X0115519Y0166610D01*
X0115717Y0166953D01*
X0115744Y0167054D01*
X0116267Y0166531D01*
X0117346Y0166531D01*
X0117346Y0162468D01*
X0116267Y0162468D01*
X0115744Y0161946D01*
X0115717Y0162047D01*
X0115519Y0162390D01*
X0115240Y0162669D01*
X0114898Y0162866D01*
X0114516Y0162968D01*
X0112638Y0162968D01*
X0112638Y0159984D01*
X0111669Y0159984D01*
X0111669Y0159016D01*
X0108488Y0159016D01*
X0108488Y0157334D01*
X0108590Y0156953D01*
X0108788Y0156610D01*
X0109067Y0156331D01*
X0109409Y0156134D01*
X0109791Y0156031D01*
X0111669Y0156031D01*
X0111669Y0159016D01*
X0112638Y0159016D01*
X0112638Y0156031D01*
X0114516Y0156031D01*
X0114898Y0156134D01*
X0115240Y0156331D01*
X0115519Y0156610D01*
X0115717Y0156953D01*
X0115744Y0157054D01*
X0116267Y0156531D01*
X0117346Y0156531D01*
X0117346Y0152468D01*
X0116267Y0152468D01*
X0115744Y0151946D01*
X0115717Y0152047D01*
X0115519Y0152390D01*
X0115240Y0152669D01*
X0114898Y0152866D01*
X0114516Y0152968D01*
X0112638Y0152968D01*
X0112638Y0149984D01*
X0111669Y0149984D01*
X0111669Y0149016D01*
X0108488Y0149016D01*
X0108488Y0147334D01*
X0108590Y0146953D01*
X0108788Y0146610D01*
X0109067Y0146331D01*
X0109409Y0146134D01*
X0109791Y0146031D01*
X0111669Y0146031D01*
X0111669Y0149016D01*
X0112638Y0149016D01*
X0112638Y0146031D01*
X0114516Y0146031D01*
X0114898Y0146134D01*
X0115240Y0146331D01*
X0115519Y0146610D01*
X0115717Y0146953D01*
X0115744Y0147054D01*
X0116267Y0146531D01*
X0121426Y0146531D01*
X0122012Y0147117D01*
X0122012Y0151883D01*
X0121426Y0152468D01*
X0120346Y0152468D01*
X0120346Y0156531D01*
X0121426Y0156531D01*
X0122012Y0157117D01*
X0122012Y0161883D01*
X0121426Y0162468D01*
X0120346Y0162468D01*
X0120346Y0166531D01*
X0121426Y0166531D01*
X0122012Y0167117D01*
X0122012Y0168000D01*
X0124988Y0168000D01*
X0124988Y0167117D01*
X0125574Y0166531D01*
X0126654Y0166531D01*
X0126654Y0162468D01*
X0125574Y0162468D01*
X0124988Y0161883D01*
X0124988Y0157117D01*
X0125574Y0156531D01*
X0126654Y0156531D01*
X0126654Y0152468D01*
X0125574Y0152468D01*
X0124988Y0151883D01*
X0124988Y0147117D01*
X0125574Y0146531D01*
X0130733Y0146531D01*
X0131256Y0147054D01*
X0131283Y0146953D01*
X0131481Y0146610D01*
X0131760Y0146331D01*
X0132102Y0146134D01*
X0132484Y0146031D01*
X0134362Y0146031D01*
X0134362Y0149016D01*
X0135331Y0149016D01*
X0135331Y0149984D01*
X0138512Y0149984D01*
X0138512Y0151666D01*
X0138410Y0152047D01*
X0138212Y0152390D01*
X0137933Y0152669D01*
X0137591Y0152866D01*
X0137209Y0152968D01*
X0135331Y0152968D01*
X0135331Y0149984D01*
X0134362Y0149984D01*
X0134362Y0152968D01*
X0132484Y0152968D01*
X0132102Y0152866D01*
X0131760Y0152669D01*
X0131481Y0152390D01*
X0131283Y0152047D01*
X0131256Y0151946D01*
X0130733Y0152468D01*
X0129654Y0152468D01*
X0129654Y0156531D01*
X0130733Y0156531D01*
X0131319Y0157117D01*
X0131319Y0161883D01*
X0130733Y0162468D01*
X0129654Y0162468D01*
X0129654Y0166531D01*
X0130733Y0166531D01*
X0131319Y0167117D01*
X0131319Y0171883D01*
X0130733Y0172468D01*
X0129654Y0172468D01*
X0129654Y0176531D01*
X0130733Y0176531D01*
X0131319Y0177117D01*
X0131319Y0181883D01*
X0130733Y0182468D01*
X0129654Y0182468D01*
X0129654Y0183947D01*
X0130086Y0184126D01*
X0130874Y0184914D01*
X0131300Y0185943D01*
X0131300Y0187057D01*
X0130874Y0188086D01*
X0130086Y0188874D01*
X0129057Y0189300D01*
X0127943Y0189300D01*
X0126914Y0188874D01*
X0126126Y0188086D01*
X0125700Y0187057D01*
X0125700Y0185943D01*
X0126126Y0184914D01*
X0126654Y0184387D01*
X0126654Y0182468D01*
X0125574Y0182468D01*
X0124988Y0181883D01*
X0124988Y0177117D01*
X0125574Y0176531D01*
X0126654Y0176531D01*
X0126654Y0172468D01*
X0125574Y0172468D01*
X0124988Y0171883D01*
X0124988Y0171000D01*
X0122012Y0171000D01*
X0122012Y0171883D01*
X0121426Y0172468D01*
X0120000Y0172468D01*
X0120000Y0181121D01*
X0119121Y0182000D01*
X0116121Y0185000D01*
X0113121Y0185000D01*
X0110654Y0187468D01*
X0110654Y0189531D01*
X0111733Y0189531D01*
X0112256Y0190054D01*
X0112283Y0189953D01*
X0112481Y0189610D01*
X0112760Y0189331D01*
X0113102Y0189134D01*
X0113484Y0189031D01*
X0115362Y0189031D01*
X0115362Y0192016D01*
X0116331Y0192016D01*
X0116331Y0192984D01*
X0119512Y0192984D01*
X0119512Y0194666D01*
X0119410Y0195047D01*
X0119212Y0195390D01*
X0118933Y0195669D01*
X0118591Y0195866D01*
X0118209Y0195968D01*
X0116331Y0195968D01*
X0116331Y0192984D01*
X0115362Y0192984D01*
X0115362Y0195968D01*
X0113484Y0195968D01*
X0113102Y0195866D01*
X0112760Y0195669D01*
X0112481Y0195390D01*
X0112283Y0195047D01*
X0112256Y0194946D01*
X0111733Y0195468D01*
X0108306Y0195468D01*
X0107775Y0196000D01*
X0101966Y0196000D01*
X0101484Y0197162D01*
X0100162Y0198484D01*
X0099000Y0198966D01*
X0099000Y0200034D01*
X0100162Y0200516D01*
X0101484Y0201838D01*
X0102200Y0203565D01*
X0102200Y0205435D01*
X0101484Y0207162D01*
X0100162Y0208484D01*
X0099000Y0208966D01*
X0099000Y0210034D01*
X0100162Y0210516D01*
X0101484Y0211838D01*
X0102200Y0213565D01*
X0102200Y0215435D01*
X0101484Y0217162D01*
X0100162Y0218484D01*
X0099000Y0218966D01*
X0099000Y0220034D01*
X0100162Y0220516D01*
X0101484Y0221838D01*
X0101966Y0223000D01*
X0104988Y0223000D01*
X0104988Y0222117D01*
X0105574Y0221531D01*
X0106654Y0221531D01*
X0106654Y0218225D01*
X0107736Y0217143D01*
X0107700Y0217057D01*
X0107700Y0215943D01*
X0108126Y0214914D01*
X0108914Y0214126D01*
X0109943Y0213700D01*
X0111057Y0213700D01*
X0112086Y0214126D01*
X0112874Y0214914D01*
X0113300Y0215943D01*
X0113300Y0217057D01*
X0112874Y0218086D01*
X0112086Y0218874D01*
X0111057Y0219300D01*
X0109943Y0219300D01*
X0109857Y0219264D01*
X0109654Y0219468D01*
X0109654Y0221531D01*
X0110733Y0221531D01*
X0111256Y0222054D01*
X0111283Y0221953D01*
X0111481Y0221610D01*
X0111760Y0221331D01*
X0112102Y0221134D01*
X0112484Y0221031D01*
X0114362Y0221031D01*
X0114362Y0224016D01*
X0115331Y0224016D01*
X0115331Y0224984D01*
X0118512Y0224984D01*
X0118512Y0226666D01*
X0118410Y0227047D01*
X0118212Y0227390D01*
X0117933Y0227669D01*
X0117591Y0227866D01*
X0117209Y0227968D01*
X0115331Y0227968D01*
X0115331Y0224984D01*
X0114362Y0224984D01*
X0114362Y0227968D01*
X0112484Y0227968D01*
X0112102Y0227866D01*
X0111760Y0227669D01*
X0111481Y0227390D01*
X0111283Y0227047D01*
X0111256Y0226946D01*
X0110733Y0227468D01*
X0105574Y0227468D01*
X0104988Y0226883D01*
X0104988Y0226000D01*
X0101966Y0226000D01*
X0101484Y0227162D01*
X0100162Y0228484D01*
X0099300Y0228842D01*
X0099300Y0234448D01*
X0099462Y0234516D01*
X0100784Y0235838D01*
X0101500Y0237565D01*
X0101500Y0239435D01*
X0100784Y0241162D01*
X0099462Y0242484D01*
X0097735Y0243200D01*
X0095865Y0243200D01*
X0094138Y0242484D01*
X0092816Y0241162D01*
X0092500Y0240401D01*
X0092500Y0243500D01*
X0106761Y0243500D01*
X0106204Y0243319D01*
X0105475Y0242947D01*
X0104812Y0242466D01*
X0104234Y0241888D01*
X0103753Y0241225D01*
X0103381Y0240496D01*
X0103128Y0239718D01*
X0103014Y0239000D01*
X0107700Y0239000D01*
X0107700Y0238000D01*
X0108700Y0238000D01*
X0108700Y0239000D01*
X0113386Y0239000D01*
X0113272Y0239718D01*
X0113019Y0240496D01*
X0112647Y0241225D01*
X0112166Y0241888D01*
X0111588Y0242466D01*
X0110925Y0242947D01*
X0110196Y0243319D01*
X0109639Y0243500D01*
X0240500Y0243500D01*
X0240500Y0240401D01*
X0240184Y0241162D01*
X0238862Y0242484D01*
X0237135Y0243200D01*
X0235265Y0243200D01*
X0233538Y0242484D01*
X0232216Y0241162D01*
X0231500Y0239435D01*
X0231500Y0237565D01*
X0232216Y0235838D01*
X0233538Y0234516D01*
X0235265Y0233800D01*
X0237135Y0233800D01*
X0238862Y0234516D01*
X0240184Y0235838D01*
X0240500Y0236599D01*
X0240500Y0102401D01*
X0240184Y0103162D01*
X0238862Y0104484D01*
X0237135Y0105200D01*
X0235265Y0105200D01*
X0233538Y0104484D01*
X0232216Y0103162D01*
X0231500Y0101435D01*
X0231500Y0099565D01*
X0232216Y0097838D01*
X0233538Y0096516D01*
X0235265Y0095800D01*
X0237135Y0095800D01*
X0238862Y0096516D01*
X0240184Y0097838D01*
X0240500Y0098599D01*
X0240500Y0095500D01*
X0173639Y0095500D01*
X0174196Y0095681D01*
X0174925Y0096053D01*
X0175588Y0096534D01*
X0176166Y0097112D01*
X0176647Y0097775D01*
X0177019Y0098504D01*
X0177272Y0099282D01*
X0177386Y0100000D01*
X0172700Y0100000D01*
X0172700Y0101000D01*
X0171700Y0101000D01*
X0171700Y0105686D01*
X0170982Y0105572D01*
X0170204Y0105319D01*
X0169475Y0104947D01*
X0168812Y0104466D01*
X0168234Y0103888D01*
X0167753Y0103225D01*
X0167381Y0102496D01*
X0167128Y0101718D01*
X0167014Y0101000D01*
X0171700Y0101000D01*
X0171700Y0100000D01*
X0167014Y0100000D01*
X0167128Y0099282D01*
X0167381Y0098504D01*
X0167753Y0097775D01*
X0168234Y0097112D01*
X0168812Y0096534D01*
X0169475Y0096053D01*
X0170204Y0095681D01*
X0170761Y0095500D01*
X0129460Y0095500D01*
X0129874Y0095914D01*
X0129909Y0096000D01*
X0130121Y0096000D01*
X0136121Y0102000D01*
X0136762Y0102640D01*
X0137056Y0101930D01*
X0137835Y0101150D01*
X0138854Y0100728D01*
X0139957Y0100728D01*
X0140976Y0101150D01*
X0141755Y0101930D01*
X0142177Y0102949D01*
X0142177Y0103702D01*
X0143000Y0102879D01*
X0143879Y0102000D01*
X0156334Y0102000D01*
X0156100Y0101435D01*
X0156100Y0099565D01*
X0156816Y0097838D01*
X0158138Y0096516D01*
X0159865Y0095800D01*
X0161735Y0095800D01*
X0163462Y0096516D01*
X0164784Y0097838D01*
X0165500Y0099565D01*
X0165500Y0101435D01*
X0164784Y0103162D01*
X0163462Y0104484D01*
X0161735Y0105200D01*
X0159865Y0105200D01*
X0158703Y0104719D01*
X0158421Y0105000D01*
X0145121Y0105000D01*
X0143858Y0106263D01*
X0143858Y0106437D01*
X0144150Y0106437D01*
X0144736Y0107023D01*
X0144736Y0113757D01*
X0144150Y0114343D01*
X0141464Y0114343D01*
X0142775Y0115654D01*
X0143327Y0116205D01*
X0149127Y0110405D01*
X0145487Y0110405D01*
X0144902Y0109820D01*
X0144902Y0105842D01*
X0145487Y0105256D01*
X0150253Y0105256D01*
X0150839Y0105842D01*
X0150839Y0109202D01*
X0150914Y0109126D01*
X0151943Y0108700D01*
X0153057Y0108700D01*
X0154086Y0109126D01*
X0154874Y0109914D01*
X0155300Y0110943D01*
X0155300Y0112057D01*
X0154874Y0113086D01*
X0154086Y0113874D01*
X0153057Y0114300D01*
X0151943Y0114300D01*
X0150914Y0113874D01*
X0150408Y0113367D01*
X0147743Y0116031D01*
X0148362Y0116031D01*
X0148362Y0119016D01*
X0149331Y0119016D01*
X0149331Y0119984D01*
X0152512Y0119984D01*
X0152512Y0121666D01*
X0152410Y0122047D01*
X0152212Y0122390D01*
X0151933Y0122669D01*
X0151591Y0122866D01*
X0151209Y0122968D01*
X0149331Y0122968D01*
X0149331Y0119984D01*
X0148362Y0119984D01*
X0148362Y0122968D01*
X0146484Y0122968D01*
X0146102Y0122866D01*
X0146000Y0122807D01*
X0146000Y0125563D01*
X0146686Y0125563D01*
X0147272Y0126149D01*
X0147272Y0127769D01*
X0147914Y0127126D01*
X0148943Y0126700D01*
X0150057Y0126700D01*
X0151086Y0127126D01*
X0151874Y0127914D01*
X0152300Y0128943D01*
X0152300Y0129740D01*
X0152914Y0129126D01*
X0153943Y0128700D01*
X0155057Y0128700D01*
X0156086Y0129126D01*
X0156874Y0129914D01*
X0157300Y0130943D01*
X0157300Y0132057D01*
X0156874Y0133086D01*
X0156086Y0133874D01*
X0155057Y0134300D01*
X0153943Y0134300D01*
X0153857Y0134264D01*
X0151122Y0136999D01*
X0151437Y0137314D01*
X0151437Y0141686D01*
X0150851Y0142272D01*
X0150559Y0142272D01*
X0150559Y0143728D01*
X0150851Y0143728D01*
X0151437Y0144314D01*
X0151437Y0148686D01*
X0150851Y0149272D01*
X0147267Y0149272D01*
X0146681Y0148686D01*
X0146681Y0144314D01*
X0147267Y0143728D01*
X0147559Y0143728D01*
X0147559Y0142272D01*
X0147267Y0142272D01*
X0146681Y0141686D01*
X0146681Y0137314D01*
X0147267Y0136728D01*
X0147559Y0136728D01*
X0147559Y0136320D01*
X0151736Y0132143D01*
X0151700Y0132057D01*
X0151700Y0131260D01*
X0151086Y0131874D01*
X0150057Y0132300D01*
X0148943Y0132300D01*
X0148857Y0132264D01*
X0147272Y0133850D01*
X0147272Y0134851D01*
X0146686Y0135437D01*
X0142314Y0135437D01*
X0141728Y0134851D01*
X0141728Y0131267D01*
X0142314Y0130681D01*
X0146198Y0130681D01*
X0146560Y0130319D01*
X0142314Y0130319D01*
X0141728Y0129733D01*
X0141728Y0126149D01*
X0142314Y0125563D01*
X0143000Y0125563D01*
X0143000Y0122468D01*
X0139574Y0122468D01*
X0138988Y0121883D01*
X0138988Y0117117D01*
X0139105Y0117000D01*
X0138422Y0117000D01*
X0138512Y0117334D01*
X0138512Y0119016D01*
X0135331Y0119016D01*
X0135331Y0119984D01*
X0138512Y0119984D01*
X0138512Y0121666D01*
X0138410Y0122047D01*
X0138212Y0122390D01*
X0137933Y0122669D01*
X0137591Y0122866D01*
X0137209Y0122968D01*
X0135331Y0122968D01*
X0135331Y0119984D01*
X0134362Y0119984D01*
X0134362Y0122968D01*
X0132484Y0122968D01*
X0132102Y0122866D01*
X0131760Y0122669D01*
X0131481Y0122390D01*
X0131283Y0122047D01*
X0131256Y0121946D01*
X0130733Y0122468D01*
X0125574Y0122468D01*
X0124988Y0121883D01*
X0124988Y0117117D01*
X0125574Y0116531D01*
X0127000Y0116531D01*
X0127000Y0114879D01*
X0127879Y0114000D01*
X0128879Y0113000D01*
X0132121Y0113000D01*
X0133121Y0114000D01*
X0134318Y0114000D01*
X0134075Y0113757D01*
X0134075Y0110133D01*
X0134000Y0110058D01*
X0134000Y0104121D01*
X0133365Y0103487D02*
X0130366Y0103487D01*
X0130175Y0102488D02*
X0132367Y0102488D01*
X0131368Y0101490D02*
X0129504Y0101490D01*
X0130370Y0100491D02*
X0122098Y0100491D01*
X0122098Y0101158D02*
X0121513Y0101744D01*
X0116747Y0101744D01*
X0116161Y0101158D01*
X0116161Y0097968D01*
X0116747Y0097382D01*
X0121513Y0097382D01*
X0122098Y0097968D01*
X0122098Y0101158D01*
X0121767Y0101490D02*
X0125685Y0101490D01*
X0125014Y0102488D02*
X0112464Y0102488D01*
X0112184Y0103162D02*
X0112900Y0101435D01*
X0112900Y0099565D01*
X0112184Y0097838D01*
X0110862Y0096516D01*
X0109135Y0095800D01*
X0107265Y0095800D01*
X0105538Y0096516D01*
X0104216Y0097838D01*
X0103500Y0099565D01*
X0103500Y0101435D01*
X0104216Y0103162D01*
X0105538Y0104484D01*
X0107265Y0105200D01*
X0109135Y0105200D01*
X0110862Y0104484D01*
X0112184Y0103162D01*
X0111860Y0103487D02*
X0124823Y0103487D01*
X0125003Y0104485D02*
X0110861Y0104485D01*
X0112877Y0101490D02*
X0116493Y0101490D01*
X0116161Y0100491D02*
X0112900Y0100491D01*
X0112870Y0099493D02*
X0116161Y0099493D01*
X0116161Y0098494D02*
X0112456Y0098494D01*
X0111842Y0097496D02*
X0116634Y0097496D01*
X0121626Y0097496D02*
X0124700Y0097496D01*
X0124881Y0098494D02*
X0122098Y0098494D01*
X0122098Y0099493D02*
X0125533Y0099493D01*
X0127500Y0097500D02*
X0129500Y0097500D01*
X0135500Y0103500D01*
X0135500Y0109437D01*
X0136453Y0110390D01*
X0134075Y0110476D02*
X0127020Y0110476D01*
X0127020Y0109478D02*
X0134000Y0109478D01*
X0134000Y0108479D02*
X0127020Y0108479D01*
X0127020Y0107481D02*
X0134000Y0107481D01*
X0134075Y0111475D02*
X0127020Y0111475D01*
X0127020Y0112473D02*
X0134075Y0112473D01*
X0134075Y0113472D02*
X0132593Y0113472D01*
X0131500Y0114500D02*
X0129500Y0114500D01*
X0128500Y0115500D01*
X0128500Y0119154D01*
X0128154Y0119500D01*
X0124988Y0119463D02*
X0123000Y0119463D01*
X0123000Y0120461D02*
X0124988Y0120461D01*
X0124988Y0121460D02*
X0123000Y0121460D01*
X0123000Y0122458D02*
X0125564Y0122458D01*
X0123000Y0123457D02*
X0143000Y0123457D01*
X0143000Y0124455D02*
X0123000Y0124455D01*
X0123000Y0124700D02*
X0123057Y0124700D01*
X0124086Y0125126D01*
X0124874Y0125914D01*
X0125260Y0126846D01*
X0125574Y0126531D01*
X0130733Y0126531D01*
X0131256Y0127054D01*
X0131283Y0126953D01*
X0131481Y0126610D01*
X0131760Y0126331D01*
X0132102Y0126134D01*
X0132484Y0126031D01*
X0134362Y0126031D01*
X0134362Y0129016D01*
X0135331Y0129016D01*
X0135331Y0129984D01*
X0138512Y0129984D01*
X0138512Y0131666D01*
X0138410Y0132047D01*
X0138212Y0132390D01*
X0137933Y0132669D01*
X0137591Y0132866D01*
X0137209Y0132968D01*
X0135331Y0132968D01*
X0135331Y0129984D01*
X0134362Y0129984D01*
X0134362Y0132968D01*
X0132484Y0132968D01*
X0132102Y0132866D01*
X0131760Y0132669D01*
X0131481Y0132390D01*
X0131283Y0132047D01*
X0131256Y0131946D01*
X0130733Y0132468D01*
X0125574Y0132468D01*
X0124988Y0131883D01*
X0124988Y0131000D01*
X0123879Y0131000D01*
X0123143Y0130264D01*
X0123057Y0130300D01*
X0121943Y0130300D01*
X0120914Y0129874D01*
X0120346Y0129306D01*
X0120346Y0136531D01*
X0121426Y0136531D01*
X0122012Y0137117D01*
X0122012Y0138000D01*
X0124988Y0138000D01*
X0124988Y0137117D01*
X0125574Y0136531D01*
X0130733Y0136531D01*
X0131319Y0137117D01*
X0131319Y0141883D01*
X0130733Y0142468D01*
X0125574Y0142468D01*
X0124988Y0141883D01*
X0124988Y0141000D01*
X0122012Y0141000D01*
X0122012Y0141883D01*
X0121426Y0142468D01*
X0116267Y0142468D01*
X0115744Y0141946D01*
X0115717Y0142047D01*
X0115519Y0142390D01*
X0115240Y0142669D01*
X0114898Y0142866D01*
X0114516Y0142968D01*
X0112638Y0142968D01*
X0112638Y0139984D01*
X0111669Y0139984D01*
X0111669Y0139016D01*
X0108488Y0139016D01*
X0108488Y0137334D01*
X0108590Y0136953D01*
X0108788Y0136610D01*
X0109067Y0136331D01*
X0109409Y0136134D01*
X0109791Y0136031D01*
X0111669Y0136031D01*
X0111669Y0139016D01*
X0112638Y0139016D01*
X0112638Y0136031D01*
X0114516Y0136031D01*
X0114898Y0136134D01*
X0115240Y0136331D01*
X0115519Y0136610D01*
X0115717Y0136953D01*
X0115744Y0137054D01*
X0116267Y0136531D01*
X0117346Y0136531D01*
X0117346Y0130389D01*
X0113347Y0126390D01*
X0108739Y0126390D01*
X0108154Y0125804D01*
X0108154Y0121039D01*
X0108739Y0120453D01*
X0116261Y0120453D01*
X0116846Y0121039D01*
X0116846Y0125646D01*
X0120013Y0128813D01*
X0119700Y0128057D01*
X0119700Y0126943D01*
X0120000Y0126219D01*
X0120000Y0117300D01*
X0118943Y0117300D01*
X0117914Y0116874D01*
X0117126Y0116086D01*
X0116846Y0115410D01*
X0116846Y0115961D01*
X0116261Y0116547D01*
X0108739Y0116547D01*
X0108154Y0115961D01*
X0108154Y0111196D01*
X0108739Y0110610D01*
X0116261Y0110610D01*
X0116846Y0111196D01*
X0116846Y0113590D01*
X0117126Y0112914D01*
X0117914Y0112126D01*
X0118943Y0111700D01*
X0120057Y0111700D01*
X0121086Y0112126D01*
X0121874Y0112914D01*
X0122300Y0113943D01*
X0122300Y0115057D01*
X0122264Y0115143D01*
X0123000Y0115879D01*
X0123000Y0124700D01*
X0124414Y0125454D02*
X0143000Y0125454D01*
X0141728Y0126452D02*
X0138054Y0126452D01*
X0137933Y0126331D02*
X0138212Y0126610D01*
X0138410Y0126953D01*
X0138512Y0127334D01*
X0138512Y0129016D01*
X0135331Y0129016D01*
X0135331Y0126031D01*
X0137209Y0126031D01*
X0137591Y0126134D01*
X0137933Y0126331D01*
X0138512Y0127451D02*
X0141728Y0127451D01*
X0141728Y0128449D02*
X0138512Y0128449D01*
X0138512Y0130446D02*
X0146432Y0130446D01*
X0145941Y0133059D02*
X0149500Y0129500D01*
X0152096Y0128449D02*
X0165031Y0128449D01*
X0165031Y0128516D02*
X0165031Y0126638D01*
X0168016Y0126638D01*
X0168016Y0125669D01*
X0168984Y0125669D01*
X0168984Y0122488D01*
X0170666Y0122488D01*
X0171047Y0122590D01*
X0171390Y0122788D01*
X0171669Y0123067D01*
X0171866Y0123409D01*
X0171968Y0123791D01*
X0171968Y0125669D01*
X0168984Y0125669D01*
X0168984Y0126638D01*
X0171968Y0126638D01*
X0171968Y0128516D01*
X0171866Y0128898D01*
X0171669Y0129240D01*
X0171390Y0129519D01*
X0171047Y0129717D01*
X0170946Y0129744D01*
X0171468Y0130267D01*
X0171468Y0135426D01*
X0171195Y0135700D01*
X0172057Y0135700D01*
X0172143Y0135736D01*
X0174000Y0133879D01*
X0174000Y0131879D01*
X0174879Y0131000D01*
X0177579Y0128300D01*
X0176943Y0128300D01*
X0175914Y0127874D01*
X0175126Y0127086D01*
X0174700Y0126057D01*
X0174700Y0124943D01*
X0175126Y0123914D01*
X0175914Y0123126D01*
X0176943Y0122700D01*
X0178057Y0122700D01*
X0179086Y0123126D01*
X0179874Y0123914D01*
X0179909Y0124000D01*
X0181126Y0124000D01*
X0181126Y0123532D01*
X0181528Y0123532D01*
X0181528Y0123531D01*
X0181126Y0123531D01*
X0181126Y0122842D01*
X0181228Y0122460D01*
X0181426Y0122118D01*
X0181528Y0122016D01*
X0181528Y0121649D01*
X0176879Y0117000D01*
X0176000Y0116121D01*
X0176000Y0112300D01*
X0174943Y0112300D01*
X0174857Y0112264D01*
X0174508Y0112613D01*
X0175012Y0113117D01*
X0175012Y0117883D01*
X0174426Y0118468D01*
X0169267Y0118468D01*
X0168744Y0117946D01*
X0168717Y0118047D01*
X0168519Y0118390D01*
X0168240Y0118669D01*
X0167898Y0118866D01*
X0167516Y0118968D01*
X0165638Y0118968D01*
X0165638Y0115984D01*
X0164669Y0115984D01*
X0164669Y0115016D01*
X0161488Y0115016D01*
X0161488Y0113334D01*
X0161590Y0112953D01*
X0161788Y0112610D01*
X0162067Y0112331D01*
X0162409Y0112134D01*
X0162791Y0112031D01*
X0164669Y0112031D01*
X0164669Y0115016D01*
X0165638Y0115016D01*
X0165638Y0112031D01*
X0167516Y0112031D01*
X0167898Y0112134D01*
X0168240Y0112331D01*
X0168519Y0112610D01*
X0168717Y0112953D01*
X0168744Y0113054D01*
X0169267Y0112531D01*
X0171000Y0112531D01*
X0171000Y0111879D01*
X0171879Y0111000D01*
X0172736Y0110143D01*
X0172700Y0110057D01*
X0172700Y0108943D01*
X0173126Y0107914D01*
X0173914Y0107126D01*
X0174943Y0106700D01*
X0176057Y0106700D01*
X0177086Y0107126D01*
X0177874Y0107914D01*
X0178300Y0108943D01*
X0178300Y0110000D01*
X0188121Y0110000D01*
X0189857Y0111736D01*
X0189943Y0111700D01*
X0191057Y0111700D01*
X0192086Y0112126D01*
X0192874Y0112914D01*
X0193300Y0113943D01*
X0193300Y0114579D01*
X0196000Y0111879D01*
X0196000Y0111121D01*
X0192850Y0107971D01*
X0192057Y0108300D01*
X0190943Y0108300D01*
X0189914Y0107874D01*
X0189126Y0107086D01*
X0188700Y0106057D01*
X0188700Y0104943D01*
X0189126Y0103914D01*
X0189914Y0103126D01*
X0190943Y0102700D01*
X0192057Y0102700D01*
X0193086Y0103126D01*
X0193874Y0103914D01*
X0194300Y0104943D01*
X0194300Y0105179D01*
X0198121Y0109000D01*
X0198121Y0109000D01*
X0199000Y0109879D01*
X0199000Y0113121D01*
X0198121Y0114000D01*
X0195752Y0116369D01*
X0195850Y0116426D01*
X0195952Y0116528D01*
X0198829Y0116528D01*
X0199472Y0117171D01*
X0199472Y0120063D01*
X0210184Y0120063D01*
X0223069Y0132948D01*
X0222700Y0132057D01*
X0222700Y0130943D01*
X0223126Y0129914D01*
X0223914Y0129126D01*
X0224943Y0128700D01*
X0226057Y0128700D01*
X0227086Y0129126D01*
X0227874Y0129914D01*
X0227909Y0130000D01*
X0228121Y0130000D01*
X0229000Y0130879D01*
X0233403Y0135281D01*
X0234565Y0134800D01*
X0236435Y0134800D01*
X0238162Y0135516D01*
X0239484Y0136838D01*
X0240200Y0138565D01*
X0240200Y0140435D01*
X0239484Y0142162D01*
X0238162Y0143484D01*
X0236435Y0144200D01*
X0234565Y0144200D01*
X0234149Y0144028D01*
X0234921Y0144800D01*
X0236435Y0144800D01*
X0238162Y0145516D01*
X0239484Y0146838D01*
X0240200Y0148565D01*
X0240200Y0150435D01*
X0239484Y0152162D01*
X0238162Y0153484D01*
X0236435Y0154200D01*
X0234565Y0154200D01*
X0232838Y0153484D01*
X0231516Y0152162D01*
X0231000Y0150918D01*
X0231000Y0152879D01*
X0233403Y0155281D01*
X0234565Y0154800D01*
X0236435Y0154800D01*
X0238162Y0155516D01*
X0239484Y0156838D01*
X0240200Y0158565D01*
X0240200Y0160435D01*
X0239484Y0162162D01*
X0238162Y0163484D01*
X0236435Y0164200D01*
X0234565Y0164200D01*
X0234149Y0164028D01*
X0234921Y0164800D01*
X0236435Y0164800D01*
X0238162Y0165516D01*
X0239484Y0166838D01*
X0240200Y0168565D01*
X0240200Y0170435D01*
X0239484Y0172162D01*
X0238162Y0173484D01*
X0236435Y0174200D01*
X0234565Y0174200D01*
X0232838Y0173484D01*
X0231516Y0172162D01*
X0230800Y0170435D01*
X0230800Y0168565D01*
X0231516Y0166838D01*
X0232116Y0166237D01*
X0228300Y0162421D01*
X0228300Y0163057D01*
X0227874Y0164086D01*
X0227086Y0164874D01*
X0227000Y0164909D01*
X0227000Y0179121D01*
X0225264Y0180857D01*
X0225300Y0180943D01*
X0225300Y0182057D01*
X0224874Y0183086D01*
X0224086Y0183874D01*
X0223057Y0184300D01*
X0221943Y0184300D01*
X0220914Y0183874D01*
X0220126Y0183086D01*
X0219700Y0182057D01*
X0219700Y0180943D01*
X0220126Y0179914D01*
X0220914Y0179126D01*
X0221943Y0178700D01*
X0223057Y0178700D01*
X0223143Y0178736D01*
X0224000Y0177879D01*
X0224000Y0164909D01*
X0223914Y0164874D01*
X0223126Y0164086D01*
X0222700Y0163057D01*
X0222700Y0161943D01*
X0223126Y0160914D01*
X0223914Y0160126D01*
X0224943Y0159700D01*
X0225579Y0159700D01*
X0224300Y0158421D01*
X0224300Y0159057D01*
X0223874Y0160086D01*
X0223086Y0160874D01*
X0222057Y0161300D01*
X0221181Y0161300D01*
X0219000Y0164026D01*
X0219000Y0175091D01*
X0219086Y0175126D01*
X0219874Y0175914D01*
X0220300Y0176943D01*
X0220300Y0178057D01*
X0219874Y0179086D01*
X0219086Y0179874D01*
X0218057Y0180300D01*
X0216943Y0180300D01*
X0215914Y0179874D01*
X0215126Y0179086D01*
X0214700Y0178057D01*
X0214700Y0176943D01*
X0215126Y0175914D01*
X0215914Y0175126D01*
X0216000Y0175091D01*
X0216000Y0164121D01*
X0213300Y0166821D01*
X0213300Y0167057D01*
X0212874Y0168086D01*
X0212086Y0168874D01*
X0211057Y0169300D01*
X0209943Y0169300D01*
X0208914Y0168874D01*
X0208126Y0168086D01*
X0207700Y0167057D01*
X0207700Y0165943D01*
X0208126Y0164914D01*
X0208914Y0164126D01*
X0209943Y0163700D01*
X0211057Y0163700D01*
X0211850Y0164029D01*
X0214000Y0161879D01*
X0214000Y0150121D01*
X0206379Y0142500D01*
X0205879Y0142000D01*
X0204000Y0142000D01*
X0204000Y0151528D01*
X0206531Y0151528D01*
X0206531Y0149574D01*
X0207117Y0148988D01*
X0211883Y0148988D01*
X0212468Y0149574D01*
X0212468Y0154733D01*
X0211946Y0155256D01*
X0212047Y0155283D01*
X0212390Y0155481D01*
X0212669Y0155760D01*
X0212866Y0156102D01*
X0212968Y0156484D01*
X0212968Y0158362D01*
X0209984Y0158362D01*
X0209984Y0159331D01*
X0209016Y0159331D01*
X0209016Y0162512D01*
X0207334Y0162512D01*
X0206953Y0162410D01*
X0206610Y0162212D01*
X0206331Y0161933D01*
X0206134Y0161591D01*
X0206031Y0161209D01*
X0206031Y0159331D01*
X0209016Y0159331D01*
X0209016Y0158362D01*
X0206031Y0158362D01*
X0206031Y0156484D01*
X0206134Y0156102D01*
X0206331Y0155760D01*
X0206610Y0155481D01*
X0206953Y0155283D01*
X0207054Y0155256D01*
X0206531Y0154733D01*
X0206531Y0154528D01*
X0201524Y0154528D01*
X0201524Y0155607D01*
X0200938Y0156193D01*
X0195739Y0156193D01*
X0192932Y0159000D01*
X0178000Y0159000D01*
X0178000Y0164879D01*
X0178121Y0165000D01*
X0179700Y0165000D01*
X0179700Y0163943D01*
X0180126Y0162914D01*
X0180914Y0162126D01*
X0181943Y0161700D01*
X0183057Y0161700D01*
X0184086Y0162126D01*
X0184874Y0162914D01*
X0185300Y0163943D01*
X0185300Y0165057D01*
X0184874Y0166086D01*
X0184086Y0166874D01*
X0183057Y0167300D01*
X0181943Y0167300D01*
X0181857Y0167264D01*
X0181121Y0168000D01*
X0176851Y0168000D01*
X0177311Y0168460D01*
X0177311Y0169008D01*
X0178043Y0169008D01*
X0178043Y0171138D01*
X0178043Y0171370D01*
X0178043Y0173500D01*
X0178043Y0173500D01*
X0180500Y0173500D01*
X0182500Y0171500D01*
X0186500Y0167500D01*
X0186500Y0163500D01*
X0190500Y0159500D01*
X0196500Y0159500D01*
X0201500Y0164500D01*
X0201469Y0164531D01*
X0201469Y0167382D01*
X0201468Y0167382D01*
X0201468Y0170063D01*
X0200933Y0170063D01*
X0201086Y0170126D01*
X0201874Y0170914D01*
X0201937Y0171067D01*
X0201937Y0170532D01*
X0202824Y0170532D01*
X0202824Y0170531D02*
X0202824Y0170531D01*
X0202824Y0170532D01*
X0202824Y0170531D02*
X0201937Y0170531D01*
X0201937Y0170063D01*
X0201469Y0170063D01*
X0201469Y0167382D01*
X0203437Y0167382D01*
X0204618Y0168563D01*
X0204618Y0170531D01*
X0204618Y0170531D01*
X0204618Y0168563D01*
X0204618Y0168563D01*
X0204618Y0168563D01*
X0204618Y0166472D01*
X0203559Y0166472D01*
X0203559Y0166003D01*
X0203457Y0165622D01*
X0203259Y0165280D01*
X0202980Y0165000D01*
X0202638Y0164803D01*
X0202257Y0164701D01*
X0201469Y0164701D01*
X0201469Y0167382D01*
X0201468Y0167382D01*
X0201468Y0164701D01*
X0200680Y0164701D01*
X0200299Y0164803D01*
X0199957Y0165000D01*
X0199757Y0165201D01*
X0196527Y0165201D01*
X0195941Y0165787D01*
X0195941Y0166972D01*
X0193000Y0166972D01*
X0193000Y0166909D01*
X0193086Y0166874D01*
X0193874Y0166086D01*
X0194300Y0165057D01*
X0194300Y0163943D01*
X0193874Y0162914D01*
X0193086Y0162126D01*
X0192057Y0161700D01*
X0190943Y0161700D01*
X0189914Y0162126D01*
X0189126Y0162914D01*
X0188700Y0163943D01*
X0188700Y0165057D01*
X0189126Y0166086D01*
X0189914Y0166874D01*
X0190000Y0166909D01*
X0190000Y0170121D01*
X0190879Y0171000D01*
X0190879Y0171000D01*
X0190300Y0171000D01*
X0190300Y0170943D01*
X0189874Y0169914D01*
X0189086Y0169126D01*
X0188057Y0168700D01*
X0186943Y0168700D01*
X0185914Y0169126D01*
X0185126Y0169914D01*
X0184700Y0170943D01*
X0184700Y0172057D01*
X0185126Y0173086D01*
X0185914Y0173874D01*
X0186943Y0174300D01*
X0187740Y0174300D01*
X0187126Y0174914D01*
X0186700Y0175943D01*
X0186700Y0177057D01*
X0187126Y0178086D01*
X0187914Y0178874D01*
X0188219Y0179000D01*
X0186909Y0179000D01*
X0186874Y0178914D01*
X0186086Y0178126D01*
X0185057Y0177700D01*
X0183943Y0177700D01*
X0183857Y0177736D01*
X0180589Y0174467D01*
X0180626Y0174327D01*
X0180626Y0173500D01*
X0178043Y0173500D01*
X0178043Y0171138D01*
X0178043Y0171138D01*
X0178043Y0173500D01*
X0178043Y0173500D01*
X0180626Y0173500D01*
X0180626Y0172673D01*
X0180531Y0172319D01*
X0180626Y0171965D01*
X0180626Y0171138D01*
X0178043Y0171138D01*
X0178406Y0171500D01*
X0178043Y0171385D02*
X0178043Y0171385D01*
X0178043Y0171138D02*
X0178043Y0171138D01*
X0178043Y0171138D01*
X0178043Y0169008D01*
X0179323Y0169008D01*
X0179705Y0169110D01*
X0180047Y0169308D01*
X0180326Y0169587D01*
X0180524Y0169929D01*
X0180626Y0170310D01*
X0180626Y0171138D01*
X0178043Y0171138D01*
X0178043Y0170387D02*
X0178043Y0170387D01*
X0178043Y0169388D02*
X0178043Y0169388D01*
X0177241Y0168390D02*
X0190000Y0168390D01*
X0190000Y0169388D02*
X0189348Y0169388D01*
X0190070Y0170387D02*
X0190266Y0170387D01*
X0191500Y0169500D02*
X0191500Y0164500D01*
X0194074Y0163397D02*
X0212481Y0163397D01*
X0212047Y0162410D02*
X0211666Y0162512D01*
X0209984Y0162512D01*
X0209984Y0159331D01*
X0212968Y0159331D01*
X0212968Y0161209D01*
X0212866Y0161591D01*
X0212669Y0161933D01*
X0212390Y0162212D01*
X0212047Y0162410D01*
X0212066Y0162399D02*
X0213480Y0162399D01*
X0214000Y0161400D02*
X0212917Y0161400D01*
X0212968Y0160402D02*
X0214000Y0160402D01*
X0214000Y0159403D02*
X0212968Y0159403D01*
X0214000Y0158405D02*
X0209984Y0158405D01*
X0209500Y0158846D02*
X0206500Y0159500D01*
X0201500Y0164500D01*
X0201468Y0165394D02*
X0201469Y0165394D01*
X0201468Y0166393D02*
X0201469Y0166393D01*
X0201500Y0167350D02*
X0201469Y0167382D01*
X0201468Y0167391D02*
X0201469Y0167391D01*
X0201468Y0168390D02*
X0201469Y0168390D01*
X0201468Y0169388D02*
X0201469Y0169388D01*
X0201347Y0170387D02*
X0201937Y0170387D01*
X0204618Y0170387D02*
X0204618Y0170387D01*
X0204618Y0170409D02*
X0204618Y0168563D01*
X0204618Y0166472D01*
X0205997Y0166472D01*
X0206378Y0166575D01*
X0206720Y0166772D01*
X0206999Y0167051D01*
X0207197Y0167393D01*
X0207299Y0167775D01*
X0207299Y0168563D01*
X0207299Y0169351D01*
X0207247Y0169547D01*
X0207299Y0169743D01*
X0207299Y0170531D01*
X0206413Y0170531D01*
X0206412Y0170531D01*
X0206413Y0170532D01*
X0207299Y0170532D01*
X0207299Y0171320D01*
X0207247Y0171516D01*
X0207299Y0171712D01*
X0207299Y0172500D01*
X0207299Y0173288D01*
X0207247Y0173484D01*
X0207299Y0173680D01*
X0207299Y0174468D01*
X0206413Y0174468D01*
X0206412Y0174469D01*
X0206413Y0174469D01*
X0207299Y0174469D01*
X0207299Y0175257D01*
X0207247Y0175453D01*
X0207299Y0175649D01*
X0207299Y0176437D01*
X0207299Y0177225D01*
X0207197Y0177607D01*
X0206999Y0177949D01*
X0206720Y0178228D01*
X0206378Y0178425D01*
X0205997Y0178528D01*
X0204618Y0178528D01*
X0203240Y0178528D01*
X0203059Y0178479D01*
X0203059Y0179213D01*
X0203000Y0179272D01*
X0203000Y0180091D01*
X0203086Y0180126D01*
X0203874Y0180914D01*
X0204300Y0181943D01*
X0204300Y0183057D01*
X0203874Y0184086D01*
X0203086Y0184874D01*
X0202781Y0185000D01*
X0216121Y0185000D01*
X0219121Y0188000D01*
X0220000Y0188879D01*
X0220000Y0191879D01*
X0233403Y0205281D01*
X0234565Y0204800D01*
X0236435Y0204800D01*
X0238162Y0205516D01*
X0239484Y0206838D01*
X0240200Y0208565D01*
X0240200Y0210435D01*
X0239484Y0212162D01*
X0238162Y0213484D01*
X0236435Y0214200D01*
X0234565Y0214200D01*
X0232838Y0213484D01*
X0231516Y0212162D01*
X0230800Y0210435D01*
X0230800Y0208565D01*
X0231281Y0207403D01*
X0217000Y0193121D01*
X0217000Y0190121D01*
X0214879Y0188000D01*
X0201781Y0188000D01*
X0202086Y0188126D01*
X0202874Y0188914D01*
X0203300Y0189943D01*
X0203300Y0191057D01*
X0202909Y0192000D01*
X0203091Y0192000D01*
X0203126Y0191914D01*
X0203914Y0191126D01*
X0204943Y0190700D01*
X0206057Y0190700D01*
X0207086Y0191126D01*
X0207874Y0191914D01*
X0208300Y0192943D01*
X0208300Y0194057D01*
X0207909Y0195000D01*
X0208121Y0195000D01*
X0210484Y0197362D01*
X0210759Y0197638D01*
X0212698Y0197638D01*
X0212878Y0197457D01*
X0213220Y0197260D01*
X0213602Y0197157D01*
X0214587Y0197157D01*
X0215571Y0197157D01*
X0215953Y0197260D01*
X0216295Y0197457D01*
X0216476Y0197638D01*
X0217765Y0197638D01*
X0218362Y0198235D01*
X0218362Y0210942D01*
X0219000Y0211579D01*
X0219000Y0220121D01*
X0218121Y0221000D01*
X0212121Y0227000D01*
X0218091Y0227000D01*
X0218126Y0226914D01*
X0218914Y0226126D01*
X0219943Y0225700D01*
X0221057Y0225700D01*
X0222086Y0226126D01*
X0222874Y0226914D01*
X0223300Y0227943D01*
X0223300Y0229057D01*
X0222874Y0230086D01*
X0222086Y0230874D01*
X0221057Y0231300D01*
X0219943Y0231300D01*
X0218914Y0230874D01*
X0218126Y0230086D01*
X0218091Y0230000D01*
X0202879Y0230000D01*
X0202000Y0229121D01*
X0200931Y0228052D01*
X0201300Y0228943D01*
X0201300Y0230057D01*
X0200874Y0231086D01*
X0200086Y0231874D01*
X0199057Y0232300D01*
X0197943Y0232300D01*
X0196914Y0231874D01*
X0196126Y0231086D01*
X0196091Y0231000D01*
X0191879Y0231000D01*
X0191000Y0230121D01*
X0189000Y0228121D01*
X0189000Y0231121D01*
X0188121Y0232000D01*
X0185098Y0235023D01*
X0185524Y0235448D01*
X0185524Y0236000D01*
X0197988Y0236000D01*
X0197988Y0235117D01*
X0198574Y0234531D01*
X0203733Y0234531D01*
X0204256Y0235054D01*
X0204283Y0234953D01*
X0204481Y0234610D01*
X0204760Y0234331D01*
X0205102Y0234134D01*
X0205484Y0234031D01*
X0207362Y0234031D01*
X0207362Y0237016D01*
X0208331Y0237016D01*
X0208331Y0237984D01*
X0211512Y0237984D01*
X0211512Y0239666D01*
X0211410Y0240047D01*
X0211212Y0240390D01*
X0210933Y0240669D01*
X0210591Y0240866D01*
X0210209Y0240968D01*
X0208331Y0240968D01*
X0208331Y0237984D01*
X0207362Y0237984D01*
X0207362Y0240968D01*
X0205484Y0240968D01*
X0205102Y0240866D01*
X0204760Y0240669D01*
X0204481Y0240390D01*
X0204283Y0240047D01*
X0204256Y0239946D01*
X0203733Y0240468D01*
X0198574Y0240468D01*
X0197988Y0239883D01*
X0197988Y0239000D01*
X0185524Y0239000D01*
X0185524Y0240607D01*
X0184938Y0241193D01*
X0176629Y0241193D01*
X0176043Y0240607D01*
X0176043Y0235448D01*
X0176629Y0234862D01*
X0181016Y0234862D01*
X0183741Y0232138D01*
X0176629Y0232138D01*
X0176043Y0231552D01*
X0176043Y0226393D01*
X0176629Y0225807D01*
X0179686Y0225807D01*
X0179000Y0225121D01*
X0178000Y0224121D01*
X0178000Y0224121D01*
X0177121Y0225000D01*
X0171649Y0230472D01*
X0170957Y0230472D01*
X0170957Y0231552D01*
X0170371Y0232138D01*
X0165173Y0232138D01*
X0164189Y0233121D01*
X0163310Y0234000D01*
X0160909Y0234000D01*
X0160874Y0234086D01*
X0160086Y0234874D01*
X0159057Y0235300D01*
X0157943Y0235300D01*
X0156914Y0234874D01*
X0156126Y0234086D01*
X0155700Y0233057D01*
X0155700Y0231943D01*
X0156126Y0230914D01*
X0156914Y0230126D01*
X0157943Y0229700D01*
X0159057Y0229700D01*
X0160086Y0230126D01*
X0160874Y0230914D01*
X0160909Y0231000D01*
X0161476Y0231000D01*
X0161476Y0226393D01*
X0161679Y0226191D01*
X0160914Y0225874D01*
X0160126Y0225086D01*
X0159700Y0224057D01*
X0159700Y0222943D01*
X0160091Y0222000D01*
X0146879Y0222000D01*
X0146000Y0221121D01*
X0138654Y0213775D01*
X0138654Y0210468D01*
X0137574Y0210468D01*
X0136988Y0209883D01*
X0136988Y0205117D01*
X0137574Y0204531D01*
X0142733Y0204531D01*
X0143256Y0205054D01*
X0143283Y0204953D01*
X0143481Y0204610D01*
X0143760Y0204331D01*
X0144102Y0204134D01*
X0144484Y0204031D01*
X0146362Y0204031D01*
X0146362Y0207016D01*
X0147331Y0207016D01*
X0147331Y0207984D01*
X0150512Y0207984D01*
X0150512Y0209666D01*
X0150410Y0210047D01*
X0150212Y0210390D01*
X0149933Y0210669D01*
X0149591Y0210866D01*
X0149209Y0210968D01*
X0147331Y0210968D01*
X0147331Y0207984D01*
X0146362Y0207984D01*
X0146362Y0210968D01*
X0144484Y0210968D01*
X0144102Y0210866D01*
X0143760Y0210669D01*
X0143481Y0210390D01*
X0143283Y0210047D01*
X0143256Y0209946D01*
X0142733Y0210468D01*
X0141654Y0210468D01*
X0141654Y0212532D01*
X0148121Y0219000D01*
X0159879Y0219000D01*
X0154879Y0214000D01*
X0154879Y0214000D01*
X0154000Y0213121D01*
X0154000Y0207879D01*
X0156000Y0205879D01*
X0156879Y0205000D01*
X0161879Y0205000D01*
X0162000Y0204879D01*
X0162000Y0201895D01*
X0161426Y0202468D01*
X0156267Y0202468D01*
X0155744Y0201946D01*
X0155717Y0202047D01*
X0155519Y0202390D01*
X0155240Y0202669D01*
X0154898Y0202866D01*
X0154516Y0202968D01*
X0152638Y0202968D01*
X0152638Y0199984D01*
X0151669Y0199984D01*
X0151669Y0199016D01*
X0148488Y0199016D01*
X0148488Y0197334D01*
X0148590Y0196953D01*
X0148788Y0196610D01*
X0149067Y0196331D01*
X0149409Y0196134D01*
X0149791Y0196031D01*
X0151669Y0196031D01*
X0151669Y0199016D01*
X0152638Y0199016D01*
X0152638Y0196031D01*
X0154516Y0196031D01*
X0154898Y0196134D01*
X0155240Y0196331D01*
X0155519Y0196610D01*
X0155717Y0196953D01*
X0155744Y0197054D01*
X0156267Y0196531D01*
X0157347Y0196531D01*
X0158225Y0195654D01*
X0159879Y0194000D01*
X0165879Y0194000D01*
X0168000Y0191879D01*
X0168000Y0191879D01*
X0168879Y0191000D01*
X0174121Y0191000D01*
X0175000Y0191879D01*
X0177000Y0193879D01*
X0177000Y0199121D01*
X0176121Y0200000D01*
X0176016Y0200106D01*
X0176016Y0200559D01*
X0177000Y0200559D01*
X0177000Y0196532D01*
X0179988Y0193544D01*
X0179988Y0190117D01*
X0180574Y0189531D01*
X0185733Y0189531D01*
X0186319Y0190117D01*
X0186319Y0190213D01*
X0186636Y0190340D01*
X0186681Y0190445D01*
X0186681Y0190117D01*
X0187267Y0189531D01*
X0190694Y0189531D01*
X0191225Y0189000D01*
X0198091Y0189000D01*
X0198126Y0188914D01*
X0198914Y0188126D01*
X0199219Y0188000D01*
X0192879Y0188000D01*
X0192500Y0187621D01*
X0192121Y0188000D01*
X0160121Y0188000D01*
X0158121Y0190000D01*
X0154789Y0190000D01*
X0154480Y0190123D01*
X0154192Y0190000D01*
X0153879Y0190000D01*
X0153644Y0189765D01*
X0147192Y0187000D01*
X0145781Y0187000D01*
X0146086Y0187126D01*
X0146874Y0187914D01*
X0147300Y0188943D01*
X0147300Y0190057D01*
X0146874Y0191086D01*
X0146086Y0191874D01*
X0146000Y0191909D01*
X0146000Y0194531D01*
X0146426Y0194531D01*
X0147012Y0195117D01*
X0147012Y0199883D01*
X0146426Y0200468D01*
X0141267Y0200468D01*
X0140681Y0199883D01*
X0140681Y0195117D01*
X0141267Y0194531D01*
X0143000Y0194531D01*
X0143000Y0191909D01*
X0142914Y0191874D01*
X0142126Y0191086D01*
X0141700Y0190057D01*
X0141700Y0188943D01*
X0142126Y0187914D01*
X0142914Y0187126D01*
X0143219Y0187000D01*
X0140225Y0187000D01*
X0139346Y0186121D01*
X0135694Y0182468D01*
X0132267Y0182468D01*
X0131681Y0181883D01*
X0131681Y0177117D01*
X0132267Y0176531D01*
X0135694Y0176531D01*
X0141315Y0170910D01*
X0142194Y0170031D01*
X0149701Y0170031D01*
X0149701Y0169563D01*
X0149701Y0168775D01*
X0149803Y0168393D01*
X0150000Y0168051D01*
X0150280Y0167772D01*
X0150622Y0167575D01*
X0151003Y0167472D01*
X0152382Y0167472D01*
X0153760Y0167472D01*
X0153941Y0167521D01*
X0153941Y0166787D01*
X0154031Y0166696D01*
X0154031Y0163300D01*
X0152943Y0163300D01*
X0151914Y0162874D01*
X0151126Y0162086D01*
X0151091Y0162000D01*
X0150121Y0162000D01*
X0141121Y0171000D01*
X0138012Y0171000D01*
X0138012Y0171883D01*
X0137426Y0172468D01*
X0132267Y0172468D01*
X0131681Y0171883D01*
X0131681Y0167117D01*
X0132267Y0166531D01*
X0137426Y0166531D01*
X0138012Y0167117D01*
X0138012Y0168000D01*
X0139879Y0168000D01*
X0148000Y0159879D01*
X0148879Y0159000D01*
X0151091Y0159000D01*
X0151126Y0158914D01*
X0151914Y0158126D01*
X0152219Y0158000D01*
X0138468Y0158000D01*
X0138012Y0158456D01*
X0138012Y0161883D01*
X0137426Y0162468D01*
X0132267Y0162468D01*
X0131681Y0161883D01*
X0131681Y0157117D01*
X0132267Y0156531D01*
X0135694Y0156531D01*
X0136346Y0155879D01*
X0137225Y0155000D01*
X0147219Y0155000D01*
X0146914Y0154874D01*
X0146126Y0154086D01*
X0146091Y0154000D01*
X0145879Y0154000D01*
X0143879Y0152000D01*
X0143000Y0151121D01*
X0143000Y0149272D01*
X0142149Y0149272D01*
X0141563Y0148686D01*
X0141563Y0144314D01*
X0142149Y0143728D01*
X0145733Y0143728D01*
X0146319Y0144314D01*
X0146319Y0148686D01*
X0146000Y0149005D01*
X0146000Y0149879D01*
X0146581Y0150459D01*
X0146914Y0150126D01*
X0147943Y0149700D01*
X0149057Y0149700D01*
X0150086Y0150126D01*
X0150874Y0150914D01*
X0151300Y0151943D01*
X0151300Y0153057D01*
X0150874Y0154086D01*
X0150086Y0154874D01*
X0149781Y0155000D01*
X0157121Y0155000D01*
X0158000Y0155879D01*
X0160000Y0157879D01*
X0160000Y0159000D01*
X0165879Y0159000D01*
X0169000Y0155879D01*
X0169000Y0155879D01*
X0169879Y0155000D01*
X0173879Y0155000D01*
X0172346Y0153468D01*
X0172346Y0152468D01*
X0171267Y0152468D01*
X0170681Y0151883D01*
X0170681Y0147117D01*
X0171267Y0146531D01*
X0176426Y0146531D01*
X0177012Y0147117D01*
X0177012Y0151883D01*
X0176426Y0152468D01*
X0175590Y0152468D01*
X0177476Y0154355D01*
X0177476Y0150448D01*
X0178062Y0149862D01*
X0186371Y0149862D01*
X0186957Y0150448D01*
X0186957Y0155607D01*
X0186564Y0156000D01*
X0191690Y0156000D01*
X0192063Y0155627D01*
X0192043Y0155607D01*
X0192043Y0150448D01*
X0192629Y0149862D01*
X0200938Y0149862D01*
X0201000Y0149924D01*
X0201000Y0147076D01*
X0200938Y0147138D01*
X0192629Y0147138D01*
X0192043Y0146552D01*
X0192043Y0141393D01*
X0192436Y0141000D01*
X0189879Y0141000D01*
X0189000Y0140121D01*
X0187031Y0138153D01*
X0187031Y0137090D01*
X0183717Y0140405D01*
X0183717Y0140807D01*
X0186371Y0140807D01*
X0186957Y0141393D01*
X0186957Y0146552D01*
X0186371Y0147138D01*
X0178062Y0147138D01*
X0177476Y0146552D01*
X0177476Y0144000D01*
X0172775Y0144000D01*
X0169988Y0146787D01*
X0170319Y0147117D01*
X0170319Y0151883D01*
X0169733Y0152468D01*
X0164574Y0152468D01*
X0163988Y0151883D01*
X0163988Y0147117D01*
X0164574Y0146531D01*
X0165654Y0146531D01*
X0165654Y0135548D01*
X0165531Y0135426D01*
X0165531Y0130267D01*
X0166054Y0129744D01*
X0165953Y0129717D01*
X0165610Y0129519D01*
X0165331Y0129240D01*
X0165134Y0128898D01*
X0165031Y0128516D01*
X0165539Y0129448D02*
X0156408Y0129448D01*
X0157094Y0130446D02*
X0165531Y0130446D01*
X0165531Y0131445D02*
X0157300Y0131445D01*
X0157140Y0132443D02*
X0165531Y0132443D01*
X0165531Y0133442D02*
X0156518Y0133442D01*
X0154500Y0131500D02*
X0149059Y0136941D01*
X0149059Y0139500D01*
X0149059Y0146500D01*
X0146681Y0146423D02*
X0146319Y0146423D01*
X0146319Y0147421D02*
X0146681Y0147421D01*
X0146681Y0148420D02*
X0146319Y0148420D01*
X0146000Y0149418D02*
X0163988Y0149418D01*
X0163988Y0148420D02*
X0151437Y0148420D01*
X0151437Y0147421D02*
X0163988Y0147421D01*
X0165654Y0146423D02*
X0151437Y0146423D01*
X0151437Y0145424D02*
X0165654Y0145424D01*
X0165654Y0144426D02*
X0151437Y0144426D01*
X0150559Y0143427D02*
X0165654Y0143427D01*
X0165654Y0142429D02*
X0150559Y0142429D01*
X0151437Y0141430D02*
X0165654Y0141430D01*
X0165654Y0140432D02*
X0151437Y0140432D01*
X0151437Y0139433D02*
X0165654Y0139433D01*
X0165654Y0138434D02*
X0151437Y0138434D01*
X0151437Y0137436D02*
X0165654Y0137436D01*
X0165654Y0136437D02*
X0151684Y0136437D01*
X0152682Y0135439D02*
X0165544Y0135439D01*
X0165531Y0134440D02*
X0153681Y0134440D01*
X0151435Y0132443D02*
X0148678Y0132443D01*
X0147679Y0133442D02*
X0150437Y0133442D01*
X0149438Y0134440D02*
X0147272Y0134440D01*
X0148440Y0135439D02*
X0120346Y0135439D01*
X0120346Y0136437D02*
X0147559Y0136437D01*
X0146681Y0137436D02*
X0146319Y0137436D01*
X0146319Y0137314D02*
X0146319Y0141686D01*
X0145733Y0142272D01*
X0142149Y0142272D01*
X0141563Y0141686D01*
X0141563Y0141000D01*
X0138012Y0141000D01*
X0138012Y0141883D01*
X0137426Y0142468D01*
X0132267Y0142468D01*
X0131681Y0141883D01*
X0131681Y0137117D01*
X0132267Y0136531D01*
X0137426Y0136531D01*
X0138012Y0137117D01*
X0138012Y0138000D01*
X0141563Y0138000D01*
X0141563Y0137314D01*
X0142149Y0136728D01*
X0145733Y0136728D01*
X0146319Y0137314D01*
X0146319Y0138434D02*
X0146681Y0138434D01*
X0146681Y0139433D02*
X0146319Y0139433D01*
X0146319Y0140432D02*
X0146681Y0140432D01*
X0146681Y0141430D02*
X0146319Y0141430D01*
X0147559Y0142429D02*
X0137466Y0142429D01*
X0138012Y0141430D02*
X0141563Y0141430D01*
X0141563Y0144426D02*
X0098000Y0144426D01*
X0098000Y0144000D02*
X0098000Y0139314D01*
X0098000Y0135000D01*
X0097000Y0135000D01*
X0097000Y0144000D01*
X0098000Y0144000D01*
X0098000Y0143427D02*
X0097000Y0143427D01*
X0097000Y0142429D02*
X0098000Y0142429D01*
X0098000Y0141430D02*
X0097000Y0141430D01*
X0097000Y0140432D02*
X0098000Y0140432D01*
X0098000Y0139433D02*
X0097000Y0139433D01*
X0097000Y0138434D02*
X0098000Y0138434D01*
X0098000Y0137436D02*
X0097000Y0137436D01*
X0097000Y0136437D02*
X0098000Y0136437D01*
X0098000Y0135439D02*
X0097000Y0135439D01*
X0097500Y0134500D02*
X0097500Y0124500D01*
X0097500Y0114500D01*
X0098000Y0114470D02*
X0108154Y0114470D01*
X0108154Y0113472D02*
X0102602Y0113472D01*
X0102572Y0113282D02*
X0102686Y0114000D01*
X0098000Y0114000D01*
X0098000Y0109314D01*
X0098718Y0109428D01*
X0099496Y0109681D01*
X0100225Y0110053D01*
X0100888Y0110534D01*
X0101466Y0111112D01*
X0101947Y0111775D01*
X0102319Y0112504D01*
X0102572Y0113282D01*
X0102303Y0112473D02*
X0108154Y0112473D01*
X0108154Y0111475D02*
X0101730Y0111475D01*
X0100808Y0110476D02*
X0122264Y0110476D01*
X0122264Y0109478D02*
X0122098Y0109478D01*
X0122098Y0108479D02*
X0122264Y0108479D01*
X0122264Y0111475D02*
X0116846Y0111475D01*
X0116846Y0112473D02*
X0117567Y0112473D01*
X0116895Y0113472D02*
X0116846Y0113472D01*
X0116846Y0115469D02*
X0116871Y0115469D01*
X0116341Y0116467D02*
X0117507Y0116467D01*
X0120000Y0117466D02*
X0101773Y0117466D01*
X0102328Y0116467D02*
X0108659Y0116467D01*
X0108154Y0115469D02*
X0102611Y0115469D01*
X0100890Y0118464D02*
X0120000Y0118464D01*
X0120000Y0119463D02*
X0099054Y0119463D01*
X0098000Y0119463D02*
X0097000Y0119463D01*
X0097000Y0120461D02*
X0098000Y0120461D01*
X0098000Y0121460D02*
X0097000Y0121460D01*
X0097000Y0122458D02*
X0098000Y0122458D01*
X0098000Y0123457D02*
X0097000Y0123457D01*
X0097000Y0124000D02*
X0098000Y0124000D01*
X0098000Y0119314D01*
X0098000Y0115000D01*
X0097000Y0115000D01*
X0097000Y0124000D01*
X0097000Y0125000D02*
X0097000Y0134000D01*
X0098000Y0134000D01*
X0098000Y0129314D01*
X0098000Y0125000D01*
X0097000Y0125000D01*
X0097000Y0125454D02*
X0098000Y0125454D01*
X0098000Y0126452D02*
X0097000Y0126452D01*
X0097000Y0127451D02*
X0098000Y0127451D01*
X0098000Y0128449D02*
X0097000Y0128449D01*
X0097000Y0129448D02*
X0098000Y0129448D01*
X0098000Y0130446D02*
X0097000Y0130446D01*
X0097000Y0131445D02*
X0098000Y0131445D01*
X0098000Y0132443D02*
X0097000Y0132443D01*
X0097000Y0133442D02*
X0098000Y0133442D01*
X0098000Y0134440D02*
X0117346Y0134440D01*
X0117346Y0133442D02*
X0102597Y0133442D01*
X0102288Y0132443D02*
X0117346Y0132443D01*
X0117346Y0131445D02*
X0101708Y0131445D01*
X0100767Y0130446D02*
X0117346Y0130446D01*
X0116405Y0129448D02*
X0099099Y0129448D01*
X0100905Y0128449D02*
X0115407Y0128449D01*
X0114408Y0127451D02*
X0101784Y0127451D01*
X0102333Y0126452D02*
X0113410Y0126452D01*
X0112500Y0123421D02*
X0118846Y0129768D01*
X0118846Y0139500D01*
X0128154Y0139500D01*
X0131319Y0139433D02*
X0131681Y0139433D01*
X0131681Y0138434D02*
X0131319Y0138434D01*
X0131319Y0137436D02*
X0131681Y0137436D01*
X0131681Y0140432D02*
X0131319Y0140432D01*
X0131319Y0141430D02*
X0131681Y0141430D01*
X0132227Y0142429D02*
X0130773Y0142429D01*
X0131669Y0146423D02*
X0115331Y0146423D01*
X0112638Y0146423D02*
X0111669Y0146423D01*
X0111669Y0147421D02*
X0112638Y0147421D01*
X0112638Y0148420D02*
X0111669Y0148420D01*
X0111669Y0149418D02*
X0099191Y0149418D01*
X0098000Y0149418D02*
X0097000Y0149418D01*
X0097000Y0148420D02*
X0098000Y0148420D01*
X0098000Y0149314D02*
X0098000Y0145000D01*
X0097000Y0145000D01*
X0097000Y0154000D01*
X0098000Y0154000D01*
X0098000Y0149314D01*
X0098000Y0150417D02*
X0097000Y0150417D01*
X0097000Y0151415D02*
X0098000Y0151415D01*
X0098000Y0152414D02*
X0097000Y0152414D01*
X0097000Y0153412D02*
X0098000Y0153412D01*
X0098000Y0154411D02*
X0117346Y0154411D01*
X0117346Y0155409D02*
X0102621Y0155409D01*
X0102348Y0156408D02*
X0108991Y0156408D01*
X0108488Y0157406D02*
X0101816Y0157406D01*
X0100949Y0158405D02*
X0108488Y0158405D01*
X0108488Y0159984D02*
X0111669Y0159984D01*
X0111669Y0162968D01*
X0109791Y0162968D01*
X0109409Y0162866D01*
X0109067Y0162669D01*
X0108788Y0162390D01*
X0108590Y0162047D01*
X0108488Y0161666D01*
X0108488Y0159984D01*
X0108488Y0160402D02*
X0100706Y0160402D01*
X0101675Y0161400D02*
X0108488Y0161400D01*
X0108797Y0162399D02*
X0102265Y0162399D01*
X0102590Y0163397D02*
X0117346Y0163397D01*
X0117346Y0164396D02*
X0098000Y0164396D01*
X0098000Y0164000D02*
X0098000Y0159686D01*
X0098000Y0155000D01*
X0097000Y0155000D01*
X0097000Y0164000D01*
X0098000Y0164000D01*
X0098000Y0163397D02*
X0097000Y0163397D01*
X0097000Y0162399D02*
X0098000Y0162399D01*
X0098000Y0161400D02*
X0097000Y0161400D01*
X0097000Y0160402D02*
X0098000Y0160402D01*
X0098000Y0159403D02*
X0097000Y0159403D01*
X0097000Y0158405D02*
X0098000Y0158405D01*
X0098000Y0157406D02*
X0097000Y0157406D01*
X0097000Y0156408D02*
X0098000Y0156408D01*
X0098000Y0155409D02*
X0097000Y0155409D01*
X0097500Y0154500D02*
X0097500Y0144500D01*
X0097500Y0134500D01*
X0102616Y0135439D02*
X0117346Y0135439D01*
X0117346Y0136437D02*
X0115346Y0136437D01*
X0112638Y0136437D02*
X0111669Y0136437D01*
X0111669Y0137436D02*
X0112638Y0137436D01*
X0112638Y0138434D02*
X0111669Y0138434D01*
X0111669Y0139433D02*
X0099145Y0139433D01*
X0100747Y0140432D02*
X0108488Y0140432D01*
X0108488Y0139984D02*
X0111669Y0139984D01*
X0111669Y0142968D01*
X0109791Y0142968D01*
X0109409Y0142866D01*
X0109067Y0142669D01*
X0108788Y0142390D01*
X0108590Y0142047D01*
X0108488Y0141666D01*
X0108488Y0139984D01*
X0108488Y0141430D02*
X0101697Y0141430D01*
X0102281Y0142429D02*
X0108827Y0142429D01*
X0111669Y0142429D02*
X0112638Y0142429D01*
X0112638Y0141430D02*
X0111669Y0141430D01*
X0111669Y0140432D02*
X0112638Y0140432D01*
X0112154Y0139500D02*
X0112154Y0149500D01*
X0111500Y0149500D01*
X0107500Y0145500D01*
X0107500Y0134500D01*
X0110500Y0131500D01*
X0108961Y0136437D02*
X0102338Y0136437D01*
X0101794Y0137436D02*
X0108488Y0137436D01*
X0108488Y0138434D02*
X0100919Y0138434D01*
X0102595Y0143427D02*
X0147559Y0143427D01*
X0146681Y0144426D02*
X0146319Y0144426D01*
X0146319Y0145424D02*
X0146681Y0145424D01*
X0144500Y0147059D02*
X0143941Y0146500D01*
X0144500Y0147059D02*
X0144500Y0150500D01*
X0146500Y0152500D01*
X0148500Y0152500D01*
X0151081Y0151415D02*
X0163988Y0151415D01*
X0163988Y0150417D02*
X0150376Y0150417D01*
X0151300Y0152414D02*
X0164519Y0152414D01*
X0162500Y0153500D02*
X0162500Y0139500D01*
X0160500Y0137500D01*
X0160500Y0124500D01*
X0161000Y0124000D01*
X0156500Y0119500D01*
X0148846Y0119500D01*
X0149331Y0119463D02*
X0179341Y0119463D01*
X0178343Y0118464D02*
X0174430Y0118464D01*
X0175012Y0117466D02*
X0177344Y0117466D01*
X0176346Y0116467D02*
X0175012Y0116467D01*
X0175012Y0115469D02*
X0176000Y0115469D01*
X0176000Y0114470D02*
X0175012Y0114470D01*
X0175012Y0113472D02*
X0176000Y0113472D01*
X0176000Y0112473D02*
X0174648Y0112473D01*
X0172500Y0112500D02*
X0172500Y0114846D01*
X0171846Y0115500D01*
X0172500Y0112500D02*
X0175500Y0109500D01*
X0178300Y0109478D02*
X0194356Y0109478D01*
X0193358Y0108479D02*
X0178108Y0108479D01*
X0177440Y0107481D02*
X0189521Y0107481D01*
X0188876Y0106482D02*
X0150839Y0106482D01*
X0150839Y0107481D02*
X0173560Y0107481D01*
X0172892Y0108479D02*
X0150839Y0108479D01*
X0149056Y0110476D02*
X0144736Y0110476D01*
X0144736Y0109478D02*
X0144902Y0109478D01*
X0144902Y0108479D02*
X0144736Y0108479D01*
X0144736Y0107481D02*
X0144902Y0107481D01*
X0144902Y0106482D02*
X0144196Y0106482D01*
X0144638Y0105484D02*
X0145260Y0105484D01*
X0144500Y0103500D02*
X0157800Y0103500D01*
X0160800Y0100500D01*
X0165500Y0100491D02*
X0171700Y0100491D01*
X0172200Y0100500D02*
X0172200Y0102800D01*
X0165500Y0109500D01*
X0165500Y0115154D01*
X0165154Y0115500D01*
X0165154Y0119846D01*
X0163500Y0121500D01*
X0161000Y0124000D01*
X0163500Y0121500D02*
X0165500Y0121500D01*
X0168500Y0124500D01*
X0168500Y0126154D01*
X0168984Y0126452D02*
X0174864Y0126452D01*
X0174700Y0125454D02*
X0171968Y0125454D01*
X0171968Y0124455D02*
X0174902Y0124455D01*
X0175583Y0123457D02*
X0171879Y0123457D01*
X0168984Y0123457D02*
X0168016Y0123457D01*
X0168016Y0122488D02*
X0168016Y0125669D01*
X0165031Y0125669D01*
X0165031Y0123791D01*
X0165134Y0123409D01*
X0165331Y0123067D01*
X0165610Y0122788D01*
X0165953Y0122590D01*
X0166334Y0122488D01*
X0168016Y0122488D01*
X0168016Y0124455D02*
X0168984Y0124455D01*
X0168984Y0125454D02*
X0168016Y0125454D01*
X0168016Y0126452D02*
X0147272Y0126452D01*
X0147272Y0127451D02*
X0147589Y0127451D01*
X0146000Y0125454D02*
X0165031Y0125454D01*
X0165031Y0124455D02*
X0146000Y0124455D01*
X0146000Y0123457D02*
X0165121Y0123457D01*
X0165500Y0121500D02*
X0179500Y0121500D01*
X0181500Y0123500D01*
X0183382Y0123500D01*
X0183413Y0123531D01*
X0185531Y0123531D01*
X0189000Y0127000D01*
X0194437Y0121563D01*
X0194437Y0118413D01*
X0219154Y0118413D01*
X0219154Y0118500D01*
X0218669Y0118464D02*
X0199472Y0118464D01*
X0199472Y0117466D02*
X0215488Y0117466D01*
X0215488Y0118016D02*
X0215488Y0116334D01*
X0215590Y0115953D01*
X0215788Y0115610D01*
X0216067Y0115331D01*
X0216409Y0115134D01*
X0216791Y0115031D01*
X0218669Y0115031D01*
X0218669Y0118016D01*
X0215488Y0118016D01*
X0215488Y0118984D02*
X0218669Y0118984D01*
X0218669Y0118016D01*
X0219638Y0118016D01*
X0219638Y0115031D01*
X0221516Y0115031D01*
X0221898Y0115134D01*
X0222240Y0115331D01*
X0222519Y0115610D01*
X0222717Y0115953D01*
X0222744Y0116054D01*
X0223267Y0115531D01*
X0224410Y0115531D01*
X0222879Y0114000D01*
X0216121Y0114000D01*
X0214121Y0116000D01*
X0211909Y0116000D01*
X0211874Y0116086D01*
X0211086Y0116874D01*
X0210057Y0117300D01*
X0208943Y0117300D01*
X0207914Y0116874D01*
X0207126Y0116086D01*
X0206700Y0115057D01*
X0206700Y0113943D01*
X0207126Y0112914D01*
X0207914Y0112126D01*
X0208943Y0111700D01*
X0210057Y0111700D01*
X0211086Y0112126D01*
X0211874Y0112914D01*
X0211909Y0113000D01*
X0212879Y0113000D01*
X0214000Y0111879D01*
X0214879Y0111000D01*
X0224121Y0111000D01*
X0227121Y0114000D01*
X0228000Y0114879D01*
X0228000Y0115531D01*
X0228426Y0115531D01*
X0229012Y0116117D01*
X0229012Y0120883D01*
X0228426Y0121468D01*
X0223267Y0121468D01*
X0222744Y0120946D01*
X0222717Y0121047D01*
X0222519Y0121390D01*
X0222240Y0121669D01*
X0221898Y0121866D01*
X0221516Y0121968D01*
X0219638Y0121968D01*
X0219638Y0118984D01*
X0218669Y0118984D01*
X0218669Y0121968D01*
X0216791Y0121968D01*
X0216409Y0121866D01*
X0216067Y0121669D01*
X0215788Y0121390D01*
X0215590Y0121047D01*
X0215488Y0120666D01*
X0215488Y0118984D01*
X0215488Y0119463D02*
X0199472Y0119463D01*
X0197587Y0121563D02*
X0209563Y0121563D01*
X0235500Y0147500D01*
X0235500Y0149500D01*
X0240200Y0149418D02*
X0240500Y0149418D01*
X0240500Y0148420D02*
X0240140Y0148420D01*
X0240500Y0147421D02*
X0239726Y0147421D01*
X0239069Y0146423D02*
X0240500Y0146423D01*
X0240500Y0145424D02*
X0237942Y0145424D01*
X0238220Y0143427D02*
X0240500Y0143427D01*
X0240500Y0142429D02*
X0239218Y0142429D01*
X0239788Y0141430D02*
X0240500Y0141430D01*
X0240500Y0140432D02*
X0240200Y0140432D01*
X0240200Y0139433D02*
X0240500Y0139433D01*
X0240500Y0138434D02*
X0240146Y0138434D01*
X0240500Y0137436D02*
X0239732Y0137436D01*
X0239084Y0136437D02*
X0240500Y0136437D01*
X0240500Y0135439D02*
X0237977Y0135439D01*
X0238162Y0133484D02*
X0236435Y0134200D01*
X0234565Y0134200D01*
X0232838Y0133484D01*
X0231516Y0132162D01*
X0230800Y0130435D01*
X0230800Y0128565D01*
X0231516Y0126838D01*
X0232838Y0125516D01*
X0234565Y0124800D01*
X0236435Y0124800D01*
X0238162Y0125516D01*
X0239484Y0126838D01*
X0240200Y0128565D01*
X0240200Y0130435D01*
X0239484Y0132162D01*
X0238162Y0133484D01*
X0238205Y0133442D02*
X0240500Y0133442D01*
X0240500Y0134440D02*
X0232562Y0134440D01*
X0232795Y0133442D02*
X0231563Y0133442D01*
X0231797Y0132443D02*
X0230565Y0132443D01*
X0231218Y0131445D02*
X0229566Y0131445D01*
X0228568Y0130446D02*
X0230805Y0130446D01*
X0230800Y0129448D02*
X0227408Y0129448D01*
X0227500Y0131500D02*
X0225500Y0131500D01*
X0227500Y0131500D02*
X0235500Y0139500D01*
X0234547Y0144426D02*
X0240500Y0144426D01*
X0240500Y0150417D02*
X0240200Y0150417D01*
X0240500Y0151415D02*
X0239794Y0151415D01*
X0239233Y0152414D02*
X0240500Y0152414D01*
X0240500Y0153412D02*
X0238235Y0153412D01*
X0237906Y0155409D02*
X0240500Y0155409D01*
X0240500Y0154411D02*
X0232532Y0154411D01*
X0232765Y0153412D02*
X0231533Y0153412D01*
X0231767Y0152414D02*
X0231000Y0152414D01*
X0231000Y0151415D02*
X0231206Y0151415D01*
X0229500Y0153500D02*
X0235500Y0159500D01*
X0240200Y0159403D02*
X0240500Y0159403D01*
X0240500Y0158405D02*
X0240134Y0158405D01*
X0240500Y0157406D02*
X0239720Y0157406D01*
X0239055Y0156408D02*
X0240500Y0156408D01*
X0240500Y0160402D02*
X0240200Y0160402D01*
X0240500Y0161400D02*
X0239800Y0161400D01*
X0239248Y0162399D02*
X0240500Y0162399D01*
X0240500Y0163397D02*
X0238250Y0163397D01*
X0237870Y0165394D02*
X0240500Y0165394D01*
X0240500Y0164396D02*
X0234517Y0164396D01*
X0231960Y0166393D02*
X0227000Y0166393D01*
X0227000Y0167391D02*
X0231286Y0167391D01*
X0230873Y0168390D02*
X0227000Y0168390D01*
X0227000Y0169388D02*
X0230800Y0169388D01*
X0230800Y0170387D02*
X0227000Y0170387D01*
X0227000Y0171385D02*
X0231194Y0171385D01*
X0231737Y0172384D02*
X0227000Y0172384D01*
X0227000Y0173382D02*
X0232736Y0173382D01*
X0233166Y0175379D02*
X0227000Y0175379D01*
X0227000Y0174381D02*
X0240500Y0174381D01*
X0240500Y0175379D02*
X0237834Y0175379D01*
X0238162Y0175516D02*
X0239484Y0176838D01*
X0240200Y0178565D01*
X0240200Y0180435D01*
X0239484Y0182162D01*
X0238162Y0183484D01*
X0236435Y0184200D01*
X0234565Y0184200D01*
X0232838Y0183484D01*
X0231516Y0182162D01*
X0230800Y0180435D01*
X0230800Y0178565D01*
X0231516Y0176838D01*
X0232838Y0175516D01*
X0234565Y0174800D01*
X0236435Y0174800D01*
X0238162Y0175516D01*
X0239025Y0176378D02*
X0240500Y0176378D01*
X0240500Y0177376D02*
X0239708Y0177376D01*
X0240121Y0178375D02*
X0240500Y0178375D01*
X0240500Y0179373D02*
X0240200Y0179373D01*
X0240200Y0180372D02*
X0240500Y0180372D01*
X0240500Y0181370D02*
X0239812Y0181370D01*
X0239278Y0182369D02*
X0240500Y0182369D01*
X0240500Y0183368D02*
X0238279Y0183368D01*
X0237798Y0185365D02*
X0240500Y0185365D01*
X0240500Y0186363D02*
X0239010Y0186363D01*
X0239484Y0186838D02*
X0240200Y0188565D01*
X0240200Y0190435D01*
X0239484Y0192162D01*
X0238162Y0193484D01*
X0236435Y0194200D01*
X0234565Y0194200D01*
X0232838Y0193484D01*
X0231516Y0192162D01*
X0230800Y0190435D01*
X0230800Y0188565D01*
X0231516Y0186838D01*
X0232838Y0185516D01*
X0234565Y0184800D01*
X0236435Y0184800D01*
X0238162Y0185516D01*
X0239484Y0186838D01*
X0239701Y0187362D02*
X0240500Y0187362D01*
X0240500Y0188360D02*
X0240115Y0188360D01*
X0240200Y0189359D02*
X0240500Y0189359D01*
X0240500Y0190357D02*
X0240200Y0190357D01*
X0240500Y0191356D02*
X0239819Y0191356D01*
X0239293Y0192354D02*
X0240500Y0192354D01*
X0240500Y0193353D02*
X0238294Y0193353D01*
X0237762Y0195350D02*
X0240500Y0195350D01*
X0240500Y0196348D02*
X0238995Y0196348D01*
X0239484Y0196838D02*
X0240200Y0198565D01*
X0240200Y0200435D01*
X0239484Y0202162D01*
X0238162Y0203484D01*
X0236435Y0204200D01*
X0234565Y0204200D01*
X0232838Y0203484D01*
X0231516Y0202162D01*
X0230800Y0200435D01*
X0230800Y0198565D01*
X0231516Y0196838D01*
X0232838Y0195516D01*
X0234565Y0194800D01*
X0236435Y0194800D01*
X0238162Y0195516D01*
X0239484Y0196838D01*
X0239695Y0197347D02*
X0240500Y0197347D01*
X0240500Y0198345D02*
X0240109Y0198345D01*
X0240200Y0199344D02*
X0240500Y0199344D01*
X0240500Y0200342D02*
X0240200Y0200342D01*
X0240500Y0201341D02*
X0239825Y0201341D01*
X0239308Y0202339D02*
X0240500Y0202339D01*
X0240500Y0203338D02*
X0238309Y0203338D01*
X0237726Y0205335D02*
X0240500Y0205335D01*
X0240500Y0206333D02*
X0238980Y0206333D01*
X0239689Y0207332D02*
X0240500Y0207332D01*
X0240500Y0208330D02*
X0240103Y0208330D01*
X0240200Y0209329D02*
X0240500Y0209329D01*
X0240500Y0210327D02*
X0240200Y0210327D01*
X0240500Y0211326D02*
X0239831Y0211326D01*
X0239322Y0212324D02*
X0240500Y0212324D01*
X0240500Y0213323D02*
X0238324Y0213323D01*
X0240500Y0214321D02*
X0219000Y0214321D01*
X0219000Y0213323D02*
X0232676Y0213323D01*
X0231678Y0212324D02*
X0219000Y0212324D01*
X0218746Y0211326D02*
X0231169Y0211326D01*
X0230800Y0210327D02*
X0218362Y0210327D01*
X0218362Y0209329D02*
X0230800Y0209329D01*
X0230897Y0208330D02*
X0218362Y0208330D01*
X0218362Y0207332D02*
X0231210Y0207332D01*
X0230212Y0206333D02*
X0218362Y0206333D01*
X0218362Y0205335D02*
X0229213Y0205335D01*
X0228215Y0204336D02*
X0218362Y0204336D01*
X0218362Y0203338D02*
X0227216Y0203338D01*
X0226218Y0202339D02*
X0218362Y0202339D01*
X0218362Y0201341D02*
X0225219Y0201341D01*
X0224221Y0200342D02*
X0218362Y0200342D01*
X0218362Y0199344D02*
X0223222Y0199344D01*
X0222224Y0198345D02*
X0218362Y0198345D01*
X0216104Y0197347D02*
X0221225Y0197347D01*
X0220227Y0196348D02*
X0209469Y0196348D01*
X0208471Y0195350D02*
X0219228Y0195350D01*
X0218230Y0194351D02*
X0208178Y0194351D01*
X0208300Y0193353D02*
X0217231Y0193353D01*
X0217000Y0192354D02*
X0208056Y0192354D01*
X0207315Y0191356D02*
X0217000Y0191356D01*
X0217000Y0190357D02*
X0203300Y0190357D01*
X0203176Y0191356D02*
X0203685Y0191356D01*
X0203058Y0189359D02*
X0216237Y0189359D01*
X0215239Y0188360D02*
X0202320Y0188360D01*
X0200500Y0190500D02*
X0191846Y0190500D01*
X0189846Y0192500D01*
X0184555Y0197791D01*
X0184555Y0204610D01*
X0184634Y0206500D02*
X0186500Y0206500D01*
X0188500Y0204500D01*
X0188500Y0199500D01*
X0189500Y0198500D01*
X0192500Y0198500D01*
X0193500Y0197500D01*
X0193500Y0194500D01*
X0194500Y0193500D01*
X0205500Y0193500D01*
X0207500Y0196500D02*
X0201500Y0196500D01*
X0200500Y0195500D01*
X0196500Y0195500D01*
X0195500Y0196500D01*
X0195500Y0199500D01*
X0194500Y0200500D01*
X0191500Y0200500D01*
X0190500Y0201500D01*
X0190500Y0205500D01*
X0187500Y0208500D01*
X0184602Y0208500D01*
X0184555Y0208547D01*
X0184571Y0210500D02*
X0189752Y0210500D01*
X0200413Y0199839D01*
X0205138Y0199839D02*
X0217500Y0212201D01*
X0217500Y0219500D01*
X0210500Y0226500D01*
X0204500Y0226500D01*
X0197500Y0219500D01*
X0192500Y0219500D01*
X0187500Y0214500D01*
X0185500Y0214500D01*
X0185453Y0214453D01*
X0184555Y0214453D01*
X0184555Y0216421D02*
X0184634Y0216500D01*
X0186500Y0216500D01*
X0191500Y0221500D01*
X0196500Y0221500D01*
X0203500Y0228500D01*
X0220500Y0228500D01*
X0223034Y0227302D02*
X0240500Y0227302D01*
X0240500Y0228301D02*
X0223300Y0228301D01*
X0223200Y0229299D02*
X0240500Y0229299D01*
X0240500Y0230298D02*
X0222662Y0230298D01*
X0221066Y0231296D02*
X0240500Y0231296D01*
X0240500Y0232295D02*
X0199070Y0232295D01*
X0197930Y0232295D02*
X0187827Y0232295D01*
X0188121Y0232000D02*
X0188121Y0232000D01*
X0188825Y0231296D02*
X0196336Y0231296D01*
X0198500Y0229500D02*
X0192500Y0229500D01*
X0189500Y0226500D01*
X0189500Y0225500D01*
X0186500Y0222500D01*
X0181500Y0222500D01*
X0180421Y0221421D01*
X0180421Y0220555D01*
X0178500Y0220602D02*
X0178500Y0222500D01*
X0180500Y0224500D01*
X0185500Y0224500D01*
X0187500Y0226500D01*
X0187500Y0230500D01*
X0180783Y0237217D01*
X0180783Y0238028D01*
X0181311Y0237500D01*
X0201154Y0237500D01*
X0197988Y0239284D02*
X0185524Y0239284D01*
X0185524Y0240283D02*
X0198388Y0240283D01*
X0197988Y0235290D02*
X0185366Y0235290D01*
X0185830Y0234292D02*
X0204829Y0234292D01*
X0207362Y0234292D02*
X0208331Y0234292D01*
X0208331Y0234031D02*
X0210209Y0234031D01*
X0210591Y0234134D01*
X0210933Y0234331D01*
X0211212Y0234610D01*
X0211410Y0234953D01*
X0211512Y0235334D01*
X0211512Y0237016D01*
X0208331Y0237016D01*
X0208331Y0234031D01*
X0208331Y0235290D02*
X0207362Y0235290D01*
X0207362Y0236289D02*
X0208331Y0236289D01*
X0208331Y0237287D02*
X0220215Y0237287D01*
X0220100Y0237565D02*
X0220816Y0235838D01*
X0222138Y0234516D01*
X0223865Y0233800D01*
X0225735Y0233800D01*
X0227462Y0234516D01*
X0228784Y0235838D01*
X0229500Y0237565D01*
X0229500Y0239435D01*
X0228784Y0241162D01*
X0227462Y0242484D01*
X0225735Y0243200D01*
X0223865Y0243200D01*
X0222138Y0242484D01*
X0220816Y0241162D01*
X0220100Y0239435D01*
X0220100Y0237565D01*
X0220100Y0238286D02*
X0211512Y0238286D01*
X0211512Y0239284D02*
X0220100Y0239284D01*
X0220451Y0240283D02*
X0211274Y0240283D01*
X0208331Y0240283D02*
X0207362Y0240283D01*
X0207362Y0239284D02*
X0208331Y0239284D01*
X0208331Y0238286D02*
X0207362Y0238286D01*
X0207846Y0237500D02*
X0216500Y0237500D01*
X0227500Y0226500D01*
X0227500Y0212752D01*
X0214587Y0199839D01*
X0214587Y0199839D01*
X0214587Y0202520D01*
X0215571Y0202520D01*
X0215953Y0202417D01*
X0216295Y0202220D01*
X0216323Y0202192D01*
X0216323Y0208902D01*
X0209440Y0202020D01*
X0211064Y0202020D01*
X0211650Y0201434D01*
X0211650Y0199677D01*
X0212299Y0199677D01*
X0212299Y0199839D01*
X0214586Y0199839D01*
X0214586Y0199839D01*
X0214587Y0199839D02*
X0214587Y0202520D01*
X0213602Y0202520D01*
X0213220Y0202417D01*
X0212878Y0202220D01*
X0212599Y0201941D01*
X0212401Y0201599D01*
X0212299Y0201217D01*
X0212299Y0199839D01*
X0214586Y0199839D01*
X0214587Y0199839D02*
X0214587Y0193587D01*
X0211500Y0190500D01*
X0215500Y0186500D02*
X0218500Y0189500D01*
X0218500Y0192500D01*
X0235500Y0209500D01*
X0240500Y0215320D02*
X0219000Y0215320D01*
X0219000Y0216318D02*
X0240500Y0216318D01*
X0240500Y0217317D02*
X0219000Y0217317D01*
X0219000Y0218315D02*
X0240500Y0218315D01*
X0240500Y0219314D02*
X0219000Y0219314D01*
X0218809Y0220312D02*
X0240500Y0220312D01*
X0240500Y0221311D02*
X0217810Y0221311D01*
X0216812Y0222309D02*
X0240500Y0222309D01*
X0240500Y0223308D02*
X0215813Y0223308D01*
X0214815Y0224306D02*
X0240500Y0224306D01*
X0240500Y0225305D02*
X0213816Y0225305D01*
X0212818Y0226303D02*
X0218737Y0226303D01*
X0222263Y0226303D02*
X0240500Y0226303D01*
X0240500Y0233293D02*
X0186828Y0233293D01*
X0183584Y0232295D02*
X0165016Y0232295D01*
X0164017Y0233293D02*
X0182586Y0233293D01*
X0181587Y0234292D02*
X0160668Y0234292D01*
X0161634Y0235290D02*
X0159081Y0235290D01*
X0157919Y0235290D02*
X0112295Y0235290D01*
X0112166Y0235112D02*
X0112647Y0235775D01*
X0113019Y0236504D01*
X0113272Y0237282D01*
X0113386Y0238000D01*
X0108700Y0238000D01*
X0108700Y0233314D01*
X0109418Y0233428D01*
X0110196Y0233681D01*
X0110925Y0234053D01*
X0111588Y0234534D01*
X0112166Y0235112D01*
X0111254Y0234292D02*
X0156332Y0234292D01*
X0155798Y0233293D02*
X0142357Y0233293D01*
X0142390Y0233261D02*
X0141804Y0233846D01*
X0137039Y0233846D01*
X0136453Y0233261D01*
X0136453Y0225739D01*
X0137039Y0225154D01*
X0141804Y0225154D01*
X0142390Y0225739D01*
X0142390Y0233261D01*
X0142390Y0232295D02*
X0155700Y0232295D01*
X0155968Y0231296D02*
X0142390Y0231296D01*
X0142390Y0230298D02*
X0156743Y0230298D01*
X0158500Y0232500D02*
X0162689Y0232500D01*
X0166217Y0228972D01*
X0171028Y0228972D01*
X0176500Y0223500D01*
X0176500Y0220571D01*
X0176484Y0220555D01*
X0174516Y0220555D02*
X0172547Y0220555D01*
X0172571Y0220571D02*
X0172500Y0220500D01*
X0167500Y0225500D01*
X0164500Y0225500D01*
X0162500Y0223500D01*
X0159962Y0222309D02*
X0129000Y0222309D01*
X0129000Y0221311D02*
X0146190Y0221311D01*
X0145191Y0220312D02*
X0129000Y0220312D01*
X0129000Y0219314D02*
X0144193Y0219314D01*
X0143194Y0218315D02*
X0129000Y0218315D01*
X0129000Y0217317D02*
X0142196Y0217317D01*
X0141197Y0216318D02*
X0129000Y0216318D01*
X0129000Y0216012D02*
X0129000Y0225154D01*
X0131961Y0225154D01*
X0132547Y0225739D01*
X0132547Y0233261D01*
X0131961Y0233846D01*
X0127196Y0233846D01*
X0126610Y0233261D01*
X0126610Y0228653D01*
X0126000Y0228043D01*
X0126000Y0216012D01*
X0125117Y0216012D01*
X0124531Y0215426D01*
X0124531Y0210267D01*
X0125117Y0209681D01*
X0129883Y0209681D01*
X0130468Y0210267D01*
X0130468Y0215426D01*
X0129883Y0216012D01*
X0129000Y0216012D01*
X0130468Y0215320D02*
X0140199Y0215320D01*
X0139200Y0214321D02*
X0130468Y0214321D01*
X0130468Y0213323D02*
X0138654Y0213323D01*
X0138654Y0212324D02*
X0130468Y0212324D01*
X0130468Y0211326D02*
X0138654Y0211326D01*
X0137433Y0210327D02*
X0130468Y0210327D01*
X0129883Y0209319D02*
X0125117Y0209319D01*
X0124531Y0208733D01*
X0124531Y0203574D01*
X0125117Y0202988D01*
X0126000Y0202988D01*
X0126000Y0199879D01*
X0126879Y0199000D01*
X0127000Y0198879D01*
X0127000Y0198879D01*
X0127879Y0198000D01*
X0128091Y0198000D01*
X0128126Y0197914D01*
X0128914Y0197126D01*
X0129943Y0196700D01*
X0131057Y0196700D01*
X0132086Y0197126D01*
X0132874Y0197914D01*
X0133300Y0198943D01*
X0133300Y0200057D01*
X0132874Y0201086D01*
X0132086Y0201874D01*
X0131057Y0202300D01*
X0129943Y0202300D01*
X0129000Y0201909D01*
X0129000Y0202988D01*
X0129883Y0202988D01*
X0130468Y0203574D01*
X0130468Y0208733D01*
X0129883Y0209319D01*
X0130468Y0208330D02*
X0136988Y0208330D01*
X0136988Y0207332D02*
X0130468Y0207332D01*
X0130468Y0206333D02*
X0136988Y0206333D01*
X0136988Y0205335D02*
X0130468Y0205335D01*
X0130468Y0204336D02*
X0143755Y0204336D01*
X0146362Y0204336D02*
X0147331Y0204336D01*
X0147331Y0204031D02*
X0149209Y0204031D01*
X0149591Y0204134D01*
X0149933Y0204331D01*
X0150212Y0204610D01*
X0150410Y0204953D01*
X0150512Y0205334D01*
X0150512Y0207016D01*
X0147331Y0207016D01*
X0147331Y0204031D01*
X0147331Y0205335D02*
X0146362Y0205335D01*
X0146362Y0206333D02*
X0147331Y0206333D01*
X0147331Y0207332D02*
X0154547Y0207332D01*
X0154000Y0208330D02*
X0150512Y0208330D01*
X0150512Y0209329D02*
X0154000Y0209329D01*
X0154000Y0210327D02*
X0150248Y0210327D01*
X0148500Y0209154D02*
X0146846Y0207500D01*
X0152154Y0202193D01*
X0152154Y0199500D01*
X0152154Y0192846D01*
X0154500Y0190500D01*
X0166500Y0190500D01*
X0177500Y0190500D01*
X0179988Y0190357D02*
X0147176Y0190357D01*
X0147300Y0189359D02*
X0152696Y0189359D01*
X0154500Y0188500D02*
X0157500Y0188500D01*
X0159500Y0186500D01*
X0183500Y0186500D01*
X0191500Y0186500D01*
X0192500Y0185500D01*
X0193500Y0186500D01*
X0215500Y0186500D01*
X0216486Y0185365D02*
X0233202Y0185365D01*
X0231990Y0186363D02*
X0217484Y0186363D01*
X0218483Y0187362D02*
X0231299Y0187362D01*
X0230885Y0188360D02*
X0219481Y0188360D01*
X0220000Y0189359D02*
X0230800Y0189359D01*
X0230800Y0190357D02*
X0220000Y0190357D01*
X0220000Y0191356D02*
X0231181Y0191356D01*
X0231707Y0192354D02*
X0220475Y0192354D01*
X0221474Y0193353D02*
X0232706Y0193353D01*
X0233238Y0195350D02*
X0223471Y0195350D01*
X0224469Y0196348D02*
X0232005Y0196348D01*
X0231305Y0197347D02*
X0225468Y0197347D01*
X0226466Y0198345D02*
X0230891Y0198345D01*
X0230800Y0199344D02*
X0227465Y0199344D01*
X0228464Y0200342D02*
X0230800Y0200342D01*
X0231175Y0201341D02*
X0229462Y0201341D01*
X0230461Y0202339D02*
X0231692Y0202339D01*
X0231459Y0203338D02*
X0232691Y0203338D01*
X0232458Y0204336D02*
X0240500Y0204336D01*
X0240500Y0194351D02*
X0222472Y0194351D01*
X0214587Y0197157D02*
X0214587Y0197638D01*
X0214587Y0197638D01*
X0214587Y0197157D01*
X0214587Y0197347D02*
X0214587Y0197347D01*
X0213070Y0197347D02*
X0210468Y0197347D01*
X0209862Y0198862D02*
X0207500Y0196500D01*
X0209862Y0198862D02*
X0209862Y0199839D01*
X0211650Y0200342D02*
X0212299Y0200342D01*
X0212332Y0201341D02*
X0211650Y0201341D01*
X0213085Y0202339D02*
X0209760Y0202339D01*
X0210758Y0203338D02*
X0216323Y0203338D01*
X0216323Y0204336D02*
X0211757Y0204336D01*
X0212755Y0205335D02*
X0216323Y0205335D01*
X0216323Y0206333D02*
X0213754Y0206333D01*
X0214752Y0207332D02*
X0216323Y0207332D01*
X0216323Y0208330D02*
X0215751Y0208330D01*
X0211500Y0211500D02*
X0214500Y0214500D01*
X0214500Y0217248D01*
X0214587Y0217161D01*
X0209862Y0217161D02*
X0209862Y0216138D01*
X0209500Y0216799D02*
X0209500Y0214500D01*
X0207500Y0212500D01*
X0207500Y0208500D01*
X0204500Y0205500D01*
X0201500Y0205500D01*
X0194516Y0212484D01*
X0184555Y0212484D01*
X0184555Y0210516D02*
X0184571Y0210500D01*
X0184555Y0206579D02*
X0184634Y0206500D01*
X0178500Y0202398D02*
X0178500Y0197154D01*
X0183154Y0192500D01*
X0185500Y0191500D01*
X0186643Y0190357D02*
X0186681Y0190357D01*
X0190867Y0189359D02*
X0158763Y0189359D01*
X0159761Y0188360D02*
X0198680Y0188360D01*
X0192500Y0185500D02*
X0192500Y0184500D01*
X0191500Y0180500D02*
X0191500Y0179319D01*
X0194382Y0176437D01*
X0196350Y0176437D01*
X0197531Y0177618D01*
X0199500Y0177500D02*
X0199500Y0172500D01*
X0204618Y0172500D02*
X0204618Y0174468D01*
X0204618Y0174468D01*
X0204618Y0172500D01*
X0204618Y0174469D01*
X0204618Y0176437D01*
X0204618Y0174469D01*
X0204618Y0174469D01*
X0204618Y0174591D01*
X0204618Y0176437D01*
X0204618Y0176618D01*
X0205618Y0176618D01*
X0211500Y0182500D01*
X0215414Y0179373D02*
X0203000Y0179373D01*
X0203332Y0180372D02*
X0219937Y0180372D01*
X0219700Y0181370D02*
X0204063Y0181370D01*
X0204300Y0182369D02*
X0219829Y0182369D01*
X0220408Y0183368D02*
X0204171Y0183368D01*
X0203594Y0184366D02*
X0240500Y0184366D01*
X0232721Y0183368D02*
X0224592Y0183368D01*
X0225171Y0182369D02*
X0231722Y0182369D01*
X0231188Y0181370D02*
X0225300Y0181370D01*
X0225749Y0180372D02*
X0230800Y0180372D01*
X0230800Y0179373D02*
X0226748Y0179373D01*
X0227000Y0178375D02*
X0230879Y0178375D01*
X0231292Y0177376D02*
X0227000Y0177376D01*
X0227000Y0176378D02*
X0231975Y0176378D01*
X0238264Y0173382D02*
X0240500Y0173382D01*
X0240500Y0172384D02*
X0239263Y0172384D01*
X0239806Y0171385D02*
X0240500Y0171385D01*
X0240500Y0170387D02*
X0240200Y0170387D01*
X0240200Y0169388D02*
X0240500Y0169388D01*
X0240500Y0168390D02*
X0240127Y0168390D01*
X0240500Y0167391D02*
X0239714Y0167391D01*
X0239040Y0166393D02*
X0240500Y0166393D01*
X0235500Y0167500D02*
X0235500Y0169500D01*
X0235500Y0167500D02*
X0218500Y0150500D01*
X0218500Y0138500D01*
X0213500Y0133500D01*
X0205500Y0133500D01*
X0199469Y0127469D01*
X0197587Y0127469D01*
X0197587Y0129437D02*
X0197587Y0130587D01*
X0201500Y0134500D01*
X0201500Y0137500D02*
X0195500Y0137500D01*
X0192469Y0134469D01*
X0192469Y0132587D01*
X0192500Y0132618D01*
X0190500Y0132587D02*
X0190500Y0128500D01*
X0189000Y0127000D01*
X0185469Y0123531D02*
X0188500Y0120500D01*
X0188500Y0118445D01*
X0188531Y0118413D01*
X0186563Y0118413D02*
X0186563Y0118437D01*
X0186500Y0118500D01*
X0184500Y0118500D01*
X0182500Y0116500D01*
X0182500Y0115500D01*
X0183500Y0114500D01*
X0187500Y0111500D02*
X0190500Y0114500D01*
X0190500Y0118413D01*
X0192469Y0118413D02*
X0192469Y0117531D01*
X0197500Y0112500D01*
X0197500Y0110500D01*
X0192500Y0105500D01*
X0191500Y0105500D01*
X0188700Y0105484D02*
X0173690Y0105484D01*
X0173418Y0105572D02*
X0172700Y0105686D01*
X0172700Y0101000D01*
X0177386Y0101000D01*
X0177272Y0101718D01*
X0177019Y0102496D01*
X0176647Y0103225D01*
X0176166Y0103888D01*
X0175588Y0104466D01*
X0174925Y0104947D01*
X0174196Y0105319D01*
X0173418Y0105572D01*
X0172700Y0105484D02*
X0171700Y0105484D01*
X0170710Y0105484D02*
X0150481Y0105484D01*
X0150253Y0101744D02*
X0145487Y0101744D01*
X0144902Y0101158D01*
X0144902Y0097968D01*
X0145487Y0097382D01*
X0150253Y0097382D01*
X0150839Y0097968D01*
X0150839Y0101158D01*
X0150253Y0101744D01*
X0150507Y0101490D02*
X0156123Y0101490D01*
X0156100Y0100491D02*
X0150839Y0100491D01*
X0150839Y0099493D02*
X0156130Y0099493D01*
X0156544Y0098494D02*
X0150839Y0098494D01*
X0150366Y0097496D02*
X0157158Y0097496D01*
X0158182Y0096497D02*
X0130618Y0096497D01*
X0131617Y0097496D02*
X0145374Y0097496D01*
X0144902Y0098494D02*
X0132615Y0098494D01*
X0133614Y0099493D02*
X0144902Y0099493D01*
X0144902Y0100491D02*
X0134612Y0100491D01*
X0135611Y0101490D02*
X0137496Y0101490D01*
X0136825Y0102488D02*
X0136609Y0102488D01*
X0141315Y0101490D02*
X0145233Y0101490D01*
X0143391Y0102488D02*
X0141986Y0102488D01*
X0142177Y0103487D02*
X0142392Y0103487D01*
X0144500Y0103500D02*
X0142358Y0105642D01*
X0142358Y0110390D01*
X0144736Y0111475D02*
X0148058Y0111475D01*
X0147059Y0112473D02*
X0144736Y0112473D01*
X0144736Y0113472D02*
X0146061Y0113472D01*
X0145062Y0114470D02*
X0141592Y0114470D01*
X0142590Y0115469D02*
X0144063Y0115469D01*
X0142775Y0115654D02*
X0142775Y0115654D01*
X0142154Y0117154D02*
X0140500Y0115500D01*
X0132500Y0115500D01*
X0131500Y0114500D01*
X0128407Y0113472D02*
X0127020Y0113472D01*
X0127408Y0114470D02*
X0122300Y0114470D01*
X0122264Y0113472D02*
X0122105Y0113472D01*
X0122264Y0112473D02*
X0121433Y0112473D01*
X0119500Y0114500D02*
X0121500Y0116500D01*
X0121500Y0126500D01*
X0122500Y0127500D01*
X0124500Y0129500D01*
X0128154Y0129500D01*
X0124988Y0131445D02*
X0120346Y0131445D01*
X0120346Y0132443D02*
X0125549Y0132443D01*
X0123325Y0130446D02*
X0120346Y0130446D01*
X0120346Y0129448D02*
X0120488Y0129448D01*
X0119863Y0128449D02*
X0119649Y0128449D01*
X0119700Y0127451D02*
X0118651Y0127451D01*
X0117652Y0126452D02*
X0119903Y0126452D01*
X0120000Y0125454D02*
X0116846Y0125454D01*
X0116846Y0124455D02*
X0120000Y0124455D01*
X0120000Y0123457D02*
X0116846Y0123457D01*
X0116846Y0122458D02*
X0120000Y0122458D01*
X0120000Y0121460D02*
X0116846Y0121460D01*
X0116269Y0120461D02*
X0120000Y0120461D01*
X0123000Y0118464D02*
X0124988Y0118464D01*
X0124988Y0117466D02*
X0123000Y0117466D01*
X0123000Y0116467D02*
X0127000Y0116467D01*
X0127000Y0115469D02*
X0122590Y0115469D01*
X0116161Y0109478D02*
X0098870Y0109478D01*
X0098000Y0109478D02*
X0097000Y0109478D01*
X0096130Y0109478D02*
X0092500Y0109478D01*
X0092500Y0110476D02*
X0094192Y0110476D01*
X0093270Y0111475D02*
X0092500Y0111475D01*
X0092500Y0112473D02*
X0092697Y0112473D01*
X0092500Y0108479D02*
X0116161Y0108479D01*
X0116161Y0107481D02*
X0092500Y0107481D01*
X0092500Y0106482D02*
X0116161Y0106482D01*
X0116519Y0105484D02*
X0092500Y0105484D01*
X0092500Y0104485D02*
X0094139Y0104485D01*
X0093140Y0103487D02*
X0092500Y0103487D01*
X0092500Y0102488D02*
X0092536Y0102488D01*
X0092500Y0098494D02*
X0092544Y0098494D01*
X0092500Y0097496D02*
X0093158Y0097496D01*
X0092500Y0096497D02*
X0094182Y0096497D01*
X0099418Y0096497D02*
X0105582Y0096497D01*
X0104558Y0097496D02*
X0100442Y0097496D01*
X0101056Y0098494D02*
X0103944Y0098494D01*
X0103530Y0099493D02*
X0101470Y0099493D01*
X0101500Y0100491D02*
X0103500Y0100491D01*
X0103523Y0101490D02*
X0101477Y0101490D01*
X0101064Y0102488D02*
X0103936Y0102488D01*
X0104540Y0103487D02*
X0100460Y0103487D01*
X0099461Y0104485D02*
X0105539Y0104485D01*
X0110818Y0096497D02*
X0124885Y0096497D01*
X0138512Y0117466D02*
X0138988Y0117466D01*
X0138988Y0118464D02*
X0138512Y0118464D01*
X0138988Y0119463D02*
X0135331Y0119463D01*
X0134846Y0119500D02*
X0134846Y0129500D01*
X0134846Y0132154D01*
X0132500Y0134500D01*
X0131535Y0132443D02*
X0130758Y0132443D01*
X0134362Y0132443D02*
X0135331Y0132443D01*
X0135331Y0131445D02*
X0134362Y0131445D01*
X0134362Y0130446D02*
X0135331Y0130446D01*
X0135331Y0129448D02*
X0141728Y0129448D01*
X0141728Y0131445D02*
X0138512Y0131445D01*
X0138158Y0132443D02*
X0141728Y0132443D01*
X0141728Y0133442D02*
X0120346Y0133442D01*
X0120346Y0134440D02*
X0141728Y0134440D01*
X0141563Y0137436D02*
X0138012Y0137436D01*
X0134846Y0139500D02*
X0143941Y0139500D01*
X0141563Y0145424D02*
X0102618Y0145424D01*
X0102343Y0146423D02*
X0108976Y0146423D01*
X0108488Y0147421D02*
X0101805Y0147421D01*
X0100934Y0148420D02*
X0108488Y0148420D01*
X0108488Y0149984D02*
X0111669Y0149984D01*
X0111669Y0152968D01*
X0109791Y0152968D01*
X0109409Y0152866D01*
X0109067Y0152669D01*
X0108788Y0152390D01*
X0108590Y0152047D01*
X0108488Y0151666D01*
X0108488Y0149984D01*
X0108488Y0150417D02*
X0100726Y0150417D01*
X0101686Y0151415D02*
X0108488Y0151415D01*
X0108812Y0152414D02*
X0102273Y0152414D01*
X0102593Y0153412D02*
X0117346Y0153412D01*
X0116212Y0152414D02*
X0115495Y0152414D01*
X0112638Y0152414D02*
X0111669Y0152414D01*
X0111669Y0151415D02*
X0112638Y0151415D01*
X0112638Y0150417D02*
X0111669Y0150417D01*
X0112154Y0149500D02*
X0112154Y0159500D01*
X0112154Y0169500D01*
X0112154Y0175154D01*
X0114500Y0177500D01*
X0117000Y0177376D02*
X0101270Y0177376D01*
X0101809Y0176378D02*
X0117000Y0176378D01*
X0117000Y0175379D02*
X0102200Y0175379D01*
X0102200Y0174381D02*
X0117000Y0174381D01*
X0117000Y0173382D02*
X0102124Y0173382D01*
X0101711Y0172384D02*
X0108785Y0172384D01*
X0108788Y0172390D02*
X0108590Y0172047D01*
X0108488Y0171666D01*
X0108488Y0169984D01*
X0111669Y0169984D01*
X0111669Y0172968D01*
X0109791Y0172968D01*
X0109409Y0172866D01*
X0109067Y0172669D01*
X0108788Y0172390D01*
X0108488Y0171385D02*
X0101032Y0171385D01*
X0099852Y0170387D02*
X0108488Y0170387D01*
X0108488Y0168390D02*
X0100964Y0168390D01*
X0100888Y0168466D02*
X0100225Y0168947D01*
X0099496Y0169319D01*
X0098718Y0169572D01*
X0098000Y0169686D01*
X0098000Y0165000D01*
X0102686Y0165000D01*
X0102572Y0165718D01*
X0102319Y0166496D01*
X0101947Y0167225D01*
X0101466Y0167888D01*
X0100888Y0168466D01*
X0101827Y0167391D02*
X0108488Y0167391D01*
X0109006Y0166393D02*
X0102353Y0166393D01*
X0102623Y0165394D02*
X0117346Y0165394D01*
X0117346Y0166393D02*
X0115302Y0166393D01*
X0112638Y0166393D02*
X0111669Y0166393D01*
X0111669Y0167391D02*
X0112638Y0167391D01*
X0112638Y0168390D02*
X0111669Y0168390D01*
X0111669Y0169388D02*
X0099283Y0169388D01*
X0098000Y0169388D02*
X0097000Y0169388D01*
X0097000Y0168390D02*
X0098000Y0168390D01*
X0098000Y0167391D02*
X0097000Y0167391D01*
X0097000Y0166393D02*
X0098000Y0166393D01*
X0098000Y0165394D02*
X0097000Y0165394D01*
X0097500Y0164500D02*
X0097500Y0154500D01*
X0099237Y0159403D02*
X0111669Y0159403D01*
X0111669Y0158405D02*
X0112638Y0158405D01*
X0112638Y0157406D02*
X0111669Y0157406D01*
X0111669Y0156408D02*
X0112638Y0156408D01*
X0115316Y0156408D02*
X0117346Y0156408D01*
X0120346Y0156408D02*
X0126654Y0156408D01*
X0126654Y0155409D02*
X0120346Y0155409D01*
X0120346Y0154411D02*
X0126654Y0154411D01*
X0126654Y0153412D02*
X0120346Y0153412D01*
X0121481Y0152414D02*
X0125519Y0152414D01*
X0124988Y0151415D02*
X0122012Y0151415D01*
X0122012Y0150417D02*
X0124988Y0150417D01*
X0124988Y0149418D02*
X0122012Y0149418D01*
X0122012Y0148420D02*
X0124988Y0148420D01*
X0124988Y0147421D02*
X0122012Y0147421D01*
X0118846Y0149500D02*
X0118846Y0159500D01*
X0118846Y0169500D01*
X0118500Y0169846D01*
X0118500Y0180500D01*
X0115500Y0183500D01*
X0112500Y0183500D01*
X0109154Y0186846D01*
X0109154Y0192500D01*
X0107154Y0194500D01*
X0097500Y0194500D01*
X0097500Y0204500D01*
X0097500Y0214500D01*
X0097500Y0224500D01*
X0097800Y0224800D01*
X0097800Y0237500D01*
X0096800Y0238500D01*
X0101149Y0240283D02*
X0103312Y0240283D01*
X0103059Y0239284D02*
X0101500Y0239284D01*
X0101500Y0238286D02*
X0107700Y0238286D01*
X0107700Y0238000D02*
X0103014Y0238000D01*
X0103128Y0237282D01*
X0103381Y0236504D01*
X0103753Y0235775D01*
X0104234Y0235112D01*
X0104812Y0234534D01*
X0105475Y0234053D01*
X0106204Y0233681D01*
X0106982Y0233428D01*
X0107700Y0233314D01*
X0107700Y0238000D01*
X0108200Y0238500D02*
X0108200Y0235800D01*
X0115500Y0228500D01*
X0115500Y0225154D01*
X0114846Y0224500D01*
X0114846Y0215846D01*
X0109500Y0210500D01*
X0109500Y0203846D01*
X0109154Y0203500D01*
X0109154Y0202846D01*
X0116500Y0195500D01*
X0116500Y0193154D01*
X0115846Y0192500D01*
X0116846Y0191500D01*
X0121500Y0191500D01*
X0119512Y0191356D02*
X0125870Y0191356D01*
X0125996Y0191230D02*
X0126126Y0190914D01*
X0126914Y0190126D01*
X0127943Y0189700D01*
X0129057Y0189700D01*
X0130086Y0190126D01*
X0130874Y0190914D01*
X0131300Y0191943D01*
X0131300Y0193057D01*
X0130874Y0194086D01*
X0130086Y0194874D01*
X0129057Y0195300D01*
X0127943Y0195300D01*
X0126914Y0194874D01*
X0126754Y0194714D01*
X0119012Y0202456D01*
X0119012Y0205883D01*
X0118426Y0206468D01*
X0113267Y0206468D01*
X0112744Y0205946D01*
X0112717Y0206047D01*
X0112519Y0206390D01*
X0112240Y0206669D01*
X0111898Y0206866D01*
X0111516Y0206968D01*
X0109638Y0206968D01*
X0109638Y0203984D01*
X0108669Y0203984D01*
X0108669Y0203016D01*
X0105488Y0203016D01*
X0105488Y0201334D01*
X0105590Y0200953D01*
X0105788Y0200610D01*
X0106067Y0200331D01*
X0106409Y0200134D01*
X0106791Y0200031D01*
X0108669Y0200031D01*
X0108669Y0203016D01*
X0109638Y0203016D01*
X0109638Y0200031D01*
X0111516Y0200031D01*
X0111898Y0200134D01*
X0112240Y0200331D01*
X0112519Y0200610D01*
X0112717Y0200953D01*
X0112744Y0201054D01*
X0113267Y0200531D01*
X0116694Y0200531D01*
X0125996Y0191230D01*
X0126683Y0190357D02*
X0119512Y0190357D01*
X0119512Y0190334D02*
X0119512Y0192016D01*
X0116331Y0192016D01*
X0116331Y0189031D01*
X0118209Y0189031D01*
X0118591Y0189134D01*
X0118933Y0189331D01*
X0119212Y0189610D01*
X0119410Y0189953D01*
X0119512Y0190334D01*
X0118960Y0189359D02*
X0135654Y0189359D01*
X0135654Y0189300D02*
X0134943Y0189300D01*
X0133914Y0188874D01*
X0133126Y0188086D01*
X0132700Y0187057D01*
X0132700Y0185943D01*
X0133126Y0184914D01*
X0133914Y0184126D01*
X0134943Y0183700D01*
X0136057Y0183700D01*
X0137086Y0184126D01*
X0137874Y0184914D01*
X0138300Y0185943D01*
X0138300Y0187057D01*
X0138264Y0187143D01*
X0138654Y0187532D01*
X0138654Y0194531D01*
X0139733Y0194531D01*
X0140319Y0195117D01*
X0140319Y0199883D01*
X0139733Y0200468D01*
X0134574Y0200468D01*
X0133988Y0199883D01*
X0133988Y0195117D01*
X0134574Y0194531D01*
X0135654Y0194531D01*
X0135654Y0189300D01*
X0135654Y0190357D02*
X0130317Y0190357D01*
X0131057Y0191356D02*
X0135654Y0191356D01*
X0135654Y0192354D02*
X0131300Y0192354D01*
X0131178Y0193353D02*
X0135654Y0193353D01*
X0135654Y0194351D02*
X0130609Y0194351D01*
X0128500Y0192500D02*
X0126846Y0192500D01*
X0115846Y0203500D01*
X0119012Y0203338D02*
X0124768Y0203338D01*
X0124531Y0204336D02*
X0119012Y0204336D01*
X0119012Y0205335D02*
X0124531Y0205335D01*
X0124531Y0206333D02*
X0118561Y0206333D01*
X0113132Y0206333D02*
X0112552Y0206333D01*
X0109638Y0206333D02*
X0108669Y0206333D01*
X0108669Y0206968D02*
X0106791Y0206968D01*
X0106409Y0206866D01*
X0106067Y0206669D01*
X0105788Y0206390D01*
X0105590Y0206047D01*
X0105488Y0205666D01*
X0105488Y0203984D01*
X0108669Y0203984D01*
X0108669Y0206968D01*
X0108669Y0205335D02*
X0109638Y0205335D01*
X0109638Y0204336D02*
X0108669Y0204336D01*
X0108669Y0203338D02*
X0102106Y0203338D01*
X0102200Y0204336D02*
X0105488Y0204336D01*
X0105488Y0205335D02*
X0102200Y0205335D01*
X0101828Y0206333D02*
X0105755Y0206333D01*
X0101315Y0207332D02*
X0124531Y0207332D01*
X0124531Y0208330D02*
X0100316Y0208330D01*
X0099000Y0209329D02*
X0136988Y0209329D01*
X0140154Y0207500D02*
X0140154Y0213154D01*
X0147500Y0220500D01*
X0168555Y0220500D01*
X0168610Y0220555D01*
X0166445Y0218390D02*
X0161390Y0218390D01*
X0155500Y0212500D01*
X0155500Y0208500D01*
X0157500Y0206500D01*
X0162500Y0206500D01*
X0163500Y0205500D01*
X0163500Y0199500D01*
X0165500Y0197500D01*
X0170500Y0197500D01*
X0172547Y0199547D01*
X0172547Y0202445D01*
X0174516Y0202445D02*
X0174516Y0199484D01*
X0175500Y0198500D01*
X0175500Y0194500D01*
X0173500Y0192500D01*
X0169500Y0192500D01*
X0166500Y0195500D01*
X0160500Y0195500D01*
X0158846Y0197154D01*
X0158846Y0199500D01*
X0157531Y0196348D02*
X0155257Y0196348D01*
X0152638Y0196348D02*
X0151669Y0196348D01*
X0151669Y0197347D02*
X0152638Y0197347D01*
X0152638Y0198345D02*
X0151669Y0198345D01*
X0151669Y0199344D02*
X0147012Y0199344D01*
X0147012Y0198345D02*
X0148488Y0198345D01*
X0148488Y0197347D02*
X0147012Y0197347D01*
X0147012Y0196348D02*
X0149050Y0196348D01*
X0147012Y0195350D02*
X0158529Y0195350D01*
X0159528Y0194351D02*
X0146000Y0194351D01*
X0146000Y0193353D02*
X0166526Y0193353D01*
X0167525Y0192354D02*
X0146000Y0192354D01*
X0146604Y0191356D02*
X0168523Y0191356D01*
X0174477Y0191356D02*
X0179988Y0191356D01*
X0179988Y0192354D02*
X0175475Y0192354D01*
X0176474Y0193353D02*
X0179988Y0193353D01*
X0179181Y0194351D02*
X0177000Y0194351D01*
X0177000Y0195350D02*
X0178183Y0195350D01*
X0177184Y0196348D02*
X0177000Y0196348D01*
X0177000Y0197347D02*
X0177000Y0197347D01*
X0177000Y0198345D02*
X0177000Y0198345D01*
X0177000Y0199344D02*
X0176778Y0199344D01*
X0177000Y0200342D02*
X0176016Y0200342D01*
X0178453Y0202445D02*
X0178500Y0202398D01*
X0176000Y0204232D02*
X0175578Y0204232D01*
X0175500Y0204154D01*
X0175422Y0204232D01*
X0175000Y0204232D01*
X0175000Y0211000D01*
X0176000Y0211000D01*
X0176000Y0204232D01*
X0176000Y0204336D02*
X0175000Y0204336D01*
X0175000Y0205335D02*
X0176000Y0205335D01*
X0176000Y0206333D02*
X0175000Y0206333D01*
X0175000Y0207332D02*
X0176000Y0207332D01*
X0176000Y0208330D02*
X0175000Y0208330D01*
X0175000Y0209329D02*
X0176000Y0209329D01*
X0176000Y0210327D02*
X0175000Y0210327D01*
X0175500Y0210500D02*
X0177500Y0208500D01*
X0175500Y0210500D02*
X0175500Y0211500D01*
X0174516Y0220555D02*
X0174500Y0220571D01*
X0172571Y0220571D01*
X0178453Y0220555D02*
X0178500Y0220602D01*
X0178185Y0224306D02*
X0177815Y0224306D01*
X0176816Y0225305D02*
X0179184Y0225305D01*
X0176133Y0226303D02*
X0175818Y0226303D01*
X0176043Y0227302D02*
X0174819Y0227302D01*
X0173821Y0228301D02*
X0176043Y0228301D01*
X0176043Y0229299D02*
X0172822Y0229299D01*
X0171824Y0230298D02*
X0176043Y0230298D01*
X0176043Y0231296D02*
X0170957Y0231296D01*
X0170371Y0234862D02*
X0170957Y0235448D01*
X0170957Y0240607D01*
X0170371Y0241193D01*
X0162062Y0241193D01*
X0161476Y0240607D01*
X0161476Y0235448D01*
X0162062Y0234862D01*
X0170371Y0234862D01*
X0170799Y0235290D02*
X0176201Y0235290D01*
X0176043Y0236289D02*
X0170957Y0236289D01*
X0170957Y0237287D02*
X0176043Y0237287D01*
X0176043Y0238286D02*
X0170957Y0238286D01*
X0170957Y0239284D02*
X0176043Y0239284D01*
X0176043Y0240283D02*
X0170957Y0240283D01*
X0161476Y0240283D02*
X0113088Y0240283D01*
X0113341Y0239284D02*
X0161476Y0239284D01*
X0161476Y0238286D02*
X0108700Y0238286D01*
X0108700Y0237287D02*
X0107700Y0237287D01*
X0107700Y0236289D02*
X0108700Y0236289D01*
X0108700Y0235290D02*
X0107700Y0235290D01*
X0107700Y0234292D02*
X0108700Y0234292D01*
X0105146Y0234292D02*
X0099300Y0234292D01*
X0099300Y0233293D02*
X0126643Y0233293D01*
X0126610Y0232295D02*
X0099300Y0232295D01*
X0099300Y0231296D02*
X0126610Y0231296D01*
X0126610Y0230298D02*
X0099300Y0230298D01*
X0099300Y0229299D02*
X0126610Y0229299D01*
X0126258Y0228301D02*
X0100346Y0228301D01*
X0101345Y0227302D02*
X0105407Y0227302D01*
X0104988Y0226303D02*
X0101840Y0226303D01*
X0101680Y0222309D02*
X0104988Y0222309D01*
X0106654Y0221311D02*
X0100958Y0221311D01*
X0099672Y0220312D02*
X0106654Y0220312D01*
X0106654Y0219314D02*
X0099000Y0219314D01*
X0100331Y0218315D02*
X0106654Y0218315D01*
X0107562Y0217317D02*
X0101330Y0217317D01*
X0101834Y0216318D02*
X0107700Y0216318D01*
X0107958Y0215320D02*
X0102200Y0215320D01*
X0102200Y0214321D02*
X0108719Y0214321D01*
X0110500Y0216500D02*
X0108154Y0218846D01*
X0108154Y0224500D01*
X0097500Y0224500D01*
X0093160Y0226303D02*
X0092500Y0226303D01*
X0092500Y0225305D02*
X0092800Y0225305D01*
X0092800Y0224306D02*
X0092500Y0224306D01*
X0092500Y0223308D02*
X0092907Y0223308D01*
X0092500Y0222309D02*
X0093320Y0222309D01*
X0094042Y0221311D02*
X0092500Y0221311D01*
X0092500Y0220312D02*
X0095328Y0220312D01*
X0096000Y0219314D02*
X0092500Y0219314D01*
X0092500Y0218315D02*
X0094669Y0218315D01*
X0093670Y0217317D02*
X0092500Y0217317D01*
X0092500Y0216318D02*
X0093166Y0216318D01*
X0092800Y0215320D02*
X0092500Y0215320D01*
X0092500Y0214321D02*
X0092800Y0214321D01*
X0092900Y0213323D02*
X0092500Y0213323D01*
X0092500Y0212324D02*
X0093314Y0212324D01*
X0094027Y0211326D02*
X0092500Y0211326D01*
X0092500Y0210327D02*
X0095292Y0210327D01*
X0096000Y0209329D02*
X0092500Y0209329D01*
X0092500Y0208330D02*
X0094683Y0208330D01*
X0093685Y0207332D02*
X0092500Y0207332D01*
X0092500Y0206333D02*
X0093172Y0206333D01*
X0092800Y0205335D02*
X0092500Y0205335D01*
X0092500Y0204336D02*
X0092800Y0204336D01*
X0092894Y0203338D02*
X0092500Y0203338D01*
X0092500Y0202339D02*
X0093308Y0202339D01*
X0094012Y0201341D02*
X0092500Y0201341D01*
X0092500Y0200342D02*
X0095256Y0200342D01*
X0096000Y0199344D02*
X0092500Y0199344D01*
X0092500Y0198345D02*
X0094698Y0198345D01*
X0093700Y0197347D02*
X0092500Y0197347D01*
X0092500Y0196348D02*
X0093178Y0196348D01*
X0092800Y0195350D02*
X0092500Y0195350D01*
X0092500Y0194351D02*
X0092800Y0194351D01*
X0092888Y0193353D02*
X0092500Y0193353D01*
X0092500Y0192354D02*
X0093302Y0192354D01*
X0093998Y0191356D02*
X0092500Y0191356D01*
X0092500Y0190357D02*
X0095220Y0190357D01*
X0096000Y0189359D02*
X0092500Y0189359D01*
X0092500Y0188360D02*
X0094713Y0188360D01*
X0093715Y0187362D02*
X0092500Y0187362D01*
X0092500Y0186363D02*
X0093184Y0186363D01*
X0092800Y0185365D02*
X0092500Y0185365D01*
X0092500Y0184366D02*
X0092800Y0184366D01*
X0092882Y0183368D02*
X0092500Y0183368D01*
X0092500Y0182369D02*
X0093295Y0182369D01*
X0093983Y0181370D02*
X0092500Y0181370D01*
X0092500Y0180372D02*
X0095184Y0180372D01*
X0096000Y0179373D02*
X0092500Y0179373D01*
X0092500Y0178375D02*
X0094728Y0178375D01*
X0093730Y0177376D02*
X0092500Y0177376D01*
X0092500Y0176378D02*
X0093191Y0176378D01*
X0092800Y0175379D02*
X0092500Y0175379D01*
X0092500Y0174381D02*
X0092800Y0174381D01*
X0092876Y0173382D02*
X0092500Y0173382D01*
X0092500Y0172384D02*
X0093289Y0172384D01*
X0093968Y0171385D02*
X0092500Y0171385D01*
X0092500Y0170387D02*
X0095148Y0170387D01*
X0095717Y0169388D02*
X0092500Y0169388D01*
X0092500Y0168390D02*
X0094036Y0168390D01*
X0093173Y0167391D02*
X0092500Y0167391D01*
X0092500Y0166393D02*
X0092647Y0166393D01*
X0097500Y0164500D02*
X0102500Y0169500D01*
X0112154Y0169500D01*
X0111669Y0170387D02*
X0112638Y0170387D01*
X0112638Y0171385D02*
X0111669Y0171385D01*
X0111669Y0172384D02*
X0112638Y0172384D01*
X0115522Y0172384D02*
X0116182Y0172384D01*
X0118846Y0169500D02*
X0128154Y0169500D01*
X0128154Y0179500D01*
X0128154Y0186154D01*
X0128500Y0186500D01*
X0131060Y0185365D02*
X0132940Y0185365D01*
X0132700Y0186363D02*
X0131300Y0186363D01*
X0131174Y0187362D02*
X0132826Y0187362D01*
X0133400Y0188360D02*
X0130600Y0188360D01*
X0126400Y0188360D02*
X0110654Y0188360D01*
X0110654Y0189359D02*
X0112733Y0189359D01*
X0115362Y0189359D02*
X0116331Y0189359D01*
X0116331Y0190357D02*
X0115362Y0190357D01*
X0115362Y0191356D02*
X0116331Y0191356D01*
X0116331Y0192354D02*
X0124871Y0192354D01*
X0123873Y0193353D02*
X0119512Y0193353D01*
X0119512Y0194351D02*
X0122874Y0194351D01*
X0121875Y0195350D02*
X0119235Y0195350D01*
X0120877Y0196348D02*
X0101822Y0196348D01*
X0101300Y0197347D02*
X0119878Y0197347D01*
X0118880Y0198345D02*
X0100302Y0198345D01*
X0099000Y0199344D02*
X0117881Y0199344D01*
X0116883Y0200342D02*
X0112251Y0200342D01*
X0109638Y0200342D02*
X0108669Y0200342D01*
X0108669Y0201341D02*
X0109638Y0201341D01*
X0109638Y0202339D02*
X0108669Y0202339D01*
X0105488Y0202339D02*
X0101692Y0202339D01*
X0100988Y0201341D02*
X0105488Y0201341D01*
X0106056Y0200342D02*
X0099744Y0200342D01*
X0097500Y0194500D02*
X0097500Y0184500D01*
X0097500Y0174500D01*
X0100272Y0178375D02*
X0117000Y0178375D01*
X0117000Y0179373D02*
X0099000Y0179373D01*
X0099816Y0180372D02*
X0116507Y0180372D01*
X0115508Y0181370D02*
X0101017Y0181370D01*
X0101705Y0182369D02*
X0111510Y0182369D01*
X0110511Y0183368D02*
X0102118Y0183368D01*
X0102200Y0184366D02*
X0109513Y0184366D01*
X0108514Y0185365D02*
X0102200Y0185365D01*
X0101816Y0186363D02*
X0107654Y0186363D01*
X0107654Y0187362D02*
X0101285Y0187362D01*
X0100287Y0188360D02*
X0107654Y0188360D01*
X0107654Y0189359D02*
X0099000Y0189359D01*
X0099780Y0190357D02*
X0105988Y0190357D01*
X0105988Y0191356D02*
X0101002Y0191356D01*
X0101698Y0192354D02*
X0105988Y0192354D01*
X0111852Y0195350D02*
X0112458Y0195350D01*
X0115362Y0195350D02*
X0116331Y0195350D01*
X0116331Y0194351D02*
X0115362Y0194351D01*
X0115362Y0193353D02*
X0116331Y0193353D01*
X0123123Y0198345D02*
X0127533Y0198345D01*
X0126879Y0199000D02*
X0126879Y0199000D01*
X0126535Y0199344D02*
X0122124Y0199344D01*
X0121126Y0200342D02*
X0126000Y0200342D01*
X0126000Y0201341D02*
X0120127Y0201341D01*
X0119129Y0202339D02*
X0126000Y0202339D01*
X0127500Y0200500D02*
X0127500Y0206154D01*
X0130232Y0203338D02*
X0162000Y0203338D01*
X0162000Y0204336D02*
X0149938Y0204336D01*
X0150512Y0205335D02*
X0156544Y0205335D01*
X0155545Y0206333D02*
X0150512Y0206333D01*
X0149791Y0202968D02*
X0149409Y0202866D01*
X0149067Y0202669D01*
X0148788Y0202390D01*
X0148590Y0202047D01*
X0148488Y0201666D01*
X0148488Y0199984D01*
X0151669Y0199984D01*
X0151669Y0202968D01*
X0149791Y0202968D01*
X0148759Y0202339D02*
X0129000Y0202339D01*
X0127500Y0200500D02*
X0128500Y0199500D01*
X0130500Y0199500D01*
X0133052Y0198345D02*
X0133988Y0198345D01*
X0133988Y0197347D02*
X0132306Y0197347D01*
X0133988Y0196348D02*
X0125120Y0196348D01*
X0126118Y0195350D02*
X0133988Y0195350D01*
X0137154Y0197500D02*
X0137154Y0188154D01*
X0135500Y0186500D01*
X0138060Y0185365D02*
X0138590Y0185365D01*
X0138300Y0186363D02*
X0139588Y0186363D01*
X0138483Y0187362D02*
X0142679Y0187362D01*
X0141941Y0188360D02*
X0138654Y0188360D01*
X0138654Y0189359D02*
X0141700Y0189359D01*
X0141824Y0190357D02*
X0138654Y0190357D01*
X0138654Y0191356D02*
X0142396Y0191356D01*
X0143000Y0192354D02*
X0138654Y0192354D01*
X0138654Y0193353D02*
X0143000Y0193353D01*
X0143000Y0194351D02*
X0138654Y0194351D01*
X0140319Y0195350D02*
X0140681Y0195350D01*
X0140681Y0196348D02*
X0140319Y0196348D01*
X0140319Y0197347D02*
X0140681Y0197347D01*
X0140681Y0198345D02*
X0140319Y0198345D01*
X0140319Y0199344D02*
X0140681Y0199344D01*
X0141141Y0200342D02*
X0139859Y0200342D01*
X0143846Y0197500D02*
X0144500Y0196846D01*
X0144500Y0189500D01*
X0147059Y0188360D02*
X0150366Y0188360D01*
X0148036Y0187362D02*
X0146321Y0187362D01*
X0147500Y0185500D02*
X0140846Y0185500D01*
X0134846Y0179500D01*
X0142815Y0171531D01*
X0152382Y0171531D01*
X0152350Y0171500D01*
X0152382Y0169563D02*
X0149701Y0169563D01*
X0152382Y0169563D01*
X0153941Y0169563D01*
X0153941Y0169563D01*
X0152382Y0169563D01*
X0152382Y0169563D01*
X0149500Y0166681D01*
X0149500Y0165500D01*
X0147726Y0164396D02*
X0154031Y0164396D01*
X0154031Y0165394D02*
X0146727Y0165394D01*
X0145728Y0166393D02*
X0154031Y0166393D01*
X0153941Y0167391D02*
X0144730Y0167391D01*
X0143731Y0168390D02*
X0149805Y0168390D01*
X0149701Y0169388D02*
X0142733Y0169388D01*
X0141838Y0170387D02*
X0141734Y0170387D01*
X0140840Y0171385D02*
X0138012Y0171385D01*
X0137511Y0172384D02*
X0139841Y0172384D01*
X0138843Y0173382D02*
X0129654Y0173382D01*
X0129654Y0174381D02*
X0137844Y0174381D01*
X0136846Y0175379D02*
X0129654Y0175379D01*
X0129654Y0176378D02*
X0135847Y0176378D01*
X0131681Y0177376D02*
X0131319Y0177376D01*
X0131319Y0178375D02*
X0131681Y0178375D01*
X0131681Y0179373D02*
X0131319Y0179373D01*
X0131319Y0180372D02*
X0131681Y0180372D01*
X0131681Y0181370D02*
X0131319Y0181370D01*
X0130833Y0182369D02*
X0132167Y0182369D01*
X0133674Y0184366D02*
X0130326Y0184366D01*
X0129654Y0183368D02*
X0136593Y0183368D01*
X0137326Y0184366D02*
X0137591Y0184366D01*
X0145500Y0181500D02*
X0149531Y0175469D01*
X0152382Y0175469D01*
X0152382Y0177437D02*
X0152382Y0177618D01*
X0150500Y0182500D01*
X0147500Y0185500D02*
X0154500Y0188500D01*
X0156500Y0183500D02*
X0157500Y0182500D01*
X0157500Y0178618D01*
X0155532Y0178618D02*
X0155532Y0175937D01*
X0156320Y0175937D01*
X0156701Y0176039D01*
X0157043Y0176237D01*
X0157243Y0176437D01*
X0159985Y0176437D01*
X0159937Y0176257D01*
X0159937Y0175469D01*
X0160824Y0175469D01*
X0160824Y0175468D02*
X0159937Y0175468D01*
X0159937Y0174680D01*
X0160039Y0174299D01*
X0160237Y0173957D01*
X0160437Y0173757D01*
X0160437Y0173243D01*
X0160237Y0173043D01*
X0160039Y0172701D01*
X0159937Y0172320D01*
X0159937Y0171532D01*
X0162618Y0171532D01*
X0162618Y0171531D01*
X0159937Y0171531D01*
X0159937Y0170743D01*
X0159985Y0170563D01*
X0155006Y0170563D01*
X0154961Y0170733D01*
X0154763Y0171075D01*
X0154563Y0171275D01*
X0154563Y0175985D01*
X0154743Y0175937D01*
X0155531Y0175937D01*
X0155531Y0178618D01*
X0155532Y0178618D01*
X0155531Y0178618D02*
X0155500Y0178587D01*
X0155500Y0174500D01*
X0156469Y0175469D01*
X0162618Y0175469D01*
X0162618Y0177437D01*
X0164437Y0177437D01*
X0166500Y0179500D01*
X0165197Y0178607D02*
X0164999Y0178949D01*
X0164720Y0179228D01*
X0164378Y0179425D01*
X0163997Y0179528D01*
X0162618Y0179528D01*
X0161240Y0179528D01*
X0161059Y0179479D01*
X0161059Y0179938D01*
X0163121Y0182000D01*
X0169091Y0182000D01*
X0169126Y0181914D01*
X0169914Y0181126D01*
X0170943Y0180700D01*
X0172057Y0180700D01*
X0173086Y0181126D01*
X0173874Y0181914D01*
X0174300Y0182943D01*
X0174300Y0184057D01*
X0173909Y0185000D01*
X0179879Y0185000D01*
X0175879Y0181000D01*
X0173879Y0181000D01*
X0173000Y0180121D01*
X0171819Y0178940D01*
X0171819Y0178670D01*
X0171689Y0178540D01*
X0171689Y0177992D01*
X0170957Y0177992D01*
X0170957Y0175862D01*
X0167862Y0175862D01*
X0166500Y0174500D01*
X0166500Y0164500D01*
X0167486Y0166393D02*
X0163567Y0166393D01*
X0163874Y0166086D02*
X0163086Y0166874D01*
X0162057Y0167300D01*
X0161059Y0167300D01*
X0161059Y0167972D01*
X0164213Y0167972D01*
X0164799Y0168558D01*
X0164799Y0169820D01*
X0164999Y0170020D01*
X0165197Y0170362D01*
X0165299Y0170743D01*
X0165299Y0171531D01*
X0162618Y0171531D01*
X0162618Y0171532D01*
X0165299Y0171532D01*
X0165299Y0172320D01*
X0165197Y0172701D01*
X0164999Y0173043D01*
X0164799Y0173243D01*
X0164799Y0173757D01*
X0164999Y0173957D01*
X0165197Y0174299D01*
X0165299Y0174680D01*
X0165299Y0175468D01*
X0164412Y0175468D01*
X0164413Y0175469D01*
X0165299Y0175469D01*
X0165299Y0176257D01*
X0165247Y0176453D01*
X0165299Y0176649D01*
X0165299Y0177437D01*
X0165299Y0178225D01*
X0165197Y0178607D01*
X0165259Y0178375D02*
X0171689Y0178375D01*
X0170957Y0177992D02*
X0170957Y0175862D01*
X0170957Y0175862D01*
X0168374Y0175862D01*
X0168374Y0175035D01*
X0168476Y0174653D01*
X0168497Y0174618D01*
X0167879Y0174000D01*
X0167000Y0173121D01*
X0167000Y0166879D01*
X0169000Y0164879D01*
X0169000Y0161879D01*
X0169736Y0161143D01*
X0169700Y0161057D01*
X0169700Y0159943D01*
X0170069Y0159052D01*
X0167121Y0162000D01*
X0165879Y0162000D01*
X0162781Y0162000D01*
X0163086Y0162126D01*
X0163874Y0162914D01*
X0164300Y0163943D01*
X0164300Y0165057D01*
X0163874Y0166086D01*
X0164160Y0165394D02*
X0168484Y0165394D01*
X0169000Y0164396D02*
X0164300Y0164396D01*
X0164074Y0163397D02*
X0169000Y0163397D01*
X0169000Y0162399D02*
X0163359Y0162399D01*
X0161500Y0164500D02*
X0159469Y0166531D01*
X0159469Y0168382D01*
X0161059Y0167391D02*
X0167000Y0167391D01*
X0167000Y0168390D02*
X0164631Y0168390D01*
X0164799Y0169388D02*
X0167000Y0169388D01*
X0167000Y0170387D02*
X0165204Y0170387D01*
X0165299Y0171385D02*
X0167000Y0171385D01*
X0167000Y0172384D02*
X0165282Y0172384D01*
X0164799Y0173382D02*
X0167261Y0173382D01*
X0168260Y0174381D02*
X0165219Y0174381D01*
X0165299Y0175379D02*
X0168374Y0175379D01*
X0168374Y0175862D02*
X0170957Y0175862D01*
X0170957Y0175862D01*
X0170957Y0176378D02*
X0170957Y0176378D01*
X0170957Y0177376D02*
X0170957Y0177376D01*
X0170957Y0177992D02*
X0169677Y0177992D01*
X0169295Y0177890D01*
X0168953Y0177692D01*
X0168674Y0177413D01*
X0168476Y0177071D01*
X0168374Y0176690D01*
X0168374Y0175862D01*
X0167862Y0175862D02*
X0163012Y0175862D01*
X0162618Y0175469D01*
X0162618Y0175469D01*
X0162618Y0177437D01*
X0162618Y0175469D01*
X0162618Y0176378D02*
X0162618Y0176378D01*
X0162618Y0177376D02*
X0162618Y0177376D01*
X0162618Y0177437D02*
X0162618Y0177437D01*
X0162618Y0179528D01*
X0162618Y0177437D01*
X0162618Y0177437D01*
X0162618Y0178375D02*
X0162618Y0178375D01*
X0162618Y0179373D02*
X0162618Y0179373D01*
X0161493Y0180372D02*
X0173251Y0180372D01*
X0173330Y0181370D02*
X0176249Y0181370D01*
X0177248Y0182369D02*
X0174062Y0182369D01*
X0174300Y0183368D02*
X0178246Y0183368D01*
X0179245Y0184366D02*
X0174172Y0184366D01*
X0171500Y0183500D02*
X0162500Y0183500D01*
X0159469Y0180469D01*
X0159469Y0178618D01*
X0159970Y0176378D02*
X0157184Y0176378D01*
X0155532Y0176378D02*
X0155531Y0176378D01*
X0155531Y0177376D02*
X0155532Y0177376D01*
X0155531Y0178375D02*
X0155532Y0178375D01*
X0154563Y0175379D02*
X0159937Y0175379D01*
X0160824Y0175469D02*
X0160824Y0175468D01*
X0160017Y0174381D02*
X0154563Y0174381D01*
X0155500Y0174500D02*
X0155500Y0171500D01*
X0162500Y0171500D01*
X0162531Y0171531D01*
X0162618Y0171531D01*
X0159937Y0171385D02*
X0154563Y0171385D01*
X0154563Y0172384D02*
X0159954Y0172384D01*
X0160437Y0173382D02*
X0154563Y0173382D01*
X0152382Y0173500D02*
X0146500Y0173500D01*
X0143500Y0176500D01*
X0140500Y0169500D02*
X0149500Y0160500D01*
X0153500Y0160500D01*
X0155531Y0162531D01*
X0155531Y0168382D01*
X0155500Y0168350D01*
X0157500Y0168382D02*
X0157500Y0161500D01*
X0158500Y0160500D01*
X0158500Y0158500D01*
X0156500Y0156500D01*
X0137846Y0156500D01*
X0134846Y0159500D01*
X0131681Y0159403D02*
X0131319Y0159403D01*
X0131319Y0158405D02*
X0131681Y0158405D01*
X0131681Y0157406D02*
X0131319Y0157406D01*
X0129654Y0156408D02*
X0135817Y0156408D01*
X0136816Y0155409D02*
X0129654Y0155409D01*
X0129654Y0154411D02*
X0146451Y0154411D01*
X0145291Y0153412D02*
X0129654Y0153412D01*
X0130788Y0152414D02*
X0131505Y0152414D01*
X0134362Y0152414D02*
X0135331Y0152414D01*
X0135331Y0151415D02*
X0134362Y0151415D01*
X0134362Y0150417D02*
X0135331Y0150417D01*
X0135331Y0149418D02*
X0143000Y0149418D01*
X0143000Y0150417D02*
X0138512Y0150417D01*
X0138512Y0151415D02*
X0143294Y0151415D01*
X0144292Y0152414D02*
X0138188Y0152414D01*
X0137500Y0149500D02*
X0141500Y0153500D01*
X0137500Y0149500D02*
X0134846Y0149500D01*
X0135331Y0149016D02*
X0135331Y0146031D01*
X0137209Y0146031D01*
X0137591Y0146134D01*
X0137933Y0146331D01*
X0138212Y0146610D01*
X0138410Y0146953D01*
X0138512Y0147334D01*
X0138512Y0149016D01*
X0135331Y0149016D01*
X0135331Y0148420D02*
X0134362Y0148420D01*
X0134362Y0147421D02*
X0135331Y0147421D01*
X0135331Y0146423D02*
X0134362Y0146423D01*
X0138024Y0146423D02*
X0141563Y0146423D01*
X0141563Y0147421D02*
X0138512Y0147421D01*
X0138512Y0148420D02*
X0141563Y0148420D01*
X0146538Y0150417D02*
X0146624Y0150417D01*
X0151153Y0153412D02*
X0172346Y0153412D01*
X0173289Y0154411D02*
X0150549Y0154411D01*
X0151635Y0158405D02*
X0138063Y0158405D01*
X0138012Y0159403D02*
X0148475Y0159403D01*
X0147477Y0160402D02*
X0138012Y0160402D01*
X0138012Y0161400D02*
X0146478Y0161400D01*
X0145480Y0162399D02*
X0137496Y0162399D01*
X0132197Y0162399D02*
X0130803Y0162399D01*
X0131319Y0161400D02*
X0131681Y0161400D01*
X0131681Y0160402D02*
X0131319Y0160402D01*
X0128154Y0159500D02*
X0128154Y0169500D01*
X0131319Y0169388D02*
X0131681Y0169388D01*
X0131681Y0168390D02*
X0131319Y0168390D01*
X0131319Y0167391D02*
X0131681Y0167391D01*
X0129654Y0166393D02*
X0141486Y0166393D01*
X0140487Y0167391D02*
X0138012Y0167391D01*
X0140500Y0169500D02*
X0134846Y0169500D01*
X0131681Y0170387D02*
X0131319Y0170387D01*
X0131319Y0171385D02*
X0131681Y0171385D01*
X0132182Y0172384D02*
X0130818Y0172384D01*
X0126654Y0173382D02*
X0120000Y0173382D01*
X0120000Y0174381D02*
X0126654Y0174381D01*
X0126654Y0175379D02*
X0120000Y0175379D01*
X0120000Y0176378D02*
X0126654Y0176378D01*
X0124988Y0177376D02*
X0120000Y0177376D01*
X0120000Y0178375D02*
X0124988Y0178375D01*
X0124988Y0179373D02*
X0120000Y0179373D01*
X0120000Y0180372D02*
X0124988Y0180372D01*
X0124988Y0181370D02*
X0119751Y0181370D01*
X0118752Y0182369D02*
X0125474Y0182369D01*
X0126654Y0183368D02*
X0117754Y0183368D01*
X0116755Y0184366D02*
X0126654Y0184366D01*
X0125940Y0185365D02*
X0112757Y0185365D01*
X0111758Y0186363D02*
X0125700Y0186363D01*
X0125826Y0187362D02*
X0110760Y0187362D01*
X0124121Y0197347D02*
X0128694Y0197347D01*
X0133300Y0199344D02*
X0133988Y0199344D01*
X0134448Y0200342D02*
X0133182Y0200342D01*
X0132619Y0201341D02*
X0148488Y0201341D01*
X0148488Y0200342D02*
X0146552Y0200342D01*
X0151669Y0200342D02*
X0152638Y0200342D01*
X0152638Y0201341D02*
X0151669Y0201341D01*
X0151669Y0202339D02*
X0152638Y0202339D01*
X0155548Y0202339D02*
X0156138Y0202339D01*
X0161555Y0202339D02*
X0162000Y0202339D01*
X0162500Y0206500D02*
X0164500Y0208500D01*
X0166429Y0208500D01*
X0166445Y0208484D01*
X0166445Y0206579D01*
X0166421Y0206579D01*
X0166429Y0208500D02*
X0166445Y0212484D01*
X0166445Y0214453D01*
X0166445Y0216421D02*
X0163421Y0216421D01*
X0160500Y0213500D01*
X0160500Y0210500D01*
X0156199Y0215320D02*
X0144441Y0215320D01*
X0143443Y0214321D02*
X0155200Y0214321D01*
X0154202Y0213323D02*
X0142444Y0213323D01*
X0141654Y0212324D02*
X0154000Y0212324D01*
X0154000Y0211326D02*
X0141654Y0211326D01*
X0142874Y0210327D02*
X0143445Y0210327D01*
X0146362Y0210327D02*
X0147331Y0210327D01*
X0147331Y0209329D02*
X0146362Y0209329D01*
X0146362Y0208330D02*
X0147331Y0208330D01*
X0148500Y0209154D02*
X0148500Y0214500D01*
X0146438Y0217317D02*
X0158196Y0217317D01*
X0159194Y0218315D02*
X0147437Y0218315D01*
X0145440Y0216318D02*
X0157197Y0216318D01*
X0159700Y0223308D02*
X0129000Y0223308D01*
X0129000Y0224306D02*
X0159803Y0224306D01*
X0160345Y0225305D02*
X0141955Y0225305D01*
X0142390Y0226303D02*
X0161566Y0226303D01*
X0161476Y0227302D02*
X0142390Y0227302D01*
X0142390Y0228301D02*
X0161476Y0228301D01*
X0161476Y0229299D02*
X0142390Y0229299D01*
X0136453Y0229299D02*
X0132547Y0229299D01*
X0132547Y0228301D02*
X0136453Y0228301D01*
X0136453Y0227302D02*
X0132547Y0227302D01*
X0132547Y0226303D02*
X0136453Y0226303D01*
X0136887Y0225305D02*
X0132113Y0225305D01*
X0129579Y0229500D02*
X0127500Y0227421D01*
X0127500Y0212846D01*
X0124531Y0213323D02*
X0102100Y0213323D01*
X0101686Y0212324D02*
X0124531Y0212324D01*
X0124531Y0211326D02*
X0100973Y0211326D01*
X0099708Y0210327D02*
X0124531Y0210327D01*
X0124531Y0214321D02*
X0112281Y0214321D01*
X0113042Y0215320D02*
X0124531Y0215320D01*
X0126000Y0216318D02*
X0113300Y0216318D01*
X0113192Y0217317D02*
X0126000Y0217317D01*
X0126000Y0218315D02*
X0112644Y0218315D01*
X0109807Y0219314D02*
X0126000Y0219314D01*
X0126000Y0220312D02*
X0109654Y0220312D01*
X0109654Y0221311D02*
X0111795Y0221311D01*
X0114362Y0221311D02*
X0115331Y0221311D01*
X0115331Y0221031D02*
X0117209Y0221031D01*
X0117591Y0221134D01*
X0117933Y0221331D01*
X0118212Y0221610D01*
X0118410Y0221953D01*
X0118512Y0222334D01*
X0118512Y0224016D01*
X0115331Y0224016D01*
X0115331Y0221031D01*
X0115331Y0222309D02*
X0114362Y0222309D01*
X0114362Y0223308D02*
X0115331Y0223308D01*
X0115331Y0224306D02*
X0126000Y0224306D01*
X0126000Y0223308D02*
X0118512Y0223308D01*
X0118505Y0222309D02*
X0126000Y0222309D01*
X0126000Y0221311D02*
X0117898Y0221311D01*
X0118512Y0225305D02*
X0126000Y0225305D01*
X0126000Y0226303D02*
X0118512Y0226303D01*
X0118263Y0227302D02*
X0126000Y0227302D01*
X0132547Y0230298D02*
X0136453Y0230298D01*
X0136453Y0231296D02*
X0132547Y0231296D01*
X0132547Y0232295D02*
X0136453Y0232295D01*
X0136485Y0233293D02*
X0132515Y0233293D01*
X0115331Y0227302D02*
X0114362Y0227302D01*
X0114362Y0226303D02*
X0115331Y0226303D01*
X0115331Y0225305D02*
X0114362Y0225305D01*
X0111430Y0227302D02*
X0110900Y0227302D01*
X0112909Y0236289D02*
X0161476Y0236289D01*
X0161476Y0237287D02*
X0113273Y0237287D01*
X0112607Y0241281D02*
X0220934Y0241281D01*
X0221933Y0242280D02*
X0111774Y0242280D01*
X0110276Y0243278D02*
X0240500Y0243278D01*
X0240500Y0242280D02*
X0239067Y0242280D01*
X0240066Y0241281D02*
X0240500Y0241281D01*
X0240500Y0236289D02*
X0240371Y0236289D01*
X0240500Y0235290D02*
X0239637Y0235290D01*
X0240500Y0234292D02*
X0238322Y0234292D01*
X0234078Y0234292D02*
X0226922Y0234292D01*
X0228237Y0235290D02*
X0232763Y0235290D01*
X0232029Y0236289D02*
X0228971Y0236289D01*
X0229385Y0237287D02*
X0231615Y0237287D01*
X0231500Y0238286D02*
X0229500Y0238286D01*
X0229500Y0239284D02*
X0231500Y0239284D01*
X0231851Y0240283D02*
X0229149Y0240283D01*
X0228666Y0241281D02*
X0232334Y0241281D01*
X0233333Y0242280D02*
X0227667Y0242280D01*
X0220629Y0236289D02*
X0211512Y0236289D01*
X0211500Y0235290D02*
X0221363Y0235290D01*
X0222678Y0234292D02*
X0210864Y0234292D01*
X0209500Y0235500D02*
X0207846Y0237500D01*
X0204419Y0240283D02*
X0203919Y0240283D01*
X0200664Y0231296D02*
X0219934Y0231296D01*
X0218338Y0230298D02*
X0201200Y0230298D01*
X0201300Y0229299D02*
X0202178Y0229299D01*
X0201179Y0228301D02*
X0201034Y0228301D01*
X0195500Y0225500D02*
X0194500Y0224500D01*
X0191500Y0224500D01*
X0187500Y0220500D01*
X0182445Y0220500D01*
X0182390Y0220555D01*
X0189000Y0228301D02*
X0189179Y0228301D01*
X0189000Y0229299D02*
X0190178Y0229299D01*
X0191176Y0230298D02*
X0189000Y0230298D01*
X0200413Y0217413D02*
X0205500Y0222500D01*
X0207500Y0222500D01*
X0205138Y0217161D02*
X0205138Y0214138D01*
X0202500Y0211500D01*
X0201500Y0211500D01*
X0200413Y0217161D02*
X0200413Y0217413D01*
X0209500Y0216799D02*
X0209862Y0217161D01*
X0214587Y0202339D02*
X0214587Y0202339D01*
X0214587Y0201341D02*
X0214587Y0201341D01*
X0214587Y0200342D02*
X0214587Y0200342D01*
X0216088Y0202339D02*
X0216323Y0202339D01*
X0222500Y0181500D02*
X0225500Y0178500D01*
X0225500Y0162500D01*
X0222925Y0161400D02*
X0221101Y0161400D01*
X0220302Y0162399D02*
X0222700Y0162399D01*
X0222841Y0163397D02*
X0219503Y0163397D01*
X0219000Y0164396D02*
X0223436Y0164396D01*
X0224000Y0165394D02*
X0219000Y0165394D01*
X0219000Y0166393D02*
X0224000Y0166393D01*
X0224000Y0167391D02*
X0219000Y0167391D01*
X0219000Y0168390D02*
X0224000Y0168390D01*
X0224000Y0169388D02*
X0219000Y0169388D01*
X0219000Y0170387D02*
X0224000Y0170387D01*
X0224000Y0171385D02*
X0219000Y0171385D01*
X0219000Y0172384D02*
X0224000Y0172384D01*
X0224000Y0173382D02*
X0219000Y0173382D01*
X0219000Y0174381D02*
X0224000Y0174381D01*
X0224000Y0175379D02*
X0219339Y0175379D01*
X0220066Y0176378D02*
X0224000Y0176378D01*
X0224000Y0177376D02*
X0220300Y0177376D01*
X0220168Y0178375D02*
X0223504Y0178375D01*
X0220667Y0179373D02*
X0219586Y0179373D01*
X0217500Y0177500D02*
X0217500Y0163500D01*
X0221500Y0158500D01*
X0223558Y0160402D02*
X0223638Y0160402D01*
X0224157Y0159403D02*
X0225282Y0159403D01*
X0229500Y0153500D02*
X0229500Y0144500D01*
X0208531Y0123531D01*
X0197587Y0123531D01*
X0197587Y0125500D02*
X0207500Y0125500D01*
X0209500Y0127500D01*
X0209500Y0129500D01*
X0208500Y0130500D01*
X0207500Y0130500D01*
X0214577Y0124455D02*
X0240500Y0124455D01*
X0240500Y0123457D02*
X0213578Y0123457D01*
X0212580Y0122458D02*
X0240500Y0122458D01*
X0240500Y0121460D02*
X0228435Y0121460D01*
X0229012Y0120461D02*
X0240500Y0120461D01*
X0240500Y0119463D02*
X0229012Y0119463D01*
X0229012Y0118464D02*
X0240500Y0118464D01*
X0240500Y0117466D02*
X0229012Y0117466D01*
X0229012Y0116467D02*
X0240500Y0116467D01*
X0240500Y0115469D02*
X0228000Y0115469D01*
X0227592Y0114470D02*
X0240500Y0114470D01*
X0240500Y0113472D02*
X0226593Y0113472D01*
X0225595Y0112473D02*
X0240500Y0112473D01*
X0240500Y0111475D02*
X0224596Y0111475D01*
X0223500Y0112500D02*
X0226500Y0115500D01*
X0226500Y0117846D01*
X0225846Y0118500D01*
X0224347Y0115469D02*
X0222377Y0115469D01*
X0223349Y0114470D02*
X0215651Y0114470D01*
X0215930Y0115469D02*
X0214653Y0115469D01*
X0215488Y0116467D02*
X0211493Y0116467D01*
X0209500Y0114500D02*
X0213500Y0114500D01*
X0215500Y0112500D01*
X0223500Y0112500D01*
X0219638Y0115469D02*
X0218669Y0115469D01*
X0218669Y0116467D02*
X0219638Y0116467D01*
X0219638Y0117466D02*
X0218669Y0117466D01*
X0218669Y0119463D02*
X0219638Y0119463D01*
X0219638Y0120461D02*
X0218669Y0120461D01*
X0218669Y0121460D02*
X0219638Y0121460D01*
X0222449Y0121460D02*
X0223258Y0121460D01*
X0215858Y0121460D02*
X0211581Y0121460D01*
X0210583Y0120461D02*
X0215488Y0120461D01*
X0215575Y0125454D02*
X0232987Y0125454D01*
X0231901Y0126452D02*
X0216574Y0126452D01*
X0217572Y0127451D02*
X0231262Y0127451D01*
X0230848Y0128449D02*
X0218571Y0128449D01*
X0219569Y0129448D02*
X0223592Y0129448D01*
X0222906Y0130446D02*
X0220568Y0130446D01*
X0221566Y0131445D02*
X0222700Y0131445D01*
X0222565Y0132443D02*
X0222860Y0132443D01*
X0210500Y0136500D02*
X0207000Y0140000D01*
X0207000Y0141000D01*
X0215500Y0149500D01*
X0215500Y0162500D01*
X0211500Y0166500D01*
X0210500Y0166500D01*
X0207927Y0165394D02*
X0203325Y0165394D01*
X0203559Y0166393D02*
X0207700Y0166393D01*
X0207839Y0167391D02*
X0207196Y0167391D01*
X0207299Y0168390D02*
X0208430Y0168390D01*
X0207299Y0168563D02*
X0206412Y0168563D01*
X0206413Y0168563D01*
X0207299Y0168563D01*
X0207289Y0169388D02*
X0216000Y0169388D01*
X0216000Y0168390D02*
X0212570Y0168390D01*
X0213161Y0167391D02*
X0216000Y0167391D01*
X0216000Y0166393D02*
X0213728Y0166393D01*
X0214727Y0165394D02*
X0216000Y0165394D01*
X0216000Y0164396D02*
X0215726Y0164396D01*
X0216000Y0170387D02*
X0207299Y0170387D01*
X0207282Y0171385D02*
X0216000Y0171385D01*
X0216000Y0172384D02*
X0207299Y0172384D01*
X0207299Y0172500D02*
X0206413Y0172500D01*
X0206412Y0172500D01*
X0206413Y0172500D01*
X0207299Y0172500D01*
X0207274Y0173382D02*
X0216000Y0173382D01*
X0216000Y0174381D02*
X0207299Y0174381D01*
X0207266Y0175379D02*
X0215661Y0175379D01*
X0214934Y0176378D02*
X0207299Y0176378D01*
X0207299Y0176437D02*
X0206413Y0176437D01*
X0206412Y0176437D01*
X0207299Y0176437D01*
X0207259Y0177376D02*
X0214700Y0177376D01*
X0214832Y0178375D02*
X0206465Y0178375D01*
X0204618Y0178375D02*
X0204618Y0178375D01*
X0204618Y0178528D02*
X0204618Y0176437D01*
X0204618Y0176437D01*
X0204618Y0176437D01*
X0204618Y0178528D01*
X0204618Y0177376D02*
X0204618Y0177376D01*
X0204618Y0176378D02*
X0204618Y0176378D01*
X0204618Y0175379D02*
X0204618Y0175379D01*
X0204618Y0174381D02*
X0204618Y0174381D01*
X0204618Y0173382D02*
X0204618Y0173382D01*
X0204618Y0172500D02*
X0204618Y0172500D01*
X0204618Y0170531D01*
X0204618Y0170409D01*
X0204618Y0170532D02*
X0204618Y0172500D01*
X0204618Y0172500D01*
X0204618Y0170532D01*
X0204618Y0170532D01*
X0204618Y0171385D02*
X0204618Y0171385D01*
X0204618Y0172384D02*
X0204618Y0172384D01*
X0204618Y0169388D02*
X0204618Y0169388D01*
X0204618Y0168390D02*
X0204618Y0168390D01*
X0204618Y0167391D02*
X0204618Y0167391D01*
X0208644Y0164396D02*
X0194300Y0164396D01*
X0194160Y0165394D02*
X0196333Y0165394D01*
X0195941Y0166393D02*
X0193567Y0166393D01*
X0190000Y0167391D02*
X0181730Y0167391D01*
X0180500Y0166500D02*
X0177500Y0166500D01*
X0176500Y0165500D01*
X0176500Y0158500D01*
X0174500Y0156500D01*
X0170500Y0156500D01*
X0166500Y0160500D01*
X0158500Y0160500D01*
X0160000Y0158405D02*
X0166474Y0158405D01*
X0167472Y0157406D02*
X0159528Y0157406D01*
X0158529Y0156408D02*
X0168471Y0156408D01*
X0169469Y0155409D02*
X0157531Y0155409D01*
X0160500Y0155500D02*
X0162500Y0153500D01*
X0167154Y0149500D02*
X0167154Y0147500D01*
X0172154Y0142500D01*
X0182500Y0142500D01*
X0182217Y0142217D01*
X0182217Y0139783D01*
X0186500Y0135500D01*
X0186500Y0132650D01*
X0186563Y0132587D01*
X0188531Y0132587D02*
X0188531Y0137531D01*
X0190500Y0139500D01*
X0200500Y0139500D01*
X0202500Y0141500D01*
X0202500Y0151028D01*
X0200500Y0153028D01*
X0196783Y0153028D01*
X0192311Y0157500D01*
X0178500Y0157500D01*
X0173846Y0152846D01*
X0173846Y0149500D01*
X0170681Y0149418D02*
X0170319Y0149418D01*
X0170319Y0148420D02*
X0170681Y0148420D01*
X0170681Y0147421D02*
X0170319Y0147421D01*
X0170352Y0146423D02*
X0177476Y0146423D01*
X0177476Y0145424D02*
X0171351Y0145424D01*
X0172349Y0144426D02*
X0177476Y0144426D01*
X0177012Y0147421D02*
X0201000Y0147421D01*
X0201000Y0148420D02*
X0177012Y0148420D01*
X0177012Y0149418D02*
X0201000Y0149418D01*
X0204000Y0149418D02*
X0206687Y0149418D01*
X0206531Y0150417D02*
X0204000Y0150417D01*
X0204000Y0151415D02*
X0206531Y0151415D01*
X0208626Y0153028D02*
X0209500Y0152154D01*
X0208626Y0153028D02*
X0196783Y0153028D01*
X0195525Y0156408D02*
X0206052Y0156408D01*
X0206031Y0157406D02*
X0194526Y0157406D01*
X0193528Y0158405D02*
X0209016Y0158405D01*
X0209016Y0159403D02*
X0209984Y0159403D01*
X0209984Y0160402D02*
X0209016Y0160402D01*
X0209016Y0161400D02*
X0209984Y0161400D01*
X0209984Y0162399D02*
X0209016Y0162399D01*
X0206934Y0162399D02*
X0193359Y0162399D01*
X0189641Y0162399D02*
X0184359Y0162399D01*
X0185074Y0163397D02*
X0188926Y0163397D01*
X0188700Y0164396D02*
X0185300Y0164396D01*
X0185160Y0165394D02*
X0188840Y0165394D01*
X0189433Y0166393D02*
X0184567Y0166393D01*
X0182500Y0164500D02*
X0180500Y0166500D01*
X0179700Y0164396D02*
X0178000Y0164396D01*
X0178000Y0163397D02*
X0179926Y0163397D01*
X0180641Y0162399D02*
X0178000Y0162399D01*
X0178000Y0161400D02*
X0206083Y0161400D01*
X0206031Y0160402D02*
X0178000Y0160402D01*
X0178000Y0159403D02*
X0206031Y0159403D01*
X0206735Y0155409D02*
X0201524Y0155409D01*
X0204000Y0148420D02*
X0212298Y0148420D01*
X0212313Y0149418D02*
X0213297Y0149418D01*
X0214000Y0150417D02*
X0212468Y0150417D01*
X0212468Y0151415D02*
X0214000Y0151415D01*
X0214000Y0152414D02*
X0212468Y0152414D01*
X0212468Y0153412D02*
X0214000Y0153412D01*
X0214000Y0154411D02*
X0212468Y0154411D01*
X0212265Y0155409D02*
X0214000Y0155409D01*
X0214000Y0156408D02*
X0212948Y0156408D01*
X0212968Y0157406D02*
X0214000Y0157406D01*
X0211300Y0147421D02*
X0204000Y0147421D01*
X0204000Y0146423D02*
X0210301Y0146423D01*
X0209303Y0145424D02*
X0204000Y0145424D01*
X0204000Y0144426D02*
X0208304Y0144426D01*
X0207306Y0143427D02*
X0204000Y0143427D01*
X0204000Y0142429D02*
X0206307Y0142429D01*
X0206500Y0140500D02*
X0204500Y0140500D01*
X0201500Y0137500D01*
X0206500Y0140500D02*
X0207000Y0140000D01*
X0209500Y0137500D02*
X0210500Y0136500D01*
X0192043Y0141430D02*
X0186957Y0141430D01*
X0186957Y0142429D02*
X0192043Y0142429D01*
X0192043Y0143427D02*
X0186957Y0143427D01*
X0186957Y0144426D02*
X0192043Y0144426D01*
X0192043Y0145424D02*
X0186957Y0145424D01*
X0186957Y0146423D02*
X0192043Y0146423D01*
X0192075Y0150417D02*
X0186925Y0150417D01*
X0186957Y0151415D02*
X0192043Y0151415D01*
X0192043Y0152414D02*
X0186957Y0152414D01*
X0186957Y0153412D02*
X0192043Y0153412D01*
X0192043Y0154411D02*
X0186957Y0154411D01*
X0186957Y0155409D02*
X0192043Y0155409D01*
X0182217Y0143972D02*
X0182217Y0143217D01*
X0182500Y0143500D01*
X0182217Y0143217D02*
X0182217Y0142217D01*
X0183717Y0140432D02*
X0189310Y0140432D01*
X0188312Y0139433D02*
X0184688Y0139433D01*
X0185687Y0138434D02*
X0187313Y0138434D01*
X0187031Y0137436D02*
X0186685Y0137436D01*
X0183413Y0133587D02*
X0179500Y0137500D01*
X0175500Y0134500D02*
X0171500Y0138500D01*
X0171456Y0135439D02*
X0172440Y0135439D01*
X0171468Y0134440D02*
X0173438Y0134440D01*
X0174000Y0133442D02*
X0171468Y0133442D01*
X0171468Y0132443D02*
X0174000Y0132443D01*
X0174434Y0131445D02*
X0171468Y0131445D01*
X0171468Y0130446D02*
X0175432Y0130446D01*
X0176431Y0129448D02*
X0171461Y0129448D01*
X0171968Y0128449D02*
X0177429Y0128449D01*
X0175491Y0127451D02*
X0171968Y0127451D01*
X0177500Y0125500D02*
X0183413Y0125500D01*
X0183413Y0127469D02*
X0180531Y0127469D01*
X0175500Y0132500D01*
X0175500Y0134500D01*
X0168500Y0132846D02*
X0167154Y0134193D01*
X0167154Y0147500D01*
X0170319Y0150417D02*
X0170681Y0150417D01*
X0170681Y0151415D02*
X0170319Y0151415D01*
X0169788Y0152414D02*
X0171212Y0152414D01*
X0176481Y0152414D02*
X0177476Y0152414D01*
X0177476Y0153412D02*
X0176533Y0153412D01*
X0177012Y0151415D02*
X0177476Y0151415D01*
X0177508Y0150417D02*
X0177012Y0150417D01*
X0169924Y0159403D02*
X0169718Y0159403D01*
X0169700Y0160402D02*
X0168720Y0160402D01*
X0169478Y0161400D02*
X0167721Y0161400D01*
X0170500Y0162500D02*
X0172500Y0160500D01*
X0170500Y0162500D02*
X0170500Y0165500D01*
X0168500Y0167500D01*
X0168500Y0172500D01*
X0169500Y0173500D01*
X0170957Y0173500D01*
X0170957Y0171138D02*
X0170957Y0168043D01*
X0172500Y0166500D01*
X0177500Y0166500D01*
X0180128Y0169388D02*
X0185652Y0169388D01*
X0184930Y0170387D02*
X0180626Y0170387D01*
X0180626Y0171385D02*
X0184700Y0171385D01*
X0184835Y0172384D02*
X0180549Y0172384D01*
X0180626Y0173382D02*
X0185423Y0173382D01*
X0187659Y0174381D02*
X0180612Y0174381D01*
X0181501Y0175379D02*
X0186933Y0175379D01*
X0186700Y0176378D02*
X0182499Y0176378D01*
X0183498Y0177376D02*
X0186832Y0177376D01*
X0186335Y0178375D02*
X0187415Y0178375D01*
X0189500Y0176500D02*
X0191500Y0174500D01*
X0191531Y0174469D01*
X0193469Y0174469D01*
X0193500Y0174500D01*
X0194350Y0174500D01*
X0194500Y0174500D01*
X0194382Y0174469D02*
X0194350Y0174500D01*
X0193500Y0174500D02*
X0191500Y0174500D01*
X0194382Y0176437D02*
X0194382Y0176618D01*
X0194382Y0172500D02*
X0188500Y0172500D01*
X0187500Y0171500D01*
X0191500Y0169500D02*
X0192500Y0170500D01*
X0194350Y0170500D01*
X0194382Y0170531D01*
X0201469Y0177618D02*
X0201500Y0177650D01*
X0201500Y0182500D01*
X0191500Y0180500D02*
X0184500Y0180500D01*
X0179862Y0175862D01*
X0178043Y0175862D01*
X0178862Y0175862D01*
X0178043Y0175862D02*
X0176862Y0175862D01*
X0175681Y0177043D01*
X0175681Y0175681D01*
X0173500Y0173500D01*
X0173500Y0170138D01*
X0173319Y0169957D01*
X0178043Y0172384D02*
X0178043Y0172384D01*
X0178043Y0173382D02*
X0178043Y0173382D01*
X0173319Y0177043D02*
X0173319Y0178319D01*
X0174500Y0179500D01*
X0176500Y0179500D01*
X0183500Y0186500D01*
X0172252Y0179373D02*
X0164468Y0179373D01*
X0164412Y0177437D02*
X0165299Y0177437D01*
X0164413Y0177437D01*
X0164412Y0177437D01*
X0165299Y0177376D02*
X0168653Y0177376D01*
X0168374Y0176378D02*
X0165267Y0176378D01*
X0162492Y0181370D02*
X0169670Y0181370D01*
X0153563Y0169563D02*
X0152382Y0169563D01*
X0152382Y0167472D01*
X0152382Y0169563D01*
X0152382Y0169563D01*
X0152382Y0169563D01*
X0152382Y0169388D02*
X0152382Y0169388D01*
X0152382Y0168390D02*
X0152382Y0168390D01*
X0154031Y0163397D02*
X0148724Y0163397D01*
X0149723Y0162399D02*
X0151439Y0162399D01*
X0144481Y0163397D02*
X0129654Y0163397D01*
X0129654Y0164396D02*
X0143483Y0164396D01*
X0142484Y0165394D02*
X0129654Y0165394D01*
X0126654Y0165394D02*
X0120346Y0165394D01*
X0120346Y0164396D02*
X0126654Y0164396D01*
X0126654Y0163397D02*
X0120346Y0163397D01*
X0121496Y0162399D02*
X0125504Y0162399D01*
X0124988Y0161400D02*
X0122012Y0161400D01*
X0122012Y0160402D02*
X0124988Y0160402D01*
X0124988Y0159403D02*
X0122012Y0159403D01*
X0122012Y0158405D02*
X0124988Y0158405D01*
X0124988Y0157406D02*
X0122012Y0157406D01*
X0116197Y0162399D02*
X0115510Y0162399D01*
X0112638Y0162399D02*
X0111669Y0162399D01*
X0111669Y0161400D02*
X0112638Y0161400D01*
X0112638Y0160402D02*
X0111669Y0160402D01*
X0120346Y0166393D02*
X0126654Y0166393D01*
X0124988Y0167391D02*
X0122012Y0167391D01*
X0122012Y0171385D02*
X0124988Y0171385D01*
X0125489Y0172384D02*
X0121511Y0172384D01*
X0128154Y0159500D02*
X0128154Y0149500D01*
X0125534Y0142429D02*
X0121466Y0142429D01*
X0122012Y0141430D02*
X0124988Y0141430D01*
X0124988Y0137436D02*
X0122012Y0137436D01*
X0116227Y0142429D02*
X0115480Y0142429D01*
X0134362Y0128449D02*
X0135331Y0128449D01*
X0135331Y0127451D02*
X0134362Y0127451D01*
X0134362Y0126452D02*
X0135331Y0126452D01*
X0131639Y0126452D02*
X0125097Y0126452D01*
X0130743Y0122458D02*
X0131550Y0122458D01*
X0134362Y0122458D02*
X0135331Y0122458D01*
X0135331Y0121460D02*
X0134362Y0121460D01*
X0134362Y0120461D02*
X0135331Y0120461D01*
X0138512Y0120461D02*
X0138988Y0120461D01*
X0138988Y0121460D02*
X0138512Y0121460D01*
X0138143Y0122458D02*
X0139564Y0122458D01*
X0142154Y0119500D02*
X0144500Y0121846D01*
X0144500Y0127941D01*
X0144500Y0133059D02*
X0145941Y0133059D01*
X0151515Y0131445D02*
X0151700Y0131445D01*
X0152300Y0129448D02*
X0152592Y0129448D01*
X0151411Y0127451D02*
X0165031Y0127451D01*
X0164669Y0118968D02*
X0162791Y0118968D01*
X0162409Y0118866D01*
X0162067Y0118669D01*
X0161788Y0118390D01*
X0161590Y0118047D01*
X0161488Y0117666D01*
X0161488Y0115984D01*
X0164669Y0115984D01*
X0164669Y0118968D01*
X0164669Y0118464D02*
X0165638Y0118464D01*
X0165638Y0117466D02*
X0164669Y0117466D01*
X0164669Y0116467D02*
X0165638Y0116467D01*
X0164669Y0115469D02*
X0148306Y0115469D01*
X0148362Y0116467D02*
X0149331Y0116467D01*
X0149331Y0116031D02*
X0151209Y0116031D01*
X0151591Y0116134D01*
X0151933Y0116331D01*
X0152212Y0116610D01*
X0152410Y0116953D01*
X0152512Y0117334D01*
X0152512Y0119016D01*
X0149331Y0119016D01*
X0149331Y0116031D01*
X0149331Y0117466D02*
X0148362Y0117466D01*
X0148362Y0118464D02*
X0149331Y0118464D01*
X0149331Y0120461D02*
X0148362Y0120461D01*
X0148362Y0121460D02*
X0149331Y0121460D01*
X0149331Y0122458D02*
X0148362Y0122458D01*
X0152143Y0122458D02*
X0181229Y0122458D01*
X0181126Y0123457D02*
X0179417Y0123457D01*
X0181338Y0121460D02*
X0152512Y0121460D01*
X0152512Y0120461D02*
X0180340Y0120461D01*
X0183413Y0121413D02*
X0177500Y0115500D01*
X0177500Y0112500D01*
X0178500Y0111500D01*
X0187500Y0111500D01*
X0188598Y0110476D02*
X0195355Y0110476D01*
X0196000Y0111475D02*
X0189596Y0111475D01*
X0192433Y0112473D02*
X0195405Y0112473D01*
X0194407Y0113472D02*
X0193105Y0113472D01*
X0193300Y0114470D02*
X0193408Y0114470D01*
X0195892Y0116467D02*
X0207507Y0116467D01*
X0206871Y0115469D02*
X0196653Y0115469D01*
X0197651Y0114470D02*
X0206700Y0114470D01*
X0206895Y0113472D02*
X0198650Y0113472D01*
X0199000Y0112473D02*
X0207567Y0112473D01*
X0211433Y0112473D02*
X0213405Y0112473D01*
X0214404Y0111475D02*
X0199000Y0111475D01*
X0199000Y0110476D02*
X0240500Y0110476D01*
X0240500Y0109478D02*
X0198599Y0109478D01*
X0197600Y0108479D02*
X0240500Y0108479D01*
X0240500Y0107481D02*
X0196602Y0107481D01*
X0195603Y0106482D02*
X0240500Y0106482D01*
X0240500Y0105484D02*
X0194605Y0105484D01*
X0194110Y0104485D02*
X0222139Y0104485D01*
X0222138Y0104484D02*
X0220816Y0103162D01*
X0220100Y0101435D01*
X0220100Y0099565D01*
X0220816Y0097838D01*
X0222138Y0096516D01*
X0223865Y0095800D01*
X0225735Y0095800D01*
X0227462Y0096516D01*
X0228784Y0097838D01*
X0229500Y0099565D01*
X0229500Y0101435D01*
X0228784Y0103162D01*
X0227462Y0104484D01*
X0225735Y0105200D01*
X0223865Y0105200D01*
X0222138Y0104484D01*
X0221140Y0103487D02*
X0193446Y0103487D01*
X0189554Y0103487D02*
X0176458Y0103487D01*
X0177022Y0102488D02*
X0220536Y0102488D01*
X0220123Y0101490D02*
X0177308Y0101490D01*
X0177305Y0099493D02*
X0220130Y0099493D01*
X0220100Y0100491D02*
X0172700Y0100491D01*
X0172700Y0101490D02*
X0171700Y0101490D01*
X0171700Y0102488D02*
X0172700Y0102488D01*
X0172700Y0103487D02*
X0171700Y0103487D01*
X0171700Y0104485D02*
X0172700Y0104485D01*
X0175562Y0104485D02*
X0188890Y0104485D01*
X0177014Y0098494D02*
X0220544Y0098494D01*
X0221158Y0097496D02*
X0176445Y0097496D01*
X0175537Y0096497D02*
X0222182Y0096497D01*
X0227418Y0096497D02*
X0233582Y0096497D01*
X0232558Y0097496D02*
X0228442Y0097496D01*
X0229056Y0098494D02*
X0231944Y0098494D01*
X0231530Y0099493D02*
X0229470Y0099493D01*
X0229500Y0100491D02*
X0231500Y0100491D01*
X0231523Y0101490D02*
X0229477Y0101490D01*
X0229064Y0102488D02*
X0231936Y0102488D01*
X0232540Y0103487D02*
X0228460Y0103487D01*
X0227461Y0104485D02*
X0233539Y0104485D01*
X0238861Y0104485D02*
X0240500Y0104485D01*
X0240500Y0103487D02*
X0239860Y0103487D01*
X0240464Y0102488D02*
X0240500Y0102488D01*
X0240456Y0098494D02*
X0240500Y0098494D01*
X0240500Y0097496D02*
X0239842Y0097496D01*
X0240500Y0096497D02*
X0238818Y0096497D01*
X0238013Y0125454D02*
X0240500Y0125454D01*
X0240500Y0126452D02*
X0239099Y0126452D01*
X0239738Y0127451D02*
X0240500Y0127451D01*
X0240500Y0128449D02*
X0240152Y0128449D01*
X0240200Y0129448D02*
X0240500Y0129448D01*
X0240500Y0130446D02*
X0240195Y0130446D01*
X0240500Y0131445D02*
X0239782Y0131445D01*
X0239203Y0132443D02*
X0240500Y0132443D01*
X0229276Y0163397D02*
X0228159Y0163397D01*
X0227564Y0164396D02*
X0230274Y0164396D01*
X0231273Y0165394D02*
X0227000Y0165394D01*
X0183413Y0133587D02*
X0183413Y0129437D01*
X0183413Y0123531D02*
X0185469Y0123531D01*
X0183413Y0121563D02*
X0183413Y0121413D01*
X0172402Y0110476D02*
X0155107Y0110476D01*
X0155300Y0111475D02*
X0171404Y0111475D01*
X0171000Y0112473D02*
X0168382Y0112473D01*
X0165638Y0112473D02*
X0164669Y0112473D01*
X0164669Y0113472D02*
X0165638Y0113472D01*
X0165638Y0114470D02*
X0164669Y0114470D01*
X0161488Y0114470D02*
X0149305Y0114470D01*
X0150303Y0113472D02*
X0150512Y0113472D01*
X0150154Y0111500D02*
X0142154Y0119500D01*
X0142154Y0117154D01*
X0150154Y0111500D02*
X0152500Y0111500D01*
X0154488Y0113472D02*
X0161488Y0113472D01*
X0161925Y0112473D02*
X0155128Y0112473D01*
X0154437Y0109478D02*
X0172700Y0109478D01*
X0168838Y0104485D02*
X0163461Y0104485D01*
X0164460Y0103487D02*
X0167942Y0103487D01*
X0167378Y0102488D02*
X0165064Y0102488D01*
X0165477Y0101490D02*
X0167092Y0101490D01*
X0167095Y0099493D02*
X0165470Y0099493D01*
X0165056Y0098494D02*
X0167386Y0098494D01*
X0167955Y0097496D02*
X0164442Y0097496D01*
X0163418Y0096497D02*
X0168863Y0096497D01*
X0161488Y0116467D02*
X0152069Y0116467D01*
X0152512Y0117466D02*
X0161488Y0117466D01*
X0161863Y0118464D02*
X0152512Y0118464D01*
X0168444Y0118464D02*
X0169263Y0118464D01*
X0108731Y0120461D02*
X0100788Y0120461D01*
X0101719Y0121460D02*
X0108154Y0121460D01*
X0108154Y0122458D02*
X0102296Y0122458D01*
X0102600Y0123457D02*
X0108154Y0123457D01*
X0108154Y0124455D02*
X0098000Y0124455D01*
X0102614Y0125454D02*
X0108154Y0125454D01*
X0098000Y0118464D02*
X0097000Y0118464D01*
X0097000Y0117466D02*
X0098000Y0117466D01*
X0098000Y0116467D02*
X0097000Y0116467D01*
X0097000Y0115469D02*
X0098000Y0115469D01*
X0098000Y0113472D02*
X0097000Y0113472D01*
X0097000Y0112473D02*
X0098000Y0112473D01*
X0098000Y0111475D02*
X0097000Y0111475D01*
X0097000Y0110476D02*
X0098000Y0110476D01*
X0098000Y0145424D02*
X0097000Y0145424D01*
X0097000Y0146423D02*
X0098000Y0146423D01*
X0098000Y0147421D02*
X0097000Y0147421D01*
X0093655Y0227302D02*
X0092500Y0227302D01*
X0092500Y0228301D02*
X0094654Y0228301D01*
X0096300Y0229299D02*
X0092500Y0229299D01*
X0092500Y0230298D02*
X0096300Y0230298D01*
X0096300Y0231296D02*
X0092500Y0231296D01*
X0092500Y0232295D02*
X0096300Y0232295D01*
X0096300Y0233293D02*
X0092500Y0233293D01*
X0092500Y0234292D02*
X0094678Y0234292D01*
X0093363Y0235290D02*
X0092500Y0235290D01*
X0092500Y0236289D02*
X0092629Y0236289D01*
X0092500Y0241281D02*
X0092934Y0241281D01*
X0092500Y0242280D02*
X0093933Y0242280D01*
X0092500Y0243278D02*
X0106124Y0243278D01*
X0104626Y0242280D02*
X0099667Y0242280D01*
X0100666Y0241281D02*
X0103793Y0241281D01*
X0103127Y0237287D02*
X0101385Y0237287D01*
X0100971Y0236289D02*
X0103491Y0236289D01*
X0104105Y0235290D02*
X0100237Y0235290D01*
X0160257Y0230298D02*
X0161476Y0230298D01*
D35*
X0158500Y0232500D03*
X0162500Y0223500D03*
X0160500Y0210500D03*
X0148500Y0214500D03*
X0130500Y0199500D03*
X0128500Y0192500D03*
X0128500Y0186500D03*
X0135500Y0186500D03*
X0144500Y0189500D03*
X0145500Y0181500D03*
X0150500Y0182500D03*
X0156500Y0183500D03*
X0166500Y0179500D03*
X0171500Y0183500D03*
X0166500Y0190500D03*
X0170500Y0197500D03*
X0177500Y0190500D03*
X0184500Y0180500D03*
X0189500Y0176500D03*
X0187500Y0171500D03*
X0182500Y0171500D03*
X0182500Y0164500D03*
X0172500Y0160500D03*
X0166500Y0164500D03*
X0161500Y0164500D03*
X0153500Y0160500D03*
X0149500Y0165500D03*
X0143500Y0176500D03*
X0141500Y0153500D03*
X0148500Y0152500D03*
X0160500Y0155500D03*
X0171500Y0138500D03*
X0179500Y0137500D03*
X0177500Y0125500D03*
X0183500Y0114500D03*
X0190500Y0114500D03*
X0191500Y0105500D03*
X0175500Y0109500D03*
X0152500Y0111500D03*
X0149500Y0129500D03*
X0154500Y0131500D03*
X0132500Y0134500D03*
X0122500Y0127500D03*
X0110500Y0131500D03*
X0119500Y0114500D03*
X0127500Y0097500D03*
X0196500Y0159500D03*
X0191500Y0164500D03*
X0199500Y0172500D03*
X0210500Y0166500D03*
X0221500Y0158500D03*
X0225500Y0162500D03*
X0217500Y0177500D03*
X0222500Y0181500D03*
X0211500Y0182500D03*
X0211500Y0190500D03*
X0205500Y0193500D03*
X0200500Y0190500D03*
X0201500Y0182500D03*
X0192500Y0184500D03*
X0177500Y0208500D03*
X0195500Y0225500D03*
X0198500Y0229500D03*
X0207500Y0222500D03*
X0211500Y0211500D03*
X0201500Y0211500D03*
X0220500Y0228500D03*
X0121500Y0191500D03*
X0114500Y0177500D03*
X0110500Y0216500D03*
X0201500Y0134500D03*
X0207500Y0130500D03*
X0210500Y0136500D03*
X0225500Y0131500D03*
X0209500Y0114500D03*
D36*
X0195563Y0168563D02*
X0194382Y0168563D01*
X0195563Y0168563D02*
X0199500Y0172500D01*
X0195563Y0176437D01*
X0194382Y0176437D01*
X0155500Y0171500D02*
X0153563Y0169563D01*
M02*
