G75*
%MOIN*%
%OFA0B0*%
%FSLAX25Y25*%
%IPPOS*%
%LPD*%
%AMOC8*
5,1,8,0,0,1.08239X$1,22.5*
%
%ADD10C,0.02200*%
%ADD11C,0.00800*%
%ADD12C,0.00400*%
D10*
X0110380Y0116500D02*
X0110620Y0116500D01*
X0127380Y0212500D02*
X0127620Y0212500D01*
X0144500Y0222380D02*
X0144500Y0222620D01*
X0142500Y0233380D02*
X0142500Y0233620D01*
X0127500Y0233620D02*
X0127500Y0233380D01*
D11*
X0134400Y0165500D02*
X0108600Y0165500D01*
X0108600Y0151500D01*
X0134400Y0151500D01*
X0134400Y0165500D01*
D12*
X0127798Y0172500D02*
X0126864Y0172500D01*
X0126397Y0172967D01*
X0126397Y0173434D01*
X0126864Y0173901D01*
X0127331Y0173901D01*
X0126864Y0173901D02*
X0126397Y0174368D01*
X0126397Y0174835D01*
X0126864Y0175302D01*
X0127798Y0175302D01*
X0128265Y0174835D01*
X0128265Y0172967D02*
X0127798Y0172500D01*
X0119165Y0172537D02*
X0117297Y0174405D01*
X0117297Y0174872D01*
X0117764Y0175339D01*
X0118698Y0175339D01*
X0119165Y0174872D01*
X0119165Y0172537D02*
X0117297Y0172537D01*
X0110654Y0172500D02*
X0108785Y0172500D01*
X0109719Y0172500D02*
X0109719Y0175302D01*
X0110654Y0174368D01*
X0130345Y0148302D02*
X0131747Y0146901D01*
X0129878Y0146901D01*
X0130345Y0145500D02*
X0130345Y0148302D01*
M02*
