G75*
%MOIN*%
%OFA0B0*%
%FSLAX25Y25*%
%IPPOS*%
%LPD*%
%AMOC8*
5,1,8,0,0,1.08239X$1,22.5*
%
%ADD10C,0.00500*%
%ADD11C,0.00800*%
%ADD12C,0.01200*%
%ADD13R,0.01800X0.03000*%
%ADD14R,0.03000X0.01800*%
%ADD15C,0.00600*%
D10*
X0406500Y0321500D02*
X0410500Y0321500D01*
X0410500Y0325500D01*
X0406500Y0325500D01*
X0406500Y0321500D01*
X0408106Y0323106D02*
X0408894Y0323106D01*
X0408894Y0323894D01*
X0408106Y0323106D01*
X0410665Y0320547D02*
X0411453Y0320547D01*
X0411453Y0321335D01*
D11*
X0308500Y0209000D02*
X0311000Y0206500D01*
X0316000Y0206500D01*
X0318500Y0209000D01*
X0321000Y0206500D01*
X0326000Y0206500D01*
X0328500Y0209000D01*
X0328500Y0214000D01*
X0326000Y0216500D01*
X0321000Y0216500D01*
X0318500Y0214000D01*
X0316000Y0216500D01*
X0311000Y0216500D01*
X0308500Y0214000D01*
X0308500Y0209000D01*
X0311000Y0240500D02*
X0308500Y0243000D01*
X0308500Y0248000D01*
X0311000Y0250500D01*
X0308500Y0253000D01*
X0308500Y0258000D01*
X0311000Y0260500D01*
X0308500Y0263000D01*
X0308500Y0268000D01*
X0311000Y0270500D01*
X0308500Y0273000D01*
X0308500Y0278000D01*
X0311000Y0280500D01*
X0308500Y0283000D01*
X0308500Y0288000D01*
X0311000Y0290500D01*
X0308500Y0293000D01*
X0308500Y0298000D01*
X0311000Y0300500D01*
X0308500Y0303000D01*
X0308500Y0308000D01*
X0311000Y0310500D01*
X0308500Y0313000D01*
X0308500Y0318000D01*
X0311000Y0320500D01*
X0316000Y0320500D01*
X0318500Y0318000D01*
X0318500Y0313000D01*
X0316000Y0310500D01*
X0318500Y0308000D01*
X0318500Y0303000D01*
X0316000Y0300500D01*
X0318500Y0298000D01*
X0318500Y0293000D01*
X0316000Y0290500D01*
X0318500Y0288000D01*
X0318500Y0283000D01*
X0316000Y0280500D01*
X0318500Y0278000D01*
X0318500Y0273000D01*
X0316000Y0270500D01*
X0318500Y0268000D01*
X0318500Y0263000D01*
X0316000Y0260500D01*
X0318500Y0258000D01*
X0318500Y0253000D01*
X0316000Y0250500D01*
X0318500Y0248000D01*
X0318500Y0243000D01*
X0316000Y0240500D01*
X0311000Y0240500D01*
X0337618Y0276500D02*
X0347382Y0276500D01*
X0352500Y0280437D02*
X0352500Y0292563D01*
X0347500Y0296500D02*
X0337618Y0296500D01*
X0332500Y0292563D02*
X0332500Y0280437D01*
X0337500Y0286500D02*
X0337502Y0286641D01*
X0337508Y0286782D01*
X0337518Y0286922D01*
X0337532Y0287062D01*
X0337550Y0287202D01*
X0337571Y0287341D01*
X0337597Y0287480D01*
X0337626Y0287618D01*
X0337660Y0287754D01*
X0337697Y0287890D01*
X0337738Y0288025D01*
X0337783Y0288159D01*
X0337832Y0288291D01*
X0337884Y0288422D01*
X0337940Y0288551D01*
X0338000Y0288678D01*
X0338063Y0288804D01*
X0338129Y0288928D01*
X0338200Y0289051D01*
X0338273Y0289171D01*
X0338350Y0289289D01*
X0338430Y0289405D01*
X0338514Y0289518D01*
X0338600Y0289629D01*
X0338690Y0289738D01*
X0338783Y0289844D01*
X0338878Y0289947D01*
X0338977Y0290048D01*
X0339078Y0290146D01*
X0339182Y0290241D01*
X0339289Y0290333D01*
X0339398Y0290422D01*
X0339510Y0290507D01*
X0339624Y0290590D01*
X0339740Y0290670D01*
X0339859Y0290746D01*
X0339980Y0290818D01*
X0340102Y0290888D01*
X0340227Y0290953D01*
X0340353Y0291016D01*
X0340481Y0291074D01*
X0340611Y0291129D01*
X0340742Y0291181D01*
X0340875Y0291228D01*
X0341009Y0291272D01*
X0341144Y0291313D01*
X0341280Y0291349D01*
X0341417Y0291381D01*
X0341555Y0291410D01*
X0341693Y0291435D01*
X0341833Y0291455D01*
X0341973Y0291472D01*
X0342113Y0291485D01*
X0342254Y0291494D01*
X0342394Y0291499D01*
X0342535Y0291500D01*
X0342676Y0291497D01*
X0342817Y0291490D01*
X0342957Y0291479D01*
X0343097Y0291464D01*
X0343237Y0291445D01*
X0343376Y0291423D01*
X0343514Y0291396D01*
X0343652Y0291366D01*
X0343788Y0291331D01*
X0343924Y0291293D01*
X0344058Y0291251D01*
X0344192Y0291205D01*
X0344324Y0291156D01*
X0344454Y0291102D01*
X0344583Y0291045D01*
X0344710Y0290985D01*
X0344836Y0290921D01*
X0344959Y0290853D01*
X0345081Y0290782D01*
X0345201Y0290708D01*
X0345318Y0290630D01*
X0345433Y0290549D01*
X0345546Y0290465D01*
X0345657Y0290378D01*
X0345765Y0290287D01*
X0345870Y0290194D01*
X0345973Y0290097D01*
X0346073Y0289998D01*
X0346170Y0289896D01*
X0346264Y0289791D01*
X0346355Y0289684D01*
X0346443Y0289574D01*
X0346528Y0289462D01*
X0346610Y0289347D01*
X0346689Y0289230D01*
X0346764Y0289111D01*
X0346836Y0288990D01*
X0346904Y0288867D01*
X0346969Y0288742D01*
X0347031Y0288615D01*
X0347088Y0288486D01*
X0347143Y0288356D01*
X0347193Y0288225D01*
X0347240Y0288092D01*
X0347283Y0287958D01*
X0347322Y0287822D01*
X0347357Y0287686D01*
X0347389Y0287549D01*
X0347416Y0287411D01*
X0347440Y0287272D01*
X0347460Y0287132D01*
X0347476Y0286992D01*
X0347488Y0286852D01*
X0347496Y0286711D01*
X0347500Y0286570D01*
X0347500Y0286430D01*
X0347496Y0286289D01*
X0347488Y0286148D01*
X0347476Y0286008D01*
X0347460Y0285868D01*
X0347440Y0285728D01*
X0347416Y0285589D01*
X0347389Y0285451D01*
X0347357Y0285314D01*
X0347322Y0285178D01*
X0347283Y0285042D01*
X0347240Y0284908D01*
X0347193Y0284775D01*
X0347143Y0284644D01*
X0347088Y0284514D01*
X0347031Y0284385D01*
X0346969Y0284258D01*
X0346904Y0284133D01*
X0346836Y0284010D01*
X0346764Y0283889D01*
X0346689Y0283770D01*
X0346610Y0283653D01*
X0346528Y0283538D01*
X0346443Y0283426D01*
X0346355Y0283316D01*
X0346264Y0283209D01*
X0346170Y0283104D01*
X0346073Y0283002D01*
X0345973Y0282903D01*
X0345870Y0282806D01*
X0345765Y0282713D01*
X0345657Y0282622D01*
X0345546Y0282535D01*
X0345433Y0282451D01*
X0345318Y0282370D01*
X0345201Y0282292D01*
X0345081Y0282218D01*
X0344959Y0282147D01*
X0344836Y0282079D01*
X0344710Y0282015D01*
X0344583Y0281955D01*
X0344454Y0281898D01*
X0344324Y0281844D01*
X0344192Y0281795D01*
X0344058Y0281749D01*
X0343924Y0281707D01*
X0343788Y0281669D01*
X0343652Y0281634D01*
X0343514Y0281604D01*
X0343376Y0281577D01*
X0343237Y0281555D01*
X0343097Y0281536D01*
X0342957Y0281521D01*
X0342817Y0281510D01*
X0342676Y0281503D01*
X0342535Y0281500D01*
X0342394Y0281501D01*
X0342254Y0281506D01*
X0342113Y0281515D01*
X0341973Y0281528D01*
X0341833Y0281545D01*
X0341693Y0281565D01*
X0341555Y0281590D01*
X0341417Y0281619D01*
X0341280Y0281651D01*
X0341144Y0281687D01*
X0341009Y0281728D01*
X0340875Y0281772D01*
X0340742Y0281819D01*
X0340611Y0281871D01*
X0340481Y0281926D01*
X0340353Y0281984D01*
X0340227Y0282047D01*
X0340102Y0282112D01*
X0339980Y0282182D01*
X0339859Y0282254D01*
X0339740Y0282330D01*
X0339624Y0282410D01*
X0339510Y0282493D01*
X0339398Y0282578D01*
X0339289Y0282667D01*
X0339182Y0282759D01*
X0339078Y0282854D01*
X0338977Y0282952D01*
X0338878Y0283053D01*
X0338783Y0283156D01*
X0338690Y0283262D01*
X0338600Y0283371D01*
X0338514Y0283482D01*
X0338430Y0283595D01*
X0338350Y0283711D01*
X0338273Y0283829D01*
X0338200Y0283949D01*
X0338129Y0284072D01*
X0338063Y0284196D01*
X0338000Y0284322D01*
X0337940Y0284449D01*
X0337884Y0284578D01*
X0337832Y0284709D01*
X0337783Y0284841D01*
X0337738Y0284975D01*
X0337697Y0285110D01*
X0337660Y0285246D01*
X0337626Y0285382D01*
X0337597Y0285520D01*
X0337571Y0285659D01*
X0337550Y0285798D01*
X0337532Y0285938D01*
X0337518Y0286078D01*
X0337508Y0286218D01*
X0337502Y0286359D01*
X0337500Y0286500D01*
X0326000Y0344500D02*
X0321000Y0344500D01*
X0318500Y0347000D01*
X0316000Y0344500D01*
X0311000Y0344500D01*
X0308500Y0347000D01*
X0308500Y0352000D01*
X0311000Y0354500D01*
X0316000Y0354500D01*
X0318500Y0352000D01*
X0321000Y0354500D01*
X0326000Y0354500D01*
X0328500Y0352000D01*
X0328500Y0347000D01*
X0326000Y0344500D01*
X0425941Y0329043D02*
X0425941Y0323531D01*
X0431059Y0323531D01*
X0431059Y0329043D01*
X0431059Y0323531D02*
X0431059Y0321957D01*
X0425941Y0321957D02*
X0425941Y0323531D01*
X0444957Y0327941D02*
X0446531Y0327941D01*
X0446531Y0333059D01*
X0452043Y0333059D01*
X0452043Y0336941D02*
X0446531Y0336941D01*
X0446531Y0342059D01*
X0452043Y0342059D01*
X0454000Y0344500D02*
X0449000Y0344500D01*
X0446500Y0347000D01*
X0444000Y0344500D01*
X0439000Y0344500D01*
X0436500Y0347000D01*
X0436500Y0352000D01*
X0439000Y0354500D01*
X0444000Y0354500D01*
X0446500Y0352000D01*
X0449000Y0354500D01*
X0454000Y0354500D01*
X0456500Y0352000D01*
X0456500Y0347000D01*
X0454000Y0344500D01*
X0446531Y0342059D02*
X0444957Y0342059D01*
X0444957Y0336941D02*
X0446531Y0336941D01*
X0446531Y0333059D02*
X0444957Y0333059D01*
X0446531Y0327941D02*
X0452043Y0327941D01*
X0454000Y0325500D02*
X0449000Y0325500D01*
X0446500Y0323000D01*
X0446500Y0318000D01*
X0449000Y0315500D01*
X0446500Y0313000D01*
X0446500Y0308000D01*
X0449000Y0305500D01*
X0446500Y0303000D01*
X0446500Y0298000D01*
X0449000Y0295500D01*
X0446500Y0293000D01*
X0446500Y0288000D01*
X0449000Y0285500D01*
X0446500Y0283000D01*
X0446500Y0278000D01*
X0449000Y0275500D01*
X0446500Y0273000D01*
X0446500Y0268000D01*
X0449000Y0265500D01*
X0446500Y0263000D01*
X0446500Y0258000D01*
X0449000Y0255500D01*
X0446500Y0253000D01*
X0446500Y0248000D01*
X0449000Y0245500D01*
X0446500Y0243000D01*
X0446500Y0238000D01*
X0449000Y0235500D01*
X0454000Y0235500D01*
X0456500Y0238000D01*
X0456500Y0243000D01*
X0454000Y0245500D01*
X0456500Y0248000D01*
X0456500Y0253000D01*
X0454000Y0255500D01*
X0456500Y0258000D01*
X0456500Y0263000D01*
X0454000Y0265500D01*
X0456500Y0268000D01*
X0456500Y0273000D01*
X0454000Y0275500D01*
X0456500Y0278000D01*
X0456500Y0283000D01*
X0454000Y0285500D01*
X0456500Y0288000D01*
X0456500Y0293000D01*
X0454000Y0295500D01*
X0456500Y0298000D01*
X0456500Y0303000D01*
X0454000Y0305500D01*
X0456500Y0308000D01*
X0456500Y0313000D01*
X0454000Y0315500D01*
X0456500Y0318000D01*
X0456500Y0323000D01*
X0454000Y0325500D01*
X0429862Y0235799D02*
X0425138Y0235799D01*
X0417657Y0230681D02*
X0417657Y0228319D01*
X0425138Y0223201D02*
X0429862Y0223201D01*
X0437343Y0228319D02*
X0437343Y0230681D01*
X0439000Y0216500D02*
X0436500Y0214000D01*
X0436500Y0209000D01*
X0439000Y0206500D01*
X0444000Y0206500D01*
X0446500Y0209000D01*
X0449000Y0206500D01*
X0454000Y0206500D01*
X0456500Y0209000D01*
X0456500Y0214000D01*
X0454000Y0216500D01*
X0449000Y0216500D01*
X0446500Y0214000D01*
X0444000Y0216500D01*
X0439000Y0216500D01*
X0399343Y0228319D02*
X0399343Y0230681D01*
X0391862Y0235799D02*
X0387138Y0235799D01*
X0379657Y0230681D02*
X0379657Y0228319D01*
X0387138Y0223201D02*
X0391862Y0223201D01*
D12*
X0394311Y0335689D02*
X0398248Y0335689D01*
X0398220Y0335760D02*
X0398220Y0339626D01*
X0398248Y0339626D01*
X0398248Y0351437D02*
X0398248Y0355374D01*
X0366752Y0355374D02*
X0366752Y0351437D01*
X0366752Y0339626D02*
X0366752Y0335689D01*
X0370689Y0335689D01*
D13*
X0345500Y0257500D03*
D14*
X0398500Y0308500D03*
X0408500Y0308500D03*
X0418500Y0308500D03*
X0389500Y0323500D03*
X0380500Y0323500D03*
D15*
X0357700Y0313800D02*
X0357700Y0312300D01*
X0356200Y0312300D01*
X0354400Y0314100D02*
X0355900Y0315600D01*
X0330800Y0312300D02*
X0329300Y0312300D01*
X0329300Y0313800D01*
X0329300Y0339200D02*
X0329300Y0340700D01*
X0330800Y0340700D01*
X0356200Y0340700D02*
X0357700Y0340700D01*
X0357700Y0339200D01*
X0387400Y0286600D02*
X0387400Y0283100D01*
X0388700Y0282800D02*
X0391200Y0285300D01*
X0390900Y0286600D02*
X0387400Y0286600D01*
X0424100Y0286600D02*
X0427600Y0286600D01*
X0427600Y0283100D01*
X0427600Y0249900D02*
X0427600Y0246400D01*
X0424100Y0246400D01*
X0390900Y0246400D02*
X0387400Y0246400D01*
X0387400Y0249900D01*
M02*
