G75*
%MOIN*%
%OFA0B0*%
%FSLAX25Y25*%
%IPPOS*%
%LPD*%
%AMOC8*
5,1,8,0,0,1.08239X$1,22.5*
%
%ADD10C,0.00000*%
%ADD11R,0.01800X0.01800*%
%ADD12R,0.03268X0.02480*%
%ADD13R,0.02480X0.03268*%
%ADD14R,0.02756X0.03543*%
%ADD15R,0.01575X0.05709*%
%ADD16R,0.07087X0.05906*%
%ADD17R,0.09843X0.05906*%
%ADD18C,0.07400*%
%ADD19R,0.04331X0.03937*%
%ADD20R,0.03937X0.04331*%
%ADD21R,0.03000X0.06000*%
%ADD22R,0.05800X0.01100*%
%ADD23R,0.01100X0.05800*%
%ADD24R,0.07480X0.04331*%
%ADD25R,0.07400X0.07400*%
%ADD26C,0.01000*%
%ADD27C,0.03600*%
D10*
X0307500Y0205500D02*
X0307500Y0355500D01*
X0457500Y0355500D01*
X0457500Y0205500D01*
X0307500Y0205500D01*
X0373347Y0338839D02*
X0373349Y0338920D01*
X0373355Y0339002D01*
X0373365Y0339083D01*
X0373379Y0339163D01*
X0373396Y0339242D01*
X0373418Y0339321D01*
X0373443Y0339398D01*
X0373472Y0339475D01*
X0373505Y0339549D01*
X0373542Y0339622D01*
X0373581Y0339693D01*
X0373625Y0339762D01*
X0373671Y0339829D01*
X0373721Y0339893D01*
X0373774Y0339955D01*
X0373830Y0340015D01*
X0373888Y0340071D01*
X0373950Y0340125D01*
X0374014Y0340176D01*
X0374080Y0340223D01*
X0374148Y0340267D01*
X0374219Y0340308D01*
X0374291Y0340345D01*
X0374366Y0340379D01*
X0374441Y0340409D01*
X0374519Y0340435D01*
X0374597Y0340458D01*
X0374676Y0340476D01*
X0374756Y0340491D01*
X0374837Y0340502D01*
X0374918Y0340509D01*
X0375000Y0340512D01*
X0375081Y0340511D01*
X0375162Y0340506D01*
X0375243Y0340497D01*
X0375324Y0340484D01*
X0375404Y0340467D01*
X0375482Y0340447D01*
X0375560Y0340422D01*
X0375637Y0340394D01*
X0375712Y0340362D01*
X0375785Y0340327D01*
X0375856Y0340288D01*
X0375926Y0340245D01*
X0375993Y0340200D01*
X0376059Y0340151D01*
X0376121Y0340099D01*
X0376181Y0340043D01*
X0376238Y0339985D01*
X0376293Y0339925D01*
X0376344Y0339861D01*
X0376392Y0339796D01*
X0376437Y0339728D01*
X0376479Y0339658D01*
X0376517Y0339586D01*
X0376552Y0339512D01*
X0376583Y0339437D01*
X0376610Y0339360D01*
X0376633Y0339282D01*
X0376653Y0339203D01*
X0376669Y0339123D01*
X0376681Y0339042D01*
X0376689Y0338961D01*
X0376693Y0338880D01*
X0376693Y0338798D01*
X0376689Y0338717D01*
X0376681Y0338636D01*
X0376669Y0338555D01*
X0376653Y0338475D01*
X0376633Y0338396D01*
X0376610Y0338318D01*
X0376583Y0338241D01*
X0376552Y0338166D01*
X0376517Y0338092D01*
X0376479Y0338020D01*
X0376437Y0337950D01*
X0376392Y0337882D01*
X0376344Y0337817D01*
X0376293Y0337753D01*
X0376238Y0337693D01*
X0376181Y0337635D01*
X0376121Y0337579D01*
X0376059Y0337527D01*
X0375993Y0337478D01*
X0375926Y0337433D01*
X0375857Y0337390D01*
X0375785Y0337351D01*
X0375712Y0337316D01*
X0375637Y0337284D01*
X0375560Y0337256D01*
X0375482Y0337231D01*
X0375404Y0337211D01*
X0375324Y0337194D01*
X0375243Y0337181D01*
X0375162Y0337172D01*
X0375081Y0337167D01*
X0375000Y0337166D01*
X0374918Y0337169D01*
X0374837Y0337176D01*
X0374756Y0337187D01*
X0374676Y0337202D01*
X0374597Y0337220D01*
X0374519Y0337243D01*
X0374441Y0337269D01*
X0374366Y0337299D01*
X0374291Y0337333D01*
X0374219Y0337370D01*
X0374148Y0337411D01*
X0374080Y0337455D01*
X0374014Y0337502D01*
X0373950Y0337553D01*
X0373888Y0337607D01*
X0373830Y0337663D01*
X0373774Y0337723D01*
X0373721Y0337785D01*
X0373671Y0337849D01*
X0373625Y0337916D01*
X0373581Y0337985D01*
X0373542Y0338056D01*
X0373505Y0338129D01*
X0373472Y0338203D01*
X0373443Y0338280D01*
X0373418Y0338357D01*
X0373396Y0338436D01*
X0373379Y0338515D01*
X0373365Y0338595D01*
X0373355Y0338676D01*
X0373349Y0338758D01*
X0373347Y0338839D01*
X0388307Y0338839D02*
X0388309Y0338920D01*
X0388315Y0339002D01*
X0388325Y0339083D01*
X0388339Y0339163D01*
X0388356Y0339242D01*
X0388378Y0339321D01*
X0388403Y0339398D01*
X0388432Y0339475D01*
X0388465Y0339549D01*
X0388502Y0339622D01*
X0388541Y0339693D01*
X0388585Y0339762D01*
X0388631Y0339829D01*
X0388681Y0339893D01*
X0388734Y0339955D01*
X0388790Y0340015D01*
X0388848Y0340071D01*
X0388910Y0340125D01*
X0388974Y0340176D01*
X0389040Y0340223D01*
X0389108Y0340267D01*
X0389179Y0340308D01*
X0389251Y0340345D01*
X0389326Y0340379D01*
X0389401Y0340409D01*
X0389479Y0340435D01*
X0389557Y0340458D01*
X0389636Y0340476D01*
X0389716Y0340491D01*
X0389797Y0340502D01*
X0389878Y0340509D01*
X0389960Y0340512D01*
X0390041Y0340511D01*
X0390122Y0340506D01*
X0390203Y0340497D01*
X0390284Y0340484D01*
X0390364Y0340467D01*
X0390442Y0340447D01*
X0390520Y0340422D01*
X0390597Y0340394D01*
X0390672Y0340362D01*
X0390745Y0340327D01*
X0390816Y0340288D01*
X0390886Y0340245D01*
X0390953Y0340200D01*
X0391019Y0340151D01*
X0391081Y0340099D01*
X0391141Y0340043D01*
X0391198Y0339985D01*
X0391253Y0339925D01*
X0391304Y0339861D01*
X0391352Y0339796D01*
X0391397Y0339728D01*
X0391439Y0339658D01*
X0391477Y0339586D01*
X0391512Y0339512D01*
X0391543Y0339437D01*
X0391570Y0339360D01*
X0391593Y0339282D01*
X0391613Y0339203D01*
X0391629Y0339123D01*
X0391641Y0339042D01*
X0391649Y0338961D01*
X0391653Y0338880D01*
X0391653Y0338798D01*
X0391649Y0338717D01*
X0391641Y0338636D01*
X0391629Y0338555D01*
X0391613Y0338475D01*
X0391593Y0338396D01*
X0391570Y0338318D01*
X0391543Y0338241D01*
X0391512Y0338166D01*
X0391477Y0338092D01*
X0391439Y0338020D01*
X0391397Y0337950D01*
X0391352Y0337882D01*
X0391304Y0337817D01*
X0391253Y0337753D01*
X0391198Y0337693D01*
X0391141Y0337635D01*
X0391081Y0337579D01*
X0391019Y0337527D01*
X0390953Y0337478D01*
X0390886Y0337433D01*
X0390817Y0337390D01*
X0390745Y0337351D01*
X0390672Y0337316D01*
X0390597Y0337284D01*
X0390520Y0337256D01*
X0390442Y0337231D01*
X0390364Y0337211D01*
X0390284Y0337194D01*
X0390203Y0337181D01*
X0390122Y0337172D01*
X0390041Y0337167D01*
X0389960Y0337166D01*
X0389878Y0337169D01*
X0389797Y0337176D01*
X0389716Y0337187D01*
X0389636Y0337202D01*
X0389557Y0337220D01*
X0389479Y0337243D01*
X0389401Y0337269D01*
X0389326Y0337299D01*
X0389251Y0337333D01*
X0389179Y0337370D01*
X0389108Y0337411D01*
X0389040Y0337455D01*
X0388974Y0337502D01*
X0388910Y0337553D01*
X0388848Y0337607D01*
X0388790Y0337663D01*
X0388734Y0337723D01*
X0388681Y0337785D01*
X0388631Y0337849D01*
X0388585Y0337916D01*
X0388541Y0337985D01*
X0388502Y0338056D01*
X0388465Y0338129D01*
X0388432Y0338203D01*
X0388403Y0338280D01*
X0388378Y0338357D01*
X0388356Y0338436D01*
X0388339Y0338515D01*
X0388325Y0338595D01*
X0388315Y0338676D01*
X0388309Y0338758D01*
X0388307Y0338839D01*
D11*
X0406800Y0325200D03*
X0410200Y0325200D03*
X0410200Y0321800D03*
X0406800Y0321800D03*
D12*
X0428500Y0320972D03*
X0428500Y0330028D03*
D13*
X0443972Y0330500D03*
X0453028Y0330500D03*
X0453028Y0339500D03*
X0443972Y0339500D03*
D14*
X0413059Y0347500D03*
X0407941Y0347500D03*
X0365059Y0257500D03*
X0359941Y0257500D03*
D15*
X0377382Y0336772D03*
X0379941Y0336772D03*
X0382500Y0336772D03*
X0385059Y0336772D03*
X0387618Y0336772D03*
D16*
X0397008Y0347500D03*
X0367992Y0347500D03*
D17*
X0382500Y0347500D03*
D18*
X0324200Y0349500D03*
X0312800Y0349500D03*
X0313500Y0315500D03*
X0313500Y0305500D03*
X0313500Y0295500D03*
X0313500Y0285500D03*
X0313500Y0275500D03*
X0313500Y0265500D03*
X0313500Y0255500D03*
X0312800Y0211500D03*
X0324200Y0211500D03*
X0440800Y0211500D03*
X0452200Y0211500D03*
X0451500Y0240500D03*
X0451500Y0250500D03*
X0451500Y0260500D03*
X0451500Y0270500D03*
X0451500Y0280500D03*
X0451500Y0290500D03*
X0451500Y0300500D03*
X0451500Y0310500D03*
X0451500Y0320500D03*
X0452200Y0349500D03*
X0440800Y0349500D03*
D19*
X0428846Y0347500D03*
X0422154Y0347500D03*
X0348846Y0257500D03*
X0342154Y0257500D03*
D20*
X0398500Y0305154D03*
X0398500Y0311846D03*
X0408500Y0311846D03*
X0408500Y0305154D03*
X0418500Y0305154D03*
X0418500Y0311846D03*
X0389500Y0320154D03*
X0389500Y0326846D03*
X0380500Y0326846D03*
X0380500Y0320154D03*
D21*
X0350000Y0297500D03*
X0335000Y0297500D03*
X0335000Y0275500D03*
X0350000Y0275500D03*
D22*
X0385000Y0275400D03*
X0385000Y0277300D03*
X0385000Y0279300D03*
X0385000Y0281300D03*
X0385000Y0273400D03*
X0385000Y0271400D03*
X0385000Y0269500D03*
X0385000Y0267500D03*
X0385000Y0265500D03*
X0385000Y0263500D03*
X0385000Y0261600D03*
X0385000Y0259600D03*
X0385000Y0257600D03*
X0385000Y0255700D03*
X0385000Y0253700D03*
X0385000Y0251700D03*
X0430000Y0251700D03*
X0430000Y0253700D03*
X0430000Y0255700D03*
X0430000Y0257600D03*
X0430000Y0259600D03*
X0430000Y0261600D03*
X0430000Y0263500D03*
X0430000Y0265500D03*
X0430000Y0267500D03*
X0430000Y0269500D03*
X0430000Y0271400D03*
X0430000Y0273400D03*
X0430000Y0275400D03*
X0430000Y0277300D03*
X0430000Y0279300D03*
X0430000Y0281300D03*
X0360100Y0315700D03*
X0360100Y0317600D03*
X0360100Y0319600D03*
X0360100Y0321600D03*
X0360100Y0323500D03*
X0360100Y0325500D03*
X0360100Y0327500D03*
X0360100Y0329500D03*
X0360100Y0331400D03*
X0360100Y0333400D03*
X0360100Y0335400D03*
X0360100Y0337300D03*
X0326900Y0337300D03*
X0326900Y0335400D03*
X0326900Y0333400D03*
X0326900Y0331400D03*
X0326900Y0329500D03*
X0326900Y0327500D03*
X0326900Y0325500D03*
X0326900Y0323500D03*
X0326900Y0321600D03*
X0326900Y0319600D03*
X0326900Y0317600D03*
X0326900Y0315700D03*
D23*
X0332700Y0309900D03*
X0334600Y0309900D03*
X0336600Y0309900D03*
X0338600Y0309900D03*
X0340500Y0309900D03*
X0342500Y0309900D03*
X0344500Y0309900D03*
X0346500Y0309900D03*
X0348400Y0309900D03*
X0350400Y0309900D03*
X0352400Y0309900D03*
X0354300Y0309900D03*
X0392700Y0289000D03*
X0394700Y0289000D03*
X0396700Y0289000D03*
X0398600Y0289000D03*
X0400600Y0289000D03*
X0402600Y0289000D03*
X0404500Y0289000D03*
X0406500Y0289000D03*
X0408500Y0289000D03*
X0410500Y0289000D03*
X0412400Y0289000D03*
X0414400Y0289000D03*
X0416400Y0289000D03*
X0418300Y0289000D03*
X0420300Y0289000D03*
X0422300Y0289000D03*
X0422300Y0244000D03*
X0420300Y0244000D03*
X0418300Y0244000D03*
X0416400Y0244000D03*
X0414400Y0244000D03*
X0412400Y0244000D03*
X0410500Y0244000D03*
X0408500Y0244000D03*
X0406500Y0244000D03*
X0404500Y0244000D03*
X0402600Y0244000D03*
X0400600Y0244000D03*
X0398600Y0244000D03*
X0396700Y0244000D03*
X0394700Y0244000D03*
X0392700Y0244000D03*
X0354300Y0343100D03*
X0352400Y0343100D03*
X0350400Y0343100D03*
X0348400Y0343100D03*
X0346500Y0343100D03*
X0344500Y0343100D03*
X0342500Y0343100D03*
X0340500Y0343100D03*
X0338600Y0343100D03*
X0336600Y0343100D03*
X0334600Y0343100D03*
X0332700Y0343100D03*
D24*
X0382217Y0234028D03*
X0382217Y0224972D03*
X0396783Y0224972D03*
X0396783Y0234028D03*
X0420217Y0234028D03*
X0434783Y0234028D03*
X0434783Y0224972D03*
X0420217Y0224972D03*
D25*
X0313500Y0245500D03*
D26*
X0320500Y0241500D02*
X0317500Y0238500D01*
X0310500Y0238500D01*
X0309500Y0237500D01*
X0309500Y0221500D01*
X0312500Y0218500D01*
X0324500Y0218500D01*
X0335500Y0207500D01*
X0433500Y0207500D01*
X0434500Y0208500D01*
X0434500Y0215500D01*
X0438500Y0219500D01*
X0441500Y0219500D01*
X0442500Y0220500D01*
X0442500Y0237500D01*
X0439500Y0240500D01*
X0439500Y0251500D01*
X0435300Y0255700D01*
X0430000Y0255700D01*
X0430000Y0257600D02*
X0438400Y0257600D01*
X0438500Y0257500D01*
X0441600Y0257423D02*
X0442173Y0257423D01*
X0441600Y0256883D02*
X0441600Y0257996D01*
X0447046Y0252550D01*
X0446600Y0251475D01*
X0446600Y0249525D01*
X0447346Y0247724D01*
X0448724Y0246346D01*
X0450525Y0245600D01*
X0452475Y0245600D01*
X0454276Y0246346D01*
X0455654Y0247724D01*
X0456400Y0249525D01*
X0456400Y0251475D01*
X0455654Y0253276D01*
X0454276Y0254654D01*
X0452475Y0255400D01*
X0450525Y0255400D01*
X0449450Y0254954D01*
X0441394Y0263010D01*
X0442128Y0263744D01*
X0442600Y0264883D01*
X0442600Y0266117D01*
X0442128Y0267256D01*
X0441256Y0268128D01*
X0440117Y0268600D01*
X0438883Y0268600D01*
X0437744Y0268128D01*
X0436872Y0267256D01*
X0436849Y0267200D01*
X0434100Y0267200D01*
X0434100Y0275496D01*
X0447046Y0262550D01*
X0446600Y0261475D01*
X0446600Y0259525D01*
X0447346Y0257724D01*
X0448724Y0256346D01*
X0450525Y0255600D01*
X0452475Y0255600D01*
X0454276Y0256346D01*
X0455654Y0257724D01*
X0456400Y0259525D01*
X0456400Y0261475D01*
X0455654Y0263276D01*
X0454276Y0264654D01*
X0452475Y0265400D01*
X0450525Y0265400D01*
X0449450Y0264954D01*
X0435404Y0279000D01*
X0434400Y0279000D01*
X0434400Y0279300D01*
X0434400Y0280047D01*
X0434298Y0280429D01*
X0434100Y0280771D01*
X0434100Y0280771D01*
X0434100Y0282347D01*
X0433397Y0283050D01*
X0428354Y0283050D01*
X0427200Y0284204D01*
X0426204Y0285200D01*
X0425151Y0285200D01*
X0425128Y0285256D01*
X0424256Y0286128D01*
X0424050Y0286213D01*
X0424050Y0291646D01*
X0424204Y0291800D01*
X0424796Y0291800D01*
X0446600Y0269996D01*
X0446600Y0269525D01*
X0447346Y0267724D01*
X0448724Y0266346D01*
X0450525Y0265600D01*
X0452475Y0265600D01*
X0454276Y0266346D01*
X0455654Y0267724D01*
X0456400Y0269525D01*
X0456400Y0271475D01*
X0455654Y0273276D01*
X0454276Y0274654D01*
X0452475Y0275400D01*
X0450525Y0275400D01*
X0448724Y0274654D01*
X0447737Y0273667D01*
X0435004Y0286400D01*
X0436117Y0286400D01*
X0437256Y0286872D01*
X0438128Y0287744D01*
X0438600Y0288883D01*
X0438600Y0289996D01*
X0439800Y0288796D01*
X0439800Y0283796D01*
X0443800Y0279796D01*
X0444796Y0278800D01*
X0446900Y0278800D01*
X0447346Y0277724D01*
X0448724Y0276346D01*
X0450525Y0275600D01*
X0452475Y0275600D01*
X0454276Y0276346D01*
X0455654Y0277724D01*
X0456400Y0279525D01*
X0456400Y0281475D01*
X0455654Y0283276D01*
X0454276Y0284654D01*
X0452475Y0285400D01*
X0450525Y0285400D01*
X0448724Y0284654D01*
X0447346Y0283276D01*
X0446900Y0282200D01*
X0446204Y0282200D01*
X0443200Y0285204D01*
X0443200Y0288800D01*
X0446900Y0288800D01*
X0447346Y0287724D01*
X0448724Y0286346D01*
X0450525Y0285600D01*
X0452475Y0285600D01*
X0454276Y0286346D01*
X0455654Y0287724D01*
X0456400Y0289525D01*
X0456400Y0291475D01*
X0455654Y0293276D01*
X0454276Y0294654D01*
X0452475Y0295400D01*
X0450525Y0295400D01*
X0448724Y0294654D01*
X0447346Y0293276D01*
X0446900Y0292200D01*
X0444204Y0292200D01*
X0435204Y0301200D01*
X0434584Y0301200D01*
X0435128Y0301744D01*
X0435151Y0301800D01*
X0445204Y0301800D01*
X0449450Y0306046D01*
X0450525Y0305600D01*
X0452475Y0305600D01*
X0454276Y0306346D01*
X0455654Y0307724D01*
X0456400Y0309525D01*
X0456400Y0311475D01*
X0455654Y0313276D01*
X0454276Y0314654D01*
X0452475Y0315400D01*
X0450525Y0315400D01*
X0448724Y0314654D01*
X0447346Y0313276D01*
X0446600Y0311475D01*
X0446600Y0309525D01*
X0447046Y0308450D01*
X0443796Y0305200D01*
X0435151Y0305200D01*
X0435128Y0305256D01*
X0434256Y0306128D01*
X0433117Y0306600D01*
X0431883Y0306600D01*
X0430744Y0306128D01*
X0429872Y0305256D01*
X0429400Y0304117D01*
X0429400Y0302883D01*
X0429872Y0301744D01*
X0430416Y0301200D01*
X0427584Y0301200D01*
X0428128Y0301744D01*
X0428600Y0302883D01*
X0428600Y0304117D01*
X0428128Y0305256D01*
X0427256Y0306128D01*
X0426200Y0306565D01*
X0426200Y0315204D01*
X0425204Y0316200D01*
X0423204Y0318200D01*
X0420204Y0318200D01*
X0415754Y0322650D01*
X0421432Y0328328D01*
X0425666Y0328328D01*
X0425666Y0328290D01*
X0426369Y0327587D01*
X0430631Y0327587D01*
X0430800Y0327757D01*
X0430800Y0323243D01*
X0430631Y0323413D01*
X0426369Y0323413D01*
X0425666Y0322710D01*
X0425666Y0319235D01*
X0426369Y0318532D01*
X0430631Y0318532D01*
X0431334Y0319235D01*
X0431334Y0319272D01*
X0431677Y0319272D01*
X0433204Y0320800D01*
X0434200Y0321796D01*
X0434200Y0339918D01*
X0434600Y0340883D01*
X0434600Y0340996D01*
X0434796Y0340800D01*
X0441532Y0340800D01*
X0441532Y0337369D01*
X0442235Y0336666D01*
X0442272Y0336666D01*
X0442272Y0336584D01*
X0442217Y0336640D01*
X0441077Y0337112D01*
X0439844Y0337112D01*
X0438705Y0336640D01*
X0437833Y0335768D01*
X0437361Y0334628D01*
X0437361Y0333395D01*
X0437833Y0332256D01*
X0438705Y0331384D01*
X0439844Y0330912D01*
X0441077Y0330912D01*
X0441133Y0330935D01*
X0441532Y0330536D01*
X0441532Y0328369D01*
X0442235Y0327666D01*
X0445710Y0327666D01*
X0446413Y0328369D01*
X0446413Y0332631D01*
X0445710Y0333334D01*
X0445672Y0333334D01*
X0445672Y0336666D01*
X0445710Y0336666D01*
X0446413Y0337369D01*
X0446413Y0340800D01*
X0450587Y0340800D01*
X0450587Y0337369D01*
X0451290Y0336666D01*
X0451328Y0336666D01*
X0451328Y0333334D01*
X0451290Y0333334D01*
X0450587Y0332631D01*
X0450587Y0328369D01*
X0451290Y0327666D01*
X0454765Y0327666D01*
X0455468Y0328369D01*
X0455468Y0332631D01*
X0454765Y0333334D01*
X0454728Y0333334D01*
X0454728Y0336666D01*
X0454765Y0336666D01*
X0455468Y0337369D01*
X0455468Y0341631D01*
X0454765Y0342334D01*
X0454070Y0342334D01*
X0453204Y0343200D01*
X0452204Y0344200D01*
X0436204Y0344200D01*
X0433200Y0347204D01*
X0432212Y0348192D01*
X0432212Y0349966D01*
X0431509Y0350668D01*
X0426184Y0350668D01*
X0425500Y0349984D01*
X0424816Y0350668D01*
X0419491Y0350668D01*
X0418788Y0349966D01*
X0418788Y0345854D01*
X0418449Y0345854D01*
X0417173Y0344577D01*
X0417117Y0344600D01*
X0415883Y0344600D01*
X0414744Y0344128D01*
X0413872Y0343256D01*
X0413400Y0342117D01*
X0413400Y0340883D01*
X0413423Y0340827D01*
X0405796Y0333200D01*
X0390204Y0333200D01*
X0389605Y0333799D01*
X0389605Y0336165D01*
X0390512Y0336165D01*
X0391495Y0336572D01*
X0392247Y0337324D01*
X0392654Y0338307D01*
X0392654Y0339370D01*
X0392247Y0340353D01*
X0391495Y0341105D01*
X0390512Y0341512D01*
X0389449Y0341512D01*
X0388466Y0341105D01*
X0388187Y0340826D01*
X0379091Y0340826D01*
X0379090Y0340826D01*
X0378748Y0341024D01*
X0378367Y0341126D01*
X0377382Y0341126D01*
X0377382Y0340121D01*
X0377382Y0340121D01*
X0377382Y0341126D01*
X0376483Y0341126D01*
X0375551Y0341512D01*
X0374488Y0341512D01*
X0373505Y0341105D01*
X0372753Y0340353D01*
X0372346Y0339370D01*
X0372346Y0338307D01*
X0372753Y0337324D01*
X0373505Y0336572D01*
X0374488Y0336165D01*
X0375094Y0336165D01*
X0375094Y0333720D01*
X0375197Y0333338D01*
X0375277Y0333200D01*
X0375204Y0333200D01*
X0366204Y0342200D01*
X0356796Y0342200D01*
X0356050Y0341454D01*
X0356050Y0346497D01*
X0355347Y0347200D01*
X0347971Y0347200D01*
X0347629Y0347398D01*
X0347247Y0347500D01*
X0346500Y0347500D01*
X0346500Y0343100D01*
X0346500Y0327500D01*
X0344500Y0325500D01*
X0338500Y0325500D01*
X0336000Y0328000D01*
X0336000Y0333000D01*
X0331500Y0337500D01*
X0327100Y0337500D01*
X0326900Y0337300D01*
X0326700Y0337500D01*
X0324500Y0337500D01*
X0323500Y0338500D01*
X0323500Y0347800D01*
X0324200Y0348500D01*
X0324200Y0349500D01*
X0324700Y0349286D02*
X0363249Y0349286D01*
X0363249Y0350284D02*
X0329341Y0350284D01*
X0329386Y0350000D02*
X0329272Y0350718D01*
X0329019Y0351496D01*
X0328647Y0352225D01*
X0328166Y0352888D01*
X0327588Y0353466D01*
X0326925Y0353947D01*
X0326196Y0354319D01*
X0325639Y0354500D01*
X0456500Y0354500D01*
X0456500Y0351923D01*
X0456354Y0352276D01*
X0454976Y0353654D01*
X0453175Y0354400D01*
X0451225Y0354400D01*
X0449424Y0353654D01*
X0448046Y0352276D01*
X0447300Y0350475D01*
X0447300Y0348525D01*
X0448046Y0346724D01*
X0449424Y0345346D01*
X0451225Y0344600D01*
X0453175Y0344600D01*
X0454976Y0345346D01*
X0456354Y0346724D01*
X0456500Y0347077D01*
X0456500Y0213923D01*
X0456354Y0214276D01*
X0454976Y0215654D01*
X0453175Y0216400D01*
X0451225Y0216400D01*
X0449424Y0215654D01*
X0448046Y0214276D01*
X0447300Y0212475D01*
X0447300Y0210525D01*
X0448046Y0208724D01*
X0449424Y0207346D01*
X0451225Y0206600D01*
X0453175Y0206600D01*
X0454976Y0207346D01*
X0456354Y0208724D01*
X0456500Y0209077D01*
X0456500Y0206500D01*
X0434904Y0206500D01*
X0435204Y0206800D01*
X0436200Y0207796D01*
X0436200Y0209801D01*
X0436646Y0208724D01*
X0438024Y0207346D01*
X0439825Y0206600D01*
X0441775Y0206600D01*
X0443576Y0207346D01*
X0444954Y0208724D01*
X0445700Y0210525D01*
X0445700Y0212475D01*
X0444954Y0214276D01*
X0443576Y0215654D01*
X0441775Y0216400D01*
X0439825Y0216400D01*
X0438024Y0215654D01*
X0436646Y0214276D01*
X0436200Y0213199D01*
X0436200Y0214796D01*
X0439204Y0217800D01*
X0442204Y0217800D01*
X0444200Y0219796D01*
X0444200Y0238204D01*
X0443204Y0239200D01*
X0441200Y0241204D01*
X0441200Y0252204D01*
X0439004Y0254400D01*
X0439117Y0254400D01*
X0440256Y0254872D01*
X0441128Y0255744D01*
X0441600Y0256883D01*
X0441410Y0256424D02*
X0443172Y0256424D01*
X0444170Y0255426D02*
X0440810Y0255426D01*
X0439182Y0254427D02*
X0445169Y0254427D01*
X0446167Y0253429D02*
X0439976Y0253429D01*
X0440974Y0252430D02*
X0446996Y0252430D01*
X0446600Y0251432D02*
X0441200Y0251432D01*
X0441200Y0250433D02*
X0446600Y0250433D01*
X0446638Y0249434D02*
X0441200Y0249434D01*
X0441200Y0248436D02*
X0447051Y0248436D01*
X0447633Y0247437D02*
X0441200Y0247437D01*
X0441200Y0246439D02*
X0448631Y0246439D01*
X0448724Y0244654D02*
X0450525Y0245400D01*
X0452475Y0245400D01*
X0454276Y0244654D01*
X0455654Y0243276D01*
X0456400Y0241475D01*
X0456400Y0239525D01*
X0455654Y0237724D01*
X0454276Y0236346D01*
X0452475Y0235600D01*
X0450525Y0235600D01*
X0448724Y0236346D01*
X0447346Y0237724D01*
X0446600Y0239525D01*
X0446600Y0241475D01*
X0447346Y0243276D01*
X0448724Y0244654D01*
X0448512Y0244442D02*
X0441200Y0244442D01*
X0441200Y0245440D02*
X0456500Y0245440D01*
X0456500Y0244442D02*
X0454488Y0244442D01*
X0455486Y0243443D02*
X0456500Y0243443D01*
X0456500Y0242445D02*
X0455998Y0242445D01*
X0456400Y0241446D02*
X0456500Y0241446D01*
X0456500Y0240448D02*
X0456400Y0240448D01*
X0456369Y0239449D02*
X0456500Y0239449D01*
X0456500Y0238451D02*
X0455955Y0238451D01*
X0456500Y0237452D02*
X0455382Y0237452D01*
X0454383Y0236454D02*
X0456500Y0236454D01*
X0456500Y0235455D02*
X0444200Y0235455D01*
X0444200Y0234457D02*
X0456500Y0234457D01*
X0456500Y0233458D02*
X0444200Y0233458D01*
X0444200Y0232460D02*
X0456500Y0232460D01*
X0456500Y0231461D02*
X0444200Y0231461D01*
X0444200Y0230463D02*
X0456500Y0230463D01*
X0456500Y0229464D02*
X0444200Y0229464D01*
X0444200Y0228466D02*
X0456500Y0228466D01*
X0456500Y0227467D02*
X0444200Y0227467D01*
X0444200Y0226469D02*
X0456500Y0226469D01*
X0456500Y0225470D02*
X0444200Y0225470D01*
X0444200Y0224472D02*
X0456500Y0224472D01*
X0456500Y0223473D02*
X0444200Y0223473D01*
X0444200Y0222475D02*
X0456500Y0222475D01*
X0456500Y0221476D02*
X0444200Y0221476D01*
X0444200Y0220478D02*
X0456500Y0220478D01*
X0456500Y0219479D02*
X0443883Y0219479D01*
X0442885Y0218481D02*
X0456500Y0218481D01*
X0456500Y0217482D02*
X0438886Y0217482D01*
X0437888Y0216484D02*
X0456500Y0216484D01*
X0456500Y0215485D02*
X0455145Y0215485D01*
X0456143Y0214487D02*
X0456500Y0214487D01*
X0456500Y0208496D02*
X0456125Y0208496D01*
X0456500Y0207497D02*
X0455127Y0207497D01*
X0449273Y0207497D02*
X0443727Y0207497D01*
X0444725Y0208496D02*
X0448275Y0208496D01*
X0447727Y0209494D02*
X0445273Y0209494D01*
X0445686Y0210493D02*
X0447314Y0210493D01*
X0447300Y0211491D02*
X0445700Y0211491D01*
X0445694Y0212490D02*
X0447306Y0212490D01*
X0447720Y0213488D02*
X0445280Y0213488D01*
X0444743Y0214487D02*
X0448257Y0214487D01*
X0449255Y0215485D02*
X0443745Y0215485D01*
X0437855Y0215485D02*
X0436889Y0215485D01*
X0436857Y0214487D02*
X0436200Y0214487D01*
X0436200Y0213488D02*
X0436320Y0213488D01*
X0432800Y0213584D02*
X0432256Y0214128D01*
X0431117Y0214600D01*
X0429883Y0214600D01*
X0428744Y0214128D01*
X0427872Y0213256D01*
X0427400Y0212117D01*
X0427400Y0211200D01*
X0407604Y0211200D01*
X0413204Y0216800D01*
X0414200Y0217796D01*
X0414200Y0226396D01*
X0415276Y0225319D01*
X0415276Y0222310D01*
X0415979Y0221607D01*
X0424454Y0221607D01*
X0425157Y0222310D01*
X0425157Y0227635D01*
X0424454Y0228338D01*
X0417066Y0228338D01*
X0416200Y0229204D01*
X0416200Y0230662D01*
X0424454Y0230662D01*
X0425157Y0231365D01*
X0425157Y0236690D01*
X0424454Y0237393D01*
X0423797Y0237393D01*
X0424000Y0237596D01*
X0424000Y0240553D01*
X0424050Y0240603D01*
X0424050Y0247397D01*
X0423347Y0248100D01*
X0421771Y0248100D01*
X0421429Y0248298D01*
X0421047Y0248400D01*
X0420300Y0248400D01*
X0420300Y0244000D01*
X0420300Y0246300D01*
X0420500Y0246500D01*
X0420500Y0248500D01*
X0422500Y0250500D01*
X0422500Y0252500D01*
X0422451Y0254427D02*
X0410977Y0254427D01*
X0411204Y0254200D02*
X0409672Y0255732D01*
X0409857Y0255695D01*
X0410015Y0255800D01*
X0420049Y0255800D01*
X0425900Y0252456D01*
X0425900Y0250653D01*
X0426603Y0249950D01*
X0433397Y0249950D01*
X0433447Y0250000D01*
X0433596Y0250000D01*
X0433800Y0249796D01*
X0433800Y0237393D01*
X0430546Y0237393D01*
X0429843Y0236690D01*
X0429843Y0231365D01*
X0430546Y0230662D01*
X0439021Y0230662D01*
X0439724Y0231365D01*
X0439724Y0236690D01*
X0439021Y0237393D01*
X0437200Y0237393D01*
X0437200Y0251204D01*
X0436204Y0252200D01*
X0435004Y0253400D01*
X0434100Y0253400D01*
X0434100Y0254000D01*
X0434596Y0254000D01*
X0437800Y0250796D01*
X0437800Y0239796D01*
X0440800Y0236796D01*
X0440800Y0221204D01*
X0440796Y0221200D01*
X0437796Y0221200D01*
X0436800Y0220204D01*
X0432800Y0216204D01*
X0432800Y0213584D01*
X0432800Y0214487D02*
X0431390Y0214487D01*
X0432800Y0215485D02*
X0411889Y0215485D01*
X0410891Y0214487D02*
X0429610Y0214487D01*
X0428104Y0213488D02*
X0409892Y0213488D01*
X0408894Y0212490D02*
X0427554Y0212490D01*
X0427400Y0211491D02*
X0407895Y0211491D01*
X0405500Y0211500D02*
X0412500Y0218500D01*
X0412500Y0236500D01*
X0408500Y0240500D01*
X0408500Y0244000D01*
X0406500Y0244000D02*
X0406500Y0239500D01*
X0410500Y0235500D01*
X0410500Y0219500D01*
X0404500Y0213500D01*
X0369500Y0213500D01*
X0361500Y0221500D01*
X0361500Y0223500D01*
X0360500Y0224500D01*
X0351500Y0224500D01*
X0350500Y0223500D01*
X0350500Y0216500D01*
X0349500Y0215500D01*
X0339500Y0215500D01*
X0328500Y0226500D01*
X0318500Y0226500D01*
X0317500Y0227500D01*
X0317500Y0229500D01*
X0318500Y0230500D01*
X0321500Y0230500D01*
X0328500Y0237500D01*
X0328500Y0269500D01*
X0323500Y0274500D01*
X0323500Y0286500D01*
X0325500Y0288500D01*
X0325500Y0295500D01*
X0326500Y0296500D01*
X0326500Y0309500D01*
X0327500Y0310500D01*
X0332100Y0310500D01*
X0332700Y0309900D01*
X0334500Y0309800D02*
X0334600Y0309900D01*
X0334600Y0320600D01*
X0336500Y0322500D01*
X0344500Y0322500D01*
X0347500Y0319500D01*
X0350372Y0318332D02*
X0353800Y0318332D01*
X0353800Y0319330D02*
X0350600Y0319330D01*
X0350600Y0318883D02*
X0350600Y0320117D01*
X0350128Y0321256D01*
X0349256Y0322128D01*
X0348117Y0322600D01*
X0346883Y0322600D01*
X0346827Y0322577D01*
X0345204Y0324200D01*
X0335796Y0324200D01*
X0334800Y0323204D01*
X0332900Y0321304D01*
X0332900Y0319504D01*
X0331204Y0321200D01*
X0331000Y0321200D01*
X0331000Y0335829D01*
X0331198Y0336171D01*
X0331300Y0336553D01*
X0331300Y0337300D01*
X0331300Y0338047D01*
X0331198Y0338429D01*
X0331000Y0338771D01*
X0330721Y0339050D01*
X0330379Y0339248D01*
X0329997Y0339350D01*
X0326900Y0339350D01*
X0326900Y0337300D01*
X0326900Y0337300D01*
X0331300Y0337300D01*
X0326900Y0337300D01*
X0326900Y0337300D01*
X0326900Y0337300D01*
X0322500Y0337300D01*
X0322500Y0338047D01*
X0322602Y0338429D01*
X0322800Y0338771D01*
X0323079Y0339050D01*
X0323421Y0339248D01*
X0323803Y0339350D01*
X0326900Y0339350D01*
X0326900Y0337300D01*
X0322500Y0337300D01*
X0322500Y0336553D01*
X0322602Y0336171D01*
X0322800Y0335829D01*
X0322800Y0335829D01*
X0322800Y0325200D01*
X0322796Y0325200D01*
X0322200Y0324604D01*
X0322200Y0326204D01*
X0318200Y0330204D01*
X0318200Y0335400D01*
X0319117Y0335400D01*
X0320256Y0335872D01*
X0321128Y0336744D01*
X0321600Y0337883D01*
X0321600Y0339117D01*
X0321128Y0340256D01*
X0320256Y0341128D01*
X0319117Y0341600D01*
X0317883Y0341600D01*
X0316744Y0341128D01*
X0315872Y0340256D01*
X0315400Y0339117D01*
X0315400Y0337883D01*
X0315423Y0337827D01*
X0314800Y0337204D01*
X0314800Y0332584D01*
X0314256Y0333128D01*
X0313200Y0333565D01*
X0313200Y0344600D01*
X0313775Y0344600D01*
X0315576Y0345346D01*
X0316954Y0346724D01*
X0317700Y0348525D01*
X0317700Y0350475D01*
X0316954Y0352276D01*
X0315576Y0353654D01*
X0313775Y0354400D01*
X0311825Y0354400D01*
X0310024Y0353654D01*
X0308646Y0352276D01*
X0308500Y0351923D01*
X0308500Y0354500D01*
X0322761Y0354500D01*
X0322204Y0354319D01*
X0321475Y0353947D01*
X0320812Y0353466D01*
X0320234Y0352888D01*
X0319753Y0352225D01*
X0319381Y0351496D01*
X0319128Y0350718D01*
X0319014Y0350000D01*
X0323700Y0350000D01*
X0323700Y0349000D01*
X0324700Y0349000D01*
X0324700Y0350000D01*
X0329386Y0350000D01*
X0329386Y0349000D02*
X0324700Y0349000D01*
X0324700Y0344314D01*
X0325418Y0344428D01*
X0326196Y0344681D01*
X0326925Y0345053D01*
X0327588Y0345534D01*
X0328166Y0346112D01*
X0328647Y0346775D01*
X0329019Y0347504D01*
X0329272Y0348282D01*
X0329386Y0349000D01*
X0329273Y0348287D02*
X0363249Y0348287D01*
X0363249Y0347289D02*
X0347818Y0347289D01*
X0347971Y0347200D02*
X0347971Y0347200D01*
X0347500Y0348500D02*
X0346500Y0347500D01*
X0346500Y0343100D01*
X0346500Y0343100D01*
X0346500Y0338700D01*
X0347247Y0338700D01*
X0347629Y0338802D01*
X0347971Y0339000D01*
X0347971Y0339000D01*
X0353596Y0339000D01*
X0352696Y0338100D01*
X0352383Y0338100D01*
X0351244Y0337628D01*
X0350372Y0336756D01*
X0349900Y0335617D01*
X0349900Y0334383D01*
X0350372Y0333244D01*
X0351244Y0332372D01*
X0352383Y0331900D01*
X0353617Y0331900D01*
X0354756Y0332372D01*
X0355628Y0333244D01*
X0356000Y0334142D01*
X0356000Y0333100D01*
X0355696Y0333100D01*
X0354796Y0332200D01*
X0353800Y0331204D01*
X0353800Y0314557D01*
X0353767Y0314060D01*
X0353529Y0314198D01*
X0353147Y0314300D01*
X0352400Y0314300D01*
X0352400Y0309900D01*
X0352500Y0309800D01*
X0352500Y0302500D01*
X0350000Y0300000D01*
X0350000Y0297500D01*
X0352000Y0299500D01*
X0355500Y0299500D01*
X0353000Y0299360D02*
X0358501Y0299360D01*
X0358400Y0299117D02*
X0358400Y0298304D01*
X0358300Y0298204D01*
X0350296Y0290200D01*
X0349204Y0290200D01*
X0346200Y0293204D01*
X0346200Y0302204D01*
X0345204Y0303200D01*
X0344200Y0304204D01*
X0344200Y0305800D01*
X0350929Y0305800D01*
X0351271Y0305602D01*
X0351653Y0305500D01*
X0352400Y0305500D01*
X0353147Y0305500D01*
X0353529Y0305602D01*
X0353871Y0305800D01*
X0353871Y0305800D01*
X0355347Y0305800D01*
X0356050Y0306503D01*
X0356050Y0311290D01*
X0359497Y0307351D01*
X0359400Y0307117D01*
X0359400Y0305883D01*
X0359872Y0304744D01*
X0360744Y0303872D01*
X0361883Y0303400D01*
X0363117Y0303400D01*
X0364256Y0303872D01*
X0364400Y0304016D01*
X0364400Y0303883D01*
X0364423Y0303827D01*
X0362173Y0301577D01*
X0362117Y0301600D01*
X0360883Y0301600D01*
X0359744Y0301128D01*
X0358872Y0300256D01*
X0358400Y0299117D01*
X0358400Y0298362D02*
X0353000Y0298362D01*
X0353000Y0297750D02*
X0353000Y0300697D01*
X0352898Y0301079D01*
X0352700Y0301421D01*
X0352421Y0301700D01*
X0352079Y0301898D01*
X0351697Y0302000D01*
X0350250Y0302000D01*
X0350250Y0297750D01*
X0353000Y0297750D01*
X0353000Y0297250D02*
X0350250Y0297250D01*
X0350250Y0297750D01*
X0349750Y0297750D01*
X0349750Y0302000D01*
X0348303Y0302000D01*
X0347921Y0301898D01*
X0347579Y0301700D01*
X0347300Y0301421D01*
X0347102Y0301079D01*
X0347000Y0300697D01*
X0347000Y0297750D01*
X0349750Y0297750D01*
X0349750Y0297250D01*
X0350250Y0297250D01*
X0350250Y0293000D01*
X0351697Y0293000D01*
X0352079Y0293102D01*
X0352421Y0293300D01*
X0352700Y0293579D01*
X0352898Y0293921D01*
X0353000Y0294303D01*
X0353000Y0297250D01*
X0353000Y0296365D02*
X0356460Y0296365D01*
X0357459Y0297363D02*
X0350250Y0297363D01*
X0349750Y0297363D02*
X0346200Y0297363D01*
X0347000Y0297250D02*
X0347000Y0294303D01*
X0347102Y0293921D01*
X0347300Y0293579D01*
X0347579Y0293300D01*
X0347921Y0293102D01*
X0348303Y0293000D01*
X0349750Y0293000D01*
X0349750Y0297250D01*
X0347000Y0297250D01*
X0347000Y0296365D02*
X0346200Y0296365D01*
X0346200Y0295366D02*
X0347000Y0295366D01*
X0347000Y0294368D02*
X0346200Y0294368D01*
X0346200Y0293369D02*
X0347510Y0293369D01*
X0347034Y0292370D02*
X0352466Y0292370D01*
X0352490Y0293369D02*
X0353465Y0293369D01*
X0353000Y0294368D02*
X0354463Y0294368D01*
X0355462Y0295366D02*
X0353000Y0295366D01*
X0350250Y0295366D02*
X0349750Y0295366D01*
X0349750Y0294368D02*
X0350250Y0294368D01*
X0350250Y0293369D02*
X0349750Y0293369D01*
X0348032Y0291372D02*
X0351468Y0291372D01*
X0350469Y0290373D02*
X0349031Y0290373D01*
X0348500Y0288500D02*
X0351000Y0288500D01*
X0360000Y0297500D01*
X0360500Y0297500D01*
X0361500Y0298500D01*
X0367500Y0304500D01*
X0363950Y0303354D02*
X0345050Y0303354D01*
X0344200Y0304353D02*
X0360263Y0304353D01*
X0359620Y0305351D02*
X0344200Y0305351D01*
X0342500Y0303500D02*
X0342500Y0309900D01*
X0342500Y0313500D01*
X0339500Y0316500D01*
X0336627Y0315336D02*
X0336300Y0315336D01*
X0336400Y0315883D02*
X0336872Y0314744D01*
X0337616Y0314000D01*
X0336300Y0314000D01*
X0336300Y0319896D01*
X0337204Y0320800D01*
X0343796Y0320800D01*
X0344423Y0320173D01*
X0344400Y0320117D01*
X0344400Y0318883D01*
X0344872Y0317744D01*
X0345744Y0316872D01*
X0346883Y0316400D01*
X0348117Y0316400D01*
X0349256Y0316872D01*
X0350128Y0317744D01*
X0350600Y0318883D01*
X0350512Y0320329D02*
X0353800Y0320329D01*
X0353800Y0321327D02*
X0350057Y0321327D01*
X0348779Y0322326D02*
X0353800Y0322326D01*
X0353800Y0323324D02*
X0346080Y0323324D01*
X0346500Y0326500D02*
X0346500Y0327500D01*
X0346500Y0326500D02*
X0352400Y0320600D01*
X0352400Y0309900D01*
X0352400Y0309900D01*
X0352400Y0314300D01*
X0351653Y0314300D01*
X0351271Y0314198D01*
X0350929Y0314000D01*
X0350929Y0314000D01*
X0344200Y0314000D01*
X0344200Y0314204D01*
X0342577Y0315827D01*
X0342600Y0315883D01*
X0342600Y0317117D01*
X0342128Y0318256D01*
X0341256Y0319128D01*
X0340117Y0319600D01*
X0338883Y0319600D01*
X0337744Y0319128D01*
X0336872Y0318256D01*
X0336400Y0317117D01*
X0336400Y0315883D01*
X0336400Y0316335D02*
X0336300Y0316335D01*
X0336300Y0317333D02*
X0336490Y0317333D01*
X0336300Y0318332D02*
X0336948Y0318332D01*
X0336300Y0319330D02*
X0338232Y0319330D01*
X0336733Y0320329D02*
X0344267Y0320329D01*
X0344400Y0319330D02*
X0340768Y0319330D01*
X0342052Y0318332D02*
X0344628Y0318332D01*
X0345283Y0317333D02*
X0342510Y0317333D01*
X0342600Y0316335D02*
X0353800Y0316335D01*
X0353800Y0317333D02*
X0349717Y0317333D01*
X0353800Y0315336D02*
X0343068Y0315336D01*
X0344066Y0314338D02*
X0353785Y0314338D01*
X0352400Y0313339D02*
X0352400Y0313339D01*
X0352400Y0312341D02*
X0352400Y0312341D01*
X0352400Y0311342D02*
X0352400Y0311342D01*
X0352400Y0310344D02*
X0352400Y0310344D01*
X0352400Y0309900D02*
X0352400Y0305500D01*
X0352400Y0309900D01*
X0352400Y0309900D01*
X0352400Y0309345D02*
X0352400Y0309345D01*
X0352400Y0308347D02*
X0352400Y0308347D01*
X0352400Y0307348D02*
X0352400Y0307348D01*
X0352400Y0306350D02*
X0352400Y0306350D01*
X0350929Y0305800D02*
X0350929Y0305800D01*
X0350250Y0301357D02*
X0349750Y0301357D01*
X0349750Y0300359D02*
X0350250Y0300359D01*
X0350250Y0299360D02*
X0349750Y0299360D01*
X0349750Y0298362D02*
X0350250Y0298362D01*
X0350250Y0296365D02*
X0349750Y0296365D01*
X0347000Y0298362D02*
X0346200Y0298362D01*
X0346200Y0299360D02*
X0347000Y0299360D01*
X0347000Y0300359D02*
X0346200Y0300359D01*
X0346200Y0301357D02*
X0347263Y0301357D01*
X0346049Y0302356D02*
X0362951Y0302356D01*
X0360297Y0301357D02*
X0352737Y0301357D01*
X0353000Y0300359D02*
X0358975Y0300359D01*
X0359400Y0306350D02*
X0355897Y0306350D01*
X0356050Y0307348D02*
X0359496Y0307348D01*
X0358625Y0308347D02*
X0356050Y0308347D01*
X0356050Y0309345D02*
X0357752Y0309345D01*
X0356878Y0310344D02*
X0356050Y0310344D01*
X0355500Y0314500D02*
X0362500Y0306500D01*
X0363500Y0311500D02*
X0365500Y0311500D01*
X0367500Y0313500D01*
X0367500Y0322500D01*
X0370500Y0325500D01*
X0372500Y0329500D02*
X0375500Y0326500D01*
X0375500Y0316500D01*
X0372500Y0313500D01*
X0372500Y0309500D01*
X0373500Y0308500D01*
X0373500Y0285500D01*
X0370500Y0281500D01*
X0371500Y0277500D02*
X0375500Y0281500D01*
X0375500Y0310500D01*
X0378500Y0313500D01*
X0383500Y0312500D02*
X0377500Y0306500D01*
X0377500Y0280500D01*
X0372500Y0275500D01*
X0368500Y0275500D01*
X0367500Y0274500D01*
X0367500Y0272500D01*
X0369500Y0270500D01*
X0371500Y0270500D01*
X0374400Y0273400D01*
X0385000Y0273400D01*
X0384900Y0271500D02*
X0375500Y0271500D01*
X0372500Y0268500D01*
X0368500Y0268500D01*
X0365500Y0271500D01*
X0365500Y0275500D01*
X0367500Y0277500D01*
X0371500Y0277500D01*
X0374504Y0275100D02*
X0378204Y0278800D01*
X0379200Y0279796D01*
X0379200Y0305796D01*
X0385010Y0311606D01*
X0385744Y0310872D01*
X0386883Y0310400D01*
X0388117Y0310400D01*
X0389256Y0310872D01*
X0390128Y0311744D01*
X0390600Y0312883D01*
X0390600Y0314117D01*
X0390128Y0315256D01*
X0389878Y0315506D01*
X0390264Y0316788D01*
X0391384Y0316788D01*
X0390800Y0316204D01*
X0390800Y0307204D01*
X0386800Y0303204D01*
X0386800Y0292796D01*
X0387796Y0291800D01*
X0387800Y0291796D01*
X0387800Y0284796D01*
X0388796Y0283800D01*
X0390423Y0282173D01*
X0390400Y0282117D01*
X0390400Y0280883D01*
X0390423Y0280827D01*
X0389100Y0279504D01*
X0389100Y0282347D01*
X0388397Y0283050D01*
X0381603Y0283050D01*
X0380900Y0282347D01*
X0380900Y0276871D01*
X0380702Y0276529D01*
X0380600Y0276147D01*
X0380600Y0275400D01*
X0385000Y0275400D01*
X0391600Y0275400D01*
X0393500Y0275500D01*
X0392602Y0273399D02*
X0395800Y0273399D01*
X0395800Y0274397D02*
X0389332Y0274397D01*
X0389298Y0274271D02*
X0389400Y0274653D01*
X0389400Y0275400D01*
X0389400Y0275800D01*
X0390204Y0275800D01*
X0392827Y0278423D01*
X0392883Y0278400D01*
X0394117Y0278400D01*
X0395256Y0278872D01*
X0395800Y0279416D01*
X0395800Y0271204D01*
X0394600Y0270004D01*
X0394600Y0271117D01*
X0394128Y0272256D01*
X0393256Y0273128D01*
X0392117Y0273600D01*
X0390883Y0273600D01*
X0389744Y0273128D01*
X0389100Y0272484D01*
X0389100Y0273929D01*
X0389298Y0274271D01*
X0389100Y0273929D02*
X0389100Y0273929D01*
X0389100Y0273399D02*
X0390398Y0273399D01*
X0389400Y0275396D02*
X0395800Y0275396D01*
X0395800Y0276394D02*
X0390798Y0276394D01*
X0391797Y0277393D02*
X0395800Y0277393D01*
X0395800Y0278391D02*
X0392795Y0278391D01*
X0395774Y0279390D02*
X0395800Y0279390D01*
X0397500Y0280500D02*
X0397500Y0270500D01*
X0392500Y0265500D01*
X0390500Y0265500D01*
X0392500Y0262500D02*
X0392500Y0254500D01*
X0395500Y0251500D01*
X0395500Y0249500D01*
X0398600Y0249434D02*
X0408161Y0249434D01*
X0407800Y0249796D02*
X0408796Y0248800D01*
X0414700Y0248800D01*
X0414700Y0248100D01*
X0402071Y0248100D01*
X0401729Y0248298D01*
X0401347Y0248400D01*
X0400600Y0248400D01*
X0400600Y0244000D01*
X0400500Y0244100D01*
X0400500Y0249500D01*
X0400600Y0248400D02*
X0399853Y0248400D01*
X0399471Y0248298D01*
X0399129Y0248100D01*
X0399129Y0248100D01*
X0398275Y0248100D01*
X0398600Y0248883D01*
X0398600Y0250117D01*
X0398128Y0251256D01*
X0397256Y0252128D01*
X0397200Y0252151D01*
X0397200Y0252204D01*
X0396604Y0252800D01*
X0404796Y0252800D01*
X0407800Y0249796D01*
X0407163Y0250433D02*
X0398469Y0250433D01*
X0397953Y0251432D02*
X0406164Y0251432D01*
X0405166Y0252430D02*
X0396974Y0252430D01*
X0395500Y0254500D02*
X0405500Y0254500D01*
X0409500Y0250500D01*
X0415500Y0250500D01*
X0416400Y0249600D01*
X0416400Y0244000D01*
X0418300Y0244000D02*
X0418300Y0250700D01*
X0416500Y0252500D01*
X0410500Y0252500D01*
X0406500Y0256500D01*
X0397500Y0256500D01*
X0396500Y0257500D01*
X0396500Y0260500D01*
X0403500Y0267500D01*
X0403500Y0277500D01*
X0405500Y0279500D01*
X0414500Y0279500D01*
X0418500Y0283500D01*
X0422500Y0283500D01*
X0425500Y0283500D01*
X0427700Y0281300D01*
X0430000Y0281300D01*
X0430000Y0279300D02*
X0434400Y0279300D01*
X0430000Y0279300D01*
X0424300Y0279300D01*
X0423500Y0278500D01*
X0421500Y0280500D01*
X0418500Y0280500D01*
X0415500Y0277500D01*
X0409500Y0277500D01*
X0407500Y0275500D01*
X0405200Y0275396D02*
X0415400Y0275396D01*
X0415400Y0274883D02*
X0415872Y0273744D01*
X0416744Y0272872D01*
X0417883Y0272400D01*
X0408599Y0272400D01*
X0408117Y0272600D02*
X0406883Y0272600D01*
X0405744Y0272128D01*
X0405200Y0271584D01*
X0405200Y0276796D01*
X0406204Y0277800D01*
X0415204Y0277800D01*
X0419204Y0281800D01*
X0419849Y0281800D01*
X0419872Y0281744D01*
X0420744Y0280872D01*
X0421883Y0280400D01*
X0423117Y0280400D01*
X0424256Y0280872D01*
X0424990Y0281606D01*
X0425872Y0280724D01*
X0425702Y0280429D01*
X0425600Y0280047D01*
X0425600Y0279300D01*
X0430000Y0279300D01*
X0430000Y0279300D01*
X0430000Y0279300D01*
X0425600Y0279300D01*
X0425600Y0278553D01*
X0425702Y0278171D01*
X0425900Y0277829D01*
X0425900Y0277829D01*
X0425900Y0277100D01*
X0421429Y0277100D01*
X0421189Y0277108D01*
X0421128Y0277256D01*
X0420256Y0278128D01*
X0419117Y0278600D01*
X0417883Y0278600D01*
X0416744Y0278128D01*
X0415872Y0277256D01*
X0415400Y0276117D01*
X0415400Y0274883D01*
X0415601Y0274397D02*
X0405200Y0274397D01*
X0405200Y0273399D02*
X0416217Y0273399D01*
X0417883Y0272400D02*
X0418016Y0272400D01*
X0417872Y0272256D01*
X0417400Y0271117D01*
X0417400Y0269883D01*
X0417872Y0268744D01*
X0418744Y0267872D01*
X0419883Y0267400D01*
X0421016Y0267400D01*
X0420872Y0267256D01*
X0420400Y0266117D01*
X0420400Y0264883D01*
X0420872Y0263744D01*
X0421416Y0263200D01*
X0418204Y0263200D01*
X0415577Y0265827D01*
X0415600Y0265883D01*
X0415600Y0267117D01*
X0415128Y0268256D01*
X0414256Y0269128D01*
X0413117Y0269600D01*
X0411883Y0269600D01*
X0410744Y0269128D01*
X0410600Y0268984D01*
X0410600Y0270117D01*
X0410128Y0271256D01*
X0409256Y0272128D01*
X0408117Y0272600D01*
X0406401Y0272400D02*
X0405200Y0272400D01*
X0407500Y0269500D02*
X0411400Y0259600D01*
X0430000Y0259600D01*
X0429900Y0261500D02*
X0430000Y0261600D01*
X0429900Y0261500D02*
X0417500Y0261500D01*
X0412500Y0266500D01*
X0415600Y0266409D02*
X0420521Y0266409D01*
X0420400Y0265411D02*
X0415993Y0265411D01*
X0416992Y0264412D02*
X0420595Y0264412D01*
X0421202Y0263414D02*
X0417990Y0263414D01*
X0419865Y0267408D02*
X0415479Y0267408D01*
X0414978Y0268406D02*
X0418210Y0268406D01*
X0417598Y0269405D02*
X0413588Y0269405D01*
X0411412Y0269405D02*
X0410600Y0269405D01*
X0410481Y0270403D02*
X0417400Y0270403D01*
X0417518Y0271402D02*
X0409982Y0271402D01*
X0405200Y0276394D02*
X0415515Y0276394D01*
X0416009Y0277393D02*
X0405797Y0277393D01*
X0401500Y0278500D02*
X0401500Y0268500D01*
X0394500Y0261500D01*
X0394500Y0255500D01*
X0395500Y0254500D01*
X0398415Y0248436D02*
X0414700Y0248436D01*
X0420000Y0248436D02*
X0433800Y0248436D01*
X0433800Y0249434D02*
X0420000Y0249434D01*
X0420000Y0250433D02*
X0426120Y0250433D01*
X0425900Y0251432D02*
X0419973Y0251432D01*
X0420000Y0251404D02*
X0419004Y0252400D01*
X0418200Y0253204D01*
X0418200Y0253204D01*
X0417204Y0254200D01*
X0411204Y0254200D01*
X0409979Y0255426D02*
X0420704Y0255426D01*
X0420500Y0257500D02*
X0427500Y0253500D01*
X0427700Y0253700D01*
X0430000Y0253700D01*
X0429800Y0253500D01*
X0430000Y0251700D02*
X0434300Y0251700D01*
X0435500Y0250500D01*
X0435500Y0234744D01*
X0434783Y0234028D01*
X0433800Y0237452D02*
X0423857Y0237452D01*
X0424000Y0238451D02*
X0433800Y0238451D01*
X0433800Y0239449D02*
X0424000Y0239449D01*
X0424000Y0240448D02*
X0433800Y0240448D01*
X0433800Y0241446D02*
X0424050Y0241446D01*
X0424050Y0242445D02*
X0433800Y0242445D01*
X0433800Y0243443D02*
X0424050Y0243443D01*
X0424050Y0244442D02*
X0433800Y0244442D01*
X0433800Y0245440D02*
X0424050Y0245440D01*
X0424050Y0246439D02*
X0433800Y0246439D01*
X0433800Y0247437D02*
X0424010Y0247437D01*
X0421771Y0248100D02*
X0421771Y0248100D01*
X0420300Y0248400D02*
X0420000Y0248400D01*
X0420000Y0251404D01*
X0419004Y0252400D02*
X0419004Y0252400D01*
X0418974Y0252430D02*
X0425900Y0252430D01*
X0424199Y0253429D02*
X0417976Y0253429D01*
X0420500Y0257500D02*
X0409500Y0257500D01*
X0407500Y0260500D01*
X0404500Y0262500D01*
X0399500Y0269500D02*
X0392500Y0262500D01*
X0389500Y0269500D02*
X0391500Y0270500D01*
X0389500Y0269500D02*
X0385000Y0269500D01*
X0376059Y0269500D01*
X0365059Y0258500D01*
X0365059Y0257500D01*
X0365059Y0259941D01*
X0361500Y0263500D01*
X0355500Y0263500D01*
X0359941Y0257500D02*
X0348846Y0257500D01*
X0342154Y0257500D02*
X0340500Y0257500D01*
X0336500Y0253500D01*
X0320500Y0262500D02*
X0320500Y0241500D01*
X0322500Y0240500D02*
X0318500Y0236500D01*
X0312500Y0236500D01*
X0311500Y0235500D01*
X0311500Y0222500D01*
X0313500Y0220500D01*
X0325500Y0220500D01*
X0336500Y0209500D01*
X0428500Y0209500D01*
X0430500Y0211500D01*
X0433079Y0216484D02*
X0412888Y0216484D01*
X0413886Y0217482D02*
X0434078Y0217482D01*
X0435076Y0218481D02*
X0414200Y0218481D01*
X0414200Y0219479D02*
X0436075Y0219479D01*
X0437074Y0220478D02*
X0414200Y0220478D01*
X0414200Y0221476D02*
X0440800Y0221476D01*
X0440800Y0222475D02*
X0439724Y0222475D01*
X0439724Y0222310D02*
X0439724Y0227635D01*
X0439021Y0228338D01*
X0430546Y0228338D01*
X0429843Y0227635D01*
X0429843Y0222310D01*
X0430546Y0221607D01*
X0439021Y0221607D01*
X0439724Y0222310D01*
X0439724Y0223473D02*
X0440800Y0223473D01*
X0440800Y0224472D02*
X0439724Y0224472D01*
X0439724Y0225470D02*
X0440800Y0225470D01*
X0440800Y0226469D02*
X0439724Y0226469D01*
X0439724Y0227467D02*
X0440800Y0227467D01*
X0440800Y0228466D02*
X0416938Y0228466D01*
X0416200Y0229464D02*
X0440800Y0229464D01*
X0440800Y0230463D02*
X0416200Y0230463D01*
X0414500Y0228500D02*
X0414500Y0236500D01*
X0415500Y0237500D01*
X0421500Y0237500D01*
X0422300Y0238300D01*
X0422300Y0244000D01*
X0420300Y0244000D02*
X0420300Y0244000D01*
X0420300Y0248400D01*
X0420300Y0247437D02*
X0420300Y0247437D01*
X0420300Y0246439D02*
X0420300Y0246439D01*
X0420300Y0245440D02*
X0420300Y0245440D01*
X0420300Y0244442D02*
X0420300Y0244442D01*
X0420300Y0244000D02*
X0420300Y0239600D01*
X0420600Y0239600D01*
X0420600Y0239200D01*
X0414796Y0239200D01*
X0413800Y0238204D01*
X0413500Y0237904D01*
X0411504Y0239900D01*
X0418829Y0239900D01*
X0419171Y0239702D01*
X0419553Y0239600D01*
X0420300Y0239600D01*
X0420300Y0244000D01*
X0420300Y0244000D01*
X0420300Y0243443D02*
X0420300Y0243443D01*
X0420300Y0242445D02*
X0420300Y0242445D01*
X0420300Y0241446D02*
X0420300Y0241446D01*
X0420300Y0240448D02*
X0420300Y0240448D01*
X0420600Y0239449D02*
X0411955Y0239449D01*
X0412953Y0238451D02*
X0414047Y0238451D01*
X0418829Y0239900D02*
X0418829Y0239900D01*
X0425157Y0236454D02*
X0429843Y0236454D01*
X0429843Y0235455D02*
X0425157Y0235455D01*
X0425157Y0234457D02*
X0429843Y0234457D01*
X0429843Y0233458D02*
X0425157Y0233458D01*
X0425157Y0232460D02*
X0429843Y0232460D01*
X0429843Y0231461D02*
X0425157Y0231461D01*
X0425157Y0227467D02*
X0429843Y0227467D01*
X0429843Y0226469D02*
X0425157Y0226469D01*
X0425157Y0225470D02*
X0429843Y0225470D01*
X0429843Y0224472D02*
X0425157Y0224472D01*
X0425157Y0223473D02*
X0429843Y0223473D01*
X0429843Y0222475D02*
X0425157Y0222475D01*
X0420217Y0224972D02*
X0418028Y0224972D01*
X0414500Y0228500D01*
X0414200Y0225470D02*
X0415126Y0225470D01*
X0415276Y0224472D02*
X0414200Y0224472D01*
X0414200Y0223473D02*
X0415276Y0223473D01*
X0415276Y0222475D02*
X0414200Y0222475D01*
X0408500Y0220500D02*
X0403500Y0215500D01*
X0370500Y0215500D01*
X0363500Y0222500D01*
X0363500Y0225500D01*
X0362500Y0226500D01*
X0349500Y0226500D01*
X0348500Y0225500D01*
X0348500Y0218500D01*
X0347500Y0217500D01*
X0340500Y0217500D01*
X0329500Y0228500D01*
X0325500Y0228500D01*
X0324500Y0229500D01*
X0324500Y0230500D01*
X0330500Y0236500D01*
X0330500Y0270500D01*
X0325500Y0275500D01*
X0325500Y0285500D01*
X0327500Y0287500D01*
X0327500Y0294500D01*
X0328500Y0295500D01*
X0328500Y0303500D01*
X0329500Y0304500D01*
X0333500Y0304500D01*
X0334600Y0305600D01*
X0334600Y0309900D01*
X0336300Y0314338D02*
X0337278Y0314338D01*
X0332500Y0315500D02*
X0329500Y0312500D01*
X0325500Y0312500D01*
X0324500Y0311500D01*
X0324500Y0297500D01*
X0323500Y0296500D01*
X0323500Y0289500D01*
X0321500Y0287500D01*
X0321500Y0273500D01*
X0326500Y0268500D01*
X0326500Y0238500D01*
X0320500Y0232500D01*
X0316500Y0232500D01*
X0315500Y0231500D01*
X0315500Y0225500D01*
X0316500Y0224500D01*
X0327500Y0224500D01*
X0338500Y0213500D01*
X0350500Y0213500D01*
X0352500Y0215500D01*
X0352500Y0221500D01*
X0353500Y0222500D01*
X0358500Y0222500D01*
X0359500Y0221500D01*
X0359500Y0220500D01*
X0368500Y0211500D01*
X0405500Y0211500D01*
X0402500Y0217500D02*
X0406500Y0221500D01*
X0406500Y0233500D01*
X0402600Y0237400D01*
X0402600Y0244000D01*
X0402500Y0243900D01*
X0400600Y0244000D02*
X0400600Y0239600D01*
X0400900Y0239600D01*
X0400900Y0237393D01*
X0399797Y0237393D01*
X0400300Y0237896D01*
X0400300Y0239600D01*
X0400600Y0239600D01*
X0400600Y0244000D01*
X0400600Y0244000D01*
X0400600Y0248400D01*
X0400600Y0247437D02*
X0400600Y0247437D01*
X0400600Y0246439D02*
X0400600Y0246439D01*
X0400600Y0245440D02*
X0400600Y0245440D01*
X0400600Y0244442D02*
X0400600Y0244442D01*
X0400600Y0244000D02*
X0400600Y0244000D01*
X0400600Y0243443D02*
X0400600Y0243443D01*
X0400600Y0242445D02*
X0400600Y0242445D01*
X0400600Y0241446D02*
X0400600Y0241446D01*
X0400600Y0240448D02*
X0400600Y0240448D01*
X0400300Y0239449D02*
X0400900Y0239449D01*
X0400900Y0238451D02*
X0400300Y0238451D01*
X0399857Y0237452D02*
X0400900Y0237452D01*
X0398600Y0238600D02*
X0396500Y0236500D01*
X0396500Y0233744D01*
X0396783Y0234028D01*
X0395500Y0238500D02*
X0375500Y0238500D01*
X0373500Y0235500D01*
X0373500Y0226500D01*
X0377500Y0222500D01*
X0379744Y0222500D01*
X0382217Y0224972D01*
X0377500Y0219500D02*
X0401500Y0219500D01*
X0404500Y0222500D01*
X0404500Y0226500D01*
X0402500Y0228500D01*
X0402500Y0229500D01*
X0408500Y0234500D02*
X0404500Y0238500D01*
X0404500Y0244000D01*
X0402071Y0248100D02*
X0402071Y0248100D01*
X0398600Y0244000D02*
X0398600Y0238600D01*
X0396700Y0239700D02*
X0395500Y0238500D01*
X0396700Y0239700D02*
X0396700Y0244000D01*
X0392700Y0244000D02*
X0392500Y0243800D01*
X0391500Y0242500D01*
X0383500Y0242500D01*
X0384800Y0251500D02*
X0379500Y0251500D01*
X0371500Y0243500D01*
X0371500Y0227500D01*
X0370500Y0226500D01*
X0377500Y0219500D01*
X0375500Y0217500D02*
X0371500Y0221500D01*
X0369500Y0221500D01*
X0370500Y0226500D02*
X0367500Y0226500D01*
X0375500Y0217500D02*
X0402500Y0217500D01*
X0408500Y0220500D02*
X0408500Y0234500D01*
X0385000Y0251700D02*
X0384800Y0251500D01*
X0385000Y0251700D02*
X0385000Y0253700D01*
X0384900Y0257500D02*
X0385000Y0257600D01*
X0384900Y0257500D02*
X0380500Y0257500D01*
X0379500Y0256500D01*
X0379500Y0254500D01*
X0374500Y0249500D01*
X0371500Y0249500D01*
X0370500Y0250500D01*
X0363500Y0250500D01*
X0359941Y0254059D01*
X0359941Y0257500D01*
X0359941Y0256059D01*
X0362500Y0270500D02*
X0362500Y0279500D01*
X0371500Y0288500D01*
X0371500Y0307500D01*
X0369500Y0309500D01*
X0369500Y0318500D01*
X0371500Y0320500D01*
X0380500Y0320154D02*
X0383500Y0317154D01*
X0383500Y0312500D01*
X0384746Y0311342D02*
X0385274Y0311342D01*
X0383748Y0310344D02*
X0390800Y0310344D01*
X0390800Y0311342D02*
X0389726Y0311342D01*
X0390375Y0312341D02*
X0390800Y0312341D01*
X0390800Y0313339D02*
X0390600Y0313339D01*
X0390508Y0314338D02*
X0390800Y0314338D01*
X0390800Y0315336D02*
X0390048Y0315336D01*
X0390127Y0316335D02*
X0390931Y0316335D01*
X0392500Y0315500D02*
X0393500Y0316500D01*
X0395500Y0316500D01*
X0396500Y0317500D01*
X0396500Y0325500D01*
X0400500Y0329500D01*
X0410500Y0329500D01*
X0413500Y0326500D01*
X0413500Y0322800D01*
X0420728Y0330028D01*
X0428500Y0330028D01*
X0425666Y0328317D02*
X0421421Y0328317D01*
X0420423Y0327318D02*
X0430800Y0327318D01*
X0430800Y0326320D02*
X0419424Y0326320D01*
X0418426Y0325321D02*
X0430800Y0325321D01*
X0430800Y0324323D02*
X0417427Y0324323D01*
X0416428Y0323324D02*
X0426281Y0323324D01*
X0425666Y0322326D02*
X0416078Y0322326D01*
X0417077Y0321327D02*
X0425666Y0321327D01*
X0425666Y0320329D02*
X0418075Y0320329D01*
X0419074Y0319330D02*
X0425666Y0319330D01*
X0424071Y0317333D02*
X0445929Y0317333D01*
X0444931Y0316335D02*
X0425069Y0316335D01*
X0426068Y0315336D02*
X0443932Y0315336D01*
X0442934Y0314338D02*
X0426200Y0314338D01*
X0426200Y0313339D02*
X0441935Y0313339D01*
X0440937Y0312341D02*
X0431743Y0312341D01*
X0432256Y0312128D02*
X0431117Y0312600D01*
X0429883Y0312600D01*
X0428744Y0312128D01*
X0427872Y0311256D01*
X0427400Y0310117D01*
X0427400Y0308883D01*
X0427872Y0307744D01*
X0428744Y0306872D01*
X0429883Y0306400D01*
X0431117Y0306400D01*
X0432256Y0306872D01*
X0433128Y0307744D01*
X0433151Y0307800D01*
X0441204Y0307800D01*
X0449450Y0316046D01*
X0450525Y0315600D01*
X0452475Y0315600D01*
X0454276Y0316346D01*
X0455654Y0317724D01*
X0456400Y0319525D01*
X0456400Y0321475D01*
X0455654Y0323276D01*
X0454276Y0324654D01*
X0452475Y0325400D01*
X0450525Y0325400D01*
X0448724Y0324654D01*
X0447346Y0323276D01*
X0446600Y0321475D01*
X0446600Y0319525D01*
X0447046Y0318450D01*
X0439796Y0311200D01*
X0433151Y0311200D01*
X0433128Y0311256D01*
X0432256Y0312128D01*
X0433042Y0311342D02*
X0439938Y0311342D01*
X0440500Y0309500D02*
X0451500Y0320500D01*
X0456047Y0322326D02*
X0456500Y0322326D01*
X0456500Y0323324D02*
X0455605Y0323324D01*
X0456500Y0324323D02*
X0454607Y0324323D01*
X0456500Y0325321D02*
X0452665Y0325321D01*
X0450335Y0325321D02*
X0434200Y0325321D01*
X0434200Y0324323D02*
X0448393Y0324323D01*
X0447395Y0323324D02*
X0434200Y0323324D01*
X0434200Y0322326D02*
X0446953Y0322326D01*
X0446600Y0321327D02*
X0433731Y0321327D01*
X0432733Y0320329D02*
X0446600Y0320329D01*
X0446681Y0319330D02*
X0431734Y0319330D01*
X0430972Y0320972D02*
X0432500Y0322500D01*
X0432500Y0340500D01*
X0431500Y0341500D01*
X0434358Y0340299D02*
X0441532Y0340299D01*
X0441532Y0339301D02*
X0434200Y0339301D01*
X0434200Y0338302D02*
X0441532Y0338302D01*
X0441598Y0337303D02*
X0434200Y0337303D01*
X0434200Y0336305D02*
X0438370Y0336305D01*
X0437641Y0335306D02*
X0434200Y0335306D01*
X0434200Y0334308D02*
X0437361Y0334308D01*
X0437396Y0333309D02*
X0434200Y0333309D01*
X0434200Y0332311D02*
X0437810Y0332311D01*
X0438877Y0331312D02*
X0434200Y0331312D01*
X0434200Y0330314D02*
X0441532Y0330314D01*
X0441532Y0329315D02*
X0434200Y0329315D01*
X0434200Y0328317D02*
X0441584Y0328317D01*
X0443972Y0330500D02*
X0440461Y0334012D01*
X0443972Y0330500D02*
X0443972Y0339500D01*
X0446413Y0339301D02*
X0450587Y0339301D01*
X0450587Y0340299D02*
X0446413Y0340299D01*
X0446413Y0338302D02*
X0450587Y0338302D01*
X0450653Y0337303D02*
X0446347Y0337303D01*
X0445672Y0336305D02*
X0451328Y0336305D01*
X0451328Y0335306D02*
X0445672Y0335306D01*
X0445672Y0334308D02*
X0451328Y0334308D01*
X0451266Y0333309D02*
X0445734Y0333309D01*
X0446413Y0332311D02*
X0450587Y0332311D01*
X0450587Y0331312D02*
X0446413Y0331312D01*
X0446413Y0330314D02*
X0450587Y0330314D01*
X0450587Y0329315D02*
X0446413Y0329315D01*
X0446360Y0328317D02*
X0450640Y0328317D01*
X0453028Y0330500D02*
X0453028Y0339500D01*
X0452500Y0340028D01*
X0452500Y0341500D01*
X0451500Y0342500D01*
X0435500Y0342500D01*
X0431500Y0346500D01*
X0429846Y0346500D01*
X0428846Y0347500D01*
X0432212Y0348287D02*
X0435999Y0348287D01*
X0435900Y0348525D02*
X0436646Y0346724D01*
X0438024Y0345346D01*
X0439825Y0344600D01*
X0441775Y0344600D01*
X0443576Y0345346D01*
X0444954Y0346724D01*
X0445700Y0348525D01*
X0445700Y0350475D01*
X0444954Y0352276D01*
X0443576Y0353654D01*
X0441775Y0354400D01*
X0439825Y0354400D01*
X0438024Y0353654D01*
X0436646Y0352276D01*
X0435900Y0350475D01*
X0435900Y0348525D01*
X0435900Y0349286D02*
X0432212Y0349286D01*
X0431893Y0350284D02*
X0435900Y0350284D01*
X0436235Y0351283D02*
X0401418Y0351283D01*
X0401751Y0350950D02*
X0401048Y0351653D01*
X0392968Y0351653D01*
X0392265Y0350950D01*
X0392265Y0349200D01*
X0388621Y0349200D01*
X0388621Y0350950D01*
X0387918Y0351653D01*
X0377082Y0351653D01*
X0376379Y0350950D01*
X0376379Y0349200D01*
X0372735Y0349200D01*
X0372735Y0350950D01*
X0372032Y0351653D01*
X0363952Y0351653D01*
X0363249Y0350950D01*
X0363249Y0344050D01*
X0363952Y0343347D01*
X0372032Y0343347D01*
X0372735Y0344050D01*
X0372735Y0345800D01*
X0376379Y0345800D01*
X0376379Y0344050D01*
X0377082Y0343347D01*
X0387918Y0343347D01*
X0388621Y0344050D01*
X0388621Y0345800D01*
X0392265Y0345800D01*
X0392265Y0344050D01*
X0392968Y0343347D01*
X0401048Y0343347D01*
X0401751Y0344050D01*
X0401751Y0345800D01*
X0405363Y0345800D01*
X0405363Y0345231D01*
X0406066Y0344528D01*
X0409816Y0344528D01*
X0410340Y0345052D01*
X0410481Y0344807D01*
X0410760Y0344528D01*
X0411102Y0344331D01*
X0411484Y0344228D01*
X0412870Y0344228D01*
X0412870Y0347311D01*
X0413248Y0347311D01*
X0413248Y0344228D01*
X0414634Y0344228D01*
X0415016Y0344331D01*
X0415358Y0344528D01*
X0415637Y0344807D01*
X0415835Y0345149D01*
X0415937Y0345531D01*
X0415937Y0347311D01*
X0413248Y0347311D01*
X0413248Y0347689D01*
X0412870Y0347689D01*
X0412870Y0350772D01*
X0411484Y0350772D01*
X0411102Y0350669D01*
X0410760Y0350472D01*
X0410481Y0350193D01*
X0410340Y0349948D01*
X0409816Y0350472D01*
X0406066Y0350472D01*
X0405363Y0349769D01*
X0405363Y0349200D01*
X0401751Y0349200D01*
X0401751Y0350950D01*
X0401751Y0350284D02*
X0405878Y0350284D01*
X0405363Y0349286D02*
X0401751Y0349286D01*
X0401751Y0345292D02*
X0405363Y0345292D01*
X0406500Y0342500D02*
X0404500Y0340500D01*
X0404500Y0336500D01*
X0406904Y0334308D02*
X0389605Y0334308D01*
X0389605Y0335306D02*
X0407902Y0335306D01*
X0408901Y0336305D02*
X0390849Y0336305D01*
X0392226Y0337303D02*
X0409899Y0337303D01*
X0410898Y0338302D02*
X0392652Y0338302D01*
X0392654Y0339301D02*
X0411896Y0339301D01*
X0412895Y0340299D02*
X0392269Y0340299D01*
X0391029Y0341298D02*
X0413400Y0341298D01*
X0413474Y0342296D02*
X0356050Y0342296D01*
X0356050Y0343295D02*
X0413911Y0343295D01*
X0413248Y0344293D02*
X0412870Y0344293D01*
X0413500Y0344500D02*
X0413500Y0347059D01*
X0413059Y0347500D01*
X0413248Y0347689D02*
X0413248Y0350772D01*
X0414634Y0350772D01*
X0415016Y0350669D01*
X0415358Y0350472D01*
X0415637Y0350193D01*
X0415835Y0349851D01*
X0415937Y0349469D01*
X0415937Y0347689D01*
X0413248Y0347689D01*
X0413248Y0347289D02*
X0412870Y0347289D01*
X0412870Y0348287D02*
X0413248Y0348287D01*
X0413248Y0349286D02*
X0412870Y0349286D01*
X0412870Y0350284D02*
X0413248Y0350284D01*
X0415546Y0350284D02*
X0419107Y0350284D01*
X0418788Y0349286D02*
X0415937Y0349286D01*
X0415937Y0348287D02*
X0418788Y0348287D01*
X0418788Y0347289D02*
X0415937Y0347289D01*
X0415937Y0346290D02*
X0418788Y0346290D01*
X0417887Y0345292D02*
X0415873Y0345292D01*
X0415142Y0344293D02*
X0414876Y0344293D01*
X0413500Y0344500D02*
X0411500Y0342500D01*
X0406500Y0342500D01*
X0379500Y0342500D01*
X0377382Y0340382D01*
X0377382Y0336772D01*
X0377382Y0333925D01*
X0375228Y0333772D01*
X0366500Y0342500D01*
X0362500Y0342500D01*
X0356500Y0348500D01*
X0347500Y0348500D01*
X0346500Y0347500D02*
X0345753Y0347500D01*
X0345371Y0347398D01*
X0345029Y0347200D01*
X0345029Y0347200D01*
X0331653Y0347200D01*
X0330950Y0346497D01*
X0330950Y0339703D01*
X0331653Y0339000D01*
X0338800Y0339000D01*
X0338800Y0332151D01*
X0338744Y0332128D01*
X0337872Y0331256D01*
X0337400Y0330117D01*
X0337400Y0328883D01*
X0337872Y0327744D01*
X0338744Y0326872D01*
X0339883Y0326400D01*
X0341117Y0326400D01*
X0342256Y0326872D01*
X0343128Y0327744D01*
X0343600Y0328883D01*
X0343600Y0330117D01*
X0343128Y0331256D01*
X0342256Y0332128D01*
X0342200Y0332151D01*
X0342200Y0339000D01*
X0345029Y0339000D01*
X0345371Y0338802D01*
X0345753Y0338700D01*
X0346500Y0338700D01*
X0346500Y0343100D01*
X0346500Y0343100D01*
X0346500Y0347500D01*
X0346500Y0347289D02*
X0346500Y0347289D01*
X0346500Y0346290D02*
X0346500Y0346290D01*
X0346500Y0345292D02*
X0346500Y0345292D01*
X0346500Y0344293D02*
X0346500Y0344293D01*
X0346500Y0343295D02*
X0346500Y0343295D01*
X0346500Y0342296D02*
X0346500Y0342296D01*
X0346500Y0341298D02*
X0346500Y0341298D01*
X0346500Y0340299D02*
X0346500Y0340299D01*
X0346500Y0339301D02*
X0346500Y0339301D01*
X0345029Y0339000D02*
X0345029Y0339000D01*
X0342200Y0338302D02*
X0352898Y0338302D01*
X0350919Y0337303D02*
X0342200Y0337303D01*
X0342200Y0336305D02*
X0350185Y0336305D01*
X0349900Y0335306D02*
X0342200Y0335306D01*
X0342200Y0334308D02*
X0349931Y0334308D01*
X0350345Y0333309D02*
X0342200Y0333309D01*
X0342200Y0332311D02*
X0351391Y0332311D01*
X0353908Y0331312D02*
X0343072Y0331312D01*
X0343518Y0330314D02*
X0353800Y0330314D01*
X0353800Y0329315D02*
X0343600Y0329315D01*
X0343365Y0328317D02*
X0353800Y0328317D01*
X0353800Y0327318D02*
X0342702Y0327318D01*
X0340500Y0329500D02*
X0340500Y0343100D01*
X0338800Y0338302D02*
X0331232Y0338302D01*
X0331300Y0337303D02*
X0338800Y0337303D01*
X0338800Y0336305D02*
X0331234Y0336305D01*
X0331000Y0335829D02*
X0331000Y0335829D01*
X0331000Y0335306D02*
X0338800Y0335306D01*
X0338800Y0334308D02*
X0331000Y0334308D01*
X0331000Y0333309D02*
X0338800Y0333309D01*
X0338800Y0332311D02*
X0331000Y0332311D01*
X0331000Y0331312D02*
X0337928Y0331312D01*
X0337482Y0330314D02*
X0331000Y0330314D01*
X0331000Y0329315D02*
X0337400Y0329315D01*
X0337635Y0328317D02*
X0331000Y0328317D01*
X0331000Y0327318D02*
X0338298Y0327318D01*
X0334920Y0323324D02*
X0331000Y0323324D01*
X0331000Y0322326D02*
X0333922Y0322326D01*
X0332923Y0321327D02*
X0331000Y0321327D01*
X0332075Y0320329D02*
X0332900Y0320329D01*
X0330500Y0319500D02*
X0332500Y0317500D01*
X0332500Y0315500D01*
X0330500Y0319500D02*
X0326800Y0319500D01*
X0326900Y0319600D01*
X0326900Y0321600D01*
X0326900Y0323500D02*
X0323500Y0323500D01*
X0322500Y0322500D01*
X0322500Y0298500D01*
X0321500Y0297500D01*
X0321500Y0290500D01*
X0319500Y0288500D01*
X0319500Y0272500D01*
X0324500Y0267500D01*
X0324500Y0239500D01*
X0319500Y0234500D01*
X0314500Y0234500D01*
X0313500Y0233500D01*
X0313500Y0223500D01*
X0314500Y0222500D01*
X0326500Y0222500D01*
X0337500Y0211500D01*
X0353500Y0211500D01*
X0357500Y0215500D01*
X0357500Y0217500D01*
X0322500Y0240500D02*
X0322500Y0266500D01*
X0313500Y0275500D01*
X0313500Y0265500D02*
X0317500Y0265500D01*
X0320500Y0262500D01*
X0313500Y0285500D02*
X0319500Y0291500D01*
X0319500Y0298500D01*
X0320500Y0299500D01*
X0320500Y0325500D01*
X0316500Y0329500D01*
X0316500Y0336500D01*
X0318500Y0338500D01*
X0320689Y0336305D02*
X0322566Y0336305D01*
X0322500Y0337303D02*
X0321360Y0337303D01*
X0321600Y0338302D02*
X0322568Y0338302D01*
X0321524Y0339301D02*
X0323618Y0339301D01*
X0321085Y0340299D02*
X0330950Y0340299D01*
X0330950Y0341298D02*
X0319847Y0341298D01*
X0317153Y0341298D02*
X0313200Y0341298D01*
X0313200Y0342296D02*
X0330950Y0342296D01*
X0330950Y0343295D02*
X0313200Y0343295D01*
X0313200Y0344293D02*
X0330950Y0344293D01*
X0330950Y0345292D02*
X0327254Y0345292D01*
X0328295Y0346290D02*
X0330950Y0346290D01*
X0328909Y0347289D02*
X0345182Y0347289D01*
X0356050Y0346290D02*
X0363249Y0346290D01*
X0363249Y0345292D02*
X0356050Y0345292D01*
X0356050Y0344293D02*
X0363249Y0344293D01*
X0365500Y0340500D02*
X0374500Y0331500D01*
X0378500Y0331500D01*
X0379941Y0332941D01*
X0379941Y0336772D01*
X0382500Y0336772D02*
X0382500Y0330500D01*
X0378846Y0326846D01*
X0380500Y0326846D01*
X0385059Y0331287D02*
X0385059Y0336772D01*
X0387618Y0336772D02*
X0387772Y0336772D01*
X0387772Y0333228D01*
X0389500Y0331500D01*
X0406500Y0331500D01*
X0416500Y0341500D01*
X0419154Y0344154D01*
X0422154Y0344154D01*
X0422154Y0347500D01*
X0425200Y0350284D02*
X0425800Y0350284D01*
X0433116Y0347289D02*
X0436412Y0347289D01*
X0437080Y0346290D02*
X0434114Y0346290D01*
X0435113Y0345292D02*
X0438156Y0345292D01*
X0436111Y0344293D02*
X0456500Y0344293D01*
X0456500Y0343295D02*
X0453110Y0343295D01*
X0454803Y0342296D02*
X0456500Y0342296D01*
X0456500Y0341298D02*
X0455468Y0341298D01*
X0455468Y0340299D02*
X0456500Y0340299D01*
X0456500Y0339301D02*
X0455468Y0339301D01*
X0455468Y0338302D02*
X0456500Y0338302D01*
X0456500Y0337303D02*
X0455402Y0337303D01*
X0454728Y0336305D02*
X0456500Y0336305D01*
X0456500Y0335306D02*
X0454728Y0335306D01*
X0454728Y0334308D02*
X0456500Y0334308D01*
X0456500Y0333309D02*
X0454789Y0333309D01*
X0455468Y0332311D02*
X0456500Y0332311D01*
X0456500Y0331312D02*
X0455468Y0331312D01*
X0455468Y0330314D02*
X0456500Y0330314D01*
X0456500Y0329315D02*
X0455468Y0329315D01*
X0455416Y0328317D02*
X0456500Y0328317D01*
X0456500Y0327318D02*
X0434200Y0327318D01*
X0434200Y0326320D02*
X0456500Y0326320D01*
X0456500Y0321327D02*
X0456400Y0321327D01*
X0456400Y0320329D02*
X0456500Y0320329D01*
X0456500Y0319330D02*
X0456319Y0319330D01*
X0456500Y0318332D02*
X0455906Y0318332D01*
X0456500Y0317333D02*
X0455263Y0317333D01*
X0454249Y0316335D02*
X0456500Y0316335D01*
X0456500Y0315336D02*
X0452629Y0315336D01*
X0454592Y0314338D02*
X0456500Y0314338D01*
X0456500Y0313339D02*
X0455590Y0313339D01*
X0456041Y0312341D02*
X0456500Y0312341D01*
X0456500Y0311342D02*
X0456400Y0311342D01*
X0456400Y0310344D02*
X0456500Y0310344D01*
X0456500Y0309345D02*
X0456325Y0309345D01*
X0456500Y0308347D02*
X0455912Y0308347D01*
X0456500Y0307348D02*
X0455278Y0307348D01*
X0454279Y0306350D02*
X0456500Y0306350D01*
X0456500Y0305351D02*
X0452593Y0305351D01*
X0452475Y0305400D02*
X0450525Y0305400D01*
X0448724Y0304654D01*
X0447346Y0303276D01*
X0446600Y0301475D01*
X0446600Y0299525D01*
X0447346Y0297724D01*
X0448724Y0296346D01*
X0450525Y0295600D01*
X0452475Y0295600D01*
X0454276Y0296346D01*
X0455654Y0297724D01*
X0456400Y0299525D01*
X0456400Y0301475D01*
X0455654Y0303276D01*
X0454276Y0304654D01*
X0452475Y0305400D01*
X0450407Y0305351D02*
X0448755Y0305351D01*
X0448423Y0304353D02*
X0447757Y0304353D01*
X0447424Y0303354D02*
X0446758Y0303354D01*
X0446965Y0302356D02*
X0445760Y0302356D01*
X0446600Y0301357D02*
X0434741Y0301357D01*
X0436046Y0300359D02*
X0446600Y0300359D01*
X0446668Y0299360D02*
X0437044Y0299360D01*
X0438043Y0298362D02*
X0447082Y0298362D01*
X0447707Y0297363D02*
X0439041Y0297363D01*
X0440040Y0296365D02*
X0448706Y0296365D01*
X0450443Y0295366D02*
X0441038Y0295366D01*
X0442037Y0294368D02*
X0448438Y0294368D01*
X0447439Y0293369D02*
X0443035Y0293369D01*
X0444034Y0292370D02*
X0446971Y0292370D01*
X0443500Y0290500D02*
X0434500Y0299500D01*
X0420500Y0299500D01*
X0416500Y0295500D01*
X0416500Y0289100D01*
X0416400Y0289000D01*
X0418300Y0289000D02*
X0418500Y0289200D01*
X0418500Y0294500D01*
X0421500Y0297500D01*
X0433500Y0297500D01*
X0441500Y0289500D01*
X0441500Y0284500D01*
X0445500Y0280500D01*
X0451500Y0280500D01*
X0446977Y0282385D02*
X0446019Y0282385D01*
X0445020Y0283384D02*
X0447454Y0283384D01*
X0448453Y0284382D02*
X0444022Y0284382D01*
X0443200Y0285381D02*
X0450479Y0285381D01*
X0452521Y0285381D02*
X0456500Y0285381D01*
X0456500Y0286379D02*
X0454309Y0286379D01*
X0455308Y0287378D02*
X0456500Y0287378D01*
X0456500Y0288376D02*
X0455924Y0288376D01*
X0456338Y0289375D02*
X0456500Y0289375D01*
X0456500Y0290373D02*
X0456400Y0290373D01*
X0456400Y0291372D02*
X0456500Y0291372D01*
X0456500Y0292370D02*
X0456029Y0292370D01*
X0455561Y0293369D02*
X0456500Y0293369D01*
X0456500Y0294368D02*
X0454562Y0294368D01*
X0454294Y0296365D02*
X0456500Y0296365D01*
X0456500Y0297363D02*
X0455293Y0297363D01*
X0455918Y0298362D02*
X0456500Y0298362D01*
X0456500Y0299360D02*
X0456332Y0299360D01*
X0456400Y0300359D02*
X0456500Y0300359D01*
X0456500Y0301357D02*
X0456400Y0301357D01*
X0456500Y0302356D02*
X0456035Y0302356D01*
X0455576Y0303354D02*
X0456500Y0303354D01*
X0456500Y0304353D02*
X0454577Y0304353D01*
X0451500Y0310500D02*
X0444500Y0303500D01*
X0432500Y0303500D01*
X0433721Y0306350D02*
X0444945Y0306350D01*
X0443947Y0305351D02*
X0435033Y0305351D01*
X0432732Y0307348D02*
X0445944Y0307348D01*
X0446943Y0308347D02*
X0441751Y0308347D01*
X0442749Y0309345D02*
X0446675Y0309345D01*
X0446600Y0310344D02*
X0443748Y0310344D01*
X0444746Y0311342D02*
X0446600Y0311342D01*
X0446959Y0312341D02*
X0445745Y0312341D01*
X0446743Y0313339D02*
X0447410Y0313339D01*
X0447742Y0314338D02*
X0448408Y0314338D01*
X0448740Y0315336D02*
X0450371Y0315336D01*
X0446928Y0318332D02*
X0420072Y0318332D01*
X0419500Y0316500D02*
X0422500Y0316500D01*
X0424500Y0314500D01*
X0424500Y0305500D01*
X0425500Y0304500D01*
X0425500Y0303500D01*
X0426721Y0306350D02*
X0431279Y0306350D01*
X0429967Y0305351D02*
X0428033Y0305351D01*
X0428502Y0304353D02*
X0429498Y0304353D01*
X0429400Y0303354D02*
X0428600Y0303354D01*
X0428381Y0302356D02*
X0429619Y0302356D01*
X0430259Y0301357D02*
X0427741Y0301357D01*
X0428500Y0295500D02*
X0422500Y0295500D01*
X0420500Y0293500D01*
X0420500Y0289200D01*
X0420300Y0289000D01*
X0422300Y0289000D02*
X0422300Y0292300D01*
X0423500Y0293500D01*
X0425500Y0293500D01*
X0448500Y0270500D01*
X0451500Y0270500D01*
X0456017Y0272400D02*
X0456500Y0272400D01*
X0456500Y0271402D02*
X0456400Y0271402D01*
X0456400Y0270403D02*
X0456500Y0270403D01*
X0456500Y0269405D02*
X0456350Y0269405D01*
X0456500Y0268406D02*
X0455936Y0268406D01*
X0456500Y0267408D02*
X0455337Y0267408D01*
X0454339Y0266409D02*
X0456500Y0266409D01*
X0456500Y0265411D02*
X0448993Y0265411D01*
X0448661Y0266409D02*
X0447995Y0266409D01*
X0447663Y0267408D02*
X0446996Y0267408D01*
X0447064Y0268406D02*
X0445998Y0268406D01*
X0446650Y0269405D02*
X0444999Y0269405D01*
X0444001Y0270403D02*
X0446193Y0270403D01*
X0445194Y0271402D02*
X0443002Y0271402D01*
X0442004Y0272400D02*
X0444196Y0272400D01*
X0443197Y0273399D02*
X0441005Y0273399D01*
X0440007Y0274397D02*
X0442199Y0274397D01*
X0441200Y0275396D02*
X0439008Y0275396D01*
X0438010Y0276394D02*
X0440202Y0276394D01*
X0439203Y0277393D02*
X0437011Y0277393D01*
X0436013Y0278391D02*
X0438205Y0278391D01*
X0437206Y0279390D02*
X0434400Y0279390D01*
X0434309Y0280388D02*
X0436207Y0280388D01*
X0435209Y0281387D02*
X0434100Y0281387D01*
X0434062Y0282385D02*
X0434210Y0282385D01*
X0433212Y0283384D02*
X0428020Y0283384D01*
X0427022Y0284382D02*
X0432213Y0284382D01*
X0431215Y0285381D02*
X0425003Y0285381D01*
X0424050Y0286379D02*
X0430216Y0286379D01*
X0429218Y0287378D02*
X0424050Y0287378D01*
X0424050Y0288376D02*
X0428219Y0288376D01*
X0427221Y0289375D02*
X0424050Y0289375D01*
X0424050Y0290373D02*
X0426222Y0290373D01*
X0425224Y0291372D02*
X0424050Y0291372D01*
X0428500Y0295500D02*
X0434500Y0289500D01*
X0435500Y0289500D01*
X0438390Y0288376D02*
X0439800Y0288376D01*
X0439800Y0287378D02*
X0437762Y0287378D01*
X0438600Y0289375D02*
X0439221Y0289375D01*
X0439800Y0286379D02*
X0435025Y0286379D01*
X0436023Y0285381D02*
X0439800Y0285381D01*
X0439800Y0284382D02*
X0437022Y0284382D01*
X0438020Y0283384D02*
X0440212Y0283384D01*
X0441210Y0282385D02*
X0439019Y0282385D01*
X0440017Y0281387D02*
X0442209Y0281387D01*
X0443207Y0280388D02*
X0441016Y0280388D01*
X0442014Y0279390D02*
X0444206Y0279390D01*
X0443013Y0278391D02*
X0447070Y0278391D01*
X0447678Y0277393D02*
X0444011Y0277393D01*
X0445010Y0276394D02*
X0448676Y0276394D01*
X0448468Y0274397D02*
X0447007Y0274397D01*
X0446008Y0275396D02*
X0450515Y0275396D01*
X0452485Y0275396D02*
X0456500Y0275396D01*
X0456500Y0276394D02*
X0454324Y0276394D01*
X0455322Y0277393D02*
X0456500Y0277393D01*
X0456500Y0278391D02*
X0455930Y0278391D01*
X0456344Y0279390D02*
X0456500Y0279390D01*
X0456500Y0280388D02*
X0456400Y0280388D01*
X0456400Y0281387D02*
X0456500Y0281387D01*
X0456500Y0282385D02*
X0456023Y0282385D01*
X0455546Y0283384D02*
X0456500Y0283384D01*
X0456500Y0284382D02*
X0454547Y0284382D01*
X0448691Y0286379D02*
X0443200Y0286379D01*
X0443200Y0287378D02*
X0447692Y0287378D01*
X0447076Y0288376D02*
X0443200Y0288376D01*
X0443500Y0290500D02*
X0451500Y0290500D01*
X0452557Y0295366D02*
X0456500Y0295366D01*
X0440500Y0309500D02*
X0430500Y0309500D01*
X0427622Y0308347D02*
X0426200Y0308347D01*
X0426200Y0309345D02*
X0427400Y0309345D01*
X0427494Y0310344D02*
X0426200Y0310344D01*
X0426200Y0311342D02*
X0427958Y0311342D01*
X0429257Y0312341D02*
X0426200Y0312341D01*
X0426200Y0307348D02*
X0428268Y0307348D01*
X0418500Y0305154D02*
X0414500Y0301154D01*
X0414500Y0298500D01*
X0408500Y0296500D02*
X0408500Y0305154D01*
X0408500Y0311846D02*
X0408500Y0315500D01*
X0406800Y0317200D01*
X0406800Y0321800D01*
X0410200Y0321800D02*
X0412500Y0321800D01*
X0413500Y0322800D01*
X0414200Y0321800D02*
X0419500Y0316500D01*
X0418500Y0312500D02*
X0418500Y0311846D01*
X0418500Y0312500D02*
X0412500Y0318500D01*
X0412500Y0321800D02*
X0414200Y0321800D01*
X0410200Y0325200D02*
X0410200Y0326800D01*
X0409500Y0327500D01*
X0401500Y0327500D01*
X0398500Y0324500D01*
X0398500Y0311846D01*
X0398500Y0305154D02*
X0397846Y0304500D01*
X0393500Y0304500D01*
X0390500Y0301500D01*
X0390500Y0294500D01*
X0392700Y0292300D01*
X0392700Y0289000D01*
X0394700Y0289000D02*
X0394700Y0295300D01*
X0394500Y0296500D01*
X0396700Y0293700D02*
X0400500Y0297500D01*
X0399500Y0293500D02*
X0405500Y0293500D01*
X0408500Y0296500D01*
X0404500Y0289000D02*
X0404500Y0284500D01*
X0399500Y0279500D01*
X0399500Y0269500D01*
X0395800Y0271402D02*
X0394482Y0271402D01*
X0394600Y0270403D02*
X0394999Y0270403D01*
X0395800Y0272400D02*
X0393984Y0272400D01*
X0389400Y0275400D02*
X0385000Y0275400D01*
X0389400Y0275400D01*
X0389500Y0277500D02*
X0393500Y0281500D01*
X0389500Y0285500D01*
X0389500Y0292500D01*
X0388500Y0293500D01*
X0388500Y0302500D01*
X0392500Y0306500D01*
X0392500Y0315500D01*
X0387500Y0313500D02*
X0389500Y0320154D01*
X0389500Y0326846D02*
X0385059Y0331287D01*
X0390095Y0333309D02*
X0405905Y0333309D01*
X0406800Y0325200D02*
X0402200Y0325200D01*
X0401500Y0324500D01*
X0401500Y0319500D01*
X0402500Y0318500D01*
X0390800Y0309345D02*
X0382749Y0309345D01*
X0381751Y0308347D02*
X0390800Y0308347D01*
X0390800Y0307348D02*
X0380752Y0307348D01*
X0379754Y0306350D02*
X0389945Y0306350D01*
X0388947Y0305351D02*
X0379200Y0305351D01*
X0379200Y0304353D02*
X0387948Y0304353D01*
X0386950Y0303354D02*
X0379200Y0303354D01*
X0379200Y0302356D02*
X0386800Y0302356D01*
X0386800Y0301357D02*
X0379200Y0301357D01*
X0379200Y0300359D02*
X0386800Y0300359D01*
X0386800Y0299360D02*
X0379200Y0299360D01*
X0379200Y0298362D02*
X0386800Y0298362D01*
X0386800Y0297363D02*
X0379200Y0297363D01*
X0379200Y0296365D02*
X0386800Y0296365D01*
X0386800Y0295366D02*
X0379200Y0295366D01*
X0379200Y0294368D02*
X0386800Y0294368D01*
X0386800Y0293369D02*
X0379200Y0293369D01*
X0379200Y0292370D02*
X0387225Y0292370D01*
X0387800Y0291372D02*
X0379200Y0291372D01*
X0379200Y0290373D02*
X0387800Y0290373D01*
X0387800Y0289375D02*
X0379200Y0289375D01*
X0379200Y0288376D02*
X0387800Y0288376D01*
X0387800Y0287378D02*
X0379200Y0287378D01*
X0379200Y0286379D02*
X0387800Y0286379D01*
X0387800Y0285381D02*
X0379200Y0285381D01*
X0379200Y0284382D02*
X0388213Y0284382D01*
X0389212Y0283384D02*
X0379200Y0283384D01*
X0379200Y0282385D02*
X0380938Y0282385D01*
X0380900Y0281387D02*
X0379200Y0281387D01*
X0379500Y0281500D02*
X0379500Y0276500D01*
X0380600Y0275400D01*
X0385000Y0275400D01*
X0385000Y0275400D01*
X0385000Y0275400D01*
X0380600Y0275400D01*
X0380600Y0275100D01*
X0374504Y0275100D01*
X0374800Y0275396D02*
X0380600Y0275396D01*
X0380666Y0276394D02*
X0375798Y0276394D01*
X0376797Y0277393D02*
X0380900Y0277393D01*
X0380900Y0276871D02*
X0380900Y0276871D01*
X0380900Y0278391D02*
X0377795Y0278391D01*
X0378794Y0279390D02*
X0380900Y0279390D01*
X0380900Y0280388D02*
X0379200Y0280388D01*
X0379500Y0281500D02*
X0381500Y0283500D01*
X0381500Y0284500D01*
X0389062Y0282385D02*
X0390210Y0282385D01*
X0390400Y0281387D02*
X0389100Y0281387D01*
X0389100Y0280388D02*
X0389984Y0280388D01*
X0389500Y0277500D02*
X0387500Y0277500D01*
X0387300Y0277300D01*
X0385000Y0277300D01*
X0384900Y0271500D02*
X0385000Y0271400D01*
X0385000Y0267500D02*
X0380500Y0267500D01*
X0374500Y0261500D01*
X0397500Y0280500D02*
X0402500Y0285500D01*
X0402500Y0288900D01*
X0402600Y0289000D01*
X0398600Y0289000D02*
X0398600Y0292600D01*
X0399500Y0293500D01*
X0396700Y0293700D02*
X0396700Y0289000D01*
X0405500Y0282500D02*
X0401500Y0278500D01*
X0405500Y0282500D02*
X0412500Y0282500D01*
X0413500Y0283500D01*
X0416794Y0279390D02*
X0425600Y0279390D01*
X0425643Y0278391D02*
X0419620Y0278391D01*
X0420991Y0277393D02*
X0425900Y0277393D01*
X0425691Y0280388D02*
X0417793Y0280388D01*
X0418791Y0281387D02*
X0420229Y0281387D01*
X0417380Y0278391D02*
X0415795Y0278391D01*
X0418500Y0275500D02*
X0421400Y0275400D01*
X0430000Y0275400D01*
X0430000Y0277300D02*
X0434700Y0277300D01*
X0451500Y0260500D01*
X0456010Y0262415D02*
X0456500Y0262415D01*
X0456500Y0261417D02*
X0456400Y0261417D01*
X0456400Y0260418D02*
X0456500Y0260418D01*
X0456500Y0259420D02*
X0456356Y0259420D01*
X0456500Y0258421D02*
X0455943Y0258421D01*
X0456500Y0257423D02*
X0455352Y0257423D01*
X0454354Y0256424D02*
X0456500Y0256424D01*
X0456500Y0255426D02*
X0448979Y0255426D01*
X0448646Y0256424D02*
X0447980Y0256424D01*
X0447648Y0257423D02*
X0446982Y0257423D01*
X0447057Y0258421D02*
X0445983Y0258421D01*
X0446644Y0259420D02*
X0444985Y0259420D01*
X0443986Y0260418D02*
X0446600Y0260418D01*
X0446600Y0261417D02*
X0442987Y0261417D01*
X0441989Y0262415D02*
X0446990Y0262415D01*
X0446182Y0263414D02*
X0441798Y0263414D01*
X0442405Y0264412D02*
X0445184Y0264412D01*
X0444185Y0265411D02*
X0442600Y0265411D01*
X0442479Y0266409D02*
X0443187Y0266409D01*
X0442188Y0267408D02*
X0441976Y0267408D01*
X0441190Y0268406D02*
X0440584Y0268406D01*
X0440191Y0269405D02*
X0434100Y0269405D01*
X0434100Y0270403D02*
X0439193Y0270403D01*
X0438194Y0271402D02*
X0434100Y0271402D01*
X0434100Y0272400D02*
X0437196Y0272400D01*
X0436197Y0273399D02*
X0434100Y0273399D01*
X0434100Y0274397D02*
X0435199Y0274397D01*
X0434200Y0275396D02*
X0434100Y0275396D01*
X0430000Y0273400D02*
X0425400Y0273400D01*
X0420500Y0270500D01*
X0423500Y0268500D02*
X0423500Y0265500D01*
X0423500Y0268500D02*
X0426400Y0271400D01*
X0430000Y0271400D01*
X0434100Y0268406D02*
X0438416Y0268406D01*
X0437024Y0267408D02*
X0434100Y0267408D01*
X0435500Y0263500D02*
X0437500Y0261500D01*
X0440500Y0261500D01*
X0451500Y0250500D01*
X0456004Y0252430D02*
X0456500Y0252430D01*
X0456500Y0251432D02*
X0456400Y0251432D01*
X0456400Y0250433D02*
X0456500Y0250433D01*
X0456500Y0249434D02*
X0456362Y0249434D01*
X0456500Y0248436D02*
X0455949Y0248436D01*
X0456500Y0247437D02*
X0455367Y0247437D01*
X0454369Y0246439D02*
X0456500Y0246439D01*
X0456500Y0253429D02*
X0455501Y0253429D01*
X0454503Y0254427D02*
X0456500Y0254427D01*
X0456500Y0263414D02*
X0455516Y0263414D01*
X0456500Y0264412D02*
X0454517Y0264412D01*
X0439500Y0265500D02*
X0430000Y0265500D01*
X0430000Y0263500D02*
X0435500Y0263500D01*
X0435167Y0253429D02*
X0434100Y0253429D01*
X0435974Y0252430D02*
X0436166Y0252430D01*
X0436973Y0251432D02*
X0437164Y0251432D01*
X0437200Y0250433D02*
X0437800Y0250433D01*
X0437800Y0249434D02*
X0437200Y0249434D01*
X0437200Y0248436D02*
X0437800Y0248436D01*
X0437800Y0247437D02*
X0437200Y0247437D01*
X0437200Y0246439D02*
X0437800Y0246439D01*
X0437800Y0245440D02*
X0437200Y0245440D01*
X0437200Y0244442D02*
X0437800Y0244442D01*
X0437800Y0243443D02*
X0437200Y0243443D01*
X0437200Y0242445D02*
X0437800Y0242445D01*
X0437800Y0241446D02*
X0437200Y0241446D01*
X0437200Y0240448D02*
X0437800Y0240448D01*
X0438146Y0239449D02*
X0437200Y0239449D01*
X0437200Y0238451D02*
X0439145Y0238451D01*
X0440143Y0237452D02*
X0437200Y0237452D01*
X0439724Y0236454D02*
X0440800Y0236454D01*
X0440800Y0235455D02*
X0439724Y0235455D01*
X0439724Y0234457D02*
X0440800Y0234457D01*
X0440800Y0233458D02*
X0439724Y0233458D01*
X0439724Y0232460D02*
X0440800Y0232460D01*
X0440800Y0231461D02*
X0439724Y0231461D01*
X0444200Y0236454D02*
X0448616Y0236454D01*
X0447618Y0237452D02*
X0444200Y0237452D01*
X0443953Y0238451D02*
X0447045Y0238451D01*
X0446631Y0239449D02*
X0442955Y0239449D01*
X0443204Y0239200D02*
X0443204Y0239200D01*
X0441956Y0240448D02*
X0446600Y0240448D01*
X0446600Y0241446D02*
X0441200Y0241446D01*
X0441200Y0242445D02*
X0447002Y0242445D01*
X0447514Y0243443D02*
X0441200Y0243443D01*
X0455531Y0273399D02*
X0456500Y0273399D01*
X0456500Y0274397D02*
X0454532Y0274397D01*
X0425209Y0281387D02*
X0424771Y0281387D01*
X0428500Y0320972D02*
X0430972Y0320972D01*
X0430800Y0323324D02*
X0430719Y0323324D01*
X0411242Y0344293D02*
X0401751Y0344293D01*
X0397008Y0347500D02*
X0407941Y0347500D01*
X0410003Y0350284D02*
X0410572Y0350284D01*
X0412870Y0346290D02*
X0413248Y0346290D01*
X0413248Y0345292D02*
X0412870Y0345292D01*
X0397008Y0347500D02*
X0382500Y0347500D01*
X0367992Y0347500D01*
X0372735Y0349286D02*
X0376379Y0349286D01*
X0376379Y0350284D02*
X0372735Y0350284D01*
X0372403Y0351283D02*
X0376712Y0351283D01*
X0376379Y0345292D02*
X0372735Y0345292D01*
X0372735Y0344293D02*
X0376379Y0344293D01*
X0376069Y0341298D02*
X0388931Y0341298D01*
X0388621Y0344293D02*
X0392265Y0344293D01*
X0392265Y0345292D02*
X0388621Y0345292D01*
X0388621Y0349286D02*
X0392265Y0349286D01*
X0392265Y0350284D02*
X0388621Y0350284D01*
X0388288Y0351283D02*
X0392597Y0351283D01*
X0377382Y0340299D02*
X0377382Y0340299D01*
X0377382Y0336772D02*
X0377382Y0333200D01*
X0377382Y0333200D01*
X0377382Y0336772D01*
X0377382Y0336772D01*
X0377382Y0336305D02*
X0377382Y0336305D01*
X0377382Y0335306D02*
X0377382Y0335306D01*
X0377382Y0334308D02*
X0377382Y0334308D01*
X0377382Y0333309D02*
X0377382Y0333309D01*
X0375213Y0333309D02*
X0375095Y0333309D01*
X0375094Y0334308D02*
X0374096Y0334308D01*
X0373098Y0335306D02*
X0375094Y0335306D01*
X0374151Y0336305D02*
X0372099Y0336305D01*
X0372774Y0337303D02*
X0371101Y0337303D01*
X0370102Y0338302D02*
X0372348Y0338302D01*
X0372346Y0339301D02*
X0369104Y0339301D01*
X0368105Y0340299D02*
X0372731Y0340299D01*
X0373971Y0341298D02*
X0367107Y0341298D01*
X0365500Y0340500D02*
X0357500Y0340500D01*
X0353000Y0336000D01*
X0353000Y0335000D01*
X0354609Y0332311D02*
X0354907Y0332311D01*
X0355655Y0333309D02*
X0356000Y0333309D01*
X0356400Y0331400D02*
X0355500Y0330500D01*
X0355500Y0314500D01*
X0353800Y0324323D02*
X0331000Y0324323D01*
X0331000Y0325321D02*
X0353800Y0325321D01*
X0353800Y0326320D02*
X0331000Y0326320D01*
X0322800Y0326320D02*
X0322084Y0326320D01*
X0322200Y0325321D02*
X0322800Y0325321D01*
X0322800Y0327318D02*
X0321086Y0327318D01*
X0320087Y0328317D02*
X0322800Y0328317D01*
X0322800Y0329315D02*
X0319089Y0329315D01*
X0318200Y0330314D02*
X0322800Y0330314D01*
X0322800Y0331312D02*
X0318200Y0331312D01*
X0318200Y0332311D02*
X0322800Y0332311D01*
X0322800Y0333309D02*
X0318200Y0333309D01*
X0318200Y0334308D02*
X0322800Y0334308D01*
X0322800Y0335306D02*
X0318200Y0335306D01*
X0314800Y0335306D02*
X0313200Y0335306D01*
X0313200Y0334308D02*
X0314800Y0334308D01*
X0314800Y0333309D02*
X0313818Y0333309D01*
X0311500Y0331500D02*
X0311500Y0347200D01*
X0312800Y0348500D01*
X0312800Y0349500D01*
X0317365Y0351283D02*
X0319312Y0351283D01*
X0319059Y0350284D02*
X0317700Y0350284D01*
X0317700Y0349286D02*
X0323700Y0349286D01*
X0323700Y0349000D02*
X0319014Y0349000D01*
X0319128Y0348282D01*
X0319381Y0347504D01*
X0319753Y0346775D01*
X0320234Y0346112D01*
X0320812Y0345534D01*
X0321475Y0345053D01*
X0322204Y0344681D01*
X0322982Y0344428D01*
X0323700Y0344314D01*
X0323700Y0349000D01*
X0323700Y0348287D02*
X0324700Y0348287D01*
X0324700Y0347289D02*
X0323700Y0347289D01*
X0323700Y0346290D02*
X0324700Y0346290D01*
X0324700Y0345292D02*
X0323700Y0345292D01*
X0321146Y0345292D02*
X0315444Y0345292D01*
X0316520Y0346290D02*
X0320105Y0346290D01*
X0319491Y0347289D02*
X0317188Y0347289D01*
X0317601Y0348287D02*
X0319127Y0348287D01*
X0319793Y0352281D02*
X0316948Y0352281D01*
X0315950Y0353280D02*
X0320626Y0353280D01*
X0322124Y0354278D02*
X0314069Y0354278D01*
X0311531Y0354278D02*
X0308500Y0354278D01*
X0308500Y0353280D02*
X0309650Y0353280D01*
X0308652Y0352281D02*
X0308500Y0352281D01*
X0313200Y0340299D02*
X0315915Y0340299D01*
X0315476Y0339301D02*
X0313200Y0339301D01*
X0313200Y0338302D02*
X0315400Y0338302D01*
X0314899Y0337303D02*
X0313200Y0337303D01*
X0313200Y0336305D02*
X0314800Y0336305D01*
X0311500Y0331500D02*
X0312500Y0330500D01*
X0312500Y0324500D02*
X0314500Y0324500D01*
X0318500Y0320500D01*
X0318500Y0300500D01*
X0313500Y0295500D01*
X0335000Y0297500D02*
X0335000Y0301000D01*
X0337500Y0303500D01*
X0342500Y0303500D02*
X0344500Y0301500D01*
X0344500Y0292500D01*
X0348500Y0288500D01*
X0360100Y0329500D02*
X0372500Y0329500D01*
X0360100Y0331400D02*
X0356400Y0331400D01*
X0331352Y0339301D02*
X0330182Y0339301D01*
X0326900Y0339301D02*
X0326900Y0339301D01*
X0326900Y0338302D02*
X0326900Y0338302D01*
X0326900Y0337303D02*
X0326900Y0337303D01*
X0329088Y0351283D02*
X0363582Y0351283D01*
X0328607Y0352281D02*
X0436652Y0352281D01*
X0437650Y0353280D02*
X0327774Y0353280D01*
X0326276Y0354278D02*
X0439531Y0354278D01*
X0442069Y0354278D02*
X0450931Y0354278D01*
X0449050Y0353280D02*
X0443950Y0353280D01*
X0444948Y0352281D02*
X0448052Y0352281D01*
X0447635Y0351283D02*
X0445365Y0351283D01*
X0445700Y0350284D02*
X0447300Y0350284D01*
X0447300Y0349286D02*
X0445700Y0349286D01*
X0445601Y0348287D02*
X0447399Y0348287D01*
X0447812Y0347289D02*
X0445188Y0347289D01*
X0444520Y0346290D02*
X0448480Y0346290D01*
X0449556Y0345292D02*
X0443444Y0345292D01*
X0454844Y0345292D02*
X0456500Y0345292D01*
X0456500Y0346290D02*
X0455920Y0346290D01*
X0456348Y0352281D02*
X0456500Y0352281D01*
X0456500Y0353280D02*
X0455350Y0353280D01*
X0456500Y0354278D02*
X0453469Y0354278D01*
X0436327Y0209494D02*
X0436200Y0209494D01*
X0436200Y0208496D02*
X0436875Y0208496D01*
X0435901Y0207497D02*
X0437873Y0207497D01*
D27*
X0430500Y0211500D03*
X0402500Y0229500D03*
X0383500Y0242500D03*
X0395500Y0249500D03*
X0400500Y0249500D03*
X0404500Y0262500D03*
X0407500Y0269500D03*
X0412500Y0266500D03*
X0420500Y0270500D03*
X0418500Y0275500D03*
X0423500Y0278500D03*
X0422500Y0283500D03*
X0413500Y0283500D03*
X0407500Y0275500D03*
X0423500Y0265500D03*
X0422500Y0252500D03*
X0438500Y0257500D03*
X0439500Y0265500D03*
X0435500Y0289500D03*
X0432500Y0303500D03*
X0430500Y0309500D03*
X0425500Y0303500D03*
X0414500Y0298500D03*
X0400500Y0297500D03*
X0394500Y0296500D03*
X0393500Y0281500D03*
X0393500Y0275500D03*
X0391500Y0270500D03*
X0390500Y0265500D03*
X0374500Y0261500D03*
X0362500Y0270500D03*
X0355500Y0263500D03*
X0371500Y0249500D03*
X0367500Y0226500D03*
X0369500Y0221500D03*
X0357500Y0217500D03*
X0336500Y0253500D03*
X0370500Y0281500D03*
X0381500Y0284500D03*
X0361500Y0298500D03*
X0355500Y0299500D03*
X0362500Y0306500D03*
X0363500Y0311500D03*
X0367500Y0304500D03*
X0378500Y0313500D03*
X0387500Y0313500D03*
X0402500Y0318500D03*
X0412500Y0318500D03*
X0404500Y0336500D03*
X0416500Y0341500D03*
X0431500Y0341500D03*
X0440461Y0334012D03*
X0371500Y0320500D03*
X0370500Y0325500D03*
X0353000Y0335000D03*
X0340500Y0329500D03*
X0347500Y0319500D03*
X0339500Y0316500D03*
X0337500Y0303500D03*
X0312500Y0324500D03*
X0312500Y0330500D03*
X0318500Y0338500D03*
M02*
