G75*
%MOIN*%
%OFA0B0*%
%FSLAX25Y25*%
%IPPOS*%
%LPD*%
%AMOC8*
5,1,8,0,0,1.08239X$1,22.5*
%
%ADD10R,0.02756X0.03543*%
%ADD11C,0.07400*%
%ADD12R,0.07400X0.07400*%
%ADD13R,0.04331X0.03937*%
%ADD14R,0.03937X0.04331*%
%ADD15C,0.03600*%
%ADD16C,0.01000*%
D10*
X0431941Y0314500D03*
X0437059Y0314500D03*
D11*
X0312800Y0211500D03*
X0324200Y0211500D03*
X0313500Y0255500D03*
X0313500Y0265500D03*
X0313500Y0275500D03*
X0313500Y0285500D03*
X0313500Y0295500D03*
X0313500Y0305500D03*
X0313500Y0315500D03*
X0312800Y0349500D03*
X0324200Y0349500D03*
X0440800Y0349500D03*
X0452200Y0349500D03*
X0451500Y0320500D03*
X0451500Y0310500D03*
X0451500Y0300500D03*
X0451500Y0290500D03*
X0451500Y0280500D03*
X0451500Y0270500D03*
X0451500Y0260500D03*
X0451500Y0250500D03*
X0451500Y0240500D03*
X0452200Y0211500D03*
X0440800Y0211500D03*
D12*
X0313500Y0245500D03*
D13*
X0415154Y0333500D03*
X0421846Y0333500D03*
D14*
X0437500Y0327846D03*
X0437500Y0321154D03*
X0361500Y0285846D03*
X0361500Y0279154D03*
X0344500Y0284154D03*
X0344500Y0290846D03*
X0328500Y0285846D03*
X0328500Y0279154D03*
X0330500Y0270846D03*
X0330500Y0264154D03*
X0344500Y0264154D03*
X0344500Y0270846D03*
X0347500Y0242846D03*
X0347500Y0236154D03*
X0333500Y0236154D03*
X0333500Y0242846D03*
X0361500Y0242846D03*
X0361500Y0236154D03*
D15*
X0367500Y0226500D03*
X0369500Y0221500D03*
X0357500Y0217500D03*
X0383500Y0242500D03*
X0395500Y0249500D03*
X0400500Y0249500D03*
X0404500Y0262500D03*
X0407500Y0269500D03*
X0412500Y0266500D03*
X0420500Y0270500D03*
X0418500Y0275500D03*
X0423500Y0278500D03*
X0422500Y0283500D03*
X0413500Y0283500D03*
X0407500Y0275500D03*
X0423500Y0265500D03*
X0422500Y0252500D03*
X0438500Y0257500D03*
X0439500Y0265500D03*
X0435500Y0289500D03*
X0432500Y0303500D03*
X0430500Y0309500D03*
X0425500Y0303500D03*
X0414500Y0298500D03*
X0400500Y0297500D03*
X0394500Y0296500D03*
X0393500Y0281500D03*
X0393500Y0275500D03*
X0391500Y0270500D03*
X0390500Y0265500D03*
X0374500Y0261500D03*
X0362500Y0270500D03*
X0355500Y0263500D03*
X0371500Y0249500D03*
X0336500Y0253500D03*
X0370500Y0281500D03*
X0381500Y0284500D03*
X0361500Y0298500D03*
X0355500Y0299500D03*
X0362500Y0306500D03*
X0363500Y0311500D03*
X0367500Y0304500D03*
X0378500Y0313500D03*
X0387500Y0313500D03*
X0402500Y0318500D03*
X0412500Y0318500D03*
X0404500Y0336500D03*
X0416500Y0341500D03*
X0431500Y0341500D03*
X0440461Y0334012D03*
X0371500Y0320500D03*
X0370500Y0325500D03*
X0353000Y0335000D03*
X0340500Y0329500D03*
X0347500Y0319500D03*
X0339500Y0316500D03*
X0337500Y0303500D03*
X0312500Y0324500D03*
X0312500Y0330500D03*
X0318500Y0338500D03*
X0402500Y0229500D03*
X0430500Y0211500D03*
D16*
X0430500Y0244500D01*
X0440500Y0254500D01*
X0440500Y0256500D01*
X0439500Y0257500D01*
X0438500Y0257500D01*
X0435400Y0257423D02*
X0431200Y0257423D01*
X0431200Y0258421D02*
X0435526Y0258421D01*
X0435400Y0258117D02*
X0435400Y0256883D01*
X0435872Y0255744D01*
X0436744Y0254872D01*
X0437883Y0254400D01*
X0437996Y0254400D01*
X0429796Y0246200D01*
X0429796Y0246200D01*
X0428800Y0245204D01*
X0428800Y0214151D01*
X0428744Y0214128D01*
X0427872Y0213256D01*
X0427400Y0212117D01*
X0427400Y0210883D01*
X0427872Y0209744D01*
X0428744Y0208872D01*
X0429883Y0208400D01*
X0431117Y0208400D01*
X0432256Y0208872D01*
X0433128Y0209744D01*
X0433600Y0210883D01*
X0433600Y0212117D01*
X0433128Y0213256D01*
X0432256Y0214128D01*
X0432200Y0214151D01*
X0432200Y0243796D01*
X0441204Y0252800D01*
X0442200Y0253796D01*
X0442200Y0257204D01*
X0441600Y0257804D01*
X0441600Y0258117D01*
X0441128Y0259256D01*
X0440256Y0260128D01*
X0439117Y0260600D01*
X0437883Y0260600D01*
X0436744Y0260128D01*
X0435872Y0259256D01*
X0435400Y0258117D01*
X0436036Y0259420D02*
X0431200Y0259420D01*
X0431200Y0260418D02*
X0437444Y0260418D01*
X0439556Y0260418D02*
X0442800Y0260418D01*
X0442800Y0259420D02*
X0440964Y0259420D01*
X0441474Y0258421D02*
X0442800Y0258421D01*
X0442800Y0257423D02*
X0441982Y0257423D01*
X0442200Y0256424D02*
X0442800Y0256424D01*
X0442800Y0255426D02*
X0442200Y0255426D01*
X0442200Y0254427D02*
X0442800Y0254427D01*
X0442800Y0253429D02*
X0441833Y0253429D01*
X0442800Y0252430D02*
X0440834Y0252430D01*
X0439836Y0251432D02*
X0442800Y0251432D01*
X0442800Y0250433D02*
X0438837Y0250433D01*
X0437839Y0249434D02*
X0442800Y0249434D01*
X0442800Y0248436D02*
X0436840Y0248436D01*
X0435842Y0247437D02*
X0442800Y0247437D01*
X0442800Y0246796D02*
X0447046Y0242550D01*
X0446600Y0241475D01*
X0446600Y0239525D01*
X0447346Y0237724D01*
X0448724Y0236346D01*
X0450525Y0235600D01*
X0452475Y0235600D01*
X0454276Y0236346D01*
X0455654Y0237724D01*
X0456400Y0239525D01*
X0456400Y0241475D01*
X0455654Y0243276D01*
X0454276Y0244654D01*
X0452475Y0245400D01*
X0450525Y0245400D01*
X0449450Y0244954D01*
X0446200Y0248204D01*
X0446200Y0263204D01*
X0445204Y0264200D01*
X0442204Y0267200D01*
X0442151Y0267200D01*
X0442128Y0267256D01*
X0441256Y0268128D01*
X0440117Y0268600D01*
X0438883Y0268600D01*
X0437744Y0268128D01*
X0436872Y0267256D01*
X0436400Y0266117D01*
X0436400Y0264883D01*
X0436872Y0263744D01*
X0437744Y0262872D01*
X0438883Y0262400D01*
X0440117Y0262400D01*
X0441256Y0262872D01*
X0441490Y0263106D01*
X0442800Y0261796D01*
X0442800Y0246796D01*
X0443157Y0246439D02*
X0434843Y0246439D01*
X0433845Y0245440D02*
X0444155Y0245440D01*
X0445154Y0244442D02*
X0432846Y0244442D01*
X0432200Y0243443D02*
X0446152Y0243443D01*
X0447002Y0242445D02*
X0432200Y0242445D01*
X0432200Y0241446D02*
X0446600Y0241446D01*
X0446600Y0240448D02*
X0432200Y0240448D01*
X0432200Y0239449D02*
X0446631Y0239449D01*
X0447045Y0238451D02*
X0432200Y0238451D01*
X0432200Y0237452D02*
X0447618Y0237452D01*
X0448616Y0236454D02*
X0432200Y0236454D01*
X0432200Y0235455D02*
X0456500Y0235455D01*
X0456500Y0234457D02*
X0432200Y0234457D01*
X0432200Y0233458D02*
X0456500Y0233458D01*
X0456500Y0232460D02*
X0432200Y0232460D01*
X0432200Y0231461D02*
X0456500Y0231461D01*
X0456500Y0230463D02*
X0432200Y0230463D01*
X0432200Y0229464D02*
X0456500Y0229464D01*
X0456500Y0228466D02*
X0432200Y0228466D01*
X0432200Y0227467D02*
X0456500Y0227467D01*
X0456500Y0226469D02*
X0432200Y0226469D01*
X0432200Y0225470D02*
X0456500Y0225470D01*
X0456500Y0224472D02*
X0432200Y0224472D01*
X0432200Y0223473D02*
X0456500Y0223473D01*
X0456500Y0222475D02*
X0432200Y0222475D01*
X0432200Y0221476D02*
X0456500Y0221476D01*
X0456500Y0220478D02*
X0432200Y0220478D01*
X0432200Y0219479D02*
X0456500Y0219479D01*
X0456500Y0218481D02*
X0432200Y0218481D01*
X0432200Y0217482D02*
X0456500Y0217482D01*
X0456500Y0216484D02*
X0432200Y0216484D01*
X0432200Y0215485D02*
X0437855Y0215485D01*
X0438024Y0215654D02*
X0436646Y0214276D01*
X0435900Y0212475D01*
X0435900Y0210525D01*
X0436646Y0208724D01*
X0438024Y0207346D01*
X0439825Y0206600D01*
X0441775Y0206600D01*
X0443576Y0207346D01*
X0444954Y0208724D01*
X0445700Y0210525D01*
X0445700Y0212475D01*
X0444954Y0214276D01*
X0443576Y0215654D01*
X0441775Y0216400D01*
X0439825Y0216400D01*
X0438024Y0215654D01*
X0436857Y0214487D02*
X0432200Y0214487D01*
X0432896Y0213488D02*
X0436320Y0213488D01*
X0435906Y0212490D02*
X0433446Y0212490D01*
X0433600Y0211491D02*
X0435900Y0211491D01*
X0435914Y0210493D02*
X0433438Y0210493D01*
X0432878Y0209494D02*
X0436327Y0209494D01*
X0436875Y0208496D02*
X0431347Y0208496D01*
X0429653Y0208496D02*
X0390592Y0208496D01*
X0391448Y0209494D02*
X0428122Y0209494D01*
X0427562Y0210493D02*
X0392304Y0210493D01*
X0393160Y0211491D02*
X0427400Y0211491D01*
X0427554Y0212490D02*
X0394016Y0212490D01*
X0394729Y0213322D02*
X0389200Y0206871D01*
X0389200Y0206796D01*
X0388904Y0206500D01*
X0456500Y0206500D01*
X0456500Y0209077D01*
X0456354Y0208724D01*
X0454976Y0207346D01*
X0453175Y0206600D01*
X0451225Y0206600D01*
X0449424Y0207346D01*
X0448046Y0208724D01*
X0447300Y0210525D01*
X0447300Y0212475D01*
X0448046Y0214276D01*
X0449424Y0215654D01*
X0451225Y0216400D01*
X0453175Y0216400D01*
X0454976Y0215654D01*
X0456354Y0214276D01*
X0456500Y0213923D01*
X0456500Y0347077D01*
X0456354Y0346724D01*
X0454976Y0345346D01*
X0453175Y0344600D01*
X0451225Y0344600D01*
X0449424Y0345346D01*
X0448046Y0346724D01*
X0447300Y0348525D01*
X0447300Y0350475D01*
X0448046Y0352276D01*
X0449424Y0353654D01*
X0451225Y0354400D01*
X0453175Y0354400D01*
X0454976Y0353654D01*
X0456354Y0352276D01*
X0456500Y0351923D01*
X0456500Y0354500D01*
X0325639Y0354500D01*
X0326196Y0354319D01*
X0326925Y0353947D01*
X0327588Y0353466D01*
X0328166Y0352888D01*
X0328647Y0352225D01*
X0329019Y0351496D01*
X0329272Y0350718D01*
X0329386Y0350000D01*
X0324700Y0350000D01*
X0324700Y0349000D01*
X0329386Y0349000D01*
X0329272Y0348282D01*
X0329019Y0347504D01*
X0328647Y0346775D01*
X0328166Y0346112D01*
X0327588Y0345534D01*
X0326925Y0345053D01*
X0326196Y0344681D01*
X0325418Y0344428D01*
X0324700Y0344314D01*
X0324700Y0349000D01*
X0323700Y0349000D01*
X0323700Y0344314D01*
X0322982Y0344428D01*
X0322204Y0344681D01*
X0321475Y0345053D01*
X0320812Y0345534D01*
X0320234Y0346112D01*
X0319753Y0346775D01*
X0319381Y0347504D01*
X0319128Y0348282D01*
X0319014Y0349000D01*
X0323700Y0349000D01*
X0323700Y0350000D01*
X0319014Y0350000D01*
X0319128Y0350718D01*
X0319381Y0351496D01*
X0319753Y0352225D01*
X0320234Y0352888D01*
X0320812Y0353466D01*
X0321475Y0353947D01*
X0322204Y0354319D01*
X0322761Y0354500D01*
X0308500Y0354500D01*
X0308500Y0351923D01*
X0308646Y0352276D01*
X0310024Y0353654D01*
X0311825Y0354400D01*
X0313775Y0354400D01*
X0315576Y0353654D01*
X0316954Y0352276D01*
X0317700Y0350475D01*
X0317700Y0348525D01*
X0316954Y0346724D01*
X0315576Y0345346D01*
X0313775Y0344600D01*
X0311825Y0344600D01*
X0310024Y0345346D01*
X0308646Y0346724D01*
X0308500Y0347077D01*
X0308500Y0335904D01*
X0308796Y0336200D01*
X0316416Y0336200D01*
X0315872Y0336744D01*
X0315400Y0337883D01*
X0315400Y0339117D01*
X0315872Y0340256D01*
X0316744Y0341128D01*
X0317883Y0341600D01*
X0319117Y0341600D01*
X0320256Y0341128D01*
X0321128Y0340256D01*
X0321151Y0340200D01*
X0324796Y0340200D01*
X0337796Y0353200D01*
X0353204Y0353200D01*
X0354200Y0352204D01*
X0354200Y0352204D01*
X0366204Y0340200D01*
X0367200Y0339204D01*
X0367200Y0320204D01*
X0385204Y0302200D01*
X0398204Y0302200D01*
X0399200Y0301204D01*
X0399827Y0300577D01*
X0399883Y0300600D01*
X0401117Y0300600D01*
X0402256Y0300128D01*
X0403128Y0299256D01*
X0403600Y0298117D01*
X0403600Y0296883D01*
X0403128Y0295744D01*
X0402256Y0294872D01*
X0401117Y0294400D01*
X0399883Y0294400D01*
X0398744Y0294872D01*
X0397872Y0295744D01*
X0397600Y0296401D01*
X0397600Y0295883D01*
X0397128Y0294744D01*
X0396256Y0293872D01*
X0395117Y0293400D01*
X0393883Y0293400D01*
X0392744Y0293872D01*
X0391872Y0294744D01*
X0391849Y0294800D01*
X0384796Y0294800D01*
X0383800Y0295796D01*
X0361800Y0317796D01*
X0361800Y0336796D01*
X0350796Y0347800D01*
X0340204Y0347800D01*
X0325204Y0332800D01*
X0314584Y0332800D01*
X0315128Y0332256D01*
X0315600Y0331117D01*
X0315600Y0329883D01*
X0315577Y0329827D01*
X0320204Y0325200D01*
X0331443Y0325200D01*
X0332090Y0325243D01*
X0332139Y0325200D01*
X0332204Y0325200D01*
X0332662Y0324742D01*
X0338649Y0319503D01*
X0338883Y0319600D01*
X0340117Y0319600D01*
X0340800Y0319317D01*
X0340800Y0326400D01*
X0339883Y0326400D01*
X0338744Y0326872D01*
X0337872Y0327744D01*
X0337400Y0328883D01*
X0337400Y0330117D01*
X0337872Y0331256D01*
X0338744Y0332128D01*
X0339883Y0332600D01*
X0341117Y0332600D01*
X0342256Y0332128D01*
X0343128Y0331256D01*
X0343600Y0330117D01*
X0343600Y0328883D01*
X0343577Y0328827D01*
X0344200Y0328204D01*
X0344200Y0320204D01*
X0344400Y0320004D01*
X0344400Y0320117D01*
X0344872Y0321256D01*
X0345744Y0322128D01*
X0346883Y0322600D01*
X0348117Y0322600D01*
X0349256Y0322128D01*
X0349490Y0321894D01*
X0351800Y0324204D01*
X0351800Y0326296D01*
X0350296Y0327800D01*
X0349300Y0328796D01*
X0349300Y0333704D01*
X0349923Y0334327D01*
X0349900Y0334383D01*
X0349900Y0335617D01*
X0350372Y0336756D01*
X0351244Y0337628D01*
X0352383Y0338100D01*
X0353617Y0338100D01*
X0354756Y0337628D01*
X0355628Y0336756D01*
X0356100Y0335617D01*
X0356100Y0334383D01*
X0355628Y0333244D01*
X0354756Y0332372D01*
X0353617Y0331900D01*
X0352700Y0331900D01*
X0352700Y0330204D01*
X0355200Y0327704D01*
X0355200Y0322796D01*
X0354204Y0321800D01*
X0350204Y0317800D01*
X0350151Y0317800D01*
X0350128Y0317744D01*
X0349256Y0316872D01*
X0348117Y0316400D01*
X0346883Y0316400D01*
X0346200Y0316683D01*
X0346200Y0313796D01*
X0345204Y0312800D01*
X0339200Y0306796D01*
X0339200Y0306151D01*
X0339256Y0306128D01*
X0340128Y0305256D01*
X0340600Y0304117D01*
X0340600Y0302883D01*
X0340128Y0301744D01*
X0339584Y0301200D01*
X0343796Y0301200D01*
X0354800Y0312204D01*
X0355796Y0313200D01*
X0360849Y0313200D01*
X0360872Y0313256D01*
X0361744Y0314128D01*
X0362883Y0314600D01*
X0364117Y0314600D01*
X0365256Y0314128D01*
X0366128Y0313256D01*
X0366600Y0312117D01*
X0366600Y0310883D01*
X0366128Y0309744D01*
X0365256Y0308872D01*
X0364730Y0308654D01*
X0365128Y0308256D01*
X0365600Y0307117D01*
X0365600Y0306984D01*
X0365744Y0307128D01*
X0366883Y0307600D01*
X0368117Y0307600D01*
X0369256Y0307128D01*
X0370128Y0306256D01*
X0370151Y0306200D01*
X0371204Y0306200D01*
X0392827Y0284577D01*
X0392883Y0284600D01*
X0394117Y0284600D01*
X0395256Y0284128D01*
X0396128Y0283256D01*
X0396600Y0282117D01*
X0396600Y0280883D01*
X0396128Y0279744D01*
X0395256Y0278872D01*
X0394117Y0278400D01*
X0392883Y0278400D01*
X0392827Y0278423D01*
X0391200Y0276796D01*
X0391200Y0273600D01*
X0392117Y0273600D01*
X0393256Y0273128D01*
X0394128Y0272256D01*
X0394600Y0271117D01*
X0394600Y0269883D01*
X0394128Y0268744D01*
X0393256Y0267872D01*
X0392730Y0267654D01*
X0393128Y0267256D01*
X0393600Y0266117D01*
X0393600Y0264883D01*
X0393128Y0263744D01*
X0392256Y0262872D01*
X0391117Y0262400D01*
X0389883Y0262400D01*
X0388744Y0262872D01*
X0387872Y0263744D01*
X0387400Y0264883D01*
X0387400Y0266117D01*
X0387423Y0266173D01*
X0385800Y0267796D01*
X0385800Y0283796D01*
X0374796Y0294800D01*
X0367796Y0294800D01*
X0366800Y0295796D01*
X0364600Y0297996D01*
X0364600Y0297883D01*
X0364128Y0296744D01*
X0363256Y0295872D01*
X0363200Y0295849D01*
X0363200Y0289212D01*
X0363966Y0289212D01*
X0364668Y0288509D01*
X0364668Y0283184D01*
X0364145Y0282660D01*
X0364390Y0282519D01*
X0364669Y0282240D01*
X0364866Y0281898D01*
X0364968Y0281516D01*
X0364968Y0279638D01*
X0361984Y0279638D01*
X0361984Y0278669D01*
X0361984Y0275488D01*
X0363666Y0275488D01*
X0364047Y0275590D01*
X0364390Y0275788D01*
X0364669Y0276067D01*
X0364866Y0276409D01*
X0364968Y0276791D01*
X0364968Y0278669D01*
X0361984Y0278669D01*
X0361016Y0278669D01*
X0361016Y0275488D01*
X0359334Y0275488D01*
X0358953Y0275590D01*
X0358610Y0275788D01*
X0358331Y0276067D01*
X0358134Y0276409D01*
X0358031Y0276791D01*
X0358031Y0278669D01*
X0361016Y0278669D01*
X0361016Y0279638D01*
X0358031Y0279638D01*
X0358031Y0281516D01*
X0358134Y0281898D01*
X0358331Y0282240D01*
X0358610Y0282519D01*
X0358855Y0282660D01*
X0358331Y0283184D01*
X0358331Y0288509D01*
X0359034Y0289212D01*
X0359800Y0289212D01*
X0359800Y0295849D01*
X0359744Y0295872D01*
X0358872Y0296744D01*
X0358400Y0297883D01*
X0358400Y0299117D01*
X0358423Y0299173D01*
X0355796Y0301800D01*
X0352204Y0301800D01*
X0349200Y0298796D01*
X0349200Y0293142D01*
X0348204Y0292146D01*
X0348204Y0292146D01*
X0347668Y0291611D01*
X0347668Y0288184D01*
X0347145Y0287660D01*
X0347390Y0287519D01*
X0347669Y0287240D01*
X0347866Y0286898D01*
X0347968Y0286516D01*
X0347968Y0284638D01*
X0344984Y0284638D01*
X0344984Y0283669D01*
X0344984Y0280488D01*
X0346666Y0280488D01*
X0347047Y0280590D01*
X0347390Y0280788D01*
X0347669Y0281067D01*
X0347866Y0281409D01*
X0347968Y0281791D01*
X0347968Y0283669D01*
X0344984Y0283669D01*
X0344016Y0283669D01*
X0344016Y0280488D01*
X0342334Y0280488D01*
X0341953Y0280590D01*
X0341610Y0280788D01*
X0341331Y0281067D01*
X0341134Y0281409D01*
X0341031Y0281791D01*
X0341031Y0283669D01*
X0344016Y0283669D01*
X0344016Y0284638D01*
X0341031Y0284638D01*
X0341031Y0286516D01*
X0341134Y0286898D01*
X0341331Y0287240D01*
X0341610Y0287519D01*
X0341855Y0287660D01*
X0341331Y0288184D01*
X0341331Y0293509D01*
X0342034Y0294212D01*
X0345461Y0294212D01*
X0345800Y0294551D01*
X0345800Y0298396D01*
X0345204Y0297800D01*
X0333204Y0297800D01*
X0330200Y0294796D01*
X0330200Y0289212D01*
X0330966Y0289212D01*
X0331668Y0288509D01*
X0331668Y0283184D01*
X0331145Y0282660D01*
X0331390Y0282519D01*
X0331669Y0282240D01*
X0331866Y0281898D01*
X0331968Y0281516D01*
X0331968Y0279638D01*
X0328984Y0279638D01*
X0328984Y0278669D01*
X0328984Y0275488D01*
X0330666Y0275488D01*
X0331047Y0275590D01*
X0331390Y0275788D01*
X0331669Y0276067D01*
X0331866Y0276409D01*
X0331968Y0276791D01*
X0331968Y0278669D01*
X0328984Y0278669D01*
X0328016Y0278669D01*
X0328016Y0275488D01*
X0326334Y0275488D01*
X0325953Y0275590D01*
X0325610Y0275788D01*
X0325331Y0276067D01*
X0325134Y0276409D01*
X0325031Y0276791D01*
X0325031Y0278669D01*
X0328016Y0278669D01*
X0328016Y0279638D01*
X0325031Y0279638D01*
X0325031Y0281516D01*
X0325134Y0281898D01*
X0325331Y0282240D01*
X0325610Y0282519D01*
X0325855Y0282660D01*
X0325331Y0283184D01*
X0325331Y0288509D01*
X0326034Y0289212D01*
X0326800Y0289212D01*
X0326800Y0296204D01*
X0327796Y0297200D01*
X0327796Y0297200D01*
X0330800Y0300204D01*
X0330800Y0300204D01*
X0331796Y0301200D01*
X0335416Y0301200D01*
X0334872Y0301744D01*
X0334400Y0302883D01*
X0334400Y0304117D01*
X0334872Y0305256D01*
X0335744Y0306128D01*
X0335800Y0306151D01*
X0335800Y0308204D01*
X0342800Y0315204D01*
X0342800Y0316796D01*
X0342600Y0316996D01*
X0342600Y0315883D01*
X0342128Y0314744D01*
X0341256Y0313872D01*
X0340117Y0313400D01*
X0338883Y0313400D01*
X0337744Y0313872D01*
X0336872Y0314744D01*
X0336400Y0315883D01*
X0336400Y0316954D01*
X0330861Y0321800D01*
X0318796Y0321800D01*
X0315600Y0324996D01*
X0315600Y0323883D01*
X0315128Y0322744D01*
X0314256Y0321872D01*
X0313117Y0321400D01*
X0311883Y0321400D01*
X0310744Y0321872D01*
X0309872Y0322744D01*
X0309400Y0323883D01*
X0309400Y0325117D01*
X0309423Y0325173D01*
X0308500Y0326096D01*
X0308500Y0242904D01*
X0308600Y0243004D01*
X0308600Y0249697D01*
X0309303Y0250400D01*
X0317196Y0250400D01*
X0316257Y0251338D01*
X0314475Y0250600D01*
X0312525Y0250600D01*
X0310724Y0251346D01*
X0309346Y0252724D01*
X0308600Y0254525D01*
X0308600Y0256475D01*
X0309346Y0258276D01*
X0310724Y0259654D01*
X0312525Y0260400D01*
X0314475Y0260400D01*
X0316276Y0259654D01*
X0317654Y0258276D01*
X0317800Y0257923D01*
X0317800Y0263077D01*
X0317654Y0262724D01*
X0316276Y0261346D01*
X0314475Y0260600D01*
X0312525Y0260600D01*
X0310724Y0261346D01*
X0309346Y0262724D01*
X0308600Y0264525D01*
X0308600Y0266475D01*
X0309346Y0268276D01*
X0310724Y0269654D01*
X0312525Y0270400D01*
X0314475Y0270400D01*
X0316276Y0269654D01*
X0317654Y0268276D01*
X0317800Y0267923D01*
X0317800Y0273077D01*
X0317654Y0272724D01*
X0316276Y0271346D01*
X0314475Y0270600D01*
X0312525Y0270600D01*
X0310724Y0271346D01*
X0309346Y0272724D01*
X0308600Y0274525D01*
X0308600Y0276475D01*
X0309346Y0278276D01*
X0310724Y0279654D01*
X0312525Y0280400D01*
X0314475Y0280400D01*
X0316276Y0279654D01*
X0317654Y0278276D01*
X0317800Y0277923D01*
X0317800Y0283077D01*
X0317654Y0282724D01*
X0316276Y0281346D01*
X0314475Y0280600D01*
X0312525Y0280600D01*
X0310724Y0281346D01*
X0309346Y0282724D01*
X0308600Y0284525D01*
X0308600Y0286475D01*
X0309346Y0288276D01*
X0310724Y0289654D01*
X0312525Y0290400D01*
X0314475Y0290400D01*
X0316276Y0289654D01*
X0317654Y0288276D01*
X0317800Y0287923D01*
X0317800Y0293077D01*
X0317654Y0292724D01*
X0316276Y0291346D01*
X0314475Y0290600D01*
X0312525Y0290600D01*
X0310724Y0291346D01*
X0309346Y0292724D01*
X0308600Y0294525D01*
X0308600Y0296475D01*
X0309346Y0298276D01*
X0310724Y0299654D01*
X0312525Y0300400D01*
X0314475Y0300400D01*
X0315706Y0299890D01*
X0314843Y0300753D01*
X0314475Y0300600D01*
X0312525Y0300600D01*
X0310724Y0301346D01*
X0309346Y0302724D01*
X0308600Y0304525D01*
X0308600Y0306475D01*
X0309346Y0308276D01*
X0310724Y0309654D01*
X0312525Y0310400D01*
X0314475Y0310400D01*
X0316276Y0309654D01*
X0317654Y0308276D01*
X0318400Y0306475D01*
X0318400Y0304525D01*
X0317662Y0302743D01*
X0319800Y0300604D01*
X0319800Y0306796D01*
X0315550Y0311046D01*
X0314475Y0310600D01*
X0312525Y0310600D01*
X0310724Y0311346D01*
X0309346Y0312724D01*
X0308600Y0314525D01*
X0308600Y0316475D01*
X0309346Y0318276D01*
X0310724Y0319654D01*
X0312525Y0320400D01*
X0314475Y0320400D01*
X0316276Y0319654D01*
X0317654Y0318276D01*
X0318400Y0316475D01*
X0318400Y0314525D01*
X0317954Y0313450D01*
X0322204Y0309200D01*
X0323200Y0308204D01*
X0323200Y0255204D01*
X0325204Y0253200D01*
X0326200Y0252204D01*
X0326200Y0238796D01*
X0321200Y0233796D01*
X0320204Y0232800D01*
X0317204Y0232800D01*
X0317200Y0232796D01*
X0317200Y0226204D01*
X0317204Y0226200D01*
X0328204Y0226200D01*
X0339204Y0215200D01*
X0355416Y0215200D01*
X0354872Y0215744D01*
X0354400Y0216883D01*
X0354400Y0218117D01*
X0354872Y0219256D01*
X0355744Y0220128D01*
X0356883Y0220600D01*
X0358117Y0220600D01*
X0358173Y0220577D01*
X0360796Y0223200D01*
X0366849Y0223200D01*
X0366872Y0223256D01*
X0367016Y0223400D01*
X0366883Y0223400D01*
X0365744Y0223872D01*
X0364872Y0224744D01*
X0364400Y0225883D01*
X0364400Y0227117D01*
X0364423Y0227173D01*
X0362800Y0228796D01*
X0362800Y0232788D01*
X0359034Y0232788D01*
X0358331Y0233491D01*
X0358331Y0234454D01*
X0350668Y0234454D01*
X0350668Y0233491D01*
X0349966Y0232788D01*
X0345034Y0232788D01*
X0344534Y0233288D01*
X0336466Y0233288D01*
X0335966Y0232788D01*
X0331034Y0232788D01*
X0330331Y0233491D01*
X0330331Y0238816D01*
X0331016Y0239500D01*
X0330331Y0240184D01*
X0330331Y0245509D01*
X0331034Y0246212D01*
X0333899Y0246212D01*
X0334800Y0247413D01*
X0334800Y0250849D01*
X0334744Y0250872D01*
X0333872Y0251744D01*
X0333400Y0252883D01*
X0333400Y0254117D01*
X0333872Y0255256D01*
X0334744Y0256128D01*
X0335883Y0256600D01*
X0337117Y0256600D01*
X0338256Y0256128D01*
X0339128Y0255256D01*
X0339600Y0254117D01*
X0339600Y0252883D01*
X0339128Y0251744D01*
X0338256Y0250872D01*
X0338200Y0250849D01*
X0338200Y0246967D01*
X0338282Y0246390D01*
X0338200Y0246280D01*
X0338200Y0246142D01*
X0337787Y0245730D01*
X0336668Y0244238D01*
X0336668Y0240184D01*
X0335984Y0239500D01*
X0336668Y0238816D01*
X0336668Y0236688D01*
X0344331Y0236688D01*
X0344331Y0238816D01*
X0345016Y0239500D01*
X0344331Y0240184D01*
X0344331Y0245509D01*
X0345034Y0246212D01*
X0349966Y0246212D01*
X0350137Y0246041D01*
X0358300Y0254204D01*
X0359296Y0255200D01*
X0375204Y0255200D01*
X0379700Y0250704D01*
X0379700Y0246704D01*
X0381510Y0244894D01*
X0381744Y0245128D01*
X0382883Y0245600D01*
X0384117Y0245600D01*
X0385256Y0245128D01*
X0385800Y0244584D01*
X0385800Y0254204D01*
X0386796Y0255200D01*
X0389800Y0258204D01*
X0390396Y0258800D01*
X0382796Y0258800D01*
X0381800Y0259796D01*
X0368800Y0272796D01*
X0368800Y0278849D01*
X0368744Y0278872D01*
X0367872Y0279744D01*
X0367400Y0280883D01*
X0367400Y0282117D01*
X0367872Y0283256D01*
X0368744Y0284128D01*
X0369883Y0284600D01*
X0371117Y0284600D01*
X0372256Y0284128D01*
X0373128Y0283256D01*
X0373600Y0282117D01*
X0373600Y0280883D01*
X0373128Y0279744D01*
X0372256Y0278872D01*
X0372200Y0278849D01*
X0372200Y0274204D01*
X0384204Y0262200D01*
X0401400Y0262200D01*
X0401400Y0263117D01*
X0401872Y0264256D01*
X0402744Y0265128D01*
X0403883Y0265600D01*
X0405117Y0265600D01*
X0406256Y0265128D01*
X0407128Y0264256D01*
X0407600Y0263117D01*
X0407600Y0261883D01*
X0407128Y0260744D01*
X0406256Y0259872D01*
X0405117Y0259400D01*
X0403883Y0259400D01*
X0403827Y0259423D01*
X0403604Y0259200D01*
X0408796Y0259200D01*
X0412996Y0263400D01*
X0411883Y0263400D01*
X0410744Y0263872D01*
X0409872Y0264744D01*
X0409400Y0265883D01*
X0409400Y0267016D01*
X0409256Y0266872D01*
X0408117Y0266400D01*
X0406883Y0266400D01*
X0405744Y0266872D01*
X0404872Y0267744D01*
X0404400Y0268883D01*
X0404400Y0270117D01*
X0404872Y0271256D01*
X0405744Y0272128D01*
X0406883Y0272600D01*
X0408117Y0272600D01*
X0408173Y0272577D01*
X0409800Y0274204D01*
X0409800Y0276796D01*
X0406796Y0279800D01*
X0406796Y0279800D01*
X0405800Y0280796D01*
X0405800Y0304204D01*
X0415796Y0314200D01*
X0425204Y0314200D01*
X0428010Y0311394D01*
X0428744Y0312128D01*
X0429128Y0312287D01*
X0429063Y0312531D01*
X0429063Y0314311D01*
X0431752Y0314311D01*
X0431752Y0314689D01*
X0431752Y0317772D01*
X0430366Y0317772D01*
X0429984Y0317669D01*
X0429642Y0317472D01*
X0429363Y0317193D01*
X0429165Y0316851D01*
X0429063Y0316469D01*
X0429063Y0314689D01*
X0431752Y0314689D01*
X0432130Y0314689D01*
X0432130Y0317772D01*
X0433516Y0317772D01*
X0433898Y0317669D01*
X0434240Y0317472D01*
X0434519Y0317193D01*
X0434660Y0316948D01*
X0435184Y0317472D01*
X0438934Y0317472D01*
X0439637Y0316769D01*
X0439637Y0312231D01*
X0439200Y0311794D01*
X0439200Y0302796D01*
X0438204Y0301800D01*
X0431200Y0294796D01*
X0431200Y0251796D01*
X0426200Y0246796D01*
X0425204Y0245800D01*
X0415204Y0245800D01*
X0404200Y0234796D01*
X0404200Y0232151D01*
X0404256Y0232128D01*
X0405128Y0231256D01*
X0405600Y0230117D01*
X0405600Y0228883D01*
X0405128Y0227744D01*
X0404256Y0226872D01*
X0403117Y0226400D01*
X0401883Y0226400D01*
X0400744Y0226872D01*
X0399872Y0227744D01*
X0399400Y0228883D01*
X0399400Y0230117D01*
X0399872Y0231256D01*
X0400744Y0232128D01*
X0400800Y0232151D01*
X0400800Y0236204D01*
X0401796Y0237200D01*
X0401796Y0237200D01*
X0412800Y0248204D01*
X0412800Y0248204D01*
X0413796Y0249200D01*
X0423796Y0249200D01*
X0427800Y0253204D01*
X0427800Y0286396D01*
X0425577Y0284173D01*
X0425600Y0284117D01*
X0425600Y0282883D01*
X0425128Y0281744D01*
X0424256Y0280872D01*
X0423117Y0280400D01*
X0421883Y0280400D01*
X0420744Y0280872D01*
X0419872Y0281744D01*
X0419400Y0282883D01*
X0419400Y0284117D01*
X0419872Y0285256D01*
X0420744Y0286128D01*
X0421883Y0286600D01*
X0423117Y0286600D01*
X0423173Y0286577D01*
X0424800Y0288204D01*
X0424800Y0300435D01*
X0423744Y0300872D01*
X0422872Y0301744D01*
X0422400Y0302883D01*
X0422400Y0304117D01*
X0422872Y0305256D01*
X0423744Y0306128D01*
X0424883Y0306600D01*
X0424996Y0306600D01*
X0422796Y0308800D01*
X0418204Y0308800D01*
X0411200Y0301796D01*
X0411200Y0285584D01*
X0411744Y0286128D01*
X0411800Y0286151D01*
X0411800Y0296918D01*
X0411400Y0297883D01*
X0411400Y0299117D01*
X0411872Y0300256D01*
X0412744Y0301128D01*
X0413883Y0301600D01*
X0415117Y0301600D01*
X0416256Y0301128D01*
X0417128Y0300256D01*
X0417600Y0299117D01*
X0417600Y0297883D01*
X0417128Y0296744D01*
X0416256Y0295872D01*
X0415200Y0295435D01*
X0415200Y0286151D01*
X0415256Y0286128D01*
X0416128Y0285256D01*
X0416600Y0284117D01*
X0416600Y0282883D01*
X0416128Y0281744D01*
X0415256Y0280872D01*
X0414117Y0280400D01*
X0414004Y0280400D01*
X0414204Y0280200D01*
X0415200Y0279204D01*
X0415200Y0274604D01*
X0415423Y0274827D01*
X0415400Y0274883D01*
X0415400Y0276117D01*
X0415872Y0277256D01*
X0416744Y0278128D01*
X0417883Y0278600D01*
X0419117Y0278600D01*
X0420256Y0278128D01*
X0421128Y0277256D01*
X0421600Y0276117D01*
X0421600Y0274883D01*
X0421128Y0273744D01*
X0420984Y0273600D01*
X0421117Y0273600D01*
X0422256Y0273128D01*
X0423128Y0272256D01*
X0423600Y0271117D01*
X0423600Y0269883D01*
X0423128Y0268744D01*
X0422984Y0268600D01*
X0424117Y0268600D01*
X0425256Y0268128D01*
X0426128Y0267256D01*
X0426600Y0266117D01*
X0426600Y0264883D01*
X0426128Y0263744D01*
X0425256Y0262872D01*
X0424117Y0262400D01*
X0422883Y0262400D01*
X0422827Y0262423D01*
X0412204Y0251800D01*
X0397584Y0251800D01*
X0398128Y0251256D01*
X0398600Y0250117D01*
X0398600Y0248883D01*
X0398128Y0247744D01*
X0397256Y0246872D01*
X0397200Y0246849D01*
X0397200Y0243796D01*
X0396204Y0242800D01*
X0396176Y0242772D01*
X0395202Y0214536D01*
X0395249Y0213928D01*
X0395178Y0213846D01*
X0395175Y0213738D01*
X0394729Y0213322D01*
X0394907Y0213488D02*
X0428104Y0213488D01*
X0428800Y0214487D02*
X0395206Y0214487D01*
X0395235Y0215485D02*
X0428800Y0215485D01*
X0428800Y0216484D02*
X0395269Y0216484D01*
X0395304Y0217482D02*
X0428800Y0217482D01*
X0428800Y0218481D02*
X0395338Y0218481D01*
X0395373Y0219479D02*
X0428800Y0219479D01*
X0428800Y0220478D02*
X0395407Y0220478D01*
X0395442Y0221476D02*
X0428800Y0221476D01*
X0428800Y0222475D02*
X0395476Y0222475D01*
X0395510Y0223473D02*
X0428800Y0223473D01*
X0428800Y0224472D02*
X0395545Y0224472D01*
X0395579Y0225470D02*
X0428800Y0225470D01*
X0428800Y0226469D02*
X0403283Y0226469D01*
X0401717Y0226469D02*
X0395614Y0226469D01*
X0395648Y0227467D02*
X0400149Y0227467D01*
X0399573Y0228466D02*
X0395683Y0228466D01*
X0395717Y0229464D02*
X0399400Y0229464D01*
X0399543Y0230463D02*
X0395751Y0230463D01*
X0395786Y0231461D02*
X0400077Y0231461D01*
X0400800Y0232460D02*
X0395820Y0232460D01*
X0395855Y0233458D02*
X0400800Y0233458D01*
X0400800Y0234457D02*
X0395889Y0234457D01*
X0395924Y0235455D02*
X0400800Y0235455D01*
X0401050Y0236454D02*
X0395958Y0236454D01*
X0395992Y0237452D02*
X0402048Y0237452D01*
X0403047Y0238451D02*
X0396027Y0238451D01*
X0396061Y0239449D02*
X0404045Y0239449D01*
X0405044Y0240448D02*
X0396096Y0240448D01*
X0396130Y0241446D02*
X0406042Y0241446D01*
X0407041Y0242445D02*
X0396165Y0242445D01*
X0396848Y0243443D02*
X0408039Y0243443D01*
X0409038Y0244442D02*
X0397200Y0244442D01*
X0397200Y0245440D02*
X0410036Y0245440D01*
X0411035Y0246439D02*
X0397200Y0246439D01*
X0397822Y0247437D02*
X0412033Y0247437D01*
X0413032Y0248436D02*
X0398415Y0248436D01*
X0398600Y0249434D02*
X0424030Y0249434D01*
X0425029Y0250433D02*
X0398469Y0250433D01*
X0397953Y0251432D02*
X0426027Y0251432D01*
X0425500Y0252500D02*
X0422500Y0252500D01*
X0421500Y0252500D01*
X0420500Y0251500D01*
X0402500Y0251500D01*
X0400500Y0249500D01*
X0395500Y0249500D02*
X0395500Y0244500D01*
X0394500Y0243500D01*
X0393500Y0214500D01*
X0387500Y0207500D01*
X0335500Y0207500D01*
X0324500Y0218500D01*
X0312500Y0218500D01*
X0309500Y0221500D01*
X0309500Y0241500D01*
X0313500Y0245500D01*
X0308600Y0245440D02*
X0308500Y0245440D01*
X0308500Y0244442D02*
X0308600Y0244442D01*
X0308600Y0243443D02*
X0308500Y0243443D01*
X0308500Y0246439D02*
X0308600Y0246439D01*
X0308600Y0247437D02*
X0308500Y0247437D01*
X0308500Y0248436D02*
X0308600Y0248436D01*
X0308600Y0249434D02*
X0308500Y0249434D01*
X0308500Y0250433D02*
X0317163Y0250433D01*
X0320500Y0249500D02*
X0314500Y0255500D01*
X0313500Y0255500D01*
X0308993Y0257423D02*
X0308500Y0257423D01*
X0308500Y0258421D02*
X0309491Y0258421D01*
X0308500Y0259420D02*
X0310490Y0259420D01*
X0310654Y0261417D02*
X0308500Y0261417D01*
X0308500Y0262415D02*
X0309655Y0262415D01*
X0309060Y0263414D02*
X0308500Y0263414D01*
X0308500Y0264412D02*
X0308647Y0264412D01*
X0308600Y0265411D02*
X0308500Y0265411D01*
X0308500Y0266409D02*
X0308600Y0266409D01*
X0308500Y0267408D02*
X0308986Y0267408D01*
X0308500Y0268406D02*
X0309477Y0268406D01*
X0308500Y0269405D02*
X0310475Y0269405D01*
X0310669Y0271402D02*
X0308500Y0271402D01*
X0308500Y0272400D02*
X0309670Y0272400D01*
X0309067Y0273399D02*
X0308500Y0273399D01*
X0308500Y0274397D02*
X0308653Y0274397D01*
X0308600Y0275396D02*
X0308500Y0275396D01*
X0308500Y0276394D02*
X0308600Y0276394D01*
X0308500Y0277393D02*
X0308980Y0277393D01*
X0308500Y0278391D02*
X0309462Y0278391D01*
X0308500Y0279390D02*
X0310460Y0279390D01*
X0310683Y0281387D02*
X0308500Y0281387D01*
X0308500Y0282385D02*
X0309685Y0282385D01*
X0309073Y0283384D02*
X0308500Y0283384D01*
X0308500Y0284382D02*
X0308659Y0284382D01*
X0308600Y0285381D02*
X0308500Y0285381D01*
X0308500Y0286379D02*
X0308600Y0286379D01*
X0308500Y0287378D02*
X0308974Y0287378D01*
X0308500Y0288376D02*
X0309447Y0288376D01*
X0308500Y0289375D02*
X0310445Y0289375D01*
X0310698Y0291372D02*
X0308500Y0291372D01*
X0308500Y0292370D02*
X0309700Y0292370D01*
X0309079Y0293369D02*
X0308500Y0293369D01*
X0308500Y0294368D02*
X0308665Y0294368D01*
X0308600Y0295366D02*
X0308500Y0295366D01*
X0308500Y0296365D02*
X0308600Y0296365D01*
X0308500Y0297363D02*
X0308968Y0297363D01*
X0309432Y0298362D02*
X0308500Y0298362D01*
X0308500Y0299360D02*
X0310430Y0299360D01*
X0310713Y0301357D02*
X0308500Y0301357D01*
X0308500Y0300359D02*
X0312425Y0300359D01*
X0314575Y0300359D02*
X0315237Y0300359D01*
X0318049Y0302356D02*
X0319800Y0302356D01*
X0319800Y0303354D02*
X0317915Y0303354D01*
X0318328Y0304353D02*
X0319800Y0304353D01*
X0319800Y0305351D02*
X0318400Y0305351D01*
X0318400Y0306350D02*
X0319800Y0306350D01*
X0319248Y0307348D02*
X0318038Y0307348D01*
X0318249Y0308347D02*
X0317583Y0308347D01*
X0317251Y0309345D02*
X0316584Y0309345D01*
X0316252Y0310344D02*
X0314611Y0310344D01*
X0312389Y0310344D02*
X0308500Y0310344D01*
X0308500Y0311342D02*
X0310733Y0311342D01*
X0309730Y0312341D02*
X0308500Y0312341D01*
X0308500Y0313339D02*
X0309091Y0313339D01*
X0308678Y0314338D02*
X0308500Y0314338D01*
X0308500Y0315336D02*
X0308600Y0315336D01*
X0308600Y0316335D02*
X0308500Y0316335D01*
X0308500Y0317333D02*
X0308956Y0317333D01*
X0309402Y0318332D02*
X0308500Y0318332D01*
X0308500Y0319330D02*
X0310401Y0319330D01*
X0308500Y0320329D02*
X0312353Y0320329D01*
X0314647Y0320329D02*
X0332543Y0320329D01*
X0333684Y0319330D02*
X0316599Y0319330D01*
X0317598Y0318332D02*
X0334825Y0318332D01*
X0335966Y0317333D02*
X0318044Y0317333D01*
X0318400Y0316335D02*
X0336400Y0316335D01*
X0336627Y0315336D02*
X0318400Y0315336D01*
X0318322Y0314338D02*
X0337278Y0314338D01*
X0338500Y0316500D02*
X0339500Y0316500D01*
X0331500Y0323500D01*
X0319500Y0323500D01*
X0312500Y0330500D01*
X0315600Y0330314D02*
X0337482Y0330314D01*
X0337400Y0329315D02*
X0316089Y0329315D01*
X0317087Y0328317D02*
X0337635Y0328317D01*
X0338298Y0327318D02*
X0318086Y0327318D01*
X0319084Y0326320D02*
X0340800Y0326320D01*
X0340800Y0325321D02*
X0320083Y0325321D01*
X0317271Y0323324D02*
X0315368Y0323324D01*
X0315600Y0324323D02*
X0316273Y0324323D01*
X0314710Y0322326D02*
X0318270Y0322326D01*
X0312500Y0324500D02*
X0308500Y0328500D01*
X0308500Y0333500D01*
X0309500Y0334500D01*
X0324500Y0334500D01*
X0339500Y0349500D01*
X0351500Y0349500D01*
X0363500Y0337500D01*
X0363500Y0318500D01*
X0385500Y0296500D01*
X0394500Y0296500D01*
X0397386Y0295366D02*
X0398250Y0295366D01*
X0397615Y0296365D02*
X0397600Y0296365D01*
X0396752Y0294368D02*
X0405800Y0294368D01*
X0405800Y0295366D02*
X0402750Y0295366D01*
X0403385Y0296365D02*
X0405800Y0296365D01*
X0405800Y0297363D02*
X0403600Y0297363D01*
X0403499Y0298362D02*
X0405800Y0298362D01*
X0405800Y0299360D02*
X0403024Y0299360D01*
X0401699Y0300359D02*
X0405800Y0300359D01*
X0405800Y0301357D02*
X0399047Y0301357D01*
X0397500Y0300500D02*
X0384500Y0300500D01*
X0365500Y0319500D01*
X0365500Y0338500D01*
X0352500Y0351500D01*
X0338500Y0351500D01*
X0325500Y0338500D01*
X0318500Y0338500D01*
X0316311Y0336305D02*
X0308500Y0336305D01*
X0308500Y0337303D02*
X0315640Y0337303D01*
X0315400Y0338302D02*
X0308500Y0338302D01*
X0308500Y0339301D02*
X0315476Y0339301D01*
X0315915Y0340299D02*
X0308500Y0340299D01*
X0308500Y0341298D02*
X0317153Y0341298D01*
X0319847Y0341298D02*
X0325893Y0341298D01*
X0326892Y0342296D02*
X0308500Y0342296D01*
X0308500Y0343295D02*
X0327890Y0343295D01*
X0328889Y0344293D02*
X0308500Y0344293D01*
X0308500Y0345292D02*
X0310156Y0345292D01*
X0309080Y0346290D02*
X0308500Y0346290D01*
X0308500Y0352281D02*
X0308652Y0352281D01*
X0308500Y0353280D02*
X0309650Y0353280D01*
X0308500Y0354278D02*
X0311531Y0354278D01*
X0314069Y0354278D02*
X0322124Y0354278D01*
X0320626Y0353280D02*
X0315950Y0353280D01*
X0316948Y0352281D02*
X0319793Y0352281D01*
X0319312Y0351283D02*
X0317365Y0351283D01*
X0317700Y0350284D02*
X0319059Y0350284D01*
X0317700Y0349286D02*
X0323700Y0349286D01*
X0323700Y0348287D02*
X0324700Y0348287D01*
X0324700Y0347289D02*
X0323700Y0347289D01*
X0323700Y0346290D02*
X0324700Y0346290D01*
X0324700Y0345292D02*
X0323700Y0345292D01*
X0321146Y0345292D02*
X0315444Y0345292D01*
X0316520Y0346290D02*
X0320105Y0346290D01*
X0319491Y0347289D02*
X0317188Y0347289D01*
X0317601Y0348287D02*
X0319127Y0348287D01*
X0324700Y0349286D02*
X0333881Y0349286D01*
X0332883Y0348287D02*
X0329273Y0348287D01*
X0328909Y0347289D02*
X0331884Y0347289D01*
X0330886Y0346290D02*
X0328295Y0346290D01*
X0327254Y0345292D02*
X0329887Y0345292D01*
X0329341Y0350284D02*
X0334880Y0350284D01*
X0335878Y0351283D02*
X0329088Y0351283D01*
X0328607Y0352281D02*
X0336877Y0352281D01*
X0339693Y0347289D02*
X0351307Y0347289D01*
X0352306Y0346290D02*
X0338694Y0346290D01*
X0337696Y0345292D02*
X0353304Y0345292D01*
X0354303Y0344293D02*
X0336697Y0344293D01*
X0335699Y0343295D02*
X0355301Y0343295D01*
X0356300Y0342296D02*
X0334700Y0342296D01*
X0333702Y0341298D02*
X0357298Y0341298D01*
X0358297Y0340299D02*
X0332703Y0340299D01*
X0331705Y0339301D02*
X0359295Y0339301D01*
X0360294Y0338302D02*
X0330706Y0338302D01*
X0329708Y0337303D02*
X0350919Y0337303D01*
X0350185Y0336305D02*
X0328709Y0336305D01*
X0327711Y0335306D02*
X0349900Y0335306D01*
X0349904Y0334308D02*
X0326712Y0334308D01*
X0325714Y0333309D02*
X0349300Y0333309D01*
X0349300Y0332311D02*
X0341814Y0332311D01*
X0343072Y0331312D02*
X0349300Y0331312D01*
X0349300Y0330314D02*
X0343518Y0330314D01*
X0343600Y0329315D02*
X0349300Y0329315D01*
X0349779Y0328317D02*
X0344087Y0328317D01*
X0344200Y0327318D02*
X0350777Y0327318D01*
X0351776Y0326320D02*
X0344200Y0326320D01*
X0344200Y0325321D02*
X0351800Y0325321D01*
X0351800Y0324323D02*
X0344200Y0324323D01*
X0344200Y0323324D02*
X0350920Y0323324D01*
X0349922Y0322326D02*
X0348779Y0322326D01*
X0346221Y0322326D02*
X0344200Y0322326D01*
X0344200Y0321327D02*
X0344943Y0321327D01*
X0344488Y0320329D02*
X0344200Y0320329D01*
X0342500Y0319500D02*
X0344500Y0317500D01*
X0344500Y0314500D01*
X0337500Y0307500D01*
X0337500Y0303500D01*
X0340381Y0302356D02*
X0344951Y0302356D01*
X0343953Y0301357D02*
X0339741Y0301357D01*
X0340600Y0303354D02*
X0345950Y0303354D01*
X0346948Y0304353D02*
X0340502Y0304353D01*
X0340033Y0305351D02*
X0347947Y0305351D01*
X0348945Y0306350D02*
X0339200Y0306350D01*
X0339752Y0307348D02*
X0349944Y0307348D01*
X0350943Y0308347D02*
X0340751Y0308347D01*
X0341749Y0309345D02*
X0351941Y0309345D01*
X0352940Y0310344D02*
X0342748Y0310344D01*
X0343746Y0311342D02*
X0353938Y0311342D01*
X0354937Y0312341D02*
X0344745Y0312341D01*
X0345743Y0313339D02*
X0360955Y0313339D01*
X0362250Y0314338D02*
X0346200Y0314338D01*
X0346200Y0315336D02*
X0364260Y0315336D01*
X0364750Y0314338D02*
X0365258Y0314338D01*
X0366045Y0313339D02*
X0366257Y0313339D01*
X0366507Y0312341D02*
X0367255Y0312341D01*
X0366600Y0311342D02*
X0368254Y0311342D01*
X0369252Y0310344D02*
X0366376Y0310344D01*
X0365729Y0309345D02*
X0370251Y0309345D01*
X0371249Y0308347D02*
X0365037Y0308347D01*
X0365504Y0307348D02*
X0366275Y0307348D01*
X0368725Y0307348D02*
X0372248Y0307348D01*
X0373246Y0306350D02*
X0370034Y0306350D01*
X0370500Y0304500D02*
X0393500Y0281500D01*
X0389500Y0277500D01*
X0389500Y0272500D01*
X0391500Y0270500D01*
X0392602Y0273399D02*
X0408995Y0273399D01*
X0409800Y0274397D02*
X0391200Y0274397D01*
X0391200Y0275396D02*
X0409800Y0275396D01*
X0409800Y0276394D02*
X0391200Y0276394D01*
X0391797Y0277393D02*
X0409203Y0277393D01*
X0408205Y0278391D02*
X0392795Y0278391D01*
X0393500Y0275500D02*
X0407500Y0275500D01*
X0406401Y0272400D02*
X0393984Y0272400D01*
X0394482Y0271402D02*
X0405018Y0271402D01*
X0404519Y0270403D02*
X0394600Y0270403D01*
X0394402Y0269405D02*
X0404400Y0269405D01*
X0404598Y0268406D02*
X0393790Y0268406D01*
X0392976Y0267408D02*
X0405208Y0267408D01*
X0406861Y0266409D02*
X0393479Y0266409D01*
X0393600Y0265411D02*
X0403426Y0265411D01*
X0402028Y0264412D02*
X0393405Y0264412D01*
X0392798Y0263414D02*
X0401523Y0263414D01*
X0401400Y0262415D02*
X0391153Y0262415D01*
X0389847Y0262415D02*
X0383989Y0262415D01*
X0382990Y0263414D02*
X0388202Y0263414D01*
X0387595Y0264412D02*
X0381992Y0264412D01*
X0380993Y0265411D02*
X0387400Y0265411D01*
X0387187Y0266409D02*
X0379995Y0266409D01*
X0378996Y0267408D02*
X0386188Y0267408D01*
X0385800Y0268406D02*
X0377998Y0268406D01*
X0376999Y0269405D02*
X0385800Y0269405D01*
X0385800Y0270403D02*
X0376001Y0270403D01*
X0375002Y0271402D02*
X0385800Y0271402D01*
X0385800Y0272400D02*
X0374004Y0272400D01*
X0373005Y0273399D02*
X0385800Y0273399D01*
X0385800Y0274397D02*
X0372200Y0274397D01*
X0372200Y0275396D02*
X0385800Y0275396D01*
X0385800Y0276394D02*
X0372200Y0276394D01*
X0372200Y0277393D02*
X0385800Y0277393D01*
X0385800Y0278391D02*
X0372200Y0278391D01*
X0372774Y0279390D02*
X0385800Y0279390D01*
X0385800Y0280388D02*
X0373395Y0280388D01*
X0373600Y0281387D02*
X0385800Y0281387D01*
X0385800Y0282385D02*
X0373489Y0282385D01*
X0373000Y0283384D02*
X0385800Y0283384D01*
X0385213Y0284382D02*
X0371642Y0284382D01*
X0369358Y0284382D02*
X0364668Y0284382D01*
X0364668Y0283384D02*
X0368000Y0283384D01*
X0367511Y0282385D02*
X0364523Y0282385D01*
X0364968Y0281387D02*
X0367400Y0281387D01*
X0367605Y0280388D02*
X0364968Y0280388D01*
X0364968Y0278391D02*
X0368800Y0278391D01*
X0368800Y0277393D02*
X0364968Y0277393D01*
X0364858Y0276394D02*
X0368800Y0276394D01*
X0368800Y0275396D02*
X0323200Y0275396D01*
X0323200Y0276394D02*
X0325142Y0276394D01*
X0324500Y0276500D02*
X0327154Y0279154D01*
X0328500Y0279154D01*
X0328984Y0279390D02*
X0361016Y0279390D01*
X0361500Y0279154D02*
X0361846Y0279500D01*
X0362500Y0279500D01*
X0371500Y0288500D01*
X0377500Y0288500D01*
X0381500Y0284500D01*
X0383216Y0286379D02*
X0364668Y0286379D01*
X0364668Y0285381D02*
X0384215Y0285381D01*
X0382218Y0287378D02*
X0364668Y0287378D01*
X0364668Y0288376D02*
X0381219Y0288376D01*
X0380221Y0289375D02*
X0363200Y0289375D01*
X0363200Y0290373D02*
X0379222Y0290373D01*
X0378224Y0291372D02*
X0363200Y0291372D01*
X0363200Y0292370D02*
X0377225Y0292370D01*
X0376227Y0293369D02*
X0363200Y0293369D01*
X0363200Y0294368D02*
X0375228Y0294368D01*
X0375500Y0296500D02*
X0387500Y0284500D01*
X0387500Y0268500D01*
X0390500Y0265500D01*
X0383500Y0260500D02*
X0402500Y0260500D01*
X0404500Y0262500D01*
X0407600Y0262415D02*
X0412011Y0262415D01*
X0411850Y0263414D02*
X0407477Y0263414D01*
X0406972Y0264412D02*
X0410204Y0264412D01*
X0409596Y0265411D02*
X0405574Y0265411D01*
X0408139Y0266409D02*
X0409400Y0266409D01*
X0412500Y0266500D02*
X0413500Y0267500D01*
X0413500Y0278500D01*
X0409500Y0282500D01*
X0409500Y0302500D01*
X0417500Y0310500D01*
X0423500Y0310500D01*
X0430500Y0303500D01*
X0432500Y0303500D01*
X0431500Y0303500D01*
X0426500Y0301500D02*
X0426500Y0287500D01*
X0422500Y0283500D01*
X0421351Y0286379D02*
X0415200Y0286379D01*
X0415200Y0287378D02*
X0423974Y0287378D01*
X0424800Y0288376D02*
X0415200Y0288376D01*
X0415200Y0289375D02*
X0424800Y0289375D01*
X0424800Y0290373D02*
X0415200Y0290373D01*
X0415200Y0291372D02*
X0424800Y0291372D01*
X0424800Y0292370D02*
X0415200Y0292370D01*
X0415200Y0293369D02*
X0424800Y0293369D01*
X0424800Y0294368D02*
X0415200Y0294368D01*
X0415200Y0295366D02*
X0424800Y0295366D01*
X0424800Y0296365D02*
X0416749Y0296365D01*
X0417384Y0297363D02*
X0424800Y0297363D01*
X0424800Y0298362D02*
X0417600Y0298362D01*
X0417499Y0299360D02*
X0424800Y0299360D01*
X0424800Y0300359D02*
X0417025Y0300359D01*
X0415703Y0301357D02*
X0423259Y0301357D01*
X0422619Y0302356D02*
X0411760Y0302356D01*
X0411200Y0301357D02*
X0413297Y0301357D01*
X0411975Y0300359D02*
X0411200Y0300359D01*
X0411200Y0299360D02*
X0411501Y0299360D01*
X0411400Y0298362D02*
X0411200Y0298362D01*
X0411200Y0297363D02*
X0411616Y0297363D01*
X0411800Y0296365D02*
X0411200Y0296365D01*
X0411200Y0295366D02*
X0411800Y0295366D01*
X0411800Y0294368D02*
X0411200Y0294368D01*
X0411200Y0293369D02*
X0411800Y0293369D01*
X0411800Y0292370D02*
X0411200Y0292370D01*
X0411200Y0291372D02*
X0411800Y0291372D01*
X0411800Y0290373D02*
X0411200Y0290373D01*
X0411200Y0289375D02*
X0411800Y0289375D01*
X0411800Y0288376D02*
X0411200Y0288376D01*
X0411200Y0287378D02*
X0411800Y0287378D01*
X0411800Y0286379D02*
X0411200Y0286379D01*
X0413500Y0283500D02*
X0413500Y0297500D01*
X0414500Y0298500D01*
X0412758Y0303354D02*
X0422400Y0303354D01*
X0422498Y0304353D02*
X0413757Y0304353D01*
X0414755Y0305351D02*
X0422967Y0305351D01*
X0424279Y0306350D02*
X0415754Y0306350D01*
X0416752Y0307348D02*
X0424248Y0307348D01*
X0423249Y0308347D02*
X0417751Y0308347D01*
X0416500Y0312500D02*
X0407500Y0303500D01*
X0407500Y0281500D01*
X0411500Y0277500D01*
X0411500Y0273500D01*
X0407500Y0269500D01*
X0407407Y0261417D02*
X0411012Y0261417D01*
X0410014Y0260418D02*
X0406802Y0260418D01*
X0405164Y0259420D02*
X0409015Y0259420D01*
X0409500Y0257500D02*
X0416500Y0264500D01*
X0416500Y0273500D01*
X0418500Y0275500D01*
X0419620Y0278391D02*
X0427800Y0278391D01*
X0427800Y0277393D02*
X0420991Y0277393D01*
X0421485Y0276394D02*
X0427800Y0276394D01*
X0427800Y0275396D02*
X0421600Y0275396D01*
X0421399Y0274397D02*
X0427800Y0274397D01*
X0427500Y0274500D02*
X0427500Y0254500D01*
X0425500Y0252500D01*
X0427026Y0252430D02*
X0412834Y0252430D01*
X0413833Y0253429D02*
X0427800Y0253429D01*
X0427800Y0254427D02*
X0414831Y0254427D01*
X0415830Y0255426D02*
X0427800Y0255426D01*
X0427800Y0256424D02*
X0416828Y0256424D01*
X0417827Y0257423D02*
X0427800Y0257423D01*
X0427800Y0258421D02*
X0418825Y0258421D01*
X0419824Y0259420D02*
X0427800Y0259420D01*
X0427800Y0260418D02*
X0420822Y0260418D01*
X0421821Y0261417D02*
X0427800Y0261417D01*
X0427800Y0262415D02*
X0424153Y0262415D01*
X0422847Y0262415D02*
X0422819Y0262415D01*
X0425798Y0263414D02*
X0427800Y0263414D01*
X0427800Y0264412D02*
X0426405Y0264412D01*
X0426600Y0265411D02*
X0427800Y0265411D01*
X0427800Y0266409D02*
X0426479Y0266409D01*
X0425976Y0267408D02*
X0427800Y0267408D01*
X0427800Y0268406D02*
X0424584Y0268406D01*
X0423402Y0269405D02*
X0427800Y0269405D01*
X0427800Y0270403D02*
X0423600Y0270403D01*
X0423482Y0271402D02*
X0427800Y0271402D01*
X0427800Y0272400D02*
X0422984Y0272400D01*
X0421602Y0273399D02*
X0427800Y0273399D01*
X0427500Y0274500D02*
X0423500Y0278500D01*
X0424771Y0281387D02*
X0427800Y0281387D01*
X0427800Y0282385D02*
X0425394Y0282385D01*
X0425600Y0283384D02*
X0427800Y0283384D01*
X0427800Y0284382D02*
X0425787Y0284382D01*
X0426785Y0285381D02*
X0427800Y0285381D01*
X0427784Y0286379D02*
X0427800Y0286379D01*
X0431200Y0286379D02*
X0448691Y0286379D01*
X0448724Y0286346D02*
X0450525Y0285600D01*
X0452475Y0285600D01*
X0454276Y0286346D01*
X0455654Y0287724D01*
X0456400Y0289525D01*
X0456400Y0291475D01*
X0455654Y0293276D01*
X0454276Y0294654D01*
X0452475Y0295400D01*
X0450525Y0295400D01*
X0448724Y0294654D01*
X0447346Y0293276D01*
X0446600Y0291475D01*
X0446600Y0289525D01*
X0447346Y0287724D01*
X0448724Y0286346D01*
X0447692Y0287378D02*
X0437762Y0287378D01*
X0438128Y0287744D02*
X0438151Y0287800D01*
X0440843Y0287800D01*
X0440877Y0287768D01*
X0441540Y0287800D01*
X0442204Y0287800D01*
X0442237Y0287833D01*
X0442284Y0287835D01*
X0442731Y0288326D01*
X0443200Y0288796D01*
X0443200Y0288843D01*
X0449666Y0295956D01*
X0450525Y0295600D01*
X0452475Y0295600D01*
X0454276Y0296346D01*
X0455654Y0297724D01*
X0456400Y0299525D01*
X0456400Y0301475D01*
X0455654Y0303276D01*
X0454276Y0304654D01*
X0452475Y0305400D01*
X0450525Y0305400D01*
X0448724Y0304654D01*
X0447346Y0303276D01*
X0446600Y0301475D01*
X0446600Y0299525D01*
X0447137Y0298228D01*
X0440748Y0291200D01*
X0438151Y0291200D01*
X0438128Y0291256D01*
X0437256Y0292128D01*
X0436117Y0292600D01*
X0434883Y0292600D01*
X0433744Y0292128D01*
X0432872Y0291256D01*
X0432400Y0290117D01*
X0432400Y0288883D01*
X0432872Y0287744D01*
X0433744Y0286872D01*
X0434883Y0286400D01*
X0436117Y0286400D01*
X0437256Y0286872D01*
X0438128Y0287744D01*
X0435500Y0289500D02*
X0441500Y0289500D01*
X0451500Y0300500D01*
X0456035Y0302356D02*
X0456500Y0302356D01*
X0456500Y0303354D02*
X0455576Y0303354D01*
X0456500Y0304353D02*
X0454577Y0304353D01*
X0454276Y0306346D02*
X0455654Y0307724D01*
X0456400Y0309525D01*
X0456400Y0311475D01*
X0455654Y0313276D01*
X0454276Y0314654D01*
X0452475Y0315400D01*
X0450525Y0315400D01*
X0448724Y0314654D01*
X0447346Y0313276D01*
X0446600Y0311475D01*
X0446600Y0309525D01*
X0447346Y0307724D01*
X0448724Y0306346D01*
X0450525Y0305600D01*
X0452475Y0305600D01*
X0454276Y0306346D01*
X0454279Y0306350D02*
X0456500Y0306350D01*
X0456500Y0307348D02*
X0455278Y0307348D01*
X0455912Y0308347D02*
X0456500Y0308347D01*
X0456500Y0309345D02*
X0456325Y0309345D01*
X0456400Y0310344D02*
X0456500Y0310344D01*
X0456500Y0311342D02*
X0456400Y0311342D01*
X0456500Y0312341D02*
X0456041Y0312341D01*
X0455590Y0313339D02*
X0456500Y0313339D01*
X0456500Y0314338D02*
X0454592Y0314338D01*
X0454249Y0316335D02*
X0456500Y0316335D01*
X0456500Y0317333D02*
X0455263Y0317333D01*
X0455654Y0317724D02*
X0456400Y0319525D01*
X0456400Y0321475D01*
X0455654Y0323276D01*
X0454276Y0324654D01*
X0452475Y0325400D01*
X0450525Y0325400D01*
X0448724Y0324654D01*
X0447346Y0323276D01*
X0446600Y0321475D01*
X0446600Y0319525D01*
X0447346Y0317724D01*
X0448724Y0316346D01*
X0450525Y0315600D01*
X0452475Y0315600D01*
X0454276Y0316346D01*
X0455654Y0317724D01*
X0455906Y0318332D02*
X0456500Y0318332D01*
X0456500Y0319330D02*
X0456319Y0319330D01*
X0456400Y0320329D02*
X0456500Y0320329D01*
X0456500Y0321327D02*
X0456400Y0321327D01*
X0456500Y0322326D02*
X0456047Y0322326D01*
X0455605Y0323324D02*
X0456500Y0323324D01*
X0456500Y0324323D02*
X0454607Y0324323D01*
X0456500Y0325321D02*
X0452665Y0325321D01*
X0450335Y0325321D02*
X0440668Y0325321D01*
X0440668Y0325184D02*
X0440668Y0328611D01*
X0441165Y0329107D01*
X0442161Y0330103D01*
X0442161Y0331361D01*
X0442217Y0331384D01*
X0443089Y0332256D01*
X0443561Y0333395D01*
X0443561Y0334628D01*
X0443089Y0335768D01*
X0442217Y0336640D01*
X0441077Y0337112D01*
X0439844Y0337112D01*
X0438705Y0336640D01*
X0437833Y0335768D01*
X0437809Y0335712D01*
X0433692Y0335712D01*
X0431004Y0338400D01*
X0432117Y0338400D01*
X0433256Y0338872D01*
X0434128Y0339744D01*
X0434600Y0340883D01*
X0434600Y0342117D01*
X0434128Y0343256D01*
X0433256Y0344128D01*
X0432117Y0344600D01*
X0430883Y0344600D01*
X0430827Y0344577D01*
X0425204Y0350200D01*
X0412796Y0350200D01*
X0411800Y0349204D01*
X0408796Y0346200D01*
X0374796Y0346200D01*
X0370796Y0342200D01*
X0369800Y0341204D01*
X0369800Y0328565D01*
X0368744Y0328128D01*
X0367872Y0327256D01*
X0367400Y0326117D01*
X0367400Y0324883D01*
X0367872Y0323744D01*
X0368744Y0322872D01*
X0369270Y0322654D01*
X0368872Y0322256D01*
X0368400Y0321117D01*
X0368400Y0319883D01*
X0368872Y0318744D01*
X0369744Y0317872D01*
X0370883Y0317400D01*
X0372117Y0317400D01*
X0373256Y0317872D01*
X0374128Y0318744D01*
X0374600Y0319883D01*
X0374600Y0321117D01*
X0374577Y0321173D01*
X0379200Y0325796D01*
X0379200Y0332800D01*
X0394204Y0332800D01*
X0401204Y0339800D01*
X0410204Y0339800D01*
X0415204Y0344800D01*
X0419796Y0344800D01*
X0431288Y0333308D01*
X0432284Y0332312D01*
X0437809Y0332312D01*
X0437833Y0332256D01*
X0438669Y0331420D01*
X0438461Y0331212D01*
X0435034Y0331212D01*
X0434331Y0330509D01*
X0434331Y0325184D01*
X0434855Y0324660D01*
X0434610Y0324519D01*
X0434331Y0324240D01*
X0434134Y0323898D01*
X0434031Y0323516D01*
X0434031Y0321638D01*
X0437016Y0321638D01*
X0437016Y0320669D01*
X0437984Y0320669D01*
X0437984Y0317488D01*
X0439666Y0317488D01*
X0440047Y0317590D01*
X0440390Y0317788D01*
X0440669Y0318067D01*
X0440866Y0318409D01*
X0440968Y0318791D01*
X0440968Y0320669D01*
X0437984Y0320669D01*
X0437984Y0321638D01*
X0440968Y0321638D01*
X0440968Y0323516D01*
X0440866Y0323898D01*
X0440669Y0324240D01*
X0440390Y0324519D01*
X0440145Y0324660D01*
X0440668Y0325184D01*
X0440586Y0324323D02*
X0448393Y0324323D01*
X0447395Y0323324D02*
X0440968Y0323324D01*
X0440968Y0322326D02*
X0446953Y0322326D01*
X0446600Y0321327D02*
X0437984Y0321327D01*
X0437500Y0321154D02*
X0436154Y0321154D01*
X0432500Y0317500D01*
X0432500Y0315059D01*
X0431941Y0314500D01*
X0429988Y0314500D01*
X0415154Y0329335D01*
X0415154Y0333500D01*
X0412154Y0336500D01*
X0404500Y0336500D01*
X0400705Y0339301D02*
X0414315Y0339301D01*
X0414744Y0338872D02*
X0415883Y0338400D01*
X0417117Y0338400D01*
X0417173Y0338423D01*
X0419056Y0336540D01*
X0418660Y0336145D01*
X0418519Y0336390D01*
X0418240Y0336669D01*
X0417898Y0336866D01*
X0417516Y0336968D01*
X0415638Y0336968D01*
X0415638Y0333984D01*
X0414669Y0333984D01*
X0414669Y0333016D01*
X0411488Y0333016D01*
X0411488Y0331334D01*
X0411590Y0330953D01*
X0411788Y0330610D01*
X0412067Y0330331D01*
X0412409Y0330134D01*
X0412791Y0330031D01*
X0414669Y0330031D01*
X0414669Y0333016D01*
X0415638Y0333016D01*
X0415638Y0330031D01*
X0417516Y0330031D01*
X0417898Y0330134D01*
X0418240Y0330331D01*
X0418519Y0330610D01*
X0418660Y0330855D01*
X0419184Y0330331D01*
X0424509Y0330331D01*
X0425212Y0331034D01*
X0425212Y0335966D01*
X0424509Y0336668D01*
X0423546Y0336668D01*
X0423546Y0336858D01*
X0422551Y0337854D01*
X0419577Y0340827D01*
X0419600Y0340883D01*
X0419600Y0342117D01*
X0419128Y0343256D01*
X0418256Y0344128D01*
X0417117Y0344600D01*
X0415883Y0344600D01*
X0414744Y0344128D01*
X0413872Y0343256D01*
X0413400Y0342117D01*
X0413400Y0340883D01*
X0413872Y0339744D01*
X0414744Y0338872D01*
X0413642Y0340299D02*
X0410703Y0340299D01*
X0411702Y0341298D02*
X0413400Y0341298D01*
X0413474Y0342296D02*
X0412700Y0342296D01*
X0413699Y0343295D02*
X0413911Y0343295D01*
X0414697Y0344293D02*
X0415142Y0344293D01*
X0414500Y0346500D02*
X0409500Y0341500D01*
X0400500Y0341500D01*
X0393500Y0334500D01*
X0377500Y0334500D01*
X0377500Y0326500D01*
X0371500Y0320500D01*
X0374371Y0319330D02*
X0399489Y0319330D01*
X0399400Y0319117D02*
X0399400Y0317883D01*
X0399872Y0316744D01*
X0400744Y0315872D01*
X0401883Y0315400D01*
X0403117Y0315400D01*
X0404256Y0315872D01*
X0405128Y0316744D01*
X0405151Y0316800D01*
X0409849Y0316800D01*
X0409872Y0316744D01*
X0410744Y0315872D01*
X0411883Y0315400D01*
X0413117Y0315400D01*
X0414256Y0315872D01*
X0415128Y0316744D01*
X0415600Y0317883D01*
X0415600Y0319117D01*
X0415128Y0320256D01*
X0414256Y0321128D01*
X0413117Y0321600D01*
X0411883Y0321600D01*
X0410744Y0321128D01*
X0409872Y0320256D01*
X0409849Y0320200D01*
X0405151Y0320200D01*
X0405128Y0320256D01*
X0404256Y0321128D01*
X0403117Y0321600D01*
X0401883Y0321600D01*
X0400744Y0321128D01*
X0399872Y0320256D01*
X0399400Y0319117D01*
X0399400Y0318332D02*
X0373716Y0318332D01*
X0374600Y0320329D02*
X0399945Y0320329D01*
X0401225Y0321327D02*
X0374731Y0321327D01*
X0375730Y0322326D02*
X0434031Y0322326D01*
X0434031Y0323324D02*
X0376728Y0323324D01*
X0377727Y0324323D02*
X0434414Y0324323D01*
X0434331Y0325321D02*
X0378726Y0325321D01*
X0379200Y0326320D02*
X0434331Y0326320D01*
X0434331Y0327318D02*
X0379200Y0327318D01*
X0379200Y0328317D02*
X0434331Y0328317D01*
X0434331Y0329315D02*
X0379200Y0329315D01*
X0379200Y0330314D02*
X0412097Y0330314D01*
X0411494Y0331312D02*
X0379200Y0331312D01*
X0379200Y0332311D02*
X0411488Y0332311D01*
X0411488Y0333984D02*
X0414669Y0333984D01*
X0414669Y0336968D01*
X0412791Y0336968D01*
X0412409Y0336866D01*
X0412067Y0336669D01*
X0411788Y0336390D01*
X0411590Y0336047D01*
X0411488Y0335666D01*
X0411488Y0333984D01*
X0411488Y0334308D02*
X0395712Y0334308D01*
X0394714Y0333309D02*
X0414669Y0333309D01*
X0414669Y0332311D02*
X0415638Y0332311D01*
X0415638Y0331312D02*
X0414669Y0331312D01*
X0414669Y0330314D02*
X0415638Y0330314D01*
X0418210Y0330314D02*
X0434331Y0330314D01*
X0432988Y0334012D02*
X0440461Y0334012D01*
X0440461Y0330807D01*
X0437500Y0327846D01*
X0440668Y0328317D02*
X0456500Y0328317D01*
X0456500Y0329315D02*
X0441373Y0329315D01*
X0442161Y0330314D02*
X0456500Y0330314D01*
X0456500Y0331312D02*
X0442161Y0331312D01*
X0443112Y0332311D02*
X0456500Y0332311D01*
X0456500Y0333309D02*
X0443525Y0333309D01*
X0443561Y0334308D02*
X0456500Y0334308D01*
X0456500Y0335306D02*
X0443280Y0335306D01*
X0442552Y0336305D02*
X0456500Y0336305D01*
X0456500Y0337303D02*
X0432101Y0337303D01*
X0433099Y0336305D02*
X0438370Y0336305D01*
X0437810Y0332311D02*
X0425212Y0332311D01*
X0425212Y0333309D02*
X0431286Y0333309D01*
X0430288Y0334308D02*
X0425212Y0334308D01*
X0425212Y0335306D02*
X0429289Y0335306D01*
X0428291Y0336305D02*
X0424872Y0336305D01*
X0423101Y0337303D02*
X0427292Y0337303D01*
X0426294Y0338302D02*
X0422102Y0338302D01*
X0421104Y0339301D02*
X0425295Y0339301D01*
X0424297Y0340299D02*
X0420105Y0340299D01*
X0419600Y0341298D02*
X0423298Y0341298D01*
X0422300Y0342296D02*
X0419526Y0342296D01*
X0419089Y0343295D02*
X0421301Y0343295D01*
X0420303Y0344293D02*
X0417858Y0344293D01*
X0416500Y0341500D02*
X0421846Y0336154D01*
X0421846Y0333500D01*
X0425212Y0331312D02*
X0438562Y0331312D01*
X0440668Y0327318D02*
X0456500Y0327318D01*
X0456500Y0326320D02*
X0440668Y0326320D01*
X0440968Y0320329D02*
X0446600Y0320329D01*
X0446681Y0319330D02*
X0440968Y0319330D01*
X0440822Y0318332D02*
X0447094Y0318332D01*
X0447737Y0317333D02*
X0439072Y0317333D01*
X0439637Y0316335D02*
X0448751Y0316335D01*
X0450371Y0315336D02*
X0439637Y0315336D01*
X0439637Y0314338D02*
X0448408Y0314338D01*
X0447410Y0313339D02*
X0439637Y0313339D01*
X0439637Y0312341D02*
X0446959Y0312341D01*
X0446600Y0311342D02*
X0439200Y0311342D01*
X0439200Y0310344D02*
X0446600Y0310344D01*
X0446675Y0309345D02*
X0439200Y0309345D01*
X0439200Y0308347D02*
X0447088Y0308347D01*
X0447722Y0307348D02*
X0439200Y0307348D01*
X0439200Y0306350D02*
X0448721Y0306350D01*
X0450407Y0305351D02*
X0439200Y0305351D01*
X0439200Y0304353D02*
X0448423Y0304353D01*
X0447424Y0303354D02*
X0439200Y0303354D01*
X0438760Y0302356D02*
X0446965Y0302356D01*
X0446600Y0301357D02*
X0437761Y0301357D01*
X0436763Y0300359D02*
X0446600Y0300359D01*
X0446668Y0299360D02*
X0435764Y0299360D01*
X0434766Y0298362D02*
X0447082Y0298362D01*
X0446351Y0297363D02*
X0433767Y0297363D01*
X0432769Y0296365D02*
X0445443Y0296365D01*
X0444535Y0295366D02*
X0431770Y0295366D01*
X0431200Y0294368D02*
X0443628Y0294368D01*
X0442720Y0293369D02*
X0431200Y0293369D01*
X0431200Y0292370D02*
X0434329Y0292370D01*
X0432988Y0291372D02*
X0431200Y0291372D01*
X0431200Y0290373D02*
X0432506Y0290373D01*
X0432400Y0289375D02*
X0431200Y0289375D01*
X0431200Y0288376D02*
X0432610Y0288376D01*
X0433238Y0287378D02*
X0431200Y0287378D01*
X0431200Y0285381D02*
X0450479Y0285381D01*
X0450525Y0285400D02*
X0448724Y0284654D01*
X0447346Y0283276D01*
X0446600Y0281475D01*
X0446600Y0279525D01*
X0447346Y0277724D01*
X0448724Y0276346D01*
X0450525Y0275600D01*
X0452475Y0275600D01*
X0454276Y0276346D01*
X0455654Y0277724D01*
X0456400Y0279525D01*
X0456400Y0281475D01*
X0455654Y0283276D01*
X0454276Y0284654D01*
X0452475Y0285400D01*
X0450525Y0285400D01*
X0452521Y0285381D02*
X0456500Y0285381D01*
X0456500Y0286379D02*
X0454309Y0286379D01*
X0455308Y0287378D02*
X0456500Y0287378D01*
X0456500Y0288376D02*
X0455924Y0288376D01*
X0456338Y0289375D02*
X0456500Y0289375D01*
X0456500Y0290373D02*
X0456400Y0290373D01*
X0456400Y0291372D02*
X0456500Y0291372D01*
X0456500Y0292370D02*
X0456029Y0292370D01*
X0455561Y0293369D02*
X0456500Y0293369D01*
X0456500Y0294368D02*
X0454562Y0294368D01*
X0454294Y0296365D02*
X0456500Y0296365D01*
X0456500Y0297363D02*
X0455293Y0297363D01*
X0455918Y0298362D02*
X0456500Y0298362D01*
X0456500Y0299360D02*
X0456332Y0299360D01*
X0456400Y0300359D02*
X0456500Y0300359D01*
X0456500Y0301357D02*
X0456400Y0301357D01*
X0456500Y0305351D02*
X0452593Y0305351D01*
X0452629Y0315336D02*
X0456500Y0315336D01*
X0437984Y0318332D02*
X0437016Y0318332D01*
X0437016Y0317488D02*
X0437016Y0320669D01*
X0434031Y0320669D01*
X0434031Y0318791D01*
X0434134Y0318409D01*
X0434331Y0318067D01*
X0434610Y0317788D01*
X0434953Y0317590D01*
X0435334Y0317488D01*
X0437016Y0317488D01*
X0437016Y0319330D02*
X0437984Y0319330D01*
X0437984Y0320329D02*
X0437016Y0320329D01*
X0437016Y0321327D02*
X0413775Y0321327D01*
X0415055Y0320329D02*
X0434031Y0320329D01*
X0434031Y0319330D02*
X0415511Y0319330D01*
X0415600Y0318332D02*
X0434178Y0318332D01*
X0434379Y0317333D02*
X0435046Y0317333D01*
X0432130Y0317333D02*
X0431752Y0317333D01*
X0431752Y0316335D02*
X0432130Y0316335D01*
X0432130Y0315336D02*
X0431752Y0315336D01*
X0431752Y0314338D02*
X0390508Y0314338D01*
X0390600Y0314117D02*
X0390128Y0315256D01*
X0389256Y0316128D01*
X0388117Y0316600D01*
X0386883Y0316600D01*
X0385744Y0316128D01*
X0384872Y0315256D01*
X0384849Y0315200D01*
X0381151Y0315200D01*
X0381128Y0315256D01*
X0380256Y0316128D01*
X0379117Y0316600D01*
X0377883Y0316600D01*
X0376744Y0316128D01*
X0375872Y0315256D01*
X0375400Y0314117D01*
X0375400Y0312883D01*
X0375872Y0311744D01*
X0376744Y0310872D01*
X0377883Y0310400D01*
X0379117Y0310400D01*
X0380256Y0310872D01*
X0381128Y0311744D01*
X0381151Y0311800D01*
X0384849Y0311800D01*
X0384872Y0311744D01*
X0385744Y0310872D01*
X0386883Y0310400D01*
X0388117Y0310400D01*
X0389256Y0310872D01*
X0390128Y0311744D01*
X0390600Y0312883D01*
X0390600Y0314117D01*
X0390600Y0313339D02*
X0414935Y0313339D01*
X0413937Y0312341D02*
X0390375Y0312341D01*
X0389726Y0311342D02*
X0412938Y0311342D01*
X0411940Y0310344D02*
X0377060Y0310344D01*
X0376274Y0311342D02*
X0376062Y0311342D01*
X0375625Y0312341D02*
X0375063Y0312341D01*
X0375400Y0313339D02*
X0374065Y0313339D01*
X0373066Y0314338D02*
X0375492Y0314338D01*
X0375952Y0315336D02*
X0372068Y0315336D01*
X0371069Y0316335D02*
X0377243Y0316335D01*
X0379757Y0316335D02*
X0386243Y0316335D01*
X0384952Y0315336D02*
X0381048Y0315336D01*
X0378500Y0313500D02*
X0387500Y0313500D01*
X0385274Y0311342D02*
X0380726Y0311342D01*
X0378059Y0309345D02*
X0410941Y0309345D01*
X0409943Y0308347D02*
X0379057Y0308347D01*
X0380056Y0307348D02*
X0408944Y0307348D01*
X0407945Y0306350D02*
X0381055Y0306350D01*
X0382053Y0305351D02*
X0406947Y0305351D01*
X0405948Y0304353D02*
X0383052Y0304353D01*
X0384050Y0303354D02*
X0405800Y0303354D01*
X0405800Y0302356D02*
X0385049Y0302356D01*
X0381234Y0298362D02*
X0379043Y0298362D01*
X0378044Y0299360D02*
X0380236Y0299360D01*
X0379237Y0300359D02*
X0377046Y0300359D01*
X0376047Y0301357D02*
X0378239Y0301357D01*
X0377240Y0302356D02*
X0375049Y0302356D01*
X0374050Y0303354D02*
X0376242Y0303354D01*
X0375243Y0304353D02*
X0373052Y0304353D01*
X0372053Y0305351D02*
X0374245Y0305351D01*
X0370500Y0304500D02*
X0367500Y0304500D01*
X0362500Y0302500D02*
X0368500Y0296500D01*
X0375500Y0296500D01*
X0380041Y0297363D02*
X0382233Y0297363D01*
X0383231Y0296365D02*
X0381040Y0296365D01*
X0382038Y0295366D02*
X0384230Y0295366D01*
X0383037Y0294368D02*
X0392248Y0294368D01*
X0388029Y0289375D02*
X0405800Y0289375D01*
X0405800Y0290373D02*
X0387031Y0290373D01*
X0386032Y0291372D02*
X0405800Y0291372D01*
X0405800Y0292370D02*
X0385034Y0292370D01*
X0384035Y0293369D02*
X0405800Y0293369D01*
X0405800Y0288376D02*
X0389028Y0288376D01*
X0390026Y0287378D02*
X0405800Y0287378D01*
X0405800Y0286379D02*
X0391025Y0286379D01*
X0392023Y0285381D02*
X0405800Y0285381D01*
X0405800Y0284382D02*
X0394642Y0284382D01*
X0396000Y0283384D02*
X0405800Y0283384D01*
X0405800Y0282385D02*
X0396489Y0282385D01*
X0396600Y0281387D02*
X0405800Y0281387D01*
X0406207Y0280388D02*
X0396395Y0280388D01*
X0395774Y0279390D02*
X0407206Y0279390D01*
X0414016Y0280388D02*
X0427800Y0280388D01*
X0427800Y0279390D02*
X0415014Y0279390D01*
X0415200Y0278391D02*
X0417380Y0278391D01*
X0416009Y0277393D02*
X0415200Y0277393D01*
X0415200Y0276394D02*
X0415515Y0276394D01*
X0415400Y0275396D02*
X0415200Y0275396D01*
X0415771Y0281387D02*
X0420229Y0281387D01*
X0419606Y0282385D02*
X0416394Y0282385D01*
X0416600Y0283384D02*
X0419400Y0283384D01*
X0419510Y0284382D02*
X0416490Y0284382D01*
X0416003Y0285381D02*
X0419997Y0285381D01*
X0431200Y0284382D02*
X0448453Y0284382D01*
X0447454Y0283384D02*
X0431200Y0283384D01*
X0431200Y0282385D02*
X0446977Y0282385D01*
X0446600Y0281387D02*
X0431200Y0281387D01*
X0431200Y0280388D02*
X0446600Y0280388D01*
X0446656Y0279390D02*
X0431200Y0279390D01*
X0431200Y0278391D02*
X0447070Y0278391D01*
X0447678Y0277393D02*
X0431200Y0277393D01*
X0431200Y0276394D02*
X0448676Y0276394D01*
X0448724Y0274654D02*
X0447346Y0273276D01*
X0446600Y0271475D01*
X0446600Y0269525D01*
X0447346Y0267724D01*
X0448724Y0266346D01*
X0450525Y0265600D01*
X0452475Y0265600D01*
X0454276Y0266346D01*
X0455654Y0267724D01*
X0456400Y0269525D01*
X0456400Y0271475D01*
X0455654Y0273276D01*
X0454276Y0274654D01*
X0452475Y0275400D01*
X0450525Y0275400D01*
X0448724Y0274654D01*
X0448468Y0274397D02*
X0431200Y0274397D01*
X0431200Y0273399D02*
X0447469Y0273399D01*
X0446983Y0272400D02*
X0431200Y0272400D01*
X0431200Y0271402D02*
X0446600Y0271402D01*
X0446600Y0270403D02*
X0431200Y0270403D01*
X0431200Y0269405D02*
X0446650Y0269405D01*
X0447064Y0268406D02*
X0440584Y0268406D01*
X0441976Y0267408D02*
X0447663Y0267408D01*
X0448661Y0266409D02*
X0442995Y0266409D01*
X0443993Y0265411D02*
X0456500Y0265411D01*
X0456500Y0266409D02*
X0454339Y0266409D01*
X0455337Y0267408D02*
X0456500Y0267408D01*
X0456500Y0268406D02*
X0455936Y0268406D01*
X0456350Y0269405D02*
X0456500Y0269405D01*
X0456500Y0270403D02*
X0456400Y0270403D01*
X0456400Y0271402D02*
X0456500Y0271402D01*
X0456500Y0272400D02*
X0456017Y0272400D01*
X0456500Y0273399D02*
X0455531Y0273399D01*
X0456500Y0274397D02*
X0454532Y0274397D01*
X0454324Y0276394D02*
X0456500Y0276394D01*
X0456500Y0275396D02*
X0452485Y0275396D01*
X0450515Y0275396D02*
X0431200Y0275396D01*
X0431200Y0268406D02*
X0438416Y0268406D01*
X0437024Y0267408D02*
X0431200Y0267408D01*
X0431200Y0266409D02*
X0436521Y0266409D01*
X0436400Y0265411D02*
X0431200Y0265411D01*
X0431200Y0264412D02*
X0436595Y0264412D01*
X0437202Y0263414D02*
X0431200Y0263414D01*
X0431200Y0262415D02*
X0438847Y0262415D01*
X0440153Y0262415D02*
X0442181Y0262415D01*
X0442800Y0261417D02*
X0431200Y0261417D01*
X0431200Y0256424D02*
X0435590Y0256424D01*
X0436190Y0255426D02*
X0431200Y0255426D01*
X0431200Y0254427D02*
X0437818Y0254427D01*
X0437024Y0253429D02*
X0431200Y0253429D01*
X0431200Y0252430D02*
X0436026Y0252430D01*
X0435027Y0251432D02*
X0430836Y0251432D01*
X0429837Y0250433D02*
X0434029Y0250433D01*
X0433030Y0249434D02*
X0428839Y0249434D01*
X0427840Y0248436D02*
X0432032Y0248436D01*
X0431033Y0247437D02*
X0426842Y0247437D01*
X0425843Y0246439D02*
X0430035Y0246439D01*
X0429036Y0245440D02*
X0414845Y0245440D01*
X0413846Y0244442D02*
X0428800Y0244442D01*
X0428800Y0243443D02*
X0412848Y0243443D01*
X0411849Y0242445D02*
X0428800Y0242445D01*
X0428800Y0241446D02*
X0410851Y0241446D01*
X0409852Y0240448D02*
X0428800Y0240448D01*
X0428800Y0239449D02*
X0408854Y0239449D01*
X0407855Y0238451D02*
X0428800Y0238451D01*
X0428800Y0237452D02*
X0406857Y0237452D01*
X0405858Y0236454D02*
X0428800Y0236454D01*
X0428800Y0235455D02*
X0404859Y0235455D01*
X0404200Y0234457D02*
X0428800Y0234457D01*
X0428800Y0233458D02*
X0404200Y0233458D01*
X0404200Y0232460D02*
X0428800Y0232460D01*
X0428800Y0231461D02*
X0404923Y0231461D01*
X0405457Y0230463D02*
X0428800Y0230463D01*
X0428800Y0229464D02*
X0405600Y0229464D01*
X0405427Y0228466D02*
X0428800Y0228466D01*
X0428800Y0227467D02*
X0404851Y0227467D01*
X0402500Y0229500D02*
X0402500Y0235500D01*
X0414500Y0247500D01*
X0424500Y0247500D01*
X0429500Y0252500D01*
X0429500Y0295500D01*
X0437500Y0303500D01*
X0437500Y0314059D01*
X0437059Y0314500D01*
X0429063Y0315336D02*
X0390048Y0315336D01*
X0388757Y0316335D02*
X0400281Y0316335D01*
X0399628Y0317333D02*
X0370071Y0317333D01*
X0369284Y0318332D02*
X0369072Y0318332D01*
X0368629Y0319330D02*
X0368074Y0319330D01*
X0368400Y0320329D02*
X0367200Y0320329D01*
X0367200Y0321327D02*
X0368487Y0321327D01*
X0368942Y0322326D02*
X0367200Y0322326D01*
X0367200Y0323324D02*
X0368292Y0323324D01*
X0367632Y0324323D02*
X0367200Y0324323D01*
X0367200Y0325321D02*
X0367400Y0325321D01*
X0367484Y0326320D02*
X0367200Y0326320D01*
X0367200Y0327318D02*
X0367934Y0327318D01*
X0367200Y0328317D02*
X0369200Y0328317D01*
X0369800Y0329315D02*
X0367200Y0329315D01*
X0367200Y0330314D02*
X0369800Y0330314D01*
X0369800Y0331312D02*
X0367200Y0331312D01*
X0367200Y0332311D02*
X0369800Y0332311D01*
X0369800Y0333309D02*
X0367200Y0333309D01*
X0367200Y0334308D02*
X0369800Y0334308D01*
X0369800Y0335306D02*
X0367200Y0335306D01*
X0367200Y0336305D02*
X0369800Y0336305D01*
X0369800Y0337303D02*
X0367200Y0337303D01*
X0367200Y0338302D02*
X0369800Y0338302D01*
X0369800Y0339301D02*
X0367104Y0339301D01*
X0366105Y0340299D02*
X0369800Y0340299D01*
X0369893Y0341298D02*
X0365107Y0341298D01*
X0364108Y0342296D02*
X0370892Y0342296D01*
X0371890Y0343295D02*
X0363110Y0343295D01*
X0362111Y0344293D02*
X0372889Y0344293D01*
X0373887Y0345292D02*
X0361113Y0345292D01*
X0360114Y0346290D02*
X0408886Y0346290D01*
X0409884Y0347289D02*
X0359116Y0347289D01*
X0358117Y0348287D02*
X0410883Y0348287D01*
X0411881Y0349286D02*
X0357119Y0349286D01*
X0356120Y0350284D02*
X0435900Y0350284D01*
X0435900Y0350475D02*
X0435900Y0348525D01*
X0436646Y0346724D01*
X0438024Y0345346D01*
X0439825Y0344600D01*
X0441775Y0344600D01*
X0443576Y0345346D01*
X0444954Y0346724D01*
X0445700Y0348525D01*
X0445700Y0350475D01*
X0444954Y0352276D01*
X0443576Y0353654D01*
X0441775Y0354400D01*
X0439825Y0354400D01*
X0438024Y0353654D01*
X0436646Y0352276D01*
X0435900Y0350475D01*
X0436235Y0351283D02*
X0355121Y0351283D01*
X0354123Y0352281D02*
X0436652Y0352281D01*
X0437650Y0353280D02*
X0327774Y0353280D01*
X0326276Y0354278D02*
X0439531Y0354278D01*
X0442069Y0354278D02*
X0450931Y0354278D01*
X0449050Y0353280D02*
X0443950Y0353280D01*
X0444948Y0352281D02*
X0448052Y0352281D01*
X0447635Y0351283D02*
X0445365Y0351283D01*
X0445700Y0350284D02*
X0447300Y0350284D01*
X0447300Y0349286D02*
X0445700Y0349286D01*
X0445601Y0348287D02*
X0447399Y0348287D01*
X0447812Y0347289D02*
X0445188Y0347289D01*
X0444520Y0346290D02*
X0448480Y0346290D01*
X0449556Y0345292D02*
X0443444Y0345292D01*
X0438156Y0345292D02*
X0430113Y0345292D01*
X0429114Y0346290D02*
X0437080Y0346290D01*
X0436412Y0347289D02*
X0428116Y0347289D01*
X0427117Y0348287D02*
X0435999Y0348287D01*
X0435900Y0349286D02*
X0426119Y0349286D01*
X0424500Y0348500D02*
X0431500Y0341500D01*
X0434358Y0340299D02*
X0456500Y0340299D01*
X0456500Y0339301D02*
X0433685Y0339301D01*
X0434600Y0341298D02*
X0456500Y0341298D01*
X0456500Y0342296D02*
X0434526Y0342296D01*
X0434089Y0343295D02*
X0456500Y0343295D01*
X0456500Y0344293D02*
X0432858Y0344293D01*
X0431102Y0338302D02*
X0456500Y0338302D01*
X0456500Y0345292D02*
X0454844Y0345292D01*
X0455920Y0346290D02*
X0456500Y0346290D01*
X0456500Y0352281D02*
X0456348Y0352281D01*
X0456500Y0353280D02*
X0455350Y0353280D01*
X0456500Y0354278D02*
X0453469Y0354278D01*
X0432988Y0334012D02*
X0420500Y0346500D01*
X0414500Y0346500D01*
X0413500Y0348500D02*
X0424500Y0348500D01*
X0413500Y0348500D02*
X0409500Y0344500D01*
X0375500Y0344500D01*
X0371500Y0340500D01*
X0371500Y0326500D01*
X0370500Y0325500D01*
X0361800Y0325321D02*
X0355200Y0325321D01*
X0355200Y0324323D02*
X0361800Y0324323D01*
X0361800Y0323324D02*
X0355200Y0323324D01*
X0354730Y0322326D02*
X0361800Y0322326D01*
X0361800Y0321327D02*
X0353731Y0321327D01*
X0352733Y0320329D02*
X0361800Y0320329D01*
X0361800Y0319330D02*
X0351734Y0319330D01*
X0350736Y0318332D02*
X0361800Y0318332D01*
X0362263Y0317333D02*
X0349717Y0317333D01*
X0349500Y0319500D02*
X0353500Y0323500D01*
X0353500Y0327000D01*
X0351000Y0329500D01*
X0351000Y0333000D01*
X0353000Y0335000D01*
X0355815Y0336305D02*
X0361800Y0336305D01*
X0361800Y0335306D02*
X0356100Y0335306D01*
X0356069Y0334308D02*
X0361800Y0334308D01*
X0361800Y0333309D02*
X0355655Y0333309D01*
X0354609Y0332311D02*
X0361800Y0332311D01*
X0361800Y0331312D02*
X0352700Y0331312D01*
X0352700Y0330314D02*
X0361800Y0330314D01*
X0361800Y0329315D02*
X0353589Y0329315D01*
X0354587Y0328317D02*
X0361800Y0328317D01*
X0361800Y0327318D02*
X0355200Y0327318D01*
X0355200Y0326320D02*
X0361800Y0326320D01*
X0361292Y0337303D02*
X0355081Y0337303D01*
X0342500Y0327500D02*
X0342500Y0319500D01*
X0340800Y0319330D02*
X0340768Y0319330D01*
X0340800Y0320329D02*
X0337706Y0320329D01*
X0336565Y0321327D02*
X0340800Y0321327D01*
X0340800Y0322326D02*
X0335423Y0322326D01*
X0334282Y0323324D02*
X0340800Y0323324D01*
X0340800Y0324323D02*
X0333141Y0324323D01*
X0331401Y0321327D02*
X0308500Y0321327D01*
X0308500Y0322326D02*
X0310290Y0322326D01*
X0309632Y0323324D02*
X0308500Y0323324D01*
X0308500Y0324323D02*
X0309400Y0324323D01*
X0309274Y0325321D02*
X0308500Y0325321D01*
X0315519Y0331312D02*
X0337928Y0331312D01*
X0339186Y0332311D02*
X0315073Y0332311D01*
X0321085Y0340299D02*
X0324895Y0340299D01*
X0340500Y0329500D02*
X0342500Y0327500D01*
X0347500Y0319500D02*
X0349500Y0319500D01*
X0346200Y0316335D02*
X0363261Y0316335D01*
X0363500Y0311500D02*
X0356500Y0311500D01*
X0344500Y0299500D01*
X0332500Y0299500D01*
X0328500Y0295500D01*
X0328500Y0285846D01*
X0331668Y0285381D02*
X0341031Y0285381D01*
X0341031Y0286379D02*
X0331668Y0286379D01*
X0331668Y0287378D02*
X0341469Y0287378D01*
X0341331Y0288376D02*
X0331668Y0288376D01*
X0330200Y0289375D02*
X0341331Y0289375D01*
X0341331Y0290373D02*
X0330200Y0290373D01*
X0330200Y0291372D02*
X0341331Y0291372D01*
X0341331Y0292370D02*
X0330200Y0292370D01*
X0330200Y0293369D02*
X0341331Y0293369D01*
X0344500Y0290846D02*
X0347500Y0293846D01*
X0347500Y0299500D01*
X0351500Y0303500D01*
X0356500Y0303500D01*
X0361500Y0298500D01*
X0361500Y0285846D01*
X0358331Y0285381D02*
X0347968Y0285381D01*
X0347968Y0286379D02*
X0358331Y0286379D01*
X0358331Y0287378D02*
X0347531Y0287378D01*
X0347668Y0288376D02*
X0358331Y0288376D01*
X0359800Y0289375D02*
X0347668Y0289375D01*
X0347668Y0290373D02*
X0359800Y0290373D01*
X0359800Y0291372D02*
X0347668Y0291372D01*
X0348428Y0292370D02*
X0359800Y0292370D01*
X0359800Y0293369D02*
X0349200Y0293369D01*
X0349200Y0294368D02*
X0359800Y0294368D01*
X0359800Y0295366D02*
X0349200Y0295366D01*
X0349200Y0296365D02*
X0359251Y0296365D01*
X0358616Y0297363D02*
X0349200Y0297363D01*
X0349200Y0298362D02*
X0358400Y0298362D01*
X0358236Y0299360D02*
X0349764Y0299360D01*
X0350763Y0300359D02*
X0357237Y0300359D01*
X0356239Y0301357D02*
X0351761Y0301357D01*
X0355500Y0299500D02*
X0355500Y0289500D01*
X0355500Y0282500D01*
X0358846Y0279154D01*
X0361500Y0279154D01*
X0358500Y0276154D01*
X0358500Y0266500D01*
X0360500Y0264500D01*
X0360500Y0262500D01*
X0355500Y0257500D01*
X0349500Y0257500D01*
X0344500Y0262500D01*
X0344500Y0264154D01*
X0330500Y0264154D01*
X0330154Y0264500D01*
X0327500Y0264500D01*
X0324500Y0267500D01*
X0324500Y0276500D01*
X0325031Y0277393D02*
X0323200Y0277393D01*
X0323200Y0278391D02*
X0325031Y0278391D01*
X0325031Y0280388D02*
X0323200Y0280388D01*
X0323200Y0279390D02*
X0328016Y0279390D01*
X0328016Y0278391D02*
X0328984Y0278391D01*
X0328984Y0277393D02*
X0328016Y0277393D01*
X0328016Y0276394D02*
X0328984Y0276394D01*
X0328034Y0274212D02*
X0327331Y0273509D01*
X0327331Y0268184D01*
X0327855Y0267660D01*
X0327610Y0267519D01*
X0327331Y0267240D01*
X0327134Y0266898D01*
X0327031Y0266516D01*
X0327031Y0264638D01*
X0330016Y0264638D01*
X0330016Y0263669D01*
X0330984Y0263669D01*
X0330984Y0260488D01*
X0332666Y0260488D01*
X0333047Y0260590D01*
X0333390Y0260788D01*
X0333669Y0261067D01*
X0333866Y0261409D01*
X0333968Y0261791D01*
X0333968Y0263669D01*
X0330984Y0263669D01*
X0330984Y0264638D01*
X0333968Y0264638D01*
X0333968Y0266516D01*
X0333866Y0266898D01*
X0333669Y0267240D01*
X0333390Y0267519D01*
X0333145Y0267660D01*
X0333668Y0268184D01*
X0333668Y0269146D01*
X0341331Y0269146D01*
X0341331Y0268184D01*
X0341855Y0267660D01*
X0341610Y0267519D01*
X0341331Y0267240D01*
X0341134Y0266898D01*
X0341031Y0266516D01*
X0341031Y0264638D01*
X0344016Y0264638D01*
X0344016Y0263669D01*
X0344984Y0263669D01*
X0344984Y0260488D01*
X0346666Y0260488D01*
X0347047Y0260590D01*
X0347390Y0260788D01*
X0347669Y0261067D01*
X0347866Y0261409D01*
X0347968Y0261791D01*
X0347968Y0263669D01*
X0344984Y0263669D01*
X0344984Y0264638D01*
X0347968Y0264638D01*
X0347968Y0266516D01*
X0347866Y0266898D01*
X0347669Y0267240D01*
X0347390Y0267519D01*
X0347145Y0267660D01*
X0347668Y0268184D01*
X0347668Y0268927D01*
X0352423Y0264173D01*
X0352400Y0264117D01*
X0352400Y0262883D01*
X0352872Y0261744D01*
X0353744Y0260872D01*
X0354883Y0260400D01*
X0356117Y0260400D01*
X0357256Y0260872D01*
X0358128Y0261744D01*
X0358600Y0262883D01*
X0358600Y0264117D01*
X0358128Y0265256D01*
X0357256Y0266128D01*
X0356117Y0266600D01*
X0354883Y0266600D01*
X0354827Y0266577D01*
X0348858Y0272546D01*
X0347668Y0272546D01*
X0347668Y0273509D01*
X0346966Y0274212D01*
X0342034Y0274212D01*
X0341331Y0273509D01*
X0341331Y0272546D01*
X0333668Y0272546D01*
X0333668Y0273509D01*
X0332966Y0274212D01*
X0328034Y0274212D01*
X0327331Y0273399D02*
X0323200Y0273399D01*
X0323200Y0274397D02*
X0368800Y0274397D01*
X0368800Y0273399D02*
X0363602Y0273399D01*
X0363117Y0273600D02*
X0361883Y0273600D01*
X0360744Y0273128D01*
X0359872Y0272256D01*
X0359400Y0271117D01*
X0359400Y0269883D01*
X0359872Y0268744D01*
X0360744Y0267872D01*
X0361883Y0267400D01*
X0363117Y0267400D01*
X0363173Y0267423D01*
X0369800Y0260796D01*
X0370796Y0259800D01*
X0371849Y0259800D01*
X0371872Y0259744D01*
X0372744Y0258872D01*
X0373883Y0258400D01*
X0375117Y0258400D01*
X0376256Y0258872D01*
X0377128Y0259744D01*
X0377600Y0260883D01*
X0377600Y0262117D01*
X0377128Y0263256D01*
X0376256Y0264128D01*
X0375117Y0264600D01*
X0373883Y0264600D01*
X0372744Y0264128D01*
X0372010Y0263394D01*
X0365577Y0269827D01*
X0365600Y0269883D01*
X0365600Y0271117D01*
X0365128Y0272256D01*
X0364256Y0273128D01*
X0363117Y0273600D01*
X0361398Y0273399D02*
X0347668Y0273399D01*
X0349004Y0272400D02*
X0360016Y0272400D01*
X0359518Y0271402D02*
X0350002Y0271402D01*
X0351001Y0270403D02*
X0359400Y0270403D01*
X0359598Y0269405D02*
X0351999Y0269405D01*
X0352998Y0268406D02*
X0360210Y0268406D01*
X0361865Y0267408D02*
X0353996Y0267408D01*
X0356577Y0266409D02*
X0364187Y0266409D01*
X0365185Y0265411D02*
X0357973Y0265411D01*
X0358478Y0264412D02*
X0366184Y0264412D01*
X0367182Y0263414D02*
X0358600Y0263414D01*
X0358406Y0262415D02*
X0368181Y0262415D01*
X0369179Y0261417D02*
X0357801Y0261417D01*
X0356160Y0260418D02*
X0370178Y0260418D01*
X0371500Y0261500D02*
X0374500Y0261500D01*
X0373500Y0261500D01*
X0371500Y0261500D02*
X0362500Y0270500D01*
X0365600Y0270403D02*
X0371193Y0270403D01*
X0372191Y0269405D02*
X0365999Y0269405D01*
X0366998Y0268406D02*
X0373190Y0268406D01*
X0374188Y0267408D02*
X0367996Y0267408D01*
X0368995Y0266409D02*
X0375187Y0266409D01*
X0376185Y0265411D02*
X0369993Y0265411D01*
X0370992Y0264412D02*
X0373430Y0264412D01*
X0372030Y0263414D02*
X0371990Y0263414D01*
X0375570Y0264412D02*
X0377184Y0264412D01*
X0376970Y0263414D02*
X0378182Y0263414D01*
X0377476Y0262415D02*
X0379181Y0262415D01*
X0380179Y0261417D02*
X0377600Y0261417D01*
X0377407Y0260418D02*
X0381178Y0260418D01*
X0382176Y0259420D02*
X0376804Y0259420D01*
X0375168Y0258421D02*
X0390017Y0258421D01*
X0389018Y0257423D02*
X0323200Y0257423D01*
X0323200Y0258421D02*
X0373832Y0258421D01*
X0372196Y0259420D02*
X0323200Y0259420D01*
X0323200Y0260418D02*
X0354840Y0260418D01*
X0353199Y0261417D02*
X0347868Y0261417D01*
X0347968Y0262415D02*
X0352594Y0262415D01*
X0352400Y0263414D02*
X0347968Y0263414D01*
X0347968Y0265411D02*
X0351185Y0265411D01*
X0350187Y0266409D02*
X0347968Y0266409D01*
X0347501Y0267408D02*
X0349188Y0267408D01*
X0348190Y0268406D02*
X0347668Y0268406D01*
X0348154Y0270846D02*
X0344500Y0270846D01*
X0330500Y0270846D01*
X0327331Y0270403D02*
X0323200Y0270403D01*
X0323200Y0269405D02*
X0327331Y0269405D01*
X0327331Y0268406D02*
X0323200Y0268406D01*
X0323200Y0267408D02*
X0327499Y0267408D01*
X0327031Y0266409D02*
X0323200Y0266409D01*
X0323200Y0265411D02*
X0327031Y0265411D01*
X0327031Y0263669D02*
X0327031Y0261791D01*
X0327134Y0261409D01*
X0327331Y0261067D01*
X0327610Y0260788D01*
X0327953Y0260590D01*
X0328334Y0260488D01*
X0330016Y0260488D01*
X0330016Y0263669D01*
X0327031Y0263669D01*
X0327031Y0263414D02*
X0323200Y0263414D01*
X0323200Y0264412D02*
X0330016Y0264412D01*
X0330984Y0264412D02*
X0344016Y0264412D01*
X0344016Y0263669D02*
X0341031Y0263669D01*
X0341031Y0261791D01*
X0341134Y0261409D01*
X0341331Y0261067D01*
X0341610Y0260788D01*
X0341953Y0260590D01*
X0342334Y0260488D01*
X0344016Y0260488D01*
X0344016Y0263669D01*
X0344016Y0263414D02*
X0344984Y0263414D01*
X0344984Y0264412D02*
X0352184Y0264412D01*
X0355500Y0263500D02*
X0348154Y0270846D01*
X0341331Y0268406D02*
X0333668Y0268406D01*
X0333501Y0267408D02*
X0341499Y0267408D01*
X0341031Y0266409D02*
X0333968Y0266409D01*
X0333968Y0265411D02*
X0341031Y0265411D01*
X0341031Y0263414D02*
X0333968Y0263414D01*
X0333968Y0262415D02*
X0341031Y0262415D01*
X0341132Y0261417D02*
X0333868Y0261417D01*
X0330984Y0261417D02*
X0330016Y0261417D01*
X0330016Y0262415D02*
X0330984Y0262415D01*
X0330984Y0263414D02*
X0330016Y0263414D01*
X0327031Y0262415D02*
X0323200Y0262415D01*
X0323200Y0261417D02*
X0327132Y0261417D01*
X0323200Y0256424D02*
X0335459Y0256424D01*
X0334042Y0255426D02*
X0323200Y0255426D01*
X0323977Y0254427D02*
X0333529Y0254427D01*
X0333400Y0253429D02*
X0324976Y0253429D01*
X0325974Y0252430D02*
X0333588Y0252430D01*
X0334184Y0251432D02*
X0326200Y0251432D01*
X0326200Y0250433D02*
X0334800Y0250433D01*
X0334800Y0249434D02*
X0326200Y0249434D01*
X0326200Y0248436D02*
X0334800Y0248436D01*
X0334800Y0247437D02*
X0326200Y0247437D01*
X0326200Y0246439D02*
X0334069Y0246439D01*
X0336500Y0246846D02*
X0333500Y0242846D01*
X0336668Y0242445D02*
X0344331Y0242445D01*
X0344331Y0243443D02*
X0336668Y0243443D01*
X0336822Y0244442D02*
X0344331Y0244442D01*
X0344331Y0245440D02*
X0337570Y0245440D01*
X0338275Y0246439D02*
X0350535Y0246439D01*
X0351533Y0247437D02*
X0338200Y0247437D01*
X0338200Y0248436D02*
X0352532Y0248436D01*
X0353530Y0249434D02*
X0338200Y0249434D01*
X0338200Y0250433D02*
X0354529Y0250433D01*
X0355527Y0251432D02*
X0338816Y0251432D01*
X0339412Y0252430D02*
X0356526Y0252430D01*
X0357524Y0253429D02*
X0339600Y0253429D01*
X0339471Y0254427D02*
X0358523Y0254427D01*
X0360000Y0253500D02*
X0374500Y0253500D01*
X0378000Y0250000D01*
X0378000Y0246000D01*
X0381500Y0242500D01*
X0383500Y0242500D01*
X0382498Y0245440D02*
X0380964Y0245440D01*
X0379965Y0246439D02*
X0385800Y0246439D01*
X0385800Y0247437D02*
X0379700Y0247437D01*
X0379700Y0248436D02*
X0385800Y0248436D01*
X0385800Y0249434D02*
X0379700Y0249434D01*
X0379700Y0250433D02*
X0385800Y0250433D01*
X0385800Y0251432D02*
X0378973Y0251432D01*
X0377974Y0252430D02*
X0385800Y0252430D01*
X0385800Y0253429D02*
X0376976Y0253429D01*
X0375977Y0254427D02*
X0386023Y0254427D01*
X0387021Y0255426D02*
X0338958Y0255426D01*
X0337541Y0256424D02*
X0388020Y0256424D01*
X0387500Y0253500D02*
X0387500Y0217500D01*
X0384500Y0213500D01*
X0338500Y0213500D01*
X0327500Y0224500D01*
X0316500Y0224500D01*
X0315500Y0225500D01*
X0315500Y0233500D01*
X0316500Y0234500D01*
X0319500Y0234500D01*
X0324500Y0239500D01*
X0324500Y0251500D01*
X0321500Y0254500D01*
X0321500Y0307500D01*
X0313500Y0315500D01*
X0318065Y0313339D02*
X0340935Y0313339D01*
X0341722Y0314338D02*
X0341934Y0314338D01*
X0342373Y0315336D02*
X0342800Y0315336D01*
X0342800Y0316335D02*
X0342600Y0316335D01*
X0339937Y0312341D02*
X0319063Y0312341D01*
X0320062Y0311342D02*
X0338938Y0311342D01*
X0337940Y0310344D02*
X0321060Y0310344D01*
X0322059Y0309345D02*
X0336941Y0309345D01*
X0335943Y0308347D02*
X0323057Y0308347D01*
X0323200Y0307348D02*
X0335800Y0307348D01*
X0335800Y0306350D02*
X0323200Y0306350D01*
X0323200Y0305351D02*
X0334967Y0305351D01*
X0334498Y0304353D02*
X0323200Y0304353D01*
X0323200Y0303354D02*
X0334400Y0303354D01*
X0334619Y0302356D02*
X0323200Y0302356D01*
X0323200Y0301357D02*
X0335259Y0301357D01*
X0330954Y0300359D02*
X0323200Y0300359D01*
X0323200Y0299360D02*
X0329956Y0299360D01*
X0328957Y0298362D02*
X0323200Y0298362D01*
X0323200Y0297363D02*
X0327959Y0297363D01*
X0326960Y0296365D02*
X0323200Y0296365D01*
X0323200Y0295366D02*
X0326800Y0295366D01*
X0326800Y0294368D02*
X0323200Y0294368D01*
X0323200Y0293369D02*
X0326800Y0293369D01*
X0326800Y0292370D02*
X0323200Y0292370D01*
X0323200Y0291372D02*
X0326800Y0291372D01*
X0326800Y0290373D02*
X0323200Y0290373D01*
X0323200Y0289375D02*
X0326800Y0289375D01*
X0325331Y0288376D02*
X0323200Y0288376D01*
X0323200Y0287378D02*
X0325331Y0287378D01*
X0325331Y0286379D02*
X0323200Y0286379D01*
X0323200Y0285381D02*
X0325331Y0285381D01*
X0325331Y0284382D02*
X0323200Y0284382D01*
X0323200Y0283384D02*
X0325331Y0283384D01*
X0325477Y0282385D02*
X0323200Y0282385D01*
X0323200Y0281387D02*
X0325031Y0281387D01*
X0331523Y0282385D02*
X0341031Y0282385D01*
X0341031Y0283384D02*
X0331668Y0283384D01*
X0331668Y0284382D02*
X0344016Y0284382D01*
X0344500Y0284154D02*
X0349823Y0284154D01*
X0349988Y0283988D01*
X0355500Y0289500D01*
X0358331Y0284382D02*
X0344984Y0284382D01*
X0344984Y0283384D02*
X0344016Y0283384D01*
X0344016Y0282385D02*
X0344984Y0282385D01*
X0344984Y0281387D02*
X0344016Y0281387D01*
X0341147Y0281387D02*
X0331968Y0281387D01*
X0331968Y0280388D02*
X0358031Y0280388D01*
X0358031Y0281387D02*
X0347853Y0281387D01*
X0347968Y0282385D02*
X0358477Y0282385D01*
X0358331Y0283384D02*
X0347968Y0283384D01*
X0358031Y0278391D02*
X0331968Y0278391D01*
X0331968Y0277393D02*
X0358031Y0277393D01*
X0358142Y0276394D02*
X0331858Y0276394D01*
X0333668Y0273399D02*
X0341331Y0273399D01*
X0361016Y0276394D02*
X0361984Y0276394D01*
X0361984Y0277393D02*
X0361016Y0277393D01*
X0361016Y0278391D02*
X0361984Y0278391D01*
X0361984Y0279390D02*
X0368226Y0279390D01*
X0370500Y0281500D02*
X0370500Y0273500D01*
X0383500Y0260500D01*
X0387500Y0253500D02*
X0391500Y0257500D01*
X0409500Y0257500D01*
X0410500Y0255500D02*
X0419500Y0264500D01*
X0420500Y0270500D01*
X0423500Y0265500D02*
X0411500Y0253500D01*
X0393500Y0253500D01*
X0391500Y0251500D01*
X0391500Y0215500D01*
X0386500Y0209500D01*
X0336500Y0209500D01*
X0325500Y0220500D01*
X0313500Y0220500D01*
X0311500Y0222500D01*
X0311500Y0237500D01*
X0312500Y0238500D01*
X0317500Y0238500D01*
X0320500Y0241500D01*
X0320500Y0249500D01*
X0322500Y0250500D02*
X0322500Y0240500D01*
X0318500Y0236500D01*
X0314500Y0236500D01*
X0313500Y0235500D01*
X0313500Y0223500D01*
X0314500Y0222500D01*
X0326500Y0222500D01*
X0337500Y0211500D01*
X0385500Y0211500D01*
X0389500Y0216500D01*
X0389500Y0252500D01*
X0392500Y0255500D01*
X0410500Y0255500D01*
X0403836Y0259420D02*
X0403824Y0259420D01*
X0385800Y0245440D02*
X0384502Y0245440D01*
X0371500Y0249500D02*
X0364846Y0242846D01*
X0361500Y0242846D01*
X0361500Y0236154D02*
X0348665Y0236154D01*
X0347500Y0236154D02*
X0346335Y0234988D01*
X0335665Y0234988D01*
X0333500Y0236154D01*
X0330331Y0236454D02*
X0323858Y0236454D01*
X0324857Y0237452D02*
X0330331Y0237452D01*
X0330331Y0238451D02*
X0325855Y0238451D01*
X0326200Y0239449D02*
X0330965Y0239449D01*
X0330331Y0240448D02*
X0326200Y0240448D01*
X0326200Y0241446D02*
X0330331Y0241446D01*
X0330331Y0242445D02*
X0326200Y0242445D01*
X0326200Y0243443D02*
X0330331Y0243443D01*
X0330331Y0244442D02*
X0326200Y0244442D01*
X0326200Y0245440D02*
X0330331Y0245440D01*
X0336500Y0246846D02*
X0336500Y0253500D01*
X0344016Y0261417D02*
X0344984Y0261417D01*
X0344984Y0262415D02*
X0344016Y0262415D01*
X0360000Y0253500D02*
X0349346Y0242846D01*
X0347500Y0242846D01*
X0344331Y0241446D02*
X0336668Y0241446D01*
X0336668Y0240448D02*
X0344331Y0240448D01*
X0344965Y0239449D02*
X0336035Y0239449D01*
X0336668Y0238451D02*
X0344331Y0238451D01*
X0344331Y0237452D02*
X0336668Y0237452D01*
X0330331Y0235455D02*
X0322859Y0235455D01*
X0321861Y0234457D02*
X0330331Y0234457D01*
X0330364Y0233458D02*
X0320862Y0233458D01*
X0317200Y0232460D02*
X0362800Y0232460D01*
X0362800Y0231461D02*
X0317200Y0231461D01*
X0317200Y0230463D02*
X0362800Y0230463D01*
X0362800Y0229464D02*
X0317200Y0229464D01*
X0317200Y0228466D02*
X0363130Y0228466D01*
X0364129Y0227467D02*
X0317200Y0227467D01*
X0317200Y0226469D02*
X0364400Y0226469D01*
X0364571Y0225470D02*
X0328934Y0225470D01*
X0329932Y0224472D02*
X0365144Y0224472D01*
X0366707Y0223473D02*
X0330931Y0223473D01*
X0331929Y0222475D02*
X0360071Y0222475D01*
X0359072Y0221476D02*
X0332928Y0221476D01*
X0333926Y0220478D02*
X0356588Y0220478D01*
X0355095Y0219479D02*
X0334925Y0219479D01*
X0335923Y0218481D02*
X0354551Y0218481D01*
X0354400Y0217482D02*
X0336922Y0217482D01*
X0337921Y0216484D02*
X0354566Y0216484D01*
X0355131Y0215485D02*
X0338919Y0215485D01*
X0357500Y0217500D02*
X0361500Y0221500D01*
X0369500Y0221500D01*
X0367500Y0226500D02*
X0364500Y0229500D01*
X0364500Y0234154D01*
X0361500Y0236154D01*
X0358364Y0233458D02*
X0350636Y0233458D01*
X0322500Y0250500D02*
X0319500Y0253500D01*
X0319500Y0298500D01*
X0313500Y0304500D01*
X0313500Y0305500D01*
X0308962Y0307348D02*
X0308500Y0307348D01*
X0308500Y0306350D02*
X0308600Y0306350D01*
X0308600Y0305351D02*
X0308500Y0305351D01*
X0308500Y0304353D02*
X0308672Y0304353D01*
X0308500Y0303354D02*
X0309085Y0303354D01*
X0308500Y0302356D02*
X0309715Y0302356D01*
X0309417Y0308347D02*
X0308500Y0308347D01*
X0308500Y0309345D02*
X0310416Y0309345D01*
X0319047Y0301357D02*
X0319800Y0301357D01*
X0317800Y0292370D02*
X0317300Y0292370D01*
X0317800Y0291372D02*
X0316302Y0291372D01*
X0317800Y0290373D02*
X0314539Y0290373D01*
X0312461Y0290373D02*
X0308500Y0290373D01*
X0316555Y0289375D02*
X0317800Y0289375D01*
X0317800Y0288376D02*
X0317553Y0288376D01*
X0317315Y0282385D02*
X0317800Y0282385D01*
X0317800Y0281387D02*
X0316316Y0281387D01*
X0317800Y0280388D02*
X0314503Y0280388D01*
X0312497Y0280388D02*
X0308500Y0280388D01*
X0316540Y0279390D02*
X0317800Y0279390D01*
X0317800Y0278391D02*
X0317538Y0278391D01*
X0317330Y0272400D02*
X0317800Y0272400D01*
X0317800Y0271402D02*
X0316331Y0271402D01*
X0317800Y0270403D02*
X0308500Y0270403D01*
X0316525Y0269405D02*
X0317800Y0269405D01*
X0317800Y0268406D02*
X0317523Y0268406D01*
X0317345Y0262415D02*
X0317800Y0262415D01*
X0317800Y0261417D02*
X0316346Y0261417D01*
X0317800Y0260418D02*
X0308500Y0260418D01*
X0308500Y0256424D02*
X0308600Y0256424D01*
X0308600Y0255426D02*
X0308500Y0255426D01*
X0308500Y0254427D02*
X0308641Y0254427D01*
X0308500Y0253429D02*
X0309054Y0253429D01*
X0308500Y0252430D02*
X0309640Y0252430D01*
X0310639Y0251432D02*
X0308500Y0251432D01*
X0317509Y0258421D02*
X0317800Y0258421D01*
X0317800Y0259420D02*
X0316510Y0259420D01*
X0323200Y0271402D02*
X0327331Y0271402D01*
X0327331Y0272400D02*
X0323200Y0272400D01*
X0330200Y0294368D02*
X0345617Y0294368D01*
X0345800Y0295366D02*
X0330770Y0295366D01*
X0331769Y0296365D02*
X0345800Y0296365D01*
X0345800Y0297363D02*
X0332767Y0297363D01*
X0345766Y0298362D02*
X0345800Y0298362D01*
X0362500Y0302500D02*
X0362500Y0306500D01*
X0364384Y0297363D02*
X0365233Y0297363D01*
X0366231Y0296365D02*
X0363749Y0296365D01*
X0363200Y0295366D02*
X0367230Y0295366D01*
X0369196Y0272400D02*
X0364984Y0272400D01*
X0365482Y0271402D02*
X0370194Y0271402D01*
X0363188Y0267408D02*
X0363135Y0267408D01*
X0397500Y0300500D02*
X0400500Y0297500D01*
X0425500Y0303500D02*
X0426500Y0301500D01*
X0427500Y0309500D02*
X0424500Y0312500D01*
X0416500Y0312500D01*
X0414719Y0316335D02*
X0429063Y0316335D01*
X0429503Y0317333D02*
X0415372Y0317333D01*
X0412500Y0318500D02*
X0402500Y0318500D01*
X0404719Y0316335D02*
X0410281Y0316335D01*
X0409945Y0320329D02*
X0405055Y0320329D01*
X0403775Y0321327D02*
X0411225Y0321327D01*
X0414669Y0334308D02*
X0415638Y0334308D01*
X0415638Y0335306D02*
X0414669Y0335306D01*
X0414669Y0336305D02*
X0415638Y0336305D01*
X0417294Y0338302D02*
X0399706Y0338302D01*
X0398708Y0337303D02*
X0418292Y0337303D01*
X0418568Y0336305D02*
X0418821Y0336305D01*
X0411739Y0336305D02*
X0397709Y0336305D01*
X0396711Y0335306D02*
X0411488Y0335306D01*
X0426065Y0313339D02*
X0429063Y0313339D01*
X0429114Y0312341D02*
X0427063Y0312341D01*
X0427500Y0309500D02*
X0430500Y0309500D01*
X0436671Y0292370D02*
X0441812Y0292370D01*
X0440904Y0291372D02*
X0438012Y0291372D01*
X0442781Y0288376D02*
X0447076Y0288376D01*
X0446662Y0289375D02*
X0443684Y0289375D01*
X0444592Y0290373D02*
X0446600Y0290373D01*
X0446600Y0291372D02*
X0445499Y0291372D01*
X0446407Y0292370D02*
X0446971Y0292370D01*
X0447315Y0293369D02*
X0447439Y0293369D01*
X0448222Y0294368D02*
X0448438Y0294368D01*
X0449130Y0295366D02*
X0450443Y0295366D01*
X0452557Y0295366D02*
X0456500Y0295366D01*
X0456500Y0284382D02*
X0454547Y0284382D01*
X0455546Y0283384D02*
X0456500Y0283384D01*
X0456500Y0282385D02*
X0456023Y0282385D01*
X0456400Y0281387D02*
X0456500Y0281387D01*
X0456500Y0280388D02*
X0456400Y0280388D01*
X0456344Y0279390D02*
X0456500Y0279390D01*
X0456500Y0278391D02*
X0455930Y0278391D01*
X0456500Y0277393D02*
X0455322Y0277393D01*
X0452475Y0265400D02*
X0450525Y0265400D01*
X0448724Y0264654D01*
X0447346Y0263276D01*
X0446600Y0261475D01*
X0446600Y0259525D01*
X0447346Y0257724D01*
X0448724Y0256346D01*
X0450525Y0255600D01*
X0452475Y0255600D01*
X0454276Y0256346D01*
X0455654Y0257724D01*
X0456400Y0259525D01*
X0456400Y0261475D01*
X0455654Y0263276D01*
X0454276Y0264654D01*
X0452475Y0265400D01*
X0454517Y0264412D02*
X0456500Y0264412D01*
X0456500Y0263414D02*
X0455516Y0263414D01*
X0456010Y0262415D02*
X0456500Y0262415D01*
X0456500Y0261417D02*
X0456400Y0261417D01*
X0456400Y0260418D02*
X0456500Y0260418D01*
X0456500Y0259420D02*
X0456356Y0259420D01*
X0456500Y0258421D02*
X0455943Y0258421D01*
X0456500Y0257423D02*
X0455352Y0257423D01*
X0454354Y0256424D02*
X0456500Y0256424D01*
X0456500Y0255426D02*
X0446200Y0255426D01*
X0446200Y0256424D02*
X0448646Y0256424D01*
X0447648Y0257423D02*
X0446200Y0257423D01*
X0446200Y0258421D02*
X0447057Y0258421D01*
X0446644Y0259420D02*
X0446200Y0259420D01*
X0446200Y0260418D02*
X0446600Y0260418D01*
X0446600Y0261417D02*
X0446200Y0261417D01*
X0446200Y0262415D02*
X0446990Y0262415D01*
X0447484Y0263414D02*
X0445990Y0263414D01*
X0444992Y0264412D02*
X0448483Y0264412D01*
X0444500Y0262500D02*
X0441500Y0265500D01*
X0439500Y0265500D01*
X0444500Y0262500D02*
X0444500Y0247500D01*
X0451500Y0240500D01*
X0456400Y0240448D02*
X0456500Y0240448D01*
X0456500Y0241446D02*
X0456400Y0241446D01*
X0456500Y0242445D02*
X0455998Y0242445D01*
X0456500Y0243443D02*
X0455486Y0243443D01*
X0454488Y0244442D02*
X0456500Y0244442D01*
X0456500Y0245440D02*
X0448964Y0245440D01*
X0448724Y0246346D02*
X0450525Y0245600D01*
X0452475Y0245600D01*
X0454276Y0246346D01*
X0455654Y0247724D01*
X0456400Y0249525D01*
X0456400Y0251475D01*
X0455654Y0253276D01*
X0454276Y0254654D01*
X0452475Y0255400D01*
X0450525Y0255400D01*
X0448724Y0254654D01*
X0447346Y0253276D01*
X0446600Y0251475D01*
X0446600Y0249525D01*
X0447346Y0247724D01*
X0448724Y0246346D01*
X0448631Y0246439D02*
X0447965Y0246439D01*
X0447633Y0247437D02*
X0446967Y0247437D01*
X0447051Y0248436D02*
X0446200Y0248436D01*
X0446200Y0249434D02*
X0446638Y0249434D01*
X0446600Y0250433D02*
X0446200Y0250433D01*
X0446200Y0251432D02*
X0446600Y0251432D01*
X0446996Y0252430D02*
X0446200Y0252430D01*
X0446200Y0253429D02*
X0447499Y0253429D01*
X0448497Y0254427D02*
X0446200Y0254427D01*
X0454503Y0254427D02*
X0456500Y0254427D01*
X0456500Y0253429D02*
X0455501Y0253429D01*
X0456004Y0252430D02*
X0456500Y0252430D01*
X0456500Y0251432D02*
X0456400Y0251432D01*
X0456400Y0250433D02*
X0456500Y0250433D01*
X0456500Y0249434D02*
X0456362Y0249434D01*
X0456500Y0248436D02*
X0455949Y0248436D01*
X0456500Y0247437D02*
X0455367Y0247437D01*
X0454369Y0246439D02*
X0456500Y0246439D01*
X0456500Y0239449D02*
X0456369Y0239449D01*
X0456500Y0238451D02*
X0455955Y0238451D01*
X0456500Y0237452D02*
X0455382Y0237452D01*
X0454383Y0236454D02*
X0456500Y0236454D01*
X0456500Y0215485D02*
X0455145Y0215485D01*
X0456143Y0214487D02*
X0456500Y0214487D01*
X0456500Y0208496D02*
X0456125Y0208496D01*
X0456500Y0207497D02*
X0455127Y0207497D01*
X0449273Y0207497D02*
X0443727Y0207497D01*
X0444725Y0208496D02*
X0448275Y0208496D01*
X0447727Y0209494D02*
X0445273Y0209494D01*
X0445686Y0210493D02*
X0447314Y0210493D01*
X0447300Y0211491D02*
X0445700Y0211491D01*
X0445694Y0212490D02*
X0447306Y0212490D01*
X0447720Y0213488D02*
X0445280Y0213488D01*
X0444743Y0214487D02*
X0448257Y0214487D01*
X0449255Y0215485D02*
X0443745Y0215485D01*
X0437873Y0207497D02*
X0389736Y0207497D01*
M02*
