%
M48
M72
T01C0.02000
T02C0.03346
T03C0.04000
%
T01
X357500Y217500
X369500Y221500
X367500Y226500
X383500Y242500
X395500Y249500
X400500Y249500
X404500Y262500
X407500Y269500
X412500Y266500
X420500Y270500
X418500Y275500
X423500Y278500
X422500Y283500
X413500Y283500
X407500Y275500
X423500Y265500
X422500Y252500
X438500Y257500
X439500Y265500
X435500Y289500
X432500Y303500
X430500Y309500
X425500Y303500
X414500Y298500
X400500Y297500
X394500Y296500
X393500Y281500
X393500Y275500
X391500Y270500
X390500Y265500
X374500Y261500
X362500Y270500
X355500Y263500
X371500Y249500
X336500Y253500
X370500Y281500
X381500Y284500
X361500Y298500
X355500Y299500
X362500Y306500
X363500Y311500
X367500Y304500
X378500Y313500
X387500Y313500
X402500Y318500
X412500Y318500
X404500Y336500
X416500Y341500
X431500Y341500
X440461Y334012
X371500Y320500
X370500Y325500
X353000Y335000
X340500Y329500
X347500Y319500
X339500Y316500
X337500Y303500
X312500Y324500
X312500Y330500
X318500Y338500
X402500Y229500
X430500Y211500
T02
X389980Y338839
X375020Y338839
T03
X312800Y211500
X324200Y211500
X313500Y245500
X313500Y255500
X313500Y265500
X313500Y275500
X313500Y285500
X313500Y295500
X313500Y305500
X313500Y315500
X312800Y349500
X324200Y349500
X440800Y349500
X452200Y349500
X451500Y320500
X451500Y310500
X451500Y300500
X451500Y290500
X451500Y280500
X451500Y270500
X451500Y260500
X451500Y250500
X451500Y240500
X452200Y211500
X440800Y211500
M30
