G75*
%MOIN*%
%OFA0B0*%
%FSLAX25Y25*%
%IPPOS*%
%LPD*%
%AMOC8*
5,1,8,0,0,1.08239X$1,22.5*
%
%ADD10R,0.03556X0.04343*%
%ADD11C,0.04146*%
%ADD12C,0.08200*%
%ADD13R,0.08200X0.08200*%
%ADD14R,0.05131X0.04737*%
%ADD15R,0.04737X0.05131*%
%ADD16C,0.04400*%
D10*
X0431941Y0314500D03*
X0437059Y0314500D03*
D11*
X0389980Y0338839D03*
X0375020Y0338839D03*
D12*
X0312800Y0211500D03*
X0324200Y0211500D03*
X0313500Y0255500D03*
X0313500Y0265500D03*
X0313500Y0275500D03*
X0313500Y0285500D03*
X0313500Y0295500D03*
X0313500Y0305500D03*
X0313500Y0315500D03*
X0312800Y0349500D03*
X0324200Y0349500D03*
X0440800Y0349500D03*
X0452200Y0349500D03*
X0451500Y0320500D03*
X0451500Y0310500D03*
X0451500Y0300500D03*
X0451500Y0290500D03*
X0451500Y0280500D03*
X0451500Y0270500D03*
X0451500Y0260500D03*
X0451500Y0250500D03*
X0451500Y0240500D03*
X0452200Y0211500D03*
X0440800Y0211500D03*
D13*
X0313500Y0245500D03*
D14*
X0415154Y0333500D03*
X0421846Y0333500D03*
D15*
X0437500Y0327846D03*
X0437500Y0321154D03*
X0361500Y0285846D03*
X0361500Y0279154D03*
X0344500Y0284154D03*
X0344500Y0290846D03*
X0328500Y0285846D03*
X0328500Y0279154D03*
X0330500Y0270846D03*
X0330500Y0264154D03*
X0344500Y0264154D03*
X0344500Y0270846D03*
X0347500Y0242846D03*
X0347500Y0236154D03*
X0333500Y0236154D03*
X0333500Y0242846D03*
X0361500Y0242846D03*
X0361500Y0236154D03*
D16*
X0367500Y0226500D03*
X0369500Y0221500D03*
X0357500Y0217500D03*
X0383500Y0242500D03*
X0395500Y0249500D03*
X0400500Y0249500D03*
X0404500Y0262500D03*
X0407500Y0269500D03*
X0412500Y0266500D03*
X0420500Y0270500D03*
X0418500Y0275500D03*
X0423500Y0278500D03*
X0422500Y0283500D03*
X0413500Y0283500D03*
X0407500Y0275500D03*
X0423500Y0265500D03*
X0422500Y0252500D03*
X0438500Y0257500D03*
X0439500Y0265500D03*
X0435500Y0289500D03*
X0432500Y0303500D03*
X0430500Y0309500D03*
X0425500Y0303500D03*
X0414500Y0298500D03*
X0400500Y0297500D03*
X0394500Y0296500D03*
X0393500Y0281500D03*
X0393500Y0275500D03*
X0391500Y0270500D03*
X0390500Y0265500D03*
X0374500Y0261500D03*
X0362500Y0270500D03*
X0355500Y0263500D03*
X0371500Y0249500D03*
X0336500Y0253500D03*
X0370500Y0281500D03*
X0381500Y0284500D03*
X0361500Y0298500D03*
X0355500Y0299500D03*
X0362500Y0306500D03*
X0363500Y0311500D03*
X0367500Y0304500D03*
X0378500Y0313500D03*
X0387500Y0313500D03*
X0402500Y0318500D03*
X0412500Y0318500D03*
X0404500Y0336500D03*
X0416500Y0341500D03*
X0431500Y0341500D03*
X0440461Y0334012D03*
X0371500Y0320500D03*
X0370500Y0325500D03*
X0353000Y0335000D03*
X0340500Y0329500D03*
X0347500Y0319500D03*
X0339500Y0316500D03*
X0337500Y0303500D03*
X0312500Y0324500D03*
X0312500Y0330500D03*
X0318500Y0338500D03*
X0402500Y0229500D03*
X0430500Y0211500D03*
M02*
