G75*
%MOIN*%
%OFA0B0*%
%FSLAX25Y25*%
%IPPOS*%
%LPD*%
%AMOC8*
5,1,8,0,0,1.08239X$1,22.5*
%
%ADD10R,0.04343X0.04146*%
%ADD11R,0.04146X0.04343*%
%ADD12C,0.08200*%
%ADD13R,0.04343X0.03556*%
%ADD14R,0.07493X0.04737*%
%ADD15R,0.04737X0.07493*%
%ADD16R,0.02375X0.03162*%
%ADD17R,0.04343X0.03950*%
%ADD18C,0.04400*%
D10*
X0140800Y0096517D03*
X0140800Y0101083D03*
X0118800Y0129517D03*
X0118800Y0134083D03*
X0126800Y0183517D03*
X0126800Y0188083D03*
X0134800Y0188083D03*
X0134800Y0183517D03*
X0204800Y0145083D03*
X0204800Y0140517D03*
D11*
X0191083Y0144800D03*
X0186517Y0144800D03*
X0188517Y0100800D03*
X0193083Y0100800D03*
X0169083Y0094800D03*
X0164517Y0094800D03*
X0154083Y0087800D03*
X0149517Y0087800D03*
D12*
X0108100Y0088800D03*
X0119500Y0088800D03*
X0208100Y0088800D03*
X0219500Y0088800D03*
X0218800Y0113800D03*
X0218800Y0123800D03*
X0218800Y0133800D03*
X0218800Y0143800D03*
X0218800Y0153800D03*
X0218800Y0163800D03*
X0218800Y0173800D03*
X0219500Y0198800D03*
X0208100Y0198800D03*
X0169500Y0198800D03*
X0158100Y0198800D03*
X0119500Y0198800D03*
X0108100Y0198800D03*
D13*
X0167800Y0108359D03*
X0167800Y0103241D03*
X0156800Y0101359D03*
X0156800Y0096241D03*
X0147800Y0096241D03*
X0147800Y0101359D03*
D14*
X0177800Y0104721D03*
X0177800Y0094879D03*
D15*
X0138721Y0124800D03*
X0128879Y0124800D03*
D16*
X0174713Y0151139D03*
X0179438Y0151139D03*
X0184162Y0151139D03*
X0188887Y0151139D03*
X0188887Y0168461D03*
X0184162Y0168461D03*
X0179438Y0168461D03*
X0174713Y0168461D03*
D17*
X0158556Y0179635D03*
X0158556Y0183965D03*
X0153044Y0183965D03*
X0153044Y0179635D03*
D18*
X0148800Y0176800D03*
X0141800Y0181800D03*
X0152800Y0188800D03*
X0158050Y0191550D03*
X0165800Y0179800D03*
X0156800Y0174800D03*
X0150800Y0163800D03*
X0132800Y0159800D03*
X0125800Y0176800D03*
X0109800Y0176800D03*
X0174050Y0156050D03*
X0179800Y0156300D03*
X0184300Y0159300D03*
X0188800Y0160800D03*
X0180800Y0162800D03*
X0185800Y0179800D03*
X0177300Y0145800D03*
X0171800Y0143800D03*
X0170800Y0132800D03*
X0181800Y0127800D03*
X0197800Y0130050D03*
X0198800Y0134800D03*
X0195800Y0139800D03*
X0207800Y0116800D03*
X0205800Y0103800D03*
X0199800Y0103800D03*
X0187550Y0095800D03*
X0184800Y0105800D03*
X0175800Y0109800D03*
X0159800Y0107800D03*
X0152800Y0106800D03*
X0158800Y0121800D03*
X0157800Y0128800D03*
X0144800Y0128800D03*
X0123800Y0104800D03*
M02*
