G75*
%MOIN*%
%OFA0B0*%
%FSLAX25Y25*%
%IPPOS*%
%LPD*%
%AMOC8*
5,1,8,0,0,1.08239X$1,22.5*
%
%ADD10R,0.05512X0.06299*%
%ADD11R,0.03543X0.03346*%
%ADD12R,0.03346X0.03543*%
%ADD13R,0.08800X0.04800*%
%ADD14R,0.08661X0.14173*%
%ADD15R,0.00984X0.01575*%
%ADD16R,0.01575X0.00984*%
%ADD17R,0.10236X0.10236*%
%ADD18R,0.14567X0.14567*%
%ADD19R,0.03543X0.03150*%
D10*
X0113288Y0131800D03*
X0124312Y0131800D03*
X0124312Y0144800D03*
X0113288Y0144800D03*
D11*
X0135800Y0141083D03*
X0135800Y0136517D03*
X0145800Y0136517D03*
X0145800Y0141083D03*
X0176800Y0137083D03*
X0176800Y0132517D03*
X0147800Y0106083D03*
X0147800Y0101517D03*
D12*
X0149517Y0094800D03*
X0154083Y0094800D03*
X0156517Y0138800D03*
X0161083Y0138800D03*
X0119083Y0156800D03*
X0114517Y0156800D03*
X0114517Y0162800D03*
X0119083Y0162800D03*
X0119083Y0168800D03*
X0114517Y0168800D03*
X0114517Y0174800D03*
X0119083Y0174800D03*
X0119083Y0181800D03*
X0114517Y0181800D03*
X0130517Y0170800D03*
X0135083Y0170800D03*
X0143517Y0191800D03*
X0148083Y0191800D03*
X0173517Y0179800D03*
X0178083Y0179800D03*
D13*
X0136000Y0100700D03*
X0136000Y0109800D03*
X0136000Y0118900D03*
D14*
X0111599Y0109800D03*
D15*
X0146910Y0150745D03*
X0148879Y0150745D03*
X0150847Y0150745D03*
X0152816Y0150745D03*
X0154784Y0150745D03*
X0156753Y0150745D03*
X0158721Y0150745D03*
X0160690Y0150745D03*
X0160690Y0168855D03*
X0158721Y0168855D03*
X0156753Y0168855D03*
X0154784Y0168855D03*
X0152816Y0168855D03*
X0150847Y0168855D03*
X0148879Y0168855D03*
X0146910Y0168855D03*
X0184863Y0124887D03*
X0186831Y0124887D03*
X0188800Y0124887D03*
X0190769Y0124887D03*
X0192737Y0124887D03*
X0192737Y0110713D03*
X0190769Y0110713D03*
X0188800Y0110713D03*
X0186831Y0110713D03*
X0184863Y0110713D03*
D16*
X0181713Y0113863D03*
X0181713Y0115831D03*
X0181713Y0117800D03*
X0181713Y0119769D03*
X0181713Y0121737D03*
X0195887Y0121737D03*
X0195887Y0119769D03*
X0195887Y0117800D03*
X0195887Y0115831D03*
X0195887Y0113863D03*
X0162855Y0152910D03*
X0162855Y0154879D03*
X0162855Y0156847D03*
X0162855Y0158816D03*
X0162855Y0160784D03*
X0162855Y0162753D03*
X0162855Y0164721D03*
X0162855Y0166690D03*
X0144745Y0166690D03*
X0144745Y0164721D03*
X0144745Y0162753D03*
X0144745Y0160784D03*
X0144745Y0158816D03*
X0144745Y0156847D03*
X0144745Y0154879D03*
X0144745Y0152910D03*
D17*
X0188800Y0117800D03*
D18*
X0153800Y0159800D03*
D19*
X0185044Y0138965D03*
X0185044Y0134635D03*
X0190556Y0134635D03*
X0190556Y0138965D03*
M02*
