%
M48
M72
T01C0.02000
T02C0.04000
%
T01
X123800Y104800
X152800Y106800
X159800Y107800
X175800Y109800
X184800Y105800
X187550Y95800
X199800Y103800
X205800Y103800
X207800Y116800
X197800Y130050
X198800Y134800
X195800Y139800
X177300Y145800
X171800Y143800
X170800Y132800
X181800Y127800
X158800Y121800
X157800Y128800
X144800Y128800
X174050Y156050
X179800Y156300
X184300Y159300
X188800Y160800
X180800Y162800
X185800Y179800
X165800Y179800
X156800Y174800
X148800Y176800
X141800Y181800
X152800Y188800
X158050Y191550
X125800Y176800
X109800Y176800
X132800Y159800
X150800Y163800
T02
X108100Y88800
X119500Y88800
X208100Y88800
X219500Y88800
X218800Y113800
X218800Y123800
X218800Y133800
X218800Y143800
X218800Y153800
X218800Y163800
X218800Y173800
X219500Y198800
X208100Y198800
X169500Y198800
X158100Y198800
X119500Y198800
X108100Y198800
M30
